<?xml version="1.0" encoding="utf-8"?>
<!-- Generator: Adobe Illustrator 18.1.1, SVG Export Plug-In . SVG Version: 6.00 Build 0)  -->
<svg version="1.1" id="Layer_1" xmlns="http://www.w3.org/2000/svg" xmlns:xlink="http://www.w3.org/1999/xlink" x="0px" y="0px"
	 viewBox="0 0 50 100" enable-background="new 0 0 50 100" xml:space="preserve">
<polygon fill="#817A72" points="20.3,15.3 20.3,24.7 20.3,24.7 23.1,27.5 23.1,30.3 26.9,30.3 26.9,27.5 29.7,24.7 29.7,15.3 "/>
<path fill="#0A3160" d="M25,12.9c0-2.6-2.1-4.7-4.7-4.7c-2.6,0-4.7,2.1-4.7,4.7c0,2.6,2.1,4.7,4.7,4.7v4.7l4.7-4.7h4.7v-4.7H25z"/>
<path fill="#6089B0" d="M39.2,27.5H10.8c-4,0-7.8,1.3-10.8,3.4v15.4V50h1.4v-3.6c0-5.2,4.2-9.4,9.4-9.4V50h28.3V36.9
	c5.2,0,9.4,4.2,9.4,9.4V50H50v-3.6V30.9C46.9,28.8,43.2,27.5,39.2,27.5z"/>
<polygon fill="#7B7B7B" points="20.3,65.3 20.3,74.7 20.3,74.7 23.1,77.5 23.1,80.3 26.9,80.3 26.9,77.5 29.7,74.7 29.7,65.3 "/>
<path fill="#333333" d="M25,62.9c0-2.6-2.1-4.7-4.7-4.7c-2.6,0-4.7,2.1-4.7,4.7c0,2.6,2.1,4.7,4.7,4.7v4.7l4.7-4.7h4.7v-4.7H25z"/>
<path fill="#898989" d="M39.2,77.5H10.8c-4,0-7.8,1.3-10.8,3.4v15.4v3.6h1.4v-3.6c0-5.2,4.2-9.4,9.4-9.4V100h28.3V86.9
	c5.2,0,9.4,4.2,9.4,9.4v3.6H50v-3.6V80.9C46.9,78.8,43.2,77.5,39.2,77.5z"/>
</svg>
