<?xml version="1.0" encoding="utf-8"?>
<!-- Generator: Adobe Illustrator 18.1.1, SVG Export Plug-In . SVG Version: 6.00 Build 0)  -->
<svg version="1.1" id="Layer_1" xmlns="http://www.w3.org/2000/svg" xmlns:xlink="http://www.w3.org/1999/xlink" x="0px" y="0px"
	 viewBox="0 0 50 100" enable-background="new 0 0 50 100" xml:space="preserve">
<path fill="#FFBF0D" d="M27.8,27.5h11.8l-9.9-9.9h0v-4.7h-9.4c-2.6,0-4.7,2.1-4.7,4.7v9.9v1.8h24v-1.8L27.8,27.5L27.8,27.5z"/>
<g>
	<rect x="23.1" y="27.5" fill="#FFFFFF" width="3.8" height="4.2"/>
	<polygon fill="#FFFFFF" points="25,17.6 20.3,22.3 20.3,24.7 20.3,24.7 23.1,27.5 26.9,27.5 29.7,24.7 29.7,17.6 	"/>
</g>
<path fill="#FF4943" d="M39.2,27.5H10.8c-4,0-7.8,1.3-10.8,3.4v15.4V50h1.4v-3.6c0-5.2,4.2-9.4,9.4-9.4V50h28.3V36.9
	c5.2,0,9.4,4.2,9.4,9.4V50H50v-3.6V30.9C46.9,28.8,43.2,27.5,39.2,27.5z"/>
<path fill="#BFBFBF" d="M27.8,77.5h11.8l-9.9-9.9h0v-4.7h-9.4c-2.6,0-4.7,2.1-4.7,4.7v9.9v1.8h24v-1.8L27.8,77.5L27.8,77.5z"/>
<g>
	<rect x="23.1" y="77.5" fill="#FFFFFF" width="3.8" height="4.2"/>
	<polygon fill="#FFFFFF" points="25,67.6 20.3,72.3 20.3,74.7 20.3,74.7 23.1,77.5 26.9,77.5 29.7,74.7 29.7,67.6 	"/>
</g>
<path fill="#898989" d="M39.2,77.5H10.8c-4,0-7.8,1.3-10.8,3.4v15.4v3.6h1.4v-3.6c0-5.2,4.2-9.4,9.4-9.4V100h28.3V86.9
	c5.2,0,9.4,4.2,9.4,9.4v3.6H50v-3.6V80.9C46.9,78.8,43.2,77.5,39.2,77.5z"/>
</svg>
