<?xml version="1.0" encoding="UTF-8" standalone="no"?>
<!-- Generator: Adobe Illustrator 18.1.1, SVG Export Plug-In . SVG Version: 6.00 Build 0)  -->

<svg
   xmlns:dc="http://purl.org/dc/elements/1.1/"
   xmlns:cc="http://creativecommons.org/ns#"
   xmlns:rdf="http://www.w3.org/1999/02/22-rdf-syntax-ns#"
   xmlns:svg="http://www.w3.org/2000/svg"
   xmlns="http://www.w3.org/2000/svg"
   xmlns:sodipodi="http://sodipodi.sourceforge.net/DTD/sodipodi-0.dtd"
   xmlns:inkscape="http://www.inkscape.org/namespaces/inkscape"
   version="1.1"
   id="Layer_1"
   x="0px"
   y="0px"
   viewBox="0 0 50 100"
   enable-background="new 0 0 50 100"
   xml:space="preserve"
   inkscape:version="0.91 r13725"
   sodipodi:docname="Persona-01.svg"><metadata
     id="metadata27"><rdf:RDF><cc:Work
         rdf:about=""><dc:format>image/svg+xml</dc:format><dc:type
           rdf:resource="http://purl.org/dc/dcmitype/StillImage" /><dc:title></dc:title></cc:Work></rdf:RDF></metadata><defs
     id="defs25" /><sodipodi:namedview
     pagecolor="#ffffff"
     bordercolor="#666666"
     borderopacity="1"
     objecttolerance="10"
     gridtolerance="10"
     guidetolerance="10"
     inkscape:pageopacity="0"
     inkscape:pageshadow="2"
     inkscape:window-width="1379"
     inkscape:window-height="798"
     id="namedview23"
     showgrid="false"
     inkscape:zoom="4.72"
     inkscape:cx="10.202515"
     inkscape:cy="33.048061"
     inkscape:window-x="133"
     inkscape:window-y="132"
     inkscape:window-maximized="0"
     inkscape:current-layer="Layer_1" /><g
     id="g4187"
     transform="matrix(0.11882111,0,0,0.11882111,16.958467,50.769209)"><polygon
       id="polygon3"
       points="320.371,128.809 283.328,128.809 258.072,187.742 258.072,207.947 258.072,207.947 281.644,231.52 281.644,263.512 313.636,263.512 313.636,231.52 337.209,207.947 337.209,148.173 "
       style="fill:#817a72"
       transform="translate(-229.84339,-427.36614)" /><polygon
       id="polygon5"
       points="337.209,108.604 258.072,108.604 258.072,187.742 297.64,148.173 337.209,148.173 "
       style="fill:#ffffff"
       transform="translate(-229.84339,-427.36614)" /><path
       id="path7"
       d="m 278.26961,-6.4211441 0,-160.8009959 c -26.099,-18.521 -57.249,-28.625 -90.924,-28.625 l -239.097,0 c -33.676,0 -65.668,10.945 -90.925,28.625 l 0,160.8009959 11.787,0 0,-30.3079999 0,0 c 0,-43.778 35.359,-79.137996 79.138,-79.137996 l 0,109.4459959 238.254,0 0,-110.2879959 c 43.778,0 79.138,35.359996 79.138,79.137996 l 0,31.1499999 12.629,0 z"
       style="fill:#ffbf0d"
       inkscape:connector-curvature="0" /><polygon
       id="polygon9-7"
       points="320.371,549.754 274.909,549.754 258.072,608.687 258.072,628.892 258.072,628.892 281.644,652.465 281.644,684.457 313.636,684.457 313.636,652.465 337.209,628.892 337.209,569.118 "
       style="fill:#7b7b7b"
       transform="translate(-229.84339,-427.36614)" /><polygon
       id="polygon11"
       points="337.209,529.549 258.072,529.549 258.072,608.687 297.64,569.118 337.209,569.118 "
       style="fill:#ffffff"
       transform="translate(-229.84339,-427.36614)" /><path
       id="path13-4"
       d="m 278.26961,414.52486 0,-160.802 c -26.099,-18.521 -57.249,-28.624 -90.924,-28.624 l -239.097,0 c -33.676,0 -65.668,10.944 -90.925,28.624 l 0,160.802 11.787,0 0,-30.309 0,0 c 0,-43.778 35.359,-79.138 79.138,-79.138 l 0,109.446 238.254,0 0,-110.287 c 43.778,0 79.138,35.359 79.138,79.138 l 0,30.308 12.629,0 0,0.842 z"
       style="fill:#898989"
       inkscape:connector-curvature="0" /></g></svg>