<?xml version="1.0" encoding="UTF-8" standalone="no"?>
<!-- Generator: Adobe Illustrator 18.1.1, SVG Export Plug-In . SVG Version: 6.00 Build 0)  -->

<svg
   xmlns:dc="http://purl.org/dc/elements/1.1/"
   xmlns:cc="http://creativecommons.org/ns#"
   xmlns:rdf="http://www.w3.org/1999/02/22-rdf-syntax-ns#"
   xmlns:svg="http://www.w3.org/2000/svg"
   xmlns="http://www.w3.org/2000/svg"
   xmlns:sodipodi="http://sodipodi.sourceforge.net/DTD/sodipodi-0.dtd"
   xmlns:inkscape="http://www.inkscape.org/namespaces/inkscape"
   version="1.1"
   id="Layer_1"
   x="0px"
   y="0px"
   viewBox="0 0 50 100"
   enable-background="new 0 0 50 100"
   xml:space="preserve"
   inkscape:version="0.91 r13725"
   sodipodi:docname="Persona-03.svg"><metadata
     id="metadata27"><rdf:RDF><cc:Work
         rdf:about=""><dc:format>image/svg+xml</dc:format><dc:type
           rdf:resource="http://purl.org/dc/dcmitype/StillImage" /><dc:title></dc:title></cc:Work></rdf:RDF></metadata><defs
     id="defs25" /><sodipodi:namedview
     pagecolor="#ffffff"
     bordercolor="#666666"
     borderopacity="1"
     objecttolerance="10"
     gridtolerance="10"
     guidetolerance="10"
     inkscape:pageopacity="0"
     inkscape:pageshadow="2"
     inkscape:window-width="1379"
     inkscape:window-height="798"
     id="namedview23"
     showgrid="false"
     inkscape:zoom="9.44"
     inkscape:cx="21.718011"
     inkscape:cy="59.952959"
     inkscape:window-x="133"
     inkscape:window-y="132"
     inkscape:window-maximized="0"
     inkscape:current-layer="Layer_1" /><g
     transform="matrix(0.11914653,0,0,0.11914653,-10.477296,-0.22481776)"
     id="g4952"><polygon
       style="fill:#ffffff"
       id="polygon4394"
       points="337.209,128.809 283.328,128.809 258.072,187.742 258.072,207.947 258.072,207.947 281.644,231.52 281.644,255.093 313.636,255.093 313.636,231.52 337.209,207.947 " /><path
       style="fill:#ffbf0d"
       inkscape:connector-curvature="0"
       id="path4396"
       d="m 417.189,231.52 -239.097,0 c -33.676,0 -65.668,10.945 -90.925,28.625 l 0,129.651 0,31.15 11.787,0 0,-30.308 c 0,-43.778 35.359,-79.138 79.138,-79.138 l 0,109.446 238.254,0 0,-110.289 c 43.778,0 79.138,35.36 79.138,79.138 l 0,31.15 12.629,0 0,-30.308 0,-130.493 C 482.014,242.464 450.864,231.52 417.189,231.52 Z" /><path
       style="fill:#0a3160"
       inkscape:connector-curvature="0"
       id="path4398"
       d="m 337.209,69.035 c -21.89,0 -39.569,17.68 -39.569,39.569 l -39.568,0 0,39.569 0,39.569 39.568,-39.569 0,0 39.569,0 c 21.889,0 39.568,-17.68 39.568,-39.569 0,-21.889 -17.679,-39.569 -39.568,-39.569 z" /><polygon
       style="fill:#ffffff"
       id="polygon4400"
       points="337.209,549.754 283.328,549.754 258.072,608.687 258.072,628.892 258.072,628.892 281.644,652.465 281.644,676.038 313.636,676.038 313.636,652.465 337.209,628.892 " /><path
       style="fill:#898989"
       inkscape:connector-curvature="0"
       id="path4402"
       d="m 417.189,652.465 -239.097,0 c -33.676,0 -65.668,10.944 -90.925,28.624 l 0,129.651 0,30.308 11.787,0 0,-30.308 c 0,-43.778 35.359,-79.138 79.138,-79.138 l 0,110.288 238.254,0 0,-110.287 c 43.778,0 79.138,35.359 79.138,79.138 l 0,30.308 12.629,0 0,-30.309 0,-129.651 c -26.099,-17.68 -57.249,-28.624 -90.924,-28.624 z" /><path
       style="fill:#333333"
       inkscape:connector-curvature="0"
       id="path4404"
       d="m 337.209,489.98 c -21.89,0 -39.569,17.68 -39.569,39.568 l -39.568,0 0,39.569 0,39.568 39.568,-39.568 0,0 39.569,0 c 21.889,0 39.568,-17.68 39.568,-39.569 0.001,-21.888 -17.679,-39.568 -39.568,-39.568 z" /></g></svg>