<?xml version="1.0" encoding="utf-8"?>
<!-- Generator: Adobe Illustrator 18.1.1, SVG Export Plug-In . SVG Version: 6.00 Build 0)  -->
<svg version="1.1" id="Layer_1" xmlns="http://www.w3.org/2000/svg" xmlns:xlink="http://www.w3.org/1999/xlink" x="0px" y="0px"
	 viewBox="0 0 50 100" enable-background="new 0 0 50 100" xml:space="preserve">
<polygon fill="#817A72" points="23.3,15.3 20.3,22.3 20.3,24.7 20.3,24.7 23.1,27.5 23.1,31.3 26.9,31.3 26.9,27.5 29.7,24.7 
	29.7,17.6 27.7,15.3 "/>
<polygon fill="#FFFFFF" points="25,17.6 29.7,17.6 29.7,12.9 20.3,12.9 20.3,22.3 "/>
<path fill="#00D373" d="M50,50V30.9c-3.1-2.2-6.8-3.4-10.8-3.4H10.8c-4,0-7.8,1.3-10.8,3.4V50h1.4v-3.6h0c0-5.2,4.2-9.4,9.4-9.4V50
	h28.3V36.9c5.2,0,9.4,4.2,9.4,9.4V50H50z"/>
<polygon fill="#7B7B7B" points="22.3,65.3 20.3,72.3 20.3,74.7 20.3,74.7 23.1,77.5 23.1,81.3 26.9,81.3 26.9,77.5 29.7,74.7 
	29.7,67.6 27.7,65.3 "/>
<polygon fill="#FFFFFF" points="25,67.6 29.7,67.6 29.7,62.9 20.3,62.9 20.3,72.3 "/>
<path fill="#898989" d="M50,100V80.9c-3.1-2.2-6.8-3.4-10.8-3.4H10.8c-4,0-7.8,1.3-10.8,3.4V100h1.4v-3.6h0c0-5.2,4.2-9.4,9.4-9.4
	V100h28.3V86.9c5.2,0,9.4,4.2,9.4,9.4v3.6H50z"/>
</svg>
