<?xml version="1.0" encoding="UTF-8" standalone="no"?>
<svg
   xmlns:dc="http://purl.org/dc/elements/1.1/"
   xmlns:cc="http://creativecommons.org/ns#"
   xmlns:rdf="http://www.w3.org/1999/02/22-rdf-syntax-ns#"
   xmlns:svg="http://www.w3.org/2000/svg"
   xmlns="http://www.w3.org/2000/svg"
   version="1.1"
   id="svg2"
   viewBox="0 0 600 800.00002"
   height="800"
   width="600">
  <defs
     id="defs4" />
  <metadata
     id="metadata7">
    <rdf:RDF>
      <cc:Work
         rdf:about="">
        <dc:format>image/svg+xml</dc:format>
        <dc:type
           rdf:resource="http://purl.org/dc/dcmitype/StillImage" />
        <dc:title></dc:title>
      </cc:Work>
    </rdf:RDF>
  </metadata>
  <g
     transform="translate(0,-252.36214)"
     id="layer1">
    <path
       d="m 353.17034,298.68807 c -24.68489,-0.7249 -49.38295,-0.85771 -74.07635,-1.01944 -40.10173,-0.0764 -80.20787,-0.94418 -120.23448,1.88167 -17.96269,1.87703 -36.03154,5.25645 -52.79906,12.2441 -3.44267,1.43469 -13.259607,6.79799 -10.126557,4.76606 6.096647,-3.95398 12.705987,-7.03945 19.058997,-10.55916 -21.606004,15.99658 -38.154093,37.8445 -53.234481,59.92816 -7.402342,13.67685 -19.36662,31.80836 -17.718997,48.32352 0.193202,1.93658 0.955757,3.77152 1.433638,5.65728 1.031789,1.51708 1.808895,3.24699 3.095373,4.55126 6.576803,6.6678 17.289041,9.73839 25.975841,11.73122 13.519847,3.10154 22.793816,3.66307 36.895536,5.23321 64.09623,5.85438 128.45963,2.00948 192.6249,-0.23379 69.53388,-1.86538 139.0978,-0.7873 208.51659,3.54562 17.19561,1.41102 34.55674,2.056 51.57052,5.19545 3.65387,0.67423 10.6356,2.21022 14.2847,4.23575 1.30707,0.72555 2.30417,1.91207 3.45625,2.86811 0.633,1.1795 1.46094,2.27221 1.89896,3.53854 2.66965,7.71793 -0.37098,18.52464 -2.1614,26.11333 -1.882,6.63338 -4.49236,13.16848 -8.67606,18.70758 -12.15986,16.09934 -36.41494,25.754 -51.54331,34.47581 -38.31579,15.71734 -80.01923,17.77236 -120.79573,20.27159 -54.74119,3.91031 -109.63704,4.59881 -164.34358,8.94857 -30.35592,2.80482 -61.38429,4.47583 -90.17058,15.39123 -1.77195,1.06993 -7.13616,4.19367 -5.31584,3.20979 43.76502,-23.65481 29.13341,-19.93314 22.46594,-10.80301 -2.74791,3.76285 -3.92096,8.13077 -5.23052,12.52913 -2.49113,9.06453 -3.257,18.38372 0.27504,27.30993 0.76786,1.94056 1.85503,3.73656 2.78256,5.60484 10.89153,16.70674 28.30716,23.68739 46.42364,29.70241 34.01574,8.12653 69.32207,8.12946 104.0921,8.74917 31.00817,0.51308 62.03727,-0.56277 93.01934,1.08678 11.34491,0.72488 22.2049,2.78597 32.05568,8.60154 6.36667,4.88193 11.40547,11.18959 16.0103,17.71945 4.5297,6.40959 7.6642,13.4202 8.72773,21.21815 0.83036,9.13983 -4.10999,16.05677 -9.98628,22.41021 -14.9861,12.91036 -32.41296,23.34865 -50.84646,30.44685 -5.12658,1.97409 -11.00439,3.8139 -16.19242,5.51024 -31.70506,7.78229 -64.26761,10.78899 -96.54085,15.15812 -37.08246,5.21355 -74.09413,10.87393 -110.8066,18.32374 -15.4966,2.75511 -29.94926,8.56966 -43.55973,16.35217 48.38991,-28.66196 22.95475,-14.10797 13.60141,-5.0858 -3.53092,3.40592 -4.27546,4.50335 -7.44386,8.28912 -8.3534,10.39889 -14.26257,22.44824 -18.56067,35.04105 -3.29031,11.37897 -2.33314,19.29162 2.30023,29.9283 6.19007,12.10661 14.50371,22.95759 23.79437,32.78398 11.94398,11.66697 25.64121,21.32173 41.05399,27.75098 4.06312,1.69488 8.27974,2.98828 12.41958,4.48241 30.91345,9.61462 63.22855,9.42594 95.20324,8.33423 31.03378,-2.24402 61.8299,-6.87542 92.62473,-11.23327 16.53464,-2.51017 33.12699,-4.57773 49.82795,-5.46781 8.17983,-0.46692 16.30352,-2.59452 24.50976,-2.04605 6.7998,0.59774 13.55882,1.86344 20.19837,3.45479 6.57064,1.12429 12.81392,2.82327 19.01661,5.2556 8.2079,3.41296 16.28077,7.24931 24.04824,11.58684 5.55567,2.35133 9.33043,6.62101 12.97421,11.24643 3.29343,4.23729 4.69884,9.25002 5.46568,14.4773 0.53393,4.79721 0.49277,9.63333 0.48748,14.45315 -0.0116,3.1654 -0.0278,6.331 -0.0404,9.4963 0,0 -31.02755,15.9275 -31.02755,15.9275 l 0,0 c 0.0117,-3.1642 0.0252,-6.3285 0.0428,-9.4928 0.0191,-4.68 0.0848,-9.3697 -0.27463,-14.0397 -0.51621,-4.63981 -1.51443,-9.09637 -4.4926,-12.82787 -3.41203,-4.22979 -7.00368,-7.94925 -12.05034,-10.23182 -7.64018,-4.27473 -15.55045,-8.12199 -23.77509,-11.11679 -6.14379,-2.11441 -12.42169,-3.51176 -18.77033,-4.86317 -6.56018,-1.33746 -13.16787,-2.65793 -19.87761,-2.84897 -8.01695,0.21545 -15.955,1.56852 -23.96502,1.95945 -16.23084,0.8257 -32.38463,2.59772 -48.48567,4.81111 -30.67204,4.00327 -61.30333,8.6204 -92.19817,10.50123 -32.4236,0.98107 -65.2169,0.93422 -96.51999,-8.90018 -4.25439,-1.54562 -8.58157,-2.90093 -12.76318,-4.63682 -15.85584,-6.58208 -30.151,-16.30256 -42.44025,-28.32055 -9.58608,-10.09617 -18.24181,-21.17358 -24.838111,-33.51524 -5.000784,-10.93221 -6.529828,-20.50078 -3.209238,-32.32689 4.027226,-12.88609 9.873409,-25.23069 17.887659,-36.10737 14.9454,-19.28252 28.51378,-25.2458 51.93035,-38.38546 13.49298,-7.19954 27.8789,-12.15891 43.0044,-14.57347 36.43515,-6.57837 73.06784,-11.87707 109.68957,-17.26816 32.81576,-4.62797 66.00345,-7.98001 97.99879,-17.04537 5.48106,-1.9094 10.95038,-3.69291 16.28778,-5.99052 2.25081,-0.96891 8.71042,-4.47472 6.64038,-3.15827 -44.23974,28.13429 -23.26294,14.10008 -13.97508,7.17456 5.48445,-5.39881 11.20368,-11.18604 10.91996,-19.49819 -0.42528,-7.28909 -3.55896,-13.80113 -7.72922,-19.69612 -4.37883,-6.09524 -9.04447,-12.10983 -15.25299,-16.42852 -9.29784,-5.17614 -19.61626,-7.0635 -30.13093,-8.04192 -30.41835,-2.20886 -60.92542,-1.48276 -91.39723,-2.09083 -35.37444,-0.70529 -71.33434,-0.34589 -105.94921,-8.63321 -19.29886,-6.52797 -36.87061,-13.75732 -48.70025,-31.37216 -1.03596,-2.02604 -2.23369,-3.97596 -3.10786,-6.07812 -3.90921,-9.40065 -3.80292,-19.22164 -1.40371,-28.96824 1.06582,-4.05553 3.66259,-15.21603 7.23908,-17.66544 23.68095,-16.21822 23.08803,-15.69714 38.44879,-23.03164 28.44163,-9.14281 58.54167,-10.24986 88.08335,-12.73709 54.60889,-3.84944 109.38764,-4.27639 163.97336,-8.6431 41.45702,-3.00735 84.00075,-5.77551 122.42467,-23.26029 -6.18965,3.77579 -12.17767,7.91023 -18.56896,11.32736 -2.77769,1.48512 5.27289,-3.48005 7.68804,-5.5098 5.48537,-4.61004 9.7058,-10.60547 12.51298,-17.20204 0.82745,-1.9444 1.37191,-3.99921 2.05786,-5.9988 1.72256,-6.83 4.57428,-16.58871 2.819,-23.68608 -0.20829,-0.84214 -0.70981,-1.58144 -1.06471,-2.37217 -4.63142,-3.9009 -9.50611,-5.15184 -15.43631,-6.50574 -16.10009,-3.67573 -32.63416,-4.93713 -49.00772,-6.65318 -68.7301,-5.63093 -137.73195,-6.62594 -206.65194,-4.51748 -65.1149,2.54368 -130.37915,6.65135 -195.496394,1.81788 -14.328326,-1.33588 -24.688431,-1.80609 -38.526566,-4.78989 -9.669294,-2.08491 -21.261045,-5.42266 -28.366689,-13.00086 -1.514888,-1.61563 -2.414733,-3.72106 -3.6221,-5.58159 -0.564095,-2.19219 -1.445579,-4.32549 -1.692283,-6.57658 -1.90233,-17.35811 10.575345,-36.19711 18.205912,-50.681 14.780407,-22.26169 31.178436,-44.11602 52.055734,-60.93744 12.590335,-7.41955 25.005726,-15.14959 37.771026,-22.25865 3.25055,-1.81025 6.7505,-3.13585 10.22076,-4.46826 16.77127,-6.43927 34.70325,-9.4035 52.50799,-10.90061 39.93928,-2.18585 79.91535,-1.0061 119.8964,-1.38654 25.62107,-0.16485 51.24593,-0.31327 76.8592,-1.01945 0,0 -28.18313,20.64863 -28.18313,20.64863 z"
       id="path4142"
       style="opacity:1;fill:#000000;fill-opacity:1;fill-rule:evenodd;stroke:none;stroke-width:2.33773994;stroke-linecap:butt;stroke-linejoin:miter;stroke-miterlimit:2.79999995;stroke-dasharray:28.05287779, 2.33773981999999991;stroke-dashoffset:0;stroke-opacity:1" />
    <rect
       y="256.36194"
       x="4.0406103"
       height="793.97992"
       width="593.96973"
       id="rect4165"
       style="opacity:1;fill:none;fill-opacity:1;fill-rule:evenodd;stroke:#000000;stroke-width:2;stroke-linecap:butt;stroke-linejoin:miter;stroke-miterlimit:2.79999995;stroke-dasharray:24, 2;stroke-dashoffset:0;stroke-opacity:1" />
  </g>
</svg>
