<?xml version="1.0" encoding="UTF-8" standalone="no"?>
<svg
   xmlns:dc="http://purl.org/dc/elements/1.1/"
   xmlns:cc="http://creativecommons.org/ns#"
   xmlns:rdf="http://www.w3.org/1999/02/22-rdf-syntax-ns#"
   xmlns:svg="http://www.w3.org/2000/svg"
   xmlns="http://www.w3.org/2000/svg"
   xmlns:sodipodi="http://sodipodi.sourceforge.net/DTD/sodipodi-0.dtd"
   xmlns:inkscape="http://www.inkscape.org/namespaces/inkscape"
   height="32px"
   version="1.1"
   viewBox="0 0 32 32"
   width="32px"
   id="svg4189"
   inkscape:version="0.91 r13725"
   sodipodi:docname="swipe.svg">
  <metadata
     id="metadata4202">
    <rdf:RDF>
      <cc:Work
         rdf:about="">
        <dc:format>image/svg+xml</dc:format>
        <dc:type
           rdf:resource="http://purl.org/dc/dcmitype/StillImage" />
        <dc:title />
      </cc:Work>
    </rdf:RDF>
  </metadata>
  <sodipodi:namedview
     pagecolor="#ffffff"
     bordercolor="#666666"
     borderopacity="1"
     objecttolerance="10"
     gridtolerance="10"
     guidetolerance="10"
     inkscape:pageopacity="0"
     inkscape:pageshadow="2"
     inkscape:window-width="1680"
     inkscape:window-height="997"
     id="namedview4200"
     showgrid="false"
     inkscape:zoom="19.26866"
     inkscape:cx="3.9956946"
     inkscape:cy="15.950879"
     inkscape:window-x="0"
     inkscape:window-y="0"
     inkscape:window-maximized="1"
     inkscape:current-layer="svg4189" />
  <desc
     id="desc4193" />
  <defs
     id="defs4195" />
  <g
     transform="translate(0.09551611,-0.09855633)"
     id="Page-1-7"
     style="fill:none;fill-opacity:1;fill-rule:evenodd;stroke:#ffffff;stroke-width:3;stroke-linecap:round;stroke-linejoin:round;stroke-miterlimit:0;stroke-dasharray:none;stroke-opacity:1">
    <g
       id="icon-18-one-finger-swipe-left-2"
       style="fill:none;fill-opacity:1;stroke:#ffffff;stroke-width:3;stroke-linecap:round;stroke-linejoin:round;stroke-miterlimit:0;stroke-dasharray:none;stroke-opacity:1">
      <path
         inkscape:connector-curvature="0"
         d="m 13,7 -7.049999,0 3.25,3.25 -0.75,0.75 -4.5,-4.5 4.5,-4.5 0.75,0.75 -3.25,3.25 7.100929,0 C 13.284308,4.8536516 14.292118,4 15.5,4 16.890338,4 18,5.1230528 18,6.5084086 l 0,4.9899564 C 18.41783,11.185305 18.937197,11 19.5,11 c 1.082518,0 1.994885,0.677467 2.345817,1.628124 C 22.286593,12.237989 22.865711,12 23.5,12 c 1.390338,0 2.5,1.118226 2.5,2.497627 l 0,0.01346 c 0.41783,-0.312572 0.937197,-0.496897 1.5,-0.496897 1.390338,0 2.5,1.119345 2.5,2.500126 L 30,22.5 C 30,27.194421 26.194421,31 21.5,31 18.387085,31 15.101807,29.547486 12.84082,25.428223 9.5773317,19.482516 5.4038529,15.583208 7.3911133,13.595947 8.8127624,12.174298 11.044842,13.538167 13,15.366787 l 0,0 L 13,7 13,7 Z m 8.498739,23 C 25.641571,30 29,26.414775 29,22.5 c 0,0 0,2.313244 0,0 l 0,-3.750838 0,-2.247486 C 29,15.672323 28.334203,15 27.5,15 26.671573,15 26,15.671189 26,16.501676 L 26,17 25,17 25,14.506439 C 25,13.674456 24.334203,13 23.5,13 22.671573,13 22,13.671541 22,14.506439 L 22,16 21,16 21,13.506439 C 21,12.674456 20.334203,12 19.5,12 18.671573,12 18,12.671541 18,13.506439 L 18,17 17,17 17,6.5052412 C 17,5.6739194 16.334203,5 15.5,5 14.671573,5 14,5.6671298 14,6.5052412 L 14,17.799988 C 11.9416,15.599567 9.2316298,13.179121 8.1210327,14.295715 7.0338629,15.388756 9.835362,18.400722 13.747376,24.983094 15.509996,27.948888 17.740285,29.999542 21.498739,30 l 0,0 z"
         id="one-finger-swipe-left-9"
         style="fill:none;fill-opacity:1;stroke:#ffffff;stroke-width:3;stroke-linecap:round;stroke-linejoin:round;stroke-miterlimit:0;stroke-dasharray:none;stroke-opacity:1" />
    </g>
  </g>
  <path
     style="opacity:1;fill:#ffffff;fill-opacity:1;fill-rule:evenodd;stroke:#ffffff;stroke-width:3;stroke-linecap:round;stroke-linejoin:round;stroke-miterlimit:0;stroke-dasharray:none;stroke-dashoffset:0;stroke-opacity:1"
     d="m 20.639302,28.323545 c -2.207392,-0.261364 -3.870461,-1.543111 -5.49717,-4.236734 -0.842343,-1.394814 -1.902506,-3.081396 -2.928676,-4.659147 -1.354955,-2.083261 -2.090417,-3.253938 -2.062059,-3.282297 0.07145,-0.07145 1.862632,1.536995 2.526918,2.269113 0.206933,0.228064 0.459707,0.46978 0.561721,0.537147 0.782305,0.516617 1.837276,0.221648 2.235233,-0.624969 0.06172,-0.131296 0.124585,-0.395859 0.14122,-0.594286 l 0.02998,-0.35764 0.0917,0.204824 c 0.131634,0.294014 0.477252,0.606643 0.807083,0.730049 0.236866,0.08862 0.405264,0.106053 1.024604,0.106053 0.911847,0 1.166656,-0.06481 1.526366,-0.388218 0.344401,-0.309646 0.489108,-0.647851 0.52075,-1.217079 l 0.02433,-0.437597 0.102426,0.204058 c 0.149587,0.298013 0.432295,0.570152 0.734306,0.706853 0.242608,0.109814 0.337601,0.119977 1.121375,0.119977 0.761261,0 0.882528,-0.01213 1.092489,-0.109278 0.335949,-0.155443 0.592363,-0.398545 0.746391,-0.707638 l 0.133234,-0.267367 0,0.390003 c 0,0.594382 0.109432,0.88992 0.458719,1.238844 0.40968,0.409253 0.604536,0.467442 1.565293,0.467442 0.55892,0 0.824127,-0.02186 1.00246,-0.08262 0.300931,-0.102538 0.714947,-0.467898 0.861884,-0.760596 l 0.110787,-0.220685 -0.01628,2.958171 -0.01628,2.958172 -0.141121,0.518977 c -0.176964,0.650795 -0.60964,1.540848 -1.010453,2.078597 -0.169099,0.226872 -0.504696,0.600921 -0.745769,0.831218 -1.376367,1.314846 -3.046717,1.858104 -5.001454,1.626655 z"
     id="path5839"
     inkscape:connector-curvature="0" />
  <g
     fill="none"
     fill-rule="evenodd"
     id="Page-1"
     stroke="none"
     stroke-width="1"
     style="stroke:none;stroke-opacity:1;stroke-linecap:square;stroke-width:1;stroke-miterlimit:0;stroke-dasharray:none;fill:#000000;fill-opacity:1">
    <g
       fill="#929292"
       id="icon-18-one-finger-swipe-left"
       style="stroke:none;stroke-opacity:1;stroke-linecap:square;stroke-width:1;stroke-miterlimit:0;stroke-dasharray:none;fill:#000000;fill-opacity:1">
      <path
         d="M13,7 L5.950001,7 L9.200001,10.25 L8.450001,11 L3.950001,6.5 L8.450001,2 L9.200001,2.75 L5.950001,6 L13.0509304,6 C13.284308,4.85365164 14.2921175,4 15.5,4 C16.8903379,4 18,5.12305276 18,6.50840855 L18,11.4983653 C18.4178303,11.1853054 18.937197,11 19.5,11 C20.5825181,11 21.4948851,11.6774672 21.8458175,12.6281239 C22.2865931,12.2379894 22.8657109,12 23.5,12 C24.8903379,12 26,13.1182256 26,14.4976267 L26,14.5110883 C26.4178303,14.1985158 26.937197,14.014191 27.5,14.014191 C28.8903379,14.014191 30,15.1335355 30,16.5143168 L30,22.5 C30,27.1944206 26.1944206,31 21.5,31.0000003 C18.3870848,31.0000003 15.101807,29.5474856 12.8408204,25.4282229 C9.57733174,19.4825159 5.40385286,15.5832077 7.39111327,13.5959473 C8.81276236,12.1742982 11.0448416,13.5381668 13,15.3667868 L13,15.3667868 L13,7 L13,7 Z M21.4987391,29.9999999 C25.6415711,30 29,26.4147752 29,22.5 C29,22.5 29,24.8132437 29,22.5 L29,18.7491622 L29,16.5016756 C29,15.6723231 28.3342028,15 27.5,15 C26.6715729,15 26,15.6711894 26,16.5016756 L26,17 L25,17 L25,14.5064385 C25,13.6744555 24.3342028,13 23.5,13 C22.6715729,13 22,13.6715406 22,14.5064385 L22,16 L21,16 L21,13.5064385 C21,12.6744555 20.3342028,12 19.5,12 C18.6715729,12 18,12.6715406 18,13.5064385 L18,17 L17,17 L17,6.50524116 C17,5.67391942 16.3342028,5 15.5,5 C14.6715729,5 14,5.66712976 14,6.50524116 L14,17.7999878 C11.9416004,15.599567 9.23162978,13.1791206 8.12103271,14.2957153 C7.03386293,15.3887562 9.83536199,18.4007216 13.7473755,24.9830936 C15.5099958,27.9488875 17.7402849,29.9995418 21.4987391,29.9999999 L21.4987391,29.9999999 Z"
         id="one-finger-swipe-left"
         style="stroke:none;stroke-opacity:1;stroke-linecap:square;stroke-width:1;stroke-miterlimit:0;stroke-dasharray:none;fill:#000000;fill-opacity:1" />
    </g>
  </g>
  <g
     style="fill:none;fill-rule:evenodd;stroke:none;stroke-width:1"
     id="Page-1-1">
    <g
       style="fill:#929292"
       id="icon-18-one-finger-swipe-left-5" />
  </g>
</svg>
