<?xml version="1.0" encoding="utf-8"?>
<!-- Generator: Adobe Illustrator 17.0.0, SVG Export Plug-In . SVG Version: 6.00 Build 0)  -->
<!DOCTYPE svg PUBLIC "-//W3C//DTD SVG 1.1//EN" "http://www.w3.org/Graphics/SVG/1.1/DTD/svg11.dtd">
<svg version="1.1" id="Layer_1" xmlns="http://www.w3.org/2000/svg" xmlns:xlink="http://www.w3.org/1999/xlink" x="0px" y="0px"
	 width="650px" height="650px" viewBox="0 0 650 650" enable-background="new 0 0 650 650" xml:space="preserve">
<g>
	<polygon fill="#F1F1F1" points="257.157,388.775 52.355,388.775 52.355,414.952 0,414.952 125.694,540.646 309.512,540.646 
		309.512,414.952 257.157,414.952 	"/>
	<polygon fill="#FFFFFF" points="125.694,540.646 0,414.952 0,540.646 	"/>
	<polygon fill="#0A3160" points="169.827,445.547 169.827,415.405 139.685,415.405 139.685,445.547 109.544,445.547 
		109.544,475.688 139.685,475.688 139.685,505.83 169.827,505.83 169.827,475.688 199.968,475.688 199.968,445.547 	"/>
	<rect x="0" y="350.038" fill="#A0A0A0" width="52.355" height="26.177"/>
	<rect x="257.157" y="350.038" fill="#A0A0A0" width="52.355" height="26.177"/>
	<polygon fill="#0A3160" points="0,376.215 0,388.775 0,414.952 52.355,414.952 52.355,388.775 257.157,388.775 257.157,414.952 
		309.512,414.952 309.512,388.775 309.512,376.215 	"/>
	<polygon fill="#FFFFFF" points="0,337.235 0,350.038 52.355,350.038 52.355,376.215 257.157,376.215 257.157,350.038 
		309.512,350.038 309.512,337.235 	"/>
</g>
<g>
	<polygon fill="#F1F1F1" points="597.645,388.775 392.843,388.775 392.843,414.952 340.488,414.952 466.182,540.646 650,540.646 
		650,414.952 597.645,414.952 	"/>
	<polygon fill="#FFFFFF" points="466.182,540.646 340.488,414.952 340.488,540.646 	"/>
	<polygon fill="#0A3160" points="510.315,445.547 510.315,415.405 480.173,415.405 480.173,445.547 450.032,445.547 
		450.032,475.688 480.173,475.688 480.173,505.83 510.315,505.83 510.315,475.688 540.456,475.688 540.456,445.547 	"/>
	<rect x="340.488" y="350.038" fill="#A0A0A0" width="52.355" height="26.177"/>
	<rect x="597.645" y="350.038" fill="#A0A0A0" width="52.355" height="26.177"/>
	<polygon fill="#0A3160" points="340.488,376.215 340.488,388.775 340.488,414.952 392.843,414.952 392.843,388.775 
		597.645,388.775 597.645,414.952 650,414.952 650,388.775 650,376.215 	"/>
	<polygon fill="#FFFFFF" points="340.488,337.235 340.488,350.038 392.843,350.038 392.843,376.215 597.645,376.215 
		597.645,350.038 650,350.038 650,337.235 	"/>
</g>
<g>
	<polygon fill="#F1F1F1" points="427.6,155.363 222.798,155.363 222.798,181.541 170.444,181.541 296.138,307.235 479.955,307.235 
		479.955,181.541 427.6,181.541 	"/>
	<polygon fill="#FFFFFF" points="296.138,307.235 170.444,181.541 170.444,307.235 	"/>
	<polygon fill="#0A3160" points="340.27,212.135 340.27,181.994 310.129,181.994 310.129,212.135 279.988,212.135 279.988,242.277 
		310.129,242.277 310.129,272.418 340.27,272.418 340.27,242.277 370.411,242.277 370.411,212.135 	"/>
	<rect x="170.444" y="116.626" fill="#A0A0A0" width="52.355" height="26.177"/>
	<rect x="427.6" y="116.626" fill="#A0A0A0" width="52.355" height="26.177"/>
	<polygon fill="#0A3160" points="170.444,142.804 170.444,155.363 170.444,181.541 222.798,181.541 222.798,155.363 427.6,155.363 
		427.6,181.541 479.955,181.541 479.955,155.363 479.955,142.804 	"/>
	<polygon fill="#FFFFFF" points="170.444,103.823 170.444,116.626 222.798,116.626 222.798,142.804 427.6,142.804 427.6,116.626 
		479.955,116.626 479.955,103.823 	"/>
</g>
</svg>
