<?xml version="1.0" encoding="UTF-8" standalone="no"?>
<svg width="412px" height="117px" viewBox="0 0 412 117" version="1.1" xmlns="http://www.w3.org/2000/svg" xmlns:xlink="http://www.w3.org/1999/xlink">
    <defs></defs>
    <g id="Page-1" stroke="none" stroke-width="1" fill="none" fill-rule="evenodd">
        <g id="Group">
            <path d="M0.68,0.748 L177.1,0.748 L177.1,116.7 L0.68,116.7 L0.68,0.748 Z" id="Fill-371" fill="#FFFFFF"></path>
            <path d="M132.36,30.49 L1.41,30.23 L1.41,45.33 L72.78,116.7 L177.1,116.7 L177.1,30.49 L132.36,30.49" id="Fill-372" fill="#B9DCEA"></path>
            <path d="M97.48,62.49 L97.48,45.31 L80.3,45.31 L80.3,62.49 L63.12,62.49 L63.12,79.67 L80.3,79.67 L80.3,96.85 L97.48,96.85 L97.48,79.67 L114.66,79.67 L114.66,62.49 L97.48,62.49" id="Fill-373" fill="#1D2A4A"></path>
            <path d="M0.68,22.97 L177.1,22.97 L177.1,30.13 L0.68,30.13 L0.68,22.97 Z" id="Fill-374" fill="#1D2A4A"></path>
            <path d="M52.6,8.046 C44.36,8.046 37.68,14.727 37.68,22.97 L67.52,22.97 C67.52,14.727 60.84,8.046 52.6,8.046" id="Fill-375" fill="#DF4846"></path>
            <path d="M52.6,45.05 C60.84,45.05 67.52,38.37 67.52,30.13 L37.68,30.13 C37.68,38.37 44.36,45.05 52.6,45.05" id="Fill-376" fill="#1D2A4A"></path>
            <path d="M125.18,8.046 C116.94,8.046 110.26,14.727 110.26,22.97 L140.1,22.97 C140.1,14.727 133.42,8.046 125.18,8.046" id="Fill-377" fill="#DF4846"></path>
            <path d="M125.18,45.05 C133.42,45.05 140.1,38.37 140.1,30.13 L110.26,30.13 C110.26,38.37 116.94,45.05 125.18,45.05" id="Fill-378" fill="#1D2A4A"></path>
            <path d="M0.68,8.046 L30.52,8.046 L30.52,22.97 L0.68,22.97 L0.68,8.046 Z" id="Fill-379" fill="#DF4846"></path>
            <path d="M0.68,30.13 L30.52,30.13 L30.52,45.05 L0.68,45.05 L0.68,30.13 Z" id="Fill-380" fill="#1D2A4A"></path>
            <path d="M147.26,8.046 L177.1,8.046 L177.1,22.97 L147.26,22.97 L147.26,8.046 Z" id="Fill-381" fill="#DF4846"></path>
            <path d="M147.26,30.13 L177.1,30.13 L177.1,45.05 L147.26,45.05 L147.26,30.13 Z" id="Fill-382" fill="#1D2A4A"></path>
            <path d="M235.14,0.748 L411.57,0.748 L411.57,116.7 L235.14,116.7 L235.14,0.748 Z" id="Fill-383" fill="#FFFFFF"></path>
            <path d="M366.83,30.49 L235.88,30.23 L235.88,45.33 L307.24,116.7 L411.57,116.7 L411.57,30.49 L366.83,30.49" id="Fill-384" fill="#B9DCEA"></path>
            <path d="M331.95,62.49 L331.95,45.31 L314.77,45.31 L314.77,62.49 L297.58,62.49 L297.58,79.67 L314.77,79.67 L314.77,96.85 L331.95,96.85 L331.95,79.67 L349.13,79.67 L349.13,62.49 L331.95,62.49" id="Fill-385" fill="#1D2A4A"></path>
            <path d="M235.14,22.97 L411.57,22.97 L411.57,30.13 L235.14,30.13 L235.14,22.97 Z" id="Fill-386" fill="#1D2A4A"></path>
            <path d="M287.07,8.046 C278.83,8.046 272.15,14.727 272.15,22.97 L301.99,22.97 C301.99,14.727 295.31,8.046 287.07,8.046" id="Fill-387" fill="#DF4846"></path>
            <path d="M287.07,45.05 C295.31,45.05 301.99,38.37 301.99,30.13 L272.15,30.13 C272.15,38.37 278.83,45.05 287.07,45.05" id="Fill-388" fill="#1D2A4A"></path>
            <path d="M359.65,8.046 C351.4,8.046 344.72,14.727 344.72,22.97 L374.57,22.97 C374.57,14.727 367.89,8.046 359.65,8.046" id="Fill-389" fill="#DF4846"></path>
            <path d="M359.65,45.05 C367.89,45.05 374.57,38.37 374.57,30.13 L344.72,30.13 C344.72,38.37 351.4,45.05 359.65,45.05" id="Fill-390" fill="#1D2A4A"></path>
            <path d="M235.14,8.046 L264.99,8.046 L264.99,22.97 L235.14,22.97 L235.14,8.046 Z" id="Fill-391" fill="#DF4846"></path>
            <path d="M235.14,30.13 L264.99,30.13 L264.99,45.05 L235.14,45.05 L235.14,30.13 Z" id="Fill-392" fill="#1D2A4A"></path>
            <path d="M381.73,8.046 L411.57,8.046 L411.57,22.97 L381.73,22.97 L381.73,8.046 Z" id="Fill-393" fill="#DF4846"></path>
            <path d="M381.73,30.13 L411.57,30.13 L411.57,45.05 L381.73,45.05 L381.73,30.13 Z" id="Fill-394" fill="#1D2A4A"></path>
        </g>
    </g>
</svg>