<?xml version="1.0" encoding="utf-8"?>
<!-- Generator: Adobe Illustrator 18.1.1, SVG Export Plug-In . SVG Version: 6.00 Build 0)  -->
<svg version="1.1" id="Layer_1" xmlns="http://www.w3.org/2000/svg" xmlns:xlink="http://www.w3.org/1999/xlink" x="0px" y="0px"
	 viewBox="0 0 650 650" enable-background="new 0 0 650 650" xml:space="preserve">
<polygon fill="#FFFFFF" points="294.025,312.654 244.887,232.626 168.331,186.96 168.331,312.654 "/>
<polygon fill="#F1F1F1" points="425.487,160.783 220.685,160.783 168.331,186.96 294.025,312.654 477.842,312.654 477.842,186.96 
	"/>
<polygon fill="#0A3160" points="338.157,217.555 338.157,187.414 308.016,187.414 308.016,217.555 277.875,217.555 277.875,247.696 
	308.016,247.696 308.016,277.838 338.157,277.838 338.157,247.696 368.298,247.696 368.298,217.555 "/>
<polygon fill="#FFFFFF" points="168.331,109.243 168.331,122.046 220.685,148.223 323.087,154.42 425.487,148.223 477.842,122.046 
	477.842,109.243 "/>
<polygon fill="#A0A0A0" points="220.685,148.223 194.508,160.783 168.331,148.223 168.331,122.046 220.685,122.046 "/>
<polygon fill="#A0A0A0" points="477.842,148.223 451.665,160.783 425.487,148.223 425.487,122.046 477.842,122.046 "/>
<polygon fill="#0A3160" points="168.331,148.223 168.331,186.96 220.685,186.96 220.685,160.783 425.487,160.783 425.487,186.96 
	477.842,186.96 477.842,148.223 "/>
<polygon fill="#FFFFFF" points="461.182,540.646 412.045,460.617 335.488,414.952 335.488,540.646 "/>
<polygon fill="#F1F1F1" points="592.645,388.775 387.843,388.775 335.488,414.952 461.182,540.646 645,540.646 645,414.952 "/>
<polygon fill="#0A3160" points="505.315,445.547 505.315,415.405 475.174,415.405 475.174,445.547 445.032,445.547 445.032,475.688 
	475.174,475.688 475.174,505.83 505.315,505.83 505.315,475.688 535.456,475.688 535.456,445.547 "/>
<polygon fill="#FFFFFF" points="335.488,337.235 335.488,350.038 387.843,376.215 490.244,382.411 592.645,376.215 645,350.038 
	645,337.235 "/>
<polygon fill="#A0A0A0" points="387.843,376.215 361.666,388.775 335.488,376.215 335.488,350.038 387.843,350.038 "/>
<polygon fill="#A0A0A0" points="645,376.215 618.822,388.775 592.645,376.215 592.645,350.038 645,350.038 "/>
<polygon fill="#0A3160" points="335.488,376.215 335.488,414.952 387.843,414.952 387.843,388.775 592.645,388.775 592.645,414.952 
	645,414.952 645,376.215 "/>
<polygon fill="#FFFFFF" points="126.694,540.646 77.557,460.617 1,414.952 1,540.646 "/>
<polygon fill="#F1F1F1" points="258.157,388.775 53.355,388.775 1,414.952 126.694,540.646 310.512,540.646 310.512,414.952 "/>
<polygon fill="#0A3160" points="170.827,445.547 170.827,415.405 140.685,415.405 140.685,445.547 110.544,445.547 110.544,475.688 
	140.685,475.688 140.685,505.83 170.827,505.83 170.827,475.688 200.968,475.688 200.968,445.547 "/>
<polygon fill="#FFFFFF" points="1,337.235 1,350.038 53.355,376.215 155.756,382.411 258.157,376.215 310.512,350.038 
	310.512,337.235 "/>
<polygon fill="#A0A0A0" points="53.355,376.215 27.178,388.775 1,376.215 1,350.038 53.355,350.038 "/>
<polygon fill="#A0A0A0" points="310.512,376.215 284.334,388.775 258.157,376.215 258.157,350.038 310.512,350.038 "/>
<polygon fill="#0A3160" points="1,376.215 1,414.952 53.355,414.952 53.355,388.775 258.157,388.775 258.157,414.952 
	310.512,414.952 310.512,376.215 "/>
</svg>
