<?xml version="1.0" encoding="utf-8"?>
<!-- Generator: Adobe Illustrator 17.0.0, SVG Export Plug-In . SVG Version: 6.00 Build 0)  -->
<!DOCTYPE svg PUBLIC "-//W3C//DTD SVG 1.1//EN" "http://www.w3.org/Graphics/SVG/1.1/DTD/svg11.dtd">
<svg version="1.1" id="Layer_1" xmlns="http://www.w3.org/2000/svg" xmlns:xlink="http://www.w3.org/1999/xlink" x="0px" y="0px"
	 width="650px" height="650px" viewBox="0 0 650 650" enable-background="new 0 0 650 650" xml:space="preserve">

		<polygon fill="#EEEEEE" points="429.586,261.333 214.864,261.333 214.864,288.778 159.974,288.778 291.756,420.56 484.477,420.56
			484.477,288.778 429.586,288.778 "/>
		<polygon fill="#FFFFFF" points="291.756,420.56 159.974,288.778 159.974,420.56 "/>
		<polygon fill="#333333" points="338.026,320.855 338.026,289.253 306.425,289.253 306.425,320.855 274.824,320.855 274.824,352.456
			306.425,352.456 306.425,384.057 338.026,384.057 338.026,352.456 369.627,352.456 369.627,320.855 "/>
		<rect x="159.974" y="220.719" fill="#A0A0A0" width="54.891" height="27.445"/>
		<rect x="429.586" y="220.719" fill="#A0A0A0" width="54.891" height="27.445"/>
		<polygon fill="#333333" points="159.974,248.165 159.974,261.333 159.974,288.778 214.864,288.778 214.864,261.333 429.586,261.333
			429.586,288.778 484.477,288.778 484.477,261.333 484.477,248.165 "/>
		<polygon fill="#FFFFFF" points="159.974,207.296 159.974,220.719 214.864,220.719 214.864,248.165 429.586,248.165 429.586,220.719
			484.477,220.719 484.477,207.296 "/>
	
</svg>
