<?xml version="1.0" encoding="utf-8"?>
<!-- Generator: Adobe Illustrator 16.0.1, SVG Export Plug-In . SVG Version: 6.00 Build 0)  -->
<!DOCTYPE svg PUBLIC "-//W3C//DTD SVG 1.1//EN" "http://www.w3.org/Graphics/SVG/1.1/DTD/svg11.dtd">
<svg version="1.1" id="Layer_1" xmlns="http://www.w3.org/2000/svg" xmlns:xlink="http://www.w3.org/1999/xlink" x="0px" y="0px"
	 width="650px" height="650px" viewBox="0 0 650 650" enable-background="new 0 0 650 650" xml:space="preserve">
<polygon fill="#FFFFFF" points="294.024,312.654 244.887,232.626 168.33,186.96 168.33,312.654 "/>
<polygon fill="#F1F1F1" points="425.486,160.783 220.686,160.783 168.33,186.96 294.024,312.654 477.842,312.654 477.842,186.96 "/>
<polygon fill="#0A3160" points="338.157,217.555 338.157,187.414 308.016,187.414 308.016,217.555 277.875,217.555 277.875,247.696 
	308.016,247.696 308.016,277.838 338.157,277.838 338.157,247.696 368.299,247.696 368.299,217.555 "/>
<polygon fill="#FFFFFF" points="168.33,109.243 168.33,122.046 220.686,148.224 323.086,154.42 425.486,148.224 477.842,122.046 
	477.842,109.243 "/>
<polygon fill="#A0A0A0" points="220.686,148.224 194.508,160.783 168.33,148.224 168.33,122.046 220.686,122.046 "/>
<polygon fill="#A0A0A0" points="477.842,148.224 451.664,160.783 425.486,148.224 425.486,122.046 477.842,122.046 "/>
<polygon fill="#0A3160" points="168.33,148.224 168.33,186.96 220.686,186.96 220.686,160.783 425.486,160.783 425.486,186.96 
	477.842,186.96 477.842,148.224 "/>
<polygon fill="#FFFFFF" points="461.182,540.646 412.045,460.617 335.488,414.952 335.488,540.646 "/>
<polygon fill="#F1F1F1" points="592.645,388.774 387.844,388.774 335.488,414.952 461.182,540.646 645,540.646 645,414.952 "/>
<polygon fill="#0A3160" points="505.314,445.547 505.314,415.405 475.174,415.405 475.174,445.547 445.031,445.547 445.031,475.688 
	475.174,475.688 475.174,505.83 505.314,505.83 505.314,475.688 535.456,475.688 535.456,445.547 "/>
<polygon fill="#FFFFFF" points="335.488,337.235 335.488,350.038 387.844,376.215 490.244,382.411 592.645,376.215 645,350.038 
	645,337.235 "/>
<polygon fill="#A0A0A0" points="387.844,376.215 361.666,388.774 335.488,376.215 335.488,350.038 387.844,350.038 "/>
<polygon fill="#A0A0A0" points="645,376.215 618.822,388.774 592.646,376.215 592.646,350.038 645,350.038 "/>
<polygon fill="#0A3160" points="335.488,376.215 335.488,414.952 387.844,414.952 387.844,388.774 592.645,388.774 592.645,414.952 
	645,414.952 645,376.215 "/>
<polygon fill="#FFFFFF" points="126.694,540.646 77.557,460.617 1,414.952 1,540.646 "/>
<polygon fill="#F1F1F1" points="258.156,388.774 53.355,388.774 1,414.952 126.694,540.646 310.512,540.646 310.512,414.952 "/>
<polygon fill="#0A3160" points="170.826,445.547 170.826,415.405 140.686,415.405 140.686,445.547 110.545,445.547 110.545,475.688 
	140.686,475.688 140.686,505.83 170.826,505.83 170.826,475.688 200.968,475.688 200.968,445.547 "/>
<polygon fill="#FFFFFF" points="1,337.235 1,350.038 53.355,376.215 155.756,382.411 258.156,376.215 310.512,350.038 
	310.512,337.235 "/>
<polygon fill="#A0A0A0" points="53.355,376.215 27.178,388.774 1,376.215 1,350.038 53.355,350.038 "/>
<polygon fill="#A0A0A0" points="310.512,376.215 284.334,388.774 258.156,376.215 258.156,350.038 310.512,350.038 "/>
<polygon fill="#0A3160" points="1,376.215 1,414.952 53.355,414.952 53.355,388.774 258.156,388.774 258.156,414.952 
	310.512,414.952 310.512,376.215 "/>
</svg>
