<?xml version="1.0" encoding="utf-8"?>
<!-- Generator: Adobe Illustrator 18.1.1, SVG Export Plug-In . SVG Version: 6.00 Build 0)  -->
<svg version="1.1" id="Layer_1" xmlns="http://www.w3.org/2000/svg" xmlns:xlink="http://www.w3.org/1999/xlink" x="0px" y="0px"
	 viewBox="0 0 650 650" enable-background="new 0 0 650 650" xml:space="preserve">
<polygon fill="#EEEEEE" points="73.722,254.102 93.394,273.774 93.394,336.569 113.037,384.418 132.665,375.841 132.665,273.784 
	152.347,254.102 108.011,236.509 "/>
<polygon fill="#EEEEEE" points="152.357,254.102 172.03,273.774 172.03,395.27 191.672,426 211.301,434.541 211.301,273.784 
	230.983,254.102 191.67,236.509 "/>
<polygon fill="#EEEEEE" points="230.993,254.102 250.665,273.774 250.665,452.554 269.887,481.776 289.936,491.825 289.936,273.784 
	309.618,254.102 266.511,243.348 "/>
<polygon fill="#EEEEEE" points="330.215,254.102 349.887,273.774 349.887,336.569 367.913,374.596 389.158,375.841 389.158,273.784 
	408.84,254.102 369.527,243.348 "/>
<polygon fill="#EEEEEE" points="408.85,254.102 428.522,273.774 428.522,395.27 448.158,434.906 467.793,434.541 467.793,273.784 
	467.793,273.774 487.466,254.102 442.511,244.102 "/>
<polygon fill="#EEEEEE" points="487.486,254.102 507.158,273.774 507.158,452.554 526.794,492.189 546.429,491.825 546.429,273.784 
	546.429,273.774 566.101,254.102 517.158,244.102 "/>
<polygon fill="#FFFFFF" points="546.429,515.652 546.429,491.825 507.158,452.554 507.158,515.652 467.794,515.652 467.794,434.541 
	428.523,395.27 428.523,515.652 389.158,515.652 389.158,375.841 349.887,336.569 349.887,515.652 289.936,515.652 289.936,491.825 
	250.665,452.554 250.665,515.652 211.301,515.652 211.301,434.541 172.03,395.27 172.03,515.652 132.665,515.652 132.665,375.841 
	93.394,336.569 93.394,515.652 64.281,515.652 64.281,560.667 574.451,560.667 574.451,515.652 "/>
<polygon fill="#FFFFFF" points="566.111,225.137 319.912,215.137 73.712,225.137 73.712,254.102 566.111,254.102 "/>
<polygon fill="#A0A0A0" points="386.363,140.237 386.363,179.582 283.804,179.582 283.804,131.883 236.613,151.431 78.667,208 
	570.667,208 480.03,179.036 "/>
<polygon fill="#0A3160" points="489.01,157.346 480.027,179.034 533.635,201.239 361.032,201.239 236.613,201.239 116.365,201.239 
	236.613,151.431 236.613,126.022 57.357,200.273 57.357,224.714 592.643,224.714 592.643,200.273 "/>
</svg>
