<?xml version="1.0" encoding="utf-8"?>
<!-- Generator: Adobe Illustrator 16.0.1, SVG Export Plug-In . SVG Version: 6.00 Build 0)  -->
<!DOCTYPE svg PUBLIC "-//W3C//DTD SVG 1.1//EN" "http://www.w3.org/Graphics/SVG/1.1/DTD/svg11.dtd">
<svg version="1.1" id="Layer_1" xmlns="http://www.w3.org/2000/svg" xmlns:xlink="http://www.w3.org/1999/xlink" x="0px" y="0px"
	 width="650px" height="650px" viewBox="0 0 650 650" enable-background="new 0 0 650 650" xml:space="preserve">
<g>
	<polygon fill="#EEEEEE" points="73.723,236.764 93.395,256.436 93.395,319.231 113.037,367.079 132.665,358.502 132.665,256.445 
		152.348,236.764 108.012,219.17 	"/>
	<polygon fill="#EEEEEE" points="152.357,236.764 172.029,256.436 172.029,377.932 191.672,408.662 211.301,417.203 
		211.301,256.445 230.982,236.764 191.67,219.17 	"/>
	<polygon fill="#EEEEEE" points="230.993,236.764 250.665,256.436 250.665,435.216 269.887,464.438 289.936,474.486 
		289.936,256.445 309.618,236.764 266.512,226.01 	"/>
	<polygon fill="#EEEEEE" points="330.215,236.764 349.887,256.436 349.887,319.231 367.914,357.258 389.158,358.502 
		389.158,256.445 408.84,236.764 369.527,226.01 	"/>
	<polygon fill="#EEEEEE" points="408.85,236.764 428.522,256.436 428.522,377.932 448.158,417.567 467.793,417.203 467.793,256.445 
		467.793,256.436 487.465,236.764 442.512,226.764 	"/>
	<polygon fill="#EEEEEE" points="487.485,236.764 507.158,256.436 507.158,435.216 526.793,474.851 546.43,474.486 546.43,256.445 
		546.43,256.436 566.102,236.764 517.158,226.764 	"/>
	<polygon fill="#FFFFFF" points="546.43,498.313 546.43,474.486 507.158,435.216 507.158,498.313 467.793,498.313 467.793,417.203 
		428.522,377.932 428.522,498.313 389.158,498.313 389.158,358.502 349.887,319.231 349.887,498.313 289.936,498.313 
		289.936,474.486 250.665,435.216 250.665,498.313 211.301,498.313 211.301,417.203 172.029,377.932 172.029,498.313 
		132.665,498.313 132.665,358.502 93.395,319.231 93.395,498.313 64.281,498.313 64.281,543.328 574.451,543.328 574.451,498.313 	
		"/>
	<polygon fill="#FFFFFF" points="566.111,207.799 319.912,197.799 73.712,207.799 73.712,236.764 566.111,236.764 	"/>
	<polygon fill="#A0A0A0" points="386.363,122.899 386.363,162.244 283.805,162.244 283.805,114.545 236.613,134.093 78.666,190.662 
		570.666,190.662 480.03,161.697 	"/>
	<polygon fill="#0A3160" points="489.01,140.008 480.027,161.695 533.635,183.9 361.031,183.9 236.613,183.9 116.365,183.9 
		236.613,134.093 236.613,108.684 57.356,182.935 57.356,207.376 592.643,207.376 592.643,182.935 	"/>
</g>
</svg>
