<?xml version="1.0" encoding="utf-8"?>
<!-- Generator: Adobe Illustrator 17.0.0, SVG Export Plug-In . SVG Version: 6.00 Build 0)  -->
<!DOCTYPE svg PUBLIC "-//W3C//DTD SVG 1.1//EN" "http://www.w3.org/Graphics/SVG/1.1/DTD/svg11.dtd">
<svg version="1.1" id="Layer_1" xmlns="http://www.w3.org/2000/svg" xmlns:xlink="http://www.w3.org/1999/xlink" x="0px" y="0px"
	 width="650px" height="650px" viewBox="0 0 650 650" enable-background="new 0 0 650 650" xml:space="preserve">
<polygon fill="#FFFFFF" points="546.429,515.652 546.429,251.502 507.158,251.502 507.158,515.652 467.794,515.652 467.794,251.502 
	428.523,251.502 428.523,515.652 389.158,515.652 389.158,251.502 349.887,251.502 349.887,515.652 289.936,515.652 
	289.936,251.502 250.665,251.502 250.665,515.652 211.301,515.652 211.301,251.502 172.03,251.502 172.03,515.652 132.665,515.652 
	132.665,251.502 93.394,251.502 93.394,515.652 64.281,515.652 64.281,560.667 574.451,560.667 574.451,515.652 "/>
<polygon fill="#EEEEEE" points="132.665,253.216 132.665,253.216 93.404,253.216 93.394,253.216 73.722,253.216 93.394,272.888 
	93.394,335.683 132.665,374.955 132.665,272.898 152.347,253.216 "/>
<polygon fill="#EEEEEE" points="211.301,253.216 172.03,253.216 172.03,253.216 152.357,253.216 172.03,272.888 172.03,394.384 
	211.301,433.655 211.301,272.898 230.983,253.216 211.301,253.216 "/>
<polygon fill="#EEEEEE" points="289.936,253.216 250.665,253.216 250.665,253.216 230.993,253.216 250.665,272.888 250.665,451.668 
	289.936,490.939 289.936,272.898 309.618,253.216 289.936,253.216 "/>
<polygon fill="#EEEEEE" points="349.897,253.216 349.887,253.216 330.215,253.216 349.887,272.888 349.887,335.683 389.158,374.955 
	389.158,272.898 408.84,253.216 389.158,253.216 "/>
<polygon fill="#EEEEEE" points="467.794,253.216 467.794,253.216 428.523,253.216 428.523,253.216 408.85,253.216 428.523,272.888 
	428.523,394.384 467.794,433.655 467.794,272.898 467.794,272.888 487.466,253.216 "/>
<polygon fill="#EEEEEE" points="566.101,253.216 546.429,253.216 546.429,253.216 507.158,253.216 507.158,253.216 487.486,253.216 
	507.158,272.888 507.158,451.668 546.429,490.939 546.429,272.898 546.429,272.888 "/>
<polygon fill="#A0A0A0" points="386.363,140.237 386.363,179.582 283.804,179.582 283.804,131.883 116.365,201.239 533.635,201.239 
	"/>
<polygon fill="#0A3160" points="489.01,157.346 480.027,179.034 533.635,201.239 361.032,201.239 236.613,201.239 116.365,201.239 
	236.613,151.431 236.613,126.022 57.357,200.273 57.357,224.714 592.643,224.714 592.643,200.273 "/>
<rect x="73.722" y="224.714" fill="#FFFFFF" width="492.154" height="29.001"/>
</svg>
