<?xml version="1.0" encoding="utf-8"?>
<!-- Generator: Adobe Illustrator 17.0.0, SVG Export Plug-In . SVG Version: 6.00 Build 0)  -->
<!DOCTYPE svg PUBLIC "-//W3C//DTD SVG 1.1//EN" "http://www.w3.org/Graphics/SVG/1.1/DTD/svg11.dtd">
<svg version="1.1" id="Layer_1" xmlns="http://www.w3.org/2000/svg" xmlns:xlink="http://www.w3.org/1999/xlink" x="0px" y="0px"
	 width="650px" height="650px" viewBox="0 0 650 650" enable-background="new 0 0 650 650" xml:space="preserve">
<rect x="93.596" y="351.798" fill="#A0A0A0" width="456.099" height="37.965"/>
<polygon fill="#EEEEEE" points="251.275,547.5 511.73,547.5 511.73,389.763 131.561,389.763 131.561,427.787 "/>
<polygon fill="#FFFFFF" points="131.562,427.787 131.562,547.5 251.275,547.5 "/>
<circle fill="#878787" cx="321.375" cy="454.697" r="26.148"/>
<path fill="#333333" d="M370.535,455c0-13.554-5.513-25.844-14.415-34.745l-7.694,7.694c6.923,6.923,11.205,16.487,11.205,27.052
	c0,21.129-17.128,38.257-38.257,38.257S283.118,476.128,283.118,455c0-10.564,4.282-20.128,11.205-27.052l-7.694-7.694
	c-8.902,8.902-14.415,21.192-14.415,34.745c0,19.018,10.863,35.537,26.703,43.709c-4.551,2.348-8.699,5.374-12.288,8.963
	l7.694,7.694c6.923-6.923,16.487-11.205,27.052-11.205s20.128,4.282,27.052,11.205l7.694-7.694
	c-3.589-3.589-7.737-6.615-12.288-8.963C359.673,490.536,370.535,474.018,370.535,455z"/>
<path fill="#FFFFFF" d="M245.762,266.492l37.866-37.866h-76.136v0c-41.936,0-75.931,33.995-75.931,75.931v47.241h75.931h38.27
	v-26.785V266.492z"/>
<polygon fill="#333333" points="359.697,190.579 359.697,175.372 344.489,190.579 344.489,190.579 359.739,205.829 359.739,190.579 
	"/>
<path fill="#FFFFFF" d="M344.489,190.579L344.489,190.579l15.207-15.207v-45.386h-57.077l-19.025,0v56.817h19.025v0
	c10.507,0,19.025,8.518,19.025,19.025h-19.025v0h-18.992l22.797,22.797h30.516l22.755-22.755v-0.075v-0.009L344.489,190.579z"/>
<polygon fill="#333333" points="359.754,228.626 283.628,228.626 283.628,304.751 "/>
<polygon fill="#333333" points="245.762,228.668 237.277,220.183 182.128,275.332 182.128,351.798 194.128,351.798 194.128,280.302 
	"/>
<path fill="#333333" d="M344.489,175.34v-7.612c0-4.204,3.408-7.612,7.612-7.612c4.091,0,7.418,3.23,7.595,7.277v-18.382
	l-19.025-19.025H329.24v45.38h15.25V175.34z"/>
<g>
	<polygon fill="#333333" points="322.317,111.07 264.678,111.07 283.594,129.986 303.401,129.986 	"/>
	<polygon fill="#0A3160" points="302.62,129.986 283.595,129.986 303.401,129.986 303.401,129.986 	"/>
</g>
<path fill="#333333" d="M302.62,205.829L302.62,205.829l-19.025,0v-19.026h19.025v0c10.507,0,19.025,8.518,19.025,19.025H302.62z"/>
<polygon fill="#FFFFFF" points="397.53,198.55 435.362,198.55 397.529,160.717 "/>
<polygon fill="#A0A0A0" points="283.595,205.796 283.595,129.986 302.62,129.986 306.425,129.986 306.425,129.986 283.594,129.986 
	264.678,111.07 245.762,129.986 245.762,129.986 245.762,228.626 306.425,228.626 "/>
<polygon fill="#FFFFFF" points="378.612,111.07 364.203,96.66 345.739,96.66 331.33,82.251 331.33,82.251 293.499,82.251 
	264.68,111.07 "/>
<path fill="#A0A0A0" d="M435.362,198.55H397.53h-0.001v-68.564l-18.916-18.916h-14.41v0h-42.276v0.39l-18.526,18.526h18.526h18.744
	l19.025,19.025v49.539v30.076h37.833h0.001l0.067,61.586c0,20.857,16.908,37.766,37.766,37.766v-37.765v-61.586V198.55z"/>
<path fill="#FFFFFF" d="M435.799,228.626h-0.437v61.586v37.765c-20.857,0-37.766-16.908-37.766-37.766h-0.246h0.179v-61.586h-14.802
	v38.024h-23.03h-11.194l17.112,17.112l-68.036,68.035h138.22h75.931v-47.241v0C511.73,262.622,477.735,228.626,435.799,228.626z"/>
<polygon fill="#333333" points="336.941,228.626 359.696,205.872 359.696,228.626 "/>
</svg>
