<?xml version="1.0" encoding="utf-8"?>
<!-- Generator: Adobe Illustrator 16.0.1, SVG Export Plug-In . SVG Version: 6.00 Build 0)  -->
<!DOCTYPE svg PUBLIC "-//W3C//DTD SVG 1.1//EN" "http://www.w3.org/Graphics/SVG/1.1/DTD/svg11.dtd">
<svg version="1.1" id="Layer_1" xmlns="http://www.w3.org/2000/svg" xmlns:xlink="http://www.w3.org/1999/xlink" x="0px" y="0px"
	 width="650px" height="650px" viewBox="0 0 650 650" enable-background="new 0 0 650 650" xml:space="preserve">
<g>
	<g>
		<polygon fill="#FFFFFF" points="407.243,273.642 478.461,252.975 427.91,202.423 		"/>
		<path fill="#A0A0A0" d="M427.91,252.975h-0.001V161.36l-25.275-25.275l-103.856-15.975l-48.381,15.975L225.12,161.36h0v131.802
			l18.23,13.849l32.366-13.849l25.376,16.263l76.264-16.263h50.552h0.001l0.089,82.291c0,27.869,22.593,50.462,50.462,50.462
			v-172.94H427.91z"/>
		<polygon fill="#0A3160" points="377.33,242.324 377.33,222.004 346.768,242.324 346.768,242.324 377.414,262.701 377.414,242.324 
					"/>
		<path fill="#A0A0A0" d="M301.092,161.36"/>
		<polygon fill="#0A3160" points="377.356,211.344 377.356,186.782 351.935,161.36 336.661,161.36 324.528,245.247 		"/>
		<polygon fill="#0A3160" points="250.395,136.084 288.903,174.593 327.412,136.084 		"/>
		<path fill="#FFFFFF" d="M357.038,242.324l20.32-20.32l-0.001-10.66c-0.236-5.408-4.682-9.724-10.148-9.724
			c-5.617,0-10.171,4.554-10.171,10.17v10.171v0.035h-20.376V161.36H275.67v75.919l11.84,12.71l-11.795,12.711l30.461,30.461
			l19.32,21.455l51.861-51.861v-0.101v-0.013L357.038,242.324L357.038,242.324z"/>
		<path fill="#0A3160" d="M301.092,237.279L301.092,237.279l-25.421,0v25.422l50.843,0
			C326.514,248.661,315.132,237.279,301.092,237.279z"/>
		<polygon fill="#FFFFFF" points="402.632,136.084 383.378,116.831 358.708,116.831 339.454,97.577 339.454,97.577 288.904,97.577 
			250.396,136.084 		"/>
		<polygon fill="#0A3160" points="377.356,293.162 377.356,262.758 346.964,293.15 275.639,293.15 275.639,394.867 		"/>
		<path fill="#FFFFFF" d="M479.045,293.162h-0.584v82.291v50.462c-27.869,0-50.462-22.593-50.462-50.462h-0.328h0.239v-82.291
			h-19.779v50.808h-45.73l22.865,22.866l-90.908,90.908l169.064,15.623l117.082-15.623v-63.123v0
			C580.504,338.587,535.08,293.162,479.045,293.162z"/>
		<path fill="#FFFFFF" d="M225.119,343.758l50.597-50.596H173.983l0,0c-56.034,0-101.458,45.424-101.458,101.459v63.123
			l67.566,31.742l85.028-31.742V343.758z"/>
		<polygon fill="#0A3160" points="225.119,293.218 213.781,281.88 140.091,355.57 140.091,457.744 147.384,464.539 156.125,457.744 
			156.125,362.211 		"/>
		<rect x="21.796" y="457.744" fill="#A0A0A0" width="609.436" height="29.428"/>
	</g>
	<rect x="47.161" y="487.172" fill="#F1F1F1" width="558.708" height="55.602"/>
</g>
</svg>
