<?xml version="1.0" encoding="utf-8"?>
<!-- Generator: Adobe Illustrator 18.1.1, SVG Export Plug-In . SVG Version: 6.00 Build 0)  -->
<svg version="1.1" id="Layer_1" xmlns="http://www.w3.org/2000/svg" xmlns:xlink="http://www.w3.org/1999/xlink" x="0px" y="0px"
	 viewBox="0 0 650 650" enable-background="new 0 0 650 650" xml:space="preserve">
<rect x="111.235" y="447.485" fill="#FFFFFF" width="132.515" height="132.514"/>
<path fill="#F1F1F1" d="M111.235,405.396v42.09L243.75,580h288.307V405.396L321.646,387.75L111.235,405.396z M321.346,506.217
	c-15.985,0-28.944-12.959-28.944-28.944c0-15.985,12.959-28.944,28.944-28.944c15.985,0,28.944,12.959,28.944,28.944
	C350.29,493.258,337.331,506.217,321.346,506.217z"/>
<path fill="#0A3160" d="M375.763,477.608c0-15.003-6.103-28.607-15.957-38.461l-8.517,8.517c7.664,7.663,12.404,18.25,12.404,29.944
	c0,23.388-18.96,42.348-42.348,42.348s-42.348-18.96-42.348-42.348c0-11.694,4.74-22.281,12.403-29.944l-8.517-8.517
	c-9.854,9.854-15.957,23.458-15.957,38.461c0,21.052,12.024,39.337,29.558,48.383c-5.038,2.599-9.629,5.949-13.602,9.922
	l8.517,8.517c7.663-7.663,18.25-12.403,29.944-12.403s22.281,4.74,29.944,12.403l8.517-8.517c-3.973-3.973-8.564-7.322-13.602-9.922
	C363.739,516.945,375.763,498.66,375.763,477.608z"/>
<polygon fill="#FFFFFF" points="388.523,210.856 447.522,193.735 405.644,151.857 "/>
<path fill="#A0A0A0" d="M405.644,193.735h-0.001v-75.896l-20.939-20.939l-86.037-13.234l-40.08,13.234l-20.939,20.939h0v109.188
	L252.75,238.5l26.813-11.472l21.022,13.472l63.179-13.472h41.878h0.001l0.074,68.172c0,23.088,18.716,41.804,41.804,41.804V193.735
	H405.644z"/>
<polygon fill="#0A3160" points="363.742,184.912 363.742,168.078 338.424,184.912 338.424,184.912 363.812,201.793 363.812,184.912 
	"/>
<path fill="#A0A0A0" d="M300.586,117.84"/>
<polygon fill="#0A3160" points="363.764,159.248 363.764,138.9 342.705,117.84 330.052,117.84 320,187.333 "/>
<polygon fill="#0A3160" points="258.587,96.901 290.488,128.802 322.389,96.901 "/>
<path fill="#FFFFFF" d="M346.932,184.912l16.833-16.833l-0.001-8.831c-0.195-4.48-3.879-8.055-8.407-8.055
	c-4.654,0-8.426,3.772-8.426,8.426v8.426v0.029h-16.88V117.84l-50.527,0v62.893l9.808,10.53l-9.771,10.53l25.235,25.235
	l16.005,17.774l42.963-42.963v-0.083v-0.01L346.932,184.912L346.932,184.912z"/>
<path fill="#0A3160" d="M300.586,180.733L300.586,180.733l-21.06,0v21.06l42.119,0C321.645,190.162,312.216,180.733,300.586,180.733
	z"/>
<polygon fill="#FFFFFF" points="384.704,96.901 368.753,80.95 348.316,80.95 332.365,65 332.365,65 290.489,65 258.588,96.901 "/>
<polygon fill="#0A3160" points="363.765,227.028 363.765,201.84 338.587,227.018 279.499,227.018 279.499,311.283 "/>
<path fill="#FFFFFF" d="M448.006,227.028h-0.484v68.172v41.804c-23.088,0-41.804-18.716-41.804-41.804h-0.272h0.198v-68.171h-16.385
	v42.09h-37.884l18.942,18.942l-75.311,75.311l140.057,12.943l96.993-12.943v-52.292v0
	C532.057,264.658,494.426,227.028,448.006,227.028z"/>
<path fill="#FFFFFF" d="M237.648,268.943l41.916-41.915h-84.278v0c-46.42,0-84.051,37.631-84.051,84.051v52.292l55.973,26.296
	l70.439-26.296V268.943z"/>
<polygon fill="#0A3160" points="237.648,227.074 228.255,217.681 167.208,278.728 167.208,363.371 173.25,369 180.492,363.371 
	180.492,284.23 "/>
<rect x="69.21" y="363.371" fill="#A0A0A0" width="504.872" height="42.025"/>
</svg>
