<?xml version="1.0" encoding="utf-8"?>
<!-- Generator: Adobe Illustrator 17.0.0, SVG Export Plug-In . SVG Version: 6.00 Build 0)  -->
<!DOCTYPE svg PUBLIC "-//W3C//DTD SVG 1.1//EN" "http://www.w3.org/Graphics/SVG/1.1/DTD/svg11.dtd">
<svg version="1.1" id="Layer_1" xmlns="http://www.w3.org/2000/svg" xmlns:xlink="http://www.w3.org/1999/xlink" x="0px" y="0px"
	 width="650px" height="650px" viewBox="0 0 650 650" enable-background="new 0 0 650 650" xml:space="preserve">
<rect x="69.21" y="343.371" fill="#A0A0A0" width="504.872" height="42.025"/>
<polygon fill="#FFFFFF" points="111.235,427.485 111.235,560 243.75,560 "/>
<path fill="#F1F1F1" d="M111.235,385.396v42.09L243.75,560h288.307V385.396H111.235z M321.346,486.217
	c-15.985,0-28.944-12.959-28.944-28.944c0-15.985,12.959-28.944,28.944-28.944c15.985,0,28.944,12.959,28.944,28.944
	C350.29,473.258,337.331,486.217,321.346,486.217z"/>
<path fill="#0A3160" d="M375.763,457.608c0-15.003-6.103-28.607-15.957-38.461l-8.517,8.517c7.664,7.663,12.404,18.25,12.404,29.944
	c0,23.388-18.96,42.348-42.348,42.348s-42.348-18.96-42.348-42.348c0-11.694,4.74-22.281,12.403-29.944l-8.517-8.517
	c-9.854,9.854-15.957,23.458-15.957,38.461c0,21.052,12.024,39.337,29.558,48.383c-5.038,2.599-9.629,5.949-13.602,9.922
	l8.517,8.517c7.663-7.663,18.25-12.403,29.944-12.403s22.281,4.74,29.944,12.403l8.517-8.517c-3.973-3.973-8.564-7.322-13.602-9.922
	C363.739,496.945,375.763,478.66,375.763,457.608z"/>
<path fill="#FFFFFF" d="M237.648,248.943l41.916-41.915h-84.278v0c-46.42,0-84.051,37.631-84.051,84.051v52.292h84.051h42.362
	v-29.649V248.943z"/>
<polygon fill="#0A3160" points="363.766,164.912 363.766,148.078 346.932,164.912 346.932,164.912 363.812,181.793 363.812,164.912 
	"/>
<path fill="#FFFFFF" d="M346.932,164.912L346.932,164.912l16.833-16.833V97.84h-63.18l-21.06,0v62.893h21.06v0
	c11.631,0,21.06,9.429,21.06,21.06h-21.06v0h-21.023l25.235,25.235h33.78l25.189-25.189v-0.083v-0.01L346.932,164.912z"/>
<polygon fill="#0A3160" points="363.829,207.028 279.563,207.028 279.563,291.293 "/>
<polygon fill="#0A3160" points="237.648,207.074 228.255,197.681 167.208,258.728 167.208,343.371 180.492,343.371 180.492,264.23 
	"/>
<path fill="#0A3160" d="M346.932,148.044v-8.426c0-4.653,3.772-8.426,8.426-8.426c4.528,0,8.212,3.575,8.407,8.055V118.9
	l-21.06-21.06h-12.653v50.233h16.88V148.044z"/>
<g>
	<polygon fill="#0A3160" points="322.389,76.901 258.587,76.901 279.525,97.839 301.45,97.839 	"/>
	<polygon fill="#0A3160" points="300.586,97.84 279.526,97.84 301.45,97.84 301.45,97.84 	"/>
</g>
<path fill="#0A3160" d="M300.586,181.792L300.586,181.792l-21.06,0v-21.06h21.06v0c11.631,0,21.059,9.429,21.059,21.06H300.586z"/>
<polygon fill="#FFFFFF" points="405.644,173.735 447.522,173.735 405.644,131.857 "/>
<polygon fill="#A0A0A0" points="279.526,181.756 279.526,97.84 300.586,97.84 304.798,97.84 304.798,97.839 279.525,97.839 
	258.587,76.901 237.648,97.839 237.648,97.839 237.648,207.028 304.798,207.028 "/>
<polygon fill="#FFFFFF" points="384.704,76.901 368.753,60.95 348.316,60.95 332.365,45 332.365,45 290.489,45 258.588,76.901 "/>
<path fill="#A0A0A0" d="M447.522,173.735h-41.878h-0.001V97.839l-20.939-20.939h-15.95v0h-46.796v0.432L301.45,97.84h20.507h20.748
	l21.06,21.06v54.836v33.292h41.878h0.001l0.074,68.172c0,23.088,18.716,41.804,41.804,41.804v-41.804v-68.172V173.735z"/>
<path fill="#FFFFFF" d="M448.006,207.028h-0.484v68.172v41.804c-23.088,0-41.804-18.716-41.804-41.804h-0.272h0.198v-68.171h-16.385
	v42.09h-25.493h-12.391l18.942,18.942l-75.311,75.311h153h84.051v-52.292v0C532.057,244.658,494.426,207.028,448.006,207.028z"/>
<polygon fill="#0A3160" points="338.577,207.028 363.764,181.84 363.764,207.028 "/>
</svg>
