<?xml version="1.0" encoding="utf-8"?>
<!-- Generator: Adobe Illustrator 17.0.0, SVG Export Plug-In . SVG Version: 6.00 Build 0)  -->
<!DOCTYPE svg PUBLIC "-//W3C//DTD SVG 1.1//EN" "http://www.w3.org/Graphics/SVG/1.1/DTD/svg11.dtd">
<svg version="1.1" id="Layer_1" xmlns="http://www.w3.org/2000/svg" xmlns:xlink="http://www.w3.org/1999/xlink" x="0px" y="0px"
	 width="650px" height="650px" viewBox="0 0 650 650" enable-background="new 0 0 650 650" xml:space="preserve">
<path fill="#0A3160" d="M537.179,291.994l-1.641-0.674c-1.416-0.591-2.835-1.175-4.257-1.749l-2.277-0.935v0.023
	c-22.181-8.806-44.968-15.516-68.218-20.157c14.79-22.162,27.295-45.767,37.388-70.66c5.587-13.44,2.569-28.752-7.689-39.011
	c-10.257-10.258-25.569-13.276-39.011-7.69l-1.67,0.697c-1.387,0.57-2.773,1.148-4.15,1.733l-2.566,1.071l0.02,0.019
	c-21.829,9.438-42.611,20.773-62.264,33.887c-5.213-26.129-13.062-51.662-23.526-76.402C351.765,98.693,338.803,90,324.296,90
	c-14.507,0-27.469,8.693-33.023,22.147l-0.7,1.706c-0.581,1.392-1.151,2.78-1.716,4.177l-0.941,2.292h0.023
	c-8.805,22.182-15.516,44.969-20.157,68.219c-22.162-14.79-45.767-27.295-70.661-37.389c-13.435-5.586-28.75-2.568-39.009,7.69
	c-10.259,10.257-13.276,25.57-7.69,39.01l0.655,1.57c0.587,1.429,1.184,2.857,1.786,4.277l1.015,2.432l0.018-0.019
	c9.448,21.868,20.798,42.686,33.933,62.37c-26.129,5.213-51.662,13.062-76.403,23.527c-13.453,5.554-22.147,18.515-22.147,33.022
	c0,14.506,8.694,27.468,22.147,33.022l1.654,0.679c1.397,0.584,2.796,1.158,4.199,1.726l2.323,0.955v-0.024
	c22.181,8.805,44.969,15.516,68.219,20.156c-14.79,22.162-27.295,45.767-37.389,70.661c-5.586,13.441-2.568,28.753,7.69,39.01
	c6.837,6.838,15.921,10.459,25.198,10.459c4.642,0,9.332-0.906,13.813-2.769l1.665-0.695c1.398-0.574,2.787-1.154,4.177-1.744
	l2.544-1.062l-0.02-0.019c21.829-9.438,42.611-20.773,62.264-33.887c5.213,26.129,13.062,51.662,23.526,76.402
	c5.553,13.454,18.515,22.147,33.022,22.147c14.506,0,27.468-8.693,33.021-22.147l0.646-1.573c0.606-1.449,1.202-2.902,1.79-4.356
	l0.922-2.246h-0.023c8.805-22.181,15.516-44.969,20.157-68.219c22.162,14.79,45.767,27.294,70.661,37.389
	c4.482,1.863,9.17,2.769,13.811,2.769c9.276-0.001,18.362-3.622,25.198-10.458c10.259-10.257,13.276-25.57,7.69-39.011l-0.705-1.689
	c-0.577-1.401-1.16-2.8-1.752-4.193l-0.856-2.052l-0.015,0.014c-9.476-21.991-20.875-42.923-34.079-62.71
	c26.129-5.213,51.662-13.062,76.4-23.526c13.454-5.553,22.148-18.515,22.148-33.022
	C559.327,310.509,550.634,297.548,537.179,291.994z M455.981,162.101l1.005-0.409c8.758-3.211,18.52-1.103,25.13,5.509
	c6.857,6.857,8.871,17.102,5.11,26.147c-10.446,25.762-23.559,50.083-39.167,72.807c-19.561-3.238-39.435-4.986-59.54-5.277v-0.068
	h-0.073c-0.291-20.102-2.062-39.968-5.298-59.523C405.879,185.67,430.209,172.551,455.981,162.101z M376.684,346.72L346,377.404
	h-43.393l-30.684-30.684v-43.392l30.684-30.684H346l30.684,30.684V346.72z M388.519,315.163l9.861,9.861l-9.861,9.861V315.163z
	 M376.684,377.404h-13.946l13.946-13.946V377.404z M334.165,389.239l-9.861,9.862l-9.861-9.862H334.165z M271.923,363.458
	l13.946,13.946h-13.946V363.458z M260.088,334.885l-9.861-9.861l9.861-9.861V334.885z M271.923,272.644h13.946l-13.946,13.946
	V272.644z M314.442,260.809l9.861-9.862l9.861,9.862H314.442z M362.738,272.644h13.946v13.946L362.738,272.644z M376.612,260.809
	h-25.709l-18.179-18.179c12.558-12.189,25.787-23.453,39.675-33.717C374.962,225.991,376.351,243.31,376.612,260.809z
	 M297.705,260.809h-25.709c0.261-17.498,1.65-34.818,4.213-51.896c13.888,10.264,27.117,21.528,39.675,33.717L297.705,260.809z
	 M260.088,298.425l-18.179,18.179c-12.189-12.557-23.453-25.786-33.717-39.675c17.078-2.563,34.398-3.952,51.896-4.213V298.425z
	 M260.088,351.623v25.709c-17.498-0.261-34.818-1.65-51.896-4.213c10.264-13.888,21.528-27.117,33.717-39.675L260.088,351.623z
	 M271.996,389.239h25.709l18.179,18.179c-12.558,12.189-25.787,23.453-39.675,33.717
	C273.646,424.057,272.257,406.737,271.996,389.239z M350.903,389.239h25.709c-0.261,17.499-1.65,34.818-4.213,51.897
	c-13.889-10.264-27.118-21.529-39.676-33.717L350.903,389.239z M388.519,351.623l18.179-18.179
	c12.189,12.558,23.453,25.787,33.717,39.675c-17.078,2.563-34.398,3.952-51.896,4.213V351.623z M388.519,298.425v-25.709
	c17.498,0.261,34.818,1.65,51.896,4.213c-10.263,13.888-21.528,27.117-33.717,39.675L388.519,298.425z M302.21,116.71l0.424-1.009
	c3.923-8.458,12.314-13.866,21.661-13.866c9.697,0,18.365,5.82,22.102,14.875c10.83,25.604,18.756,52.073,23.787,79.177
	c-16.122,11.542-31.411,24.361-45.832,38.372l-0.049-0.049l-0.051,0.051c-14.42-14.008-29.72-26.804-45.835-38.343
	C283.448,168.804,291.376,142.324,302.21,116.71z M161.38,193.347l-0.401-0.984c-3.222-8.763-1.116-18.535,5.5-25.152
	c6.859-6.857,17.105-8.869,26.147-5.111c25.762,10.447,50.083,23.56,72.807,39.168c-3.239,19.561-4.986,39.436-5.277,59.54h-0.069
	v0.073c-20.102,0.291-39.968,2.062-59.523,5.298C184.95,243.449,171.831,219.119,161.38,193.347z M115.99,347.118l-0.995-0.419
	c-8.466-3.921-13.881-12.316-13.881-21.668c0-9.696,5.82-18.364,14.876-22.102c25.603-10.83,52.073-18.755,79.177-23.786
	c11.542,16.121,24.361,31.41,38.371,45.832l-0.049,0.049l0.052,0.052c-14.009,14.419-26.804,29.719-38.343,45.835
	C168.083,365.879,141.603,357.952,115.99,347.118z M192.626,487.947l-1.006,0.41c-8.755,3.211-18.519,1.102-25.131-5.509
	c-6.856-6.856-8.869-17.101-5.11-26.147c10.447-25.763,23.56-50.084,39.168-72.807c19.561,3.238,39.435,4.986,59.54,5.277v0.068
	h0.073c0.291,20.101,2.062,39.968,5.298,59.523C242.728,464.377,218.398,477.497,192.626,487.947z M346.397,533.338l-0.414,0.985
	c-3.918,8.472-12.316,13.89-21.672,13.89c-9.697,0-18.365-5.82-22.102-14.875c-10.83-25.604-18.756-52.073-23.787-79.177
	c16.121-11.542,31.41-24.36,45.832-38.371l0.048,0.048l0.052-0.051c14.419,14.009,29.719,26.804,45.835,38.343
	C365.159,481.244,357.232,507.725,346.397,533.338z M487.226,456.701l0.411,1.009c3.208,8.756,1.1,18.517-5.51,25.127
	c-6.858,6.856-17.102,8.87-26.147,5.11c-25.763-10.447-50.084-23.56-72.808-39.168c3.239-19.561,4.986-39.436,5.277-59.54h0.068
	v-0.073c20.101-0.291,39.968-2.062,59.522-5.298C463.658,406.6,476.776,430.93,487.226,456.701z M532.617,347.118
	c-25.603,10.83-52.073,18.755-79.178,23.787c-11.541-16.121-24.358-31.41-38.369-45.832l0.049-0.049l-0.052-0.052
	c14.009-14.42,26.804-29.72,38.343-45.835c27.115,5.031,53.595,12.959,79.207,23.792l0.996,0.419
	c8.466,3.92,13.88,12.315,13.88,21.667C547.492,334.713,541.672,343.381,532.617,347.118z"/>
<circle fill="#FFFFFF" cx="325.128" cy="325.024" r="22.487"/>
</svg>
