<?xml version="1.0" encoding="utf-8"?>
<!-- Generator: Adobe Illustrator 17.0.0, SVG Export Plug-In . SVG Version: 6.00 Build 0)  -->
<!DOCTYPE svg PUBLIC "-//W3C//DTD SVG 1.1//EN" "http://www.w3.org/Graphics/SVG/1.1/DTD/svg11.dtd">
<svg version="1.1" id="Layer_1" xmlns="http://www.w3.org/2000/svg" xmlns:xlink="http://www.w3.org/1999/xlink" x="0px" y="0px"
	 width="650px" height="650px" viewBox="0 0 650 650" enable-background="new 0 0 650 650" xml:space="preserve">
<path fill="#333333" d="M504.173,297.092l-1.387-0.57c-1.196-0.5-2.396-0.992-3.597-1.478l-1.924-0.79v0.02
	c-18.742-7.44-37.996-13.111-57.641-17.031c12.497-18.726,23.063-38.671,31.591-59.704c4.721-11.356,2.171-24.294-6.497-32.962
	c-8.667-8.667-21.604-11.218-32.962-6.497l-1.411,0.589c-1.172,0.481-2.343,0.97-3.507,1.464l-2.168,0.905l0.017,0.016
	c-18.445,7.975-36.004,17.552-52.61,28.633c-4.405-22.077-11.037-43.652-19.879-64.556c-4.692-11.368-15.645-18.713-27.902-18.713
	s-23.21,7.345-27.902,18.713l-0.592,1.442c-0.491,1.176-0.973,2.349-1.45,3.53l-0.795,1.936h0.02
	c-7.44,18.742-13.111,37.997-17.031,57.642c-18.726-12.497-38.671-23.063-59.705-31.592c-11.352-4.72-24.292-2.17-32.961,6.497
	c-8.668,8.667-11.218,21.605-6.498,32.962l0.554,1.326c0.496,1.207,1,2.414,1.509,3.614l0.857,2.055l0.016-0.016
	c7.983,18.477,17.573,36.067,28.672,52.7c-22.078,4.405-43.652,11.037-64.557,19.879c-11.367,4.693-18.713,15.645-18.713,27.902
	c0,12.257,7.346,23.209,18.713,27.902l1.397,0.574c1.181,0.493,2.362,0.979,3.548,1.458l1.963,0.807v-0.02
	c18.742,7.44,37.996,13.11,57.642,17.031c-12.497,18.726-23.063,38.671-31.592,59.705c-4.72,11.357-2.17,24.295,6.498,32.962
	c5.777,5.777,13.452,8.837,21.291,8.837c3.922,0,7.885-0.766,11.671-2.34l1.407-0.587c1.182-0.485,2.354-0.975,3.529-1.474
	l2.149-0.898l-0.017-0.016c18.444-7.975,36.004-17.552,52.61-28.633c4.405,22.078,11.037,43.652,19.879,64.556
	c4.692,11.368,15.645,18.713,27.902,18.713c12.257,0,23.209-7.345,27.901-18.713l0.546-1.329c0.512-1.224,1.016-2.452,1.513-3.681
	l0.779-1.898h-0.02c7.44-18.742,13.11-37.997,17.031-57.642c18.726,12.497,38.671,23.062,59.705,31.592
	c3.787,1.574,7.748,2.34,11.67,2.34c7.838,0,15.515-3.06,21.291-8.837c8.668-8.667,11.218-21.605,6.498-32.962l-0.596-1.427
	c-0.487-1.184-0.98-2.365-1.48-3.542l-0.724-1.734l-0.013,0.012c-8.007-18.582-17.639-36.268-28.795-52.987
	c22.077-4.405,43.651-11.037,64.554-19.879c11.368-4.692,18.714-15.645,18.714-27.902
	C522.887,312.736,515.541,301.784,504.173,297.092z M435.564,187.338l0.85-0.346c7.4-2.713,15.648-0.932,21.233,4.655
	c5.794,5.794,7.495,14.45,4.317,22.093c-8.826,21.768-19.906,42.317-33.094,61.518c-16.528-2.736-33.321-4.213-50.308-4.459v-0.058
	h-0.061c-0.246-16.985-1.742-33.771-4.477-50.294C393.231,207.253,413.788,196.169,435.564,187.338z M368.562,343.332
	l-25.926,25.926h-36.665l-25.926-25.926v-36.664l25.926-25.926h36.665l25.926,25.926V343.332z M378.562,316.668l8.332,8.332
	l-8.332,8.332V316.668z M368.562,369.259h-11.784l11.784-11.784V369.259z M332.636,379.259l-8.332,8.333l-8.332-8.333H332.636z
	 M280.045,357.475l11.784,11.784h-11.784V357.475z M270.045,333.332L261.713,325l8.332-8.332V333.332z M280.045,280.742h11.784
	l-11.784,11.784V280.742z M315.971,270.742l8.332-8.333l8.332,8.333H315.971z M356.778,280.742h11.784v11.784L356.778,280.742z
	 M368.501,270.742h-21.723l-15.36-15.36c10.611-10.299,21.789-19.817,33.524-28.489
	C367.107,241.322,368.281,255.956,368.501,270.742z M301.829,270.742h-21.723c0.22-14.785,1.394-29.419,3.56-43.85
	c11.735,8.672,22.913,18.19,33.524,28.489L301.829,270.742z M270.045,302.526l-15.36,15.36
	c-10.299-10.61-19.817-21.788-28.489-33.523c14.43-2.166,29.064-3.339,43.849-3.56V302.526z M270.045,347.475v21.723
	c-14.785-0.22-29.419-1.394-43.849-3.559c8.672-11.735,18.19-22.913,28.489-33.523L270.045,347.475z M280.106,379.259h21.723
	l15.36,15.36c-10.611,10.299-21.789,19.817-33.524,28.489C281.5,408.678,280.327,394.044,280.106,379.259z M346.778,379.259h21.723
	c-0.22,14.785-1.394,29.42-3.56,43.85c-11.735-8.672-22.913-18.191-33.524-28.49L346.778,379.259z M378.562,347.475l15.36-15.36
	c10.299,10.611,19.817,21.789,28.489,33.523c-14.43,2.166-29.064,3.339-43.849,3.559V347.475z M378.562,302.526v-21.723
	c14.785,0.22,29.419,1.394,43.849,3.56c-8.672,11.735-18.19,22.913-28.489,33.523L378.562,302.526z M305.636,148.985l0.358-0.852
	c3.314-7.147,10.404-11.716,18.303-11.716c8.193,0,15.518,4.918,18.675,12.569c9.151,21.634,15.848,43.999,20.099,66.901
	c-13.622,9.752-26.54,20.583-38.726,32.422l-0.041-0.041l-0.043,0.043c-12.184-11.836-25.112-22.648-38.729-32.398
	C289.783,193.002,296.481,170.628,305.636,148.985z M186.642,213.74l-0.339-0.831c-2.723-7.404-0.943-15.661,4.647-21.252
	c5.796-5.794,14.453-7.494,22.093-4.318c21.768,8.827,42.318,19.907,61.519,33.095c-2.736,16.528-4.213,33.321-4.459,50.308h-0.058
	v0.061c-16.985,0.246-33.771,1.742-50.294,4.477C206.557,256.073,195.472,235.516,186.642,213.74z M148.289,343.669l-0.841-0.354
	c-7.153-3.313-11.729-10.407-11.729-18.308c0-8.193,4.918-15.517,12.569-18.675c21.634-9.151,43.999-15.847,66.901-20.098
	c9.752,13.622,20.583,26.54,32.422,38.726L247.57,325l0.044,0.044c-11.837,12.184-22.648,25.111-32.398,38.728
	C192.305,359.521,169.931,352.823,148.289,343.669z M213.043,462.662l-0.85,0.346c-7.397,2.713-15.647,0.931-21.234-4.655
	c-5.793-5.793-7.494-14.449-4.317-22.093c8.827-21.768,19.907-42.318,33.095-61.518c16.528,2.736,33.321,4.213,50.308,4.459v0.058
	h0.061c0.246,16.985,1.742,33.771,4.477,50.294C255.376,442.747,234.819,453.832,213.043,462.662z M342.972,501.015l-0.35,0.832
	c-3.311,7.159-10.406,11.737-18.312,11.737c-8.193,0-15.518-4.918-18.675-12.569c-9.151-21.634-15.848-43.999-20.099-66.901
	c13.622-9.752,26.54-20.583,38.726-32.422l0.041,0.041l0.044-0.044c12.184,11.837,25.111,22.648,38.728,32.398
	C358.825,456.999,352.126,479.373,342.972,501.015z M461.965,436.261l0.348,0.853c2.711,7.399,0.93,15.646-4.655,21.231
	c-5.795,5.793-14.45,7.495-22.093,4.318c-21.768-8.827-42.318-19.907-61.519-33.095c2.736-16.528,4.213-33.322,4.459-50.309h0.058
	v-0.061c16.985-0.246,33.771-1.742,50.293-4.477C442.051,393.928,453.135,414.485,461.965,436.261z M500.317,343.669
	c-21.633,9.151-43.999,15.847-66.901,20.099c-9.752-13.621-20.582-26.54-32.42-38.726l0.041-0.041l-0.044-0.044
	c11.837-12.184,22.648-25.112,32.398-38.728c22.911,4.251,45.285,10.949,66.926,20.103l0.842,0.354
	c7.153,3.312,11.728,10.406,11.728,18.308C512.887,333.187,507.969,340.511,500.317,343.669z"/>
<circle fill="#FFFFFF" cx="325" cy="325" r="19"/>
</svg>
