<?xml version="1.0" encoding="utf-8"?>
<!-- Generator: Adobe Illustrator 17.0.0, SVG Export Plug-In . SVG Version: 6.00 Build 0)  -->
<!DOCTYPE svg PUBLIC "-//W3C//DTD SVG 1.1//EN" "http://www.w3.org/Graphics/SVG/1.1/DTD/svg11.dtd">
<svg version="1.1" id="Layer_1" xmlns="http://www.w3.org/2000/svg" xmlns:xlink="http://www.w3.org/1999/xlink" x="0px" y="0px"
	 width="650px" height="650px" viewBox="0 0 650 650" enable-background="new 0 0 650 650" xml:space="preserve">
<g>
	<path fill="#333333" d="M267.188,555.51v-39.129h-24.457v0.183l-0.127-0.183l0,0l-8.104,19.565h-1.547
		c-10.806,0-19.565,8.76-19.565,19.565h14.67h9.782h4.891h24.457h0L267.188,555.51z"/>
	<path fill="#333333" d="M213.392,555.51v-39.129h-24.457v0.183l-0.127-0.183l0,0l-8.104,19.565h-1.547
		c-10.806,0-19.565,8.76-19.565,19.565h14.67h9.782h4.891h24.457h0L213.392,555.51z"/>
	<rect x="232.949" y="428.322" fill="#A0A0A0" width="34.251" height="53.808"/>
	<polygon fill="#A0A0A0" points="201.164,428.322 201.164,428.322 179.141,428.322 179.141,482.13 213.392,482.13 213.392,462.573 
		232.949,482.13 267.2,482.13 267.2,428.322 	"/>
	<path fill="#333333" d="M329.835,298.611h-31.333c0,17.267-14.039,31.315-31.302,31.332v-0.006h-88.027v0
		c-17.277,0-31.333-14.056-31.333-31.333h-31.333c0,34.544,28.095,62.649,62.635,62.666v67.052H267.2v-67.045
		C301.74,361.259,329.835,333.155,329.835,298.611z"/>
	<path fill="#FFFFFF" d="M298.502,298.611h3.915l0,0h27.427V267.31l-7.83-7.83h-19.597v19.574h-3.915v-3.915
		c0-4.324-3.506-7.83-7.83-7.83v7.83v7.83v7.812L298.502,298.611z"/>
	<path fill="#FFFFFF" d="M147.848,298.611h-3.915l0,0h-27.427V267.31l7.83-7.83h19.597v19.574h3.915v-3.915
		c0-4.324,3.506-7.83,7.83-7.83v7.83v7.83v7.812L147.848,298.611z"/>
	<path fill="#333333" d="M456.819,421.472v-39.129h-24.457v0.183l-0.127-0.183l0,0l-8.104,19.565h-1.547
		c-10.806,0-19.565,8.76-19.565,19.565h14.67h9.782h4.891h24.457h0L456.819,421.472z"/>
	<path fill="#333333" d="M403.023,421.472v-39.129h-24.457v0.183l-0.127-0.183l0,0l-8.104,19.565h-1.547
		c-10.806,0-19.565,8.76-19.565,19.565h14.67h9.782h4.891h24.457h0L403.023,421.472z"/>
	<path fill="#A0A0A0" d="M519.466,164.573h-31.333c0,17.267-14.039,31.315-31.301,31.332v-0.006h-88.028v0
		c-17.277,0-31.333-14.056-31.333-31.333h-31.333c0,34.544,28.095,62.649,62.635,62.666v120.86h88.06V227.238
		C491.371,227.221,519.466,199.117,519.466,164.573z"/>
	<path fill="#FFFFFF" d="M488.133,164.573h3.915l0,0h27.427v-31.301l-7.83-7.83h-19.597v19.574h-3.915v-3.915
		c0-4.324-3.506-7.83-7.83-7.83v7.83v7.83v7.812L488.133,164.573z"/>
	<path fill="#FFFFFF" d="M337.479,164.573h-3.915l0,0h-27.427v-31.301l7.83-7.83h19.597v19.574h3.915v-3.915
		c0-4.324,3.506-7.83,7.83-7.83v7.83v7.83v7.812L337.479,164.573z"/>
	<path fill="#333333" d="M432.371,115.818c-10.808,0-19.569,8.761-19.569,19.569h-19.569v19.569h19.569l19.569,19.569v-19.569
		c10.808,0,19.569-8.761,19.569-19.569C451.939,124.579,443.178,115.818,432.371,115.818z"/>
	<polygon fill="#FFFFFF" points="412.802,154.955 393.233,154.955 393.233,184.158 404.974,195.899 420.668,195.899 
		432.371,184.196 432.371,184.158 432.371,174.524 	"/>
	<rect x="188.935" y="482.13" fill="#FFFFFF" width="24.457" height="34.251"/>
	<rect x="242.739" y="482.13" fill="#FFFFFF" width="24.457" height="34.251"/>
	<g>
		<rect x="378.558" y="348.092" fill="#FFFFFF" width="24.457" height="34.251"/>
		<rect x="432.363" y="348.092" fill="#FFFFFF" width="24.457" height="34.251"/>
	</g>
	<path fill="#333333" d="M223.171,269.425c0-10.807-8.762-19.569-19.569-19.569c-10.808,0-19.569,8.761-19.569,19.569
		c0,10.808,8.761,19.569,19.569,19.569h19.569l19.568,19.569v-39.138H223.171z"/>
	<polygon fill="#FFFFFF" points="242.739,279.209 242.739,308.562 223.171,288.993 203.602,288.993 203.602,288.993 
		203.602,318.196 215.343,329.937 231.037,329.937 242.739,318.235 242.739,318.196 242.739,279.209 	"/>
</g>
</svg>
