<?xml version="1.0" encoding="utf-8"?>
<!-- Generator: Adobe Illustrator 18.1.1, SVG Export Plug-In . SVG Version: 6.00 Build 0)  -->
<svg version="1.1" id="Layer_1" xmlns="http://www.w3.org/2000/svg" xmlns:xlink="http://www.w3.org/1999/xlink" x="0px" y="0px"
	 viewBox="0 0 650 650" enable-background="new 0 0 650 650" xml:space="preserve">
<polygon fill="#FFFFFF" points="102.041,466.257 88.96,481.803 88.96,518.443 102.041,528.742 115.123,518.443 115.123,481.803 "/>
<polygon fill="#FFFFFF" points="159.598,468.722 146.517,481.803 146.517,518.443 159.598,531.5 172.679,518.443 172.679,481.803 
	"/>
<path fill="#0A3160" d="M172.671,560.301v-41.858h-26.162v0.196l-0.136-0.196l0,0l-8.67,20.93h-1.655
	c-11.559,0-20.93,9.371-20.93,20.93h57.552h0L172.671,560.301z"/>
<path fill="#0A3160" d="M115.123,560.301v-41.858H88.96v0.196l-0.136-0.196l0,0l-8.67,20.93H78.5c-11.559,0-20.93,9.371-20.93,20.93
	h57.552h0L115.123,560.301z"/>
<rect x="136.044" y="424.242" fill="#A0A0A0" width="36.64" height="57.561"/>
<polygon fill="#A0A0A0" points="172.684,424.242 125.583,377.142 78.483,424.242 78.483,481.803 115.123,481.803 115.123,460.882 
	136.044,481.803 172.684,481.803 172.684,424.242 "/>
<path fill="#0A3160" d="M125.583,254.263c0-11.561-9.373-20.934-20.934-20.934c-11.562,0-20.934,9.372-20.934,20.934
	c0,11.561,9.372,20.934,20.934,20.934l41.867,20.934v-41.867H125.583z"/>
<path fill="#FFFFFF" d="M45.007,260.376v4.188h-4.188v-20.94H19.855l-8.376,8.376v33.484l0.013-0.003l16.75,16.75l25.141-25.124
	v-25.108C48.757,252.001,45.007,255.751,45.007,260.376z"/>
<polygon fill="#FFFFFF" points="125.583,275.196 104.65,275.196 104.65,306.436 125.604,327.39 146.517,306.477 146.517,306.436 
	146.517,296.13 "/>
<path fill="#FFFFFF" d="M206.168,260.376v4.188h4.188v-20.94h20.964l8.376,8.376v33.484l-0.013-0.003l-16.75,16.75l-25.141-25.124
	v-25.108C202.418,252.001,206.168,255.751,206.168,260.376z"/>
<path fill="#0A3160" d="M239.688,285.485h-33.519c0,18.471-15.018,33.499-33.485,33.518v-0.007H78.517v0
	c-18.482,0-33.519-15.036-33.519-33.519H11.48c0,36.953,30.054,67.018,67.003,67.037v71.729h94.201v-71.722
	C209.633,352.502,239.688,322.438,239.688,285.485z"/>
<polygon fill="#A0A0A0" points="300.907,325 287.826,338.416 287.826,375.056 300.907,388.25 313.989,375.056 313.989,338.416 "/>
<polygon fill="#A0A0A0" points="358.464,325.335 345.383,338.416 345.383,375.056 358.464,387 371.545,375.056 371.545,338.416 "/>
<path fill="#0A3160" d="M371.537,416.914v-41.858h-26.162v0.196l-0.136-0.196l0,0l-8.67,20.93h-1.655
	c-11.559,0-20.93,9.371-20.93,20.93h57.552h0L371.537,416.914z"/>
<path fill="#0A3160" d="M313.989,416.914v-41.858h-26.162v0.196l-0.136-0.196l0,0l-8.67,20.93h-1.655
	c-11.559,0-20.93,9.371-20.93,20.93h57.552h0L313.989,416.914z"/>
<polygon fill="#FFFFFF" points="499.875,468.722 486.793,481.803 486.793,518.443 499.875,531.5 512.956,518.443 512.956,481.803 
	"/>
<polygon fill="#FFFFFF" points="557.431,468.722 544.35,481.803 544.35,518.443 557.431,531.5 570.513,518.443 570.513,481.803 "/>
<path fill="#0A3160" d="M544.361,233.329c-11.562,0-20.934,9.372-20.934,20.934h-20.934v20.934l41.867,20.934v0v-20.934
	c11.562,0,20.934-9.372,20.934-20.934C565.295,242.701,555.922,233.329,544.361,233.329z"/>
<polygon fill="#FFFFFF" points="523.419,275.196 502.485,275.196 502.485,306.436 523.44,327.39 544.352,306.477 544.352,306.436 
	544.352,296.13 "/>
<path fill="#FFFFFF" d="M442.847,260.376v4.188h-4.188v-20.94h-20.964l-8.376,8.376v33.484l0.013-0.003l16.75,16.75l25.141-25.124
	v-25.108C446.597,252.001,442.847,255.751,442.847,260.376z"/>
<path fill="#FFFFFF" d="M604.008,260.376v4.188h4.188v-20.94h20.964l8.376,8.376l0,33.484l-0.013-0.003l-16.75,16.75l-25.141-25.124
	l0-25.108C600.258,252.001,604.008,255.751,604.008,260.376z"/>
<path fill="#A0A0A0" d="M637.531,285.485h-33.519c0,18.471-15.018,33.499-33.484,33.518v-0.007h-94.167v0
	c-18.482,0-33.518-15.036-33.518-33.519h-33.519c0,36.953,30.054,67.018,67.003,67.037v129.29h94.201V352.521
	C607.477,352.502,637.531,322.438,637.531,285.485z"/>
<path fill="#A0A0A0" d="M243.884,116.989v4.188h-4.188v-20.94h-20.964l-8.376,8.376v33.484l0.013-0.003l16.75,16.75l25.141-25.124
	v-25.108C247.634,108.614,243.884,112.364,243.884,116.989z"/>
<path fill="#A0A0A0" d="M405.045,116.989v4.188h4.188v-20.94h20.964l8.376,8.376v33.484l-0.013-0.003l-16.75,16.75l-25.141-25.124
	v-25.108C401.295,108.614,405.045,112.364,405.045,116.989z"/>
<polygon fill="#0A3160" points="345.393,152.743 345.393,110.875 324.46,110.875 303.526,110.875 303.526,131.809 "/>
<polygon fill="#A0A0A0" points="324.46,131.809 303.526,131.809 303.526,163.049 324.481,184.003 345.393,163.09 345.393,163.049 
	345.393,152.743 "/>
<polygon fill="#FFFFFF" points="371.56,280.855 324.46,233.755 277.359,280.855 277.359,338.416 313.999,338.416 313.999,317.495 
	334.92,338.416 371.56,338.416 371.56,280.855 "/>
<path fill="#0A3160" d="M438.564,142.097h-33.519c0,18.471-15.018,33.499-33.485,33.518v-0.007h-94.167v0
	c-18.482,0-33.519-15.036-33.519-33.519h-33.518c0,36.953,30.054,67.018,67.003,67.037v71.729h94.201v-71.722
	C408.509,209.115,438.564,179.051,438.564,142.097z"/>
<path fill="#0A3160" d="M570.513,560.301v-41.858H544.35v0.196l-0.136-0.196l0,0l-8.669,20.93h-1.655
	c-11.559,0-20.93,9.371-20.93,20.93h57.552h0L570.513,560.301z"/>
<path fill="#0A3160" d="M512.956,560.301v-41.858h-26.162v0.196l-0.136-0.196l0,0l-8.67,20.93h-1.655
	c-11.559,0-20.93,9.371-20.93,20.93h57.552h0L512.956,560.301z"/>
</svg>
