<?xml version="1.0" encoding="utf-8"?>
<!-- Generator: Adobe Illustrator 17.0.0, SVG Export Plug-In . SVG Version: 6.00 Build 0)  -->
<!DOCTYPE svg PUBLIC "-//W3C//DTD SVG 1.1//EN" "http://www.w3.org/Graphics/SVG/1.1/DTD/svg11.dtd">
<svg version="1.1" id="Layer_1" xmlns="http://www.w3.org/2000/svg" xmlns:xlink="http://www.w3.org/1999/xlink" x="0px" y="0px"
	 width="650px" height="650px" viewBox="0 0 650 650" enable-background="new 0 0 650 650" xml:space="preserve">
<g>
	<path fill="#0A3160" d="M263.645,560.301v-41.858h-26.162v0.196l-0.136-0.196l0,0l-8.67,20.93h-1.655
		c-11.559,0-20.93,9.371-20.93,20.93h15.693h10.465h5.232h26.162h0L263.645,560.301z"/>
	<path fill="#0A3160" d="M206.097,560.301v-41.858h-26.162v0.196l-0.136-0.196l0,0l-8.67,20.93h-1.655
		c-11.559,0-20.93,9.371-20.93,20.93h15.693h10.465h5.232h26.162h0L206.097,560.301z"/>
	<rect x="227.018" y="424.242" fill="#A0A0A0" width="36.64" height="57.561"/>
	<polygon fill="#A0A0A0" points="193.015,424.242 193.015,424.242 169.457,424.242 169.457,481.803 206.097,481.803 
		206.097,460.882 227.018,481.803 263.658,481.803 263.658,424.242 	"/>
	<path fill="#0A3160" d="M330.662,285.485h-33.519c0,18.471-15.018,33.499-33.485,33.518v-0.007h-94.167v0
		c-18.482,0-33.519-15.036-33.519-33.519h-33.518c0,36.953,30.054,67.018,67.003,67.037v71.729h94.201v-71.722
		C300.607,352.502,330.662,322.438,330.662,285.485z"/>
	<path fill="#FFFFFF" d="M297.142,285.485h4.188l0,0h29.34v-33.484l-8.376-8.376H301.33v20.94h-4.188v-4.188
		c0-4.626-3.75-8.376-8.376-8.376v8.376v8.376v8.357L297.142,285.485z"/>
	<path fill="#FFFFFF" d="M135.981,285.485h-4.188l0,0h-29.34v-33.484l8.376-8.376h20.964v20.94h4.188v-4.188
		c0-4.626,3.75-8.376,8.376-8.376v8.376v8.376v8.357L135.981,285.485z"/>
	<path fill="#0A3160" d="M466.502,416.914v-41.858H440.34v0.196l-0.136-0.196l0,0l-8.67,20.93h-1.655
		c-11.559,0-20.93,9.371-20.93,20.93h15.693h10.465h5.232h26.162h0L466.502,416.914z"/>
	<path fill="#0A3160" d="M408.954,416.914v-41.858h-26.162v0.196l-0.136-0.196l0,0l-8.67,20.93h-1.655
		c-11.559,0-20.93,9.371-20.93,20.93h15.693h10.465h5.232h26.162h0L408.954,416.914z"/>
	<path fill="#A0A0A0" d="M533.518,142.098H500c0,18.471-15.018,33.499-33.484,33.518v-0.007h-94.167v0
		c-18.482,0-33.518-15.036-33.518-33.519H305.31c0,36.953,30.054,67.018,67.003,67.037v129.29h94.201V209.134
		C503.464,209.115,533.518,179.051,533.518,142.098z"/>
	<path fill="#FFFFFF" d="M500,142.098h4.188l0,0h29.34v-33.484l-8.376-8.376h-20.964v20.94H500v-4.188
		c0-4.626-3.75-8.376-8.376-8.376v8.376v8.376v8.357L500,142.098z"/>
	<path fill="#FFFFFF" d="M338.838,142.098h-4.188l0,0h-29.34v-33.484l8.376-8.376h20.964v20.94h4.188v-4.188
		c0-4.626,3.75-8.376,8.376-8.376v8.376v8.376v8.357L338.838,142.098z"/>
	<path fill="#0A3160" d="M440.348,89.942c-11.561,0-20.934,9.372-20.934,20.934h-20.934v20.934h20.934l20.934,20.934v-20.934
		c11.561,0,20.934-9.372,20.934-20.934C461.282,99.314,451.91,89.942,440.348,89.942z"/>
	<polygon fill="#FFFFFF" points="419.414,131.809 398.481,131.809 398.481,163.049 411.041,175.609 427.829,175.609 440.348,163.09 
		440.348,163.049 440.348,152.743 	"/>
	<rect x="179.934" y="481.803" fill="#FFFFFF" width="26.162" height="36.64"/>
	<rect x="237.491" y="481.803" fill="#FFFFFF" width="26.162" height="36.64"/>
	<g>
		<rect x="382.783" y="338.416" fill="#FFFFFF" width="26.162" height="36.64"/>
		<rect x="440.34" y="338.416" fill="#FFFFFF" width="26.162" height="36.64"/>
	</g>
	<path fill="#0A3160" d="M216.558,254.263c0-11.561-9.373-20.934-20.934-20.934c-11.561,0-20.934,9.372-20.934,20.934
		c0,11.561,9.372,20.934,20.934,20.934h20.934l20.933,20.934v-41.867H216.558z"/>
	<polygon fill="#FFFFFF" points="237.491,264.729 237.491,296.13 216.558,275.196 195.624,275.196 195.624,275.196 195.624,306.436 
		208.184,318.996 224.972,318.996 237.491,306.477 237.491,306.436 237.491,264.729 	"/>
</g>
</svg>
