<?xml version="1.0" encoding="UTF-8" standalone="no"?>
<svg width="205px" height="116px" viewBox="0 0 205 116" version="1.1" xmlns="http://www.w3.org/2000/svg" xmlns:xlink="http://www.w3.org/1999/xlink">
    <defs></defs>
    <g id="Page-1" stroke="none" stroke-width="1" fill="none" fill-rule="evenodd">
        <g id="Artboard-1-Copy-9" transform="translate(-425.000000, -280.000000)">
            <g id="Group-Copy-+-The-World-Food-Progr-Copy-6" transform="translate(10.000000, 216.000000)">
                <g id="Group-Copy">
                    <g id="Imported-Layers" transform="translate(415.000000, 64.000000)">
                        <g>
                            <path d="M122.111667,58.0310714 L102.216644,58.0310714 L100.4336,62.0647857 L100.4336,64.9730714 L101.324667,65.884 L101.325578,65.8849286 C101.757444,65.429 102.363333,65.1439286 103.034822,65.1439286 C104.347733,65.1439286 105.412822,66.2294286 105.412822,67.5675 L105.412822,72.4137143 L101.741044,72.4137143 L99.7202,74.3024286 L99.7202,76.2301429 L95.9564,79.6835 L95.9564,84.5306429 L97.3422,87.1102143 L97.58,90.5394286 L97.8178,93.8107857 L96.6288,98.0404286 L92.7055556,98.657 L92.7055556,101.664643 C92.9761556,101.556 93.2695333,101.493786 93.5784,101.493786 C94.8913111,101.493786 95.9564,102.579286 95.9564,103.917357 L95.9564,108.763571 L91.2004,108.763571 L91.2004,107.260214 L88.7823111,107.986357 L87.9504667,111.985714 L87.9504667,116.190286 L119.733667,116.190286 L119.733667,60.4537143 L122.111667,60.4537143 L122.111667,58.0310714 L122.111667,58.0310714 Z M105.412822,84.5306429 L100.656822,84.5306429 L100.656822,79.6835 C100.656822,78.3454286 101.721911,77.2608571 103.034822,77.2608571 C104.347733,77.2608571 105.412822,78.3454286 105.412822,79.6835 L105.412822,84.5306429 L105.412822,84.5306429 Z M105.412822,96.6475714 L100.656822,96.6475714 L100.656822,91.8004286 C100.656822,90.4623571 101.721911,89.3777857 103.034822,89.3777857 C104.347733,89.3777857 105.412822,90.4623571 105.412822,91.8004286 L105.412822,96.6475714 L105.412822,96.6475714 Z M105.412822,108.763571 L100.656822,108.763571 L100.656822,103.917357 C100.656822,102.579286 101.721911,101.493786 103.034822,101.493786 C104.347733,101.493786 105.412822,102.579286 105.412822,103.917357 L105.412822,108.763571 L105.412822,108.763571 Z M114.923911,72.4137143 L110.167911,72.4137143 L110.167911,67.5675 C110.167911,66.2294286 111.233,65.1439286 112.545911,65.1439286 C113.858822,65.1439286 114.923911,66.2294286 114.923911,67.5675 L114.923911,72.4137143 L114.923911,72.4137143 Z M114.923911,84.5306429 L110.167911,84.5306429 L110.167911,79.6835 C110.167911,78.3454286 111.233,77.2608571 112.545911,77.2608571 C113.858822,77.2608571 114.923911,78.3454286 114.923911,79.6835 L114.923911,84.5306429 L114.923911,84.5306429 Z M114.923911,96.6475714 L110.167911,96.6475714 L110.167911,91.8004286 C110.167911,90.4623571 111.233,89.3777857 112.545911,89.3777857 C113.858822,89.3777857 114.923911,90.4623571 114.923911,91.8004286 L114.923911,96.6475714 L114.923911,96.6475714 Z M114.923911,108.763571 L110.167911,108.763571 L110.167911,103.917357 C110.167911,102.579286 111.233,101.493786 112.545911,101.493786 C113.858822,101.493786 114.923911,102.579286 114.923911,103.917357 L114.923911,108.763571 L114.923911,108.763571 Z" id="Fill-1" fill="#A4998D"></path>
                            <path d="M63.6402,51.8152143 L63.6402,57.7413571 L58.8960444,57.7413571 L57.6487333,60.9662857 L51.7310667,62.4027857 L50.0209111,64.2032857 L50.9584444,64.2032857 L50.9584444,80.3595 L44.6180222,80.3595 L44.6180222,67.7457857 L39.6132889,67.7457857 L39.6132889,71.5362143 L23.5504,71.5362143 L17.9142667,75.3275714 L12.9140889,73.6022857 L12.9140889,80.3595 L6.57366667,80.3595 L6.57366667,71.4155 L0.161266667,69.2036429 L0.161266667,116.190286 L69.9077333,116.190286 L69.9077333,52.6936429 L63.6402,51.8152143 L63.6402,51.8152143 Z M6.57366667,86.8214286 L12.9140889,86.8214286 L12.9140889,102.976714 L6.57366667,102.976714 L6.57366667,86.8214286 Z M44.6180222,86.8214286 L50.9584444,86.8214286 L50.9584444,102.976714 L44.6180222,102.976714 L44.6180222,86.8214286 Z M57.2997778,86.8214286 L63.6402,86.8214286 L63.6402,102.976714 L57.2997778,102.976714 L57.2997778,86.8214286 Z M57.2997778,64.2032857 L63.6402,64.2032857 L63.6402,80.3585714 L57.2997778,80.3585714 L57.2997778,64.2032857 Z" id="Fill-2" fill="#333333"></path>
                            <path d="M150.247689,79.4606429 L150.247689,72.6997143 L147.328489,60.5939286 L145.836089,58.7256429 L135.102289,58.7256429 L135.102289,62.738 L130.613244,65.1597143 L130.613244,66.3863571 L126.966067,70.1034286 L124.531578,70.1034286 L122.172711,74.4705 L122.172711,78.8570714 C124.439556,78.8570714 126.278178,80.73 126.278178,83.0402857 L126.278178,90.792 L118.066333,90.792 L114.554,92.9787857 L114.554,95.5973571 L115.902444,96.0532857 L114.554,96.6345714 L114.554,100.0935 L113.254756,100.0935 L111.828867,102.376857 L111.828867,106.389214 L110.137844,112.7555 L105.447444,112.7555 L102.055378,116.212571 L154.425133,116.212571 L154.425133,79.4606429 L150.247689,79.4606429 L150.247689,79.4606429 Z M126.278178,107.988214 L118.066333,107.988214 L118.066333,100.237429 C118.066333,97.9262143 119.904956,96.0532857 122.172711,96.0532857 C124.439556,96.0532857 126.278178,97.9262143 126.278178,100.237429 L126.278178,107.988214 L126.278178,107.988214 Z M146.076622,105.9825 L137.864778,105.9825 L137.864778,86.2958571 C137.864778,83.9855714 139.7034,82.1117143 141.970244,82.1117143 C144.238911,82.1117143 146.076622,83.9855714 146.076622,86.2958571 L146.076622,105.9825 L146.076622,105.9825 Z" id="Fill-3" fill="#333333"></path>
                            <path d="M162.903933,102.643357 L134.4472,104.586857 L103.821111,98.5613571 L95.3669111,98.5613571 L95.3669111,81.3289286 C95.3669111,80.4542143 95.6238444,79.6417143 96.0639111,78.962 L95.1272889,76.5969286 L69.9077333,72.3440714 L69.9077333,116.178214 L162.903933,116.178214 L162.903933,102.643357 L162.903933,102.643357 Z M86.9127111,98.5613571 L78.4585111,98.5613571 L78.4585111,81.3289286 C78.4585111,78.949 80.3508889,77.0203571 82.6860667,77.0203571 C85.0203333,77.0203571 86.9127111,78.949 86.9127111,81.3289286 L86.9127111,98.5613571 L86.9127111,98.5613571 Z" id="Fill-4" fill="#333333"></path>
                            <path d="M204.2374,12.6267143 L204.238311,9.39621429 L195.057956,0.0399285714 L190.947022,0.0399285714 L172.534378,22.0303571 L172.534378,80.1905 L168.144644,86.9022143 C168.520022,86.7415714 168.931844,86.6524286 169.363711,86.6524286 C171.114867,86.6524286 172.534378,88.1000714 172.534378,89.8838571 L172.534378,102.808643 L166.193956,102.808643 L166.193956,89.8838571 L159.925511,92.6621429 L159.925511,102.808643 L153.585089,102.808643 L153.585089,95.472 L144.074,108.646571 L143.083622,116.022214 L204.2374,116.022214 L204.2374,12.6267143 L204.2374,12.6267143 Z M185.216133,102.808643 L178.875711,102.808643 L178.875711,89.8838571 C178.875711,88.1000714 180.295222,86.6524286 182.045467,86.6524286 C183.796622,86.6524286 185.216133,88.1000714 185.216133,89.8838571 L185.216133,102.808643 L185.216133,102.808643 Z M185.216133,80.1905 L178.875711,80.1905 L178.875711,67.2666429 C178.875711,65.4819286 180.295222,64.0352143 182.045467,64.0352143 C183.796622,64.0352143 185.216133,65.4819286 185.216133,67.2666429 L185.216133,80.1905 L185.216133,80.1905 Z M185.216133,57.5732857 L178.875711,57.5732857 L178.875711,44.6485 C178.875711,42.8637857 180.295222,41.4170714 182.045467,41.4170714 C183.796622,41.4170714 185.216133,42.8637857 185.216133,44.6485 L185.216133,57.5732857 L185.216133,57.5732857 Z M185.216133,34.9551429 L178.875711,34.9551429 L178.875711,22.0303571 C178.875711,20.2465714 180.295222,18.7998571 182.045467,18.7998571 C183.796622,18.7998571 185.216133,20.2465714 185.216133,22.0303571 L185.216133,34.9551429 L185.216133,34.9551429 Z M197.896978,102.808643 L191.556556,102.808643 L191.556556,89.8838571 C191.556556,88.1000714 192.976067,86.6524286 194.726311,86.6524286 C196.477467,86.6524286 197.896978,88.1000714 197.896978,89.8838571 L197.896978,102.808643 L197.896978,102.808643 Z M197.896978,80.1905 L191.556556,80.1905 L191.556556,67.2666429 C191.556556,65.4819286 192.976067,64.0352143 194.726311,64.0352143 C196.477467,64.0352143 197.896978,65.4819286 197.896978,67.2666429 L197.896978,80.1905 L197.896978,80.1905 Z M197.896978,57.5732857 L191.556556,57.5732857 L191.556556,44.6485 C191.556556,42.8637857 192.976067,41.4170714 194.726311,41.4170714 C196.477467,41.4170714 197.896978,42.8637857 197.896978,44.6485 L197.896978,57.5732857 L197.896978,57.5732857 Z M197.896978,34.9551429 L191.556556,34.9551429 L191.556556,22.0303571 C191.556556,20.2465714 192.976067,18.7998571 194.726311,18.7998571 C196.477467,18.7998571 197.896978,20.2465714 197.896978,22.0303571 L197.896978,34.9551429 L197.896978,34.9551429 Z" id="Fill-5" fill="#333333"></path>
                        </g>
                    </g>
                </g>
            </g>
        </g>
    </g>
</svg>