<?xml version="1.0" encoding="utf-8"?>
<!-- Generator: Adobe Illustrator 16.0.1, SVG Export Plug-In . SVG Version: 6.00 Build 0)  -->
<!DOCTYPE svg PUBLIC "-//W3C//DTD SVG 1.1//EN" "http://www.w3.org/Graphics/SVG/1.1/DTD/svg11.dtd">
<svg version="1.1" id="Layer_1" xmlns="http://www.w3.org/2000/svg" xmlns:xlink="http://www.w3.org/1999/xlink" x="0px" y="0px"
	 width="650px" height="650px" viewBox="0 0 650 650" enable-background="new 0 0 650 650" xml:space="preserve">
<rect x="35.711" y="360.693" fill="#FFFFFF" width="189.142" height="169.142"/>
<path fill="#EEEEEE" d="M35.711,335.368v25.325l169.143,169.142h403.264V335.368H35.711z"/>
<polygon fill="#0A3160" points="112.048,191.011 112.048,171.939 150.191,171.939 150.191,210.082 "/>
<polygon fill="#A0A0A0" points="131.119,191.011 112.049,191.011 112.049,219.472 131.139,238.562 150.19,219.509 150.19,219.472 
	150.19,210.082 "/>
<polygon fill="#A0A0A0" points="302.857,191.011 302.857,171.939 341,171.939 341,210.082 "/>
<polygon fill="#FFFFFF" points="321.928,191.011 302.857,191.011 302.857,219.472 321.947,238.562 341,219.509 341,219.472 
	341,210.082 "/>
<path fill="#0A3160" d="M531.785,152.85c-10.543,0-19.09,8.546-19.09,19.089v0.001h-19.053v19.071l38.143,19.071V191.03l0,0
	c10.543,0,19.09-8.548,19.09-19.092C550.875,161.396,542.328,152.85,531.785,152.85z"/>
<polygon fill="#FFFFFF" points="512.713,191.011 493.643,191.011 493.643,219.472 512.732,238.562 531.785,219.509 531.785,219.472 
	531.785,210.082 "/>
<polygon fill="#FFFFFF" points="159.727,297.355 102.514,297.355 95.514,255.689 102.514,230.915 159.727,230.915 169.727,254.438 
	"/>
<polygon fill="#FFFFFF" points="350.535,297.355 293.322,297.355 286.322,255.689 293.322,230.915 350.535,230.915 360.535,254.438 
	"/>
<polygon fill="#FFFFFF" points="541.32,297.355 484.107,297.355 474.107,255.689 484.107,230.915 541.32,230.915 551.32,254.438 "/>
<path fill="#A0A0A0" d="M569.928,230.915H541.32v47.678l-15.95,15.951l-10.284-51.7l4.779-4.777l-7.152-7.151l0,0l-7.15,7.151
	l4.778,4.777l-10.283,51.7l-15.95-15.952v-47.677H455.5c-21.076,0-38.161,17.085-38.162,38.161h-0.031L384.5,307.2l128.213,14.084
	l95.378-14.084v-38.124C608.091,248,591.004,230.915,569.928,230.915z"/>
<polygon fill="#A0A0A0" points="54.496,264.135 56.197,315.148 87.645,315.148 87.645,274.352 100.393,250.979 91.469,233.979 "/>
<polygon fill="#A0A0A0" points="245.307,264.135 247.006,315.148 278.454,315.148 278.454,274.352 291.203,250.979 282.279,233.979 
	"/>
<path fill="#0A3160" d="M417.305,269.076c0-21.076-17.086-38.161-38.162-38.161h-28.607v47.678l-15.949,15.951l-10.285-51.7
	l4.779-4.777l-7.151-7.151h-0.001l-7.15,7.151l4.778,4.777l-10.283,51.7l-15.95-15.952v-47.677h-28.607
	c-21.076,0-38.16,17.085-38.162,38.161h-0.057c0-21.076-17.087-38.161-38.162-38.161h-28.607v47.678l-15.951,15.951l-10.283-51.7
	l4.779-4.777l-7.152-7.151h-0.001l-7.15,7.151l4.778,4.777l-10.283,51.7l-15.949-15.952v-47.677H73.905
	c-21.077,0-38.161,17.087-38.161,38.164h-0.032V307.2l28.784,4.249l-2.591-4.249v-40.571l25.897-26.431l8.572,8.398l-22.47,22.931
	V307.2l-3.062,5.187l60.275,8.897l95.377-14.084h0.026l28.783,4.249l-2.591-4.249v-40.571l25.896-26.431l8.572,8.398l-22.469,22.931
	V307.2l-3.062,5.187l60.275,8.897l95.376-14.084h0.002v-38.124H417.305z"/>
<g>
	<polygon fill="#1D345C" points="455.5,307.2 449.597,317.2 443.5,307.2 443.5,266.629 469.396,240.198 477.969,248.597 
		455.5,271.527 	"/>
</g>
<rect x="10.387" y="307.2" fill="#FFFFFF" width="615.998" height="28.168"/>
<g>
	<path fill="#0A3160" d="M388.816,415.286c0-17.594-7.157-33.548-18.713-45.104l-9.988,9.988
		c8.988,8.986,14.547,21.401,14.547,35.115c0,27.428-22.234,49.662-49.662,49.662s-49.662-22.234-49.662-49.662
		c0-13.714,5.56-26.129,14.547-35.115l-9.988-9.988c-11.555,11.556-18.713,27.51-18.713,45.104
		c0,24.688,14.102,46.131,34.664,56.738c-5.908,3.049-11.292,6.977-15.951,11.636l9.988,9.987
		c8.986-8.986,21.401-14.545,35.115-14.545c13.713,0,26.129,5.559,35.115,14.545l9.988-9.987
		c-4.66-4.659-10.043-8.587-15.951-11.636C374.715,461.417,388.816,439.974,388.816,415.286z"/>
	<circle fill="#A0A0A0" cx="325" cy="414.894" r="33.943"/>
</g>
</svg>
