<?xml version="1.0" encoding="utf-8"?>
<!-- Generator: Adobe Illustrator 18.1.1, SVG Export Plug-In . SVG Version: 6.00 Build 0)  -->
<svg version="1.1" id="Layer_1" xmlns="http://www.w3.org/2000/svg" xmlns:xlink="http://www.w3.org/1999/xlink" x="0px" y="0px"
	 viewBox="0 0 650 650" enable-background="new 0 0 650 650" xml:space="preserve">
<polygon fill="#EEEEEE" points="76.211,254.102 95.883,273.774 95.883,336.569 115.526,384.418 135.154,375.841 135.154,273.784 
	154.836,254.102 110.5,236.509 "/>
<polygon fill="#EEEEEE" points="154.846,254.102 174.519,273.774 174.519,395.27 194.161,426 213.79,434.541 213.79,273.784 
	233.472,254.102 194.159,236.509 "/>
<polygon fill="#EEEEEE" points="233.482,254.102 253.154,273.774 253.154,452.554 272.376,481.776 292.425,491.825 292.425,273.784 
	312.107,254.102 269,243.348 "/>
<polygon fill="#EEEEEE" points="332.704,254.102 352.376,273.774 352.376,336.569 370.402,374.596 391.647,375.841 391.647,273.784 
	411.329,254.102 372.016,243.348 "/>
<polygon fill="#EEEEEE" points="411.339,254.102 431.011,273.774 431.011,395.27 450.647,434.906 470.282,434.541 470.282,273.784 
	470.282,273.774 489.955,254.102 445,244.102 "/>
<polygon fill="#EEEEEE" points="489.975,254.102 509.647,273.774 509.647,452.554 529.282,492.189 548.918,491.825 548.918,273.784 
	548.918,273.774 568.59,254.102 519.647,244.102 "/>
<polygon fill="#FFFFFF" points="548.918,515.652 548.918,491.825 509.647,452.554 509.647,515.652 470.282,515.652 470.282,434.541 
	431.011,395.27 431.011,515.652 391.647,515.652 391.647,375.841 352.376,336.569 352.376,515.652 292.425,515.652 292.425,491.825 
	253.154,452.554 253.154,515.652 213.79,515.652 213.79,434.541 174.519,395.27 174.519,515.652 135.154,515.652 135.154,375.841 
	95.883,336.569 95.883,515.652 66.77,515.652 66.77,560.667 576.94,560.667 576.94,515.652 "/>
<polygon fill="#FFFFFF" points="568.6,225.137 322.401,215.137 76.201,225.137 76.201,254.102 568.6,254.102 "/>
<polygon fill="#A0A0A0" points="322.401,108.476 80.688,208.596 564.112,208.596 "/>
<path fill="#0A3160" d="M322.39,90L55.072,200.726h0.022v24.411h534.612v-24.411C589.706,200.726,322.389,90,322.39,90z
	 M114.028,201.691l208.373-86.31l208.373,86.31H114.028z"/>
</svg>
