<?xml version="1.0" encoding="utf-8"?>
<!-- Generator: Adobe Illustrator 17.0.0, SVG Export Plug-In . SVG Version: 6.00 Build 0)  -->
<!DOCTYPE svg PUBLIC "-//W3C//DTD SVG 1.1//EN" "http://www.w3.org/Graphics/SVG/1.1/DTD/svg11.dtd">
<svg version="1.1" id="Layer_1" xmlns="http://www.w3.org/2000/svg" xmlns:xlink="http://www.w3.org/1999/xlink" x="0px" y="0px"
	 width="650px" height="650px" viewBox="0 0 650 650" enable-background="new 0 0 650 650" xml:space="preserve">
<polygon fill="#FFFFFF" points="548.918,515.652 548.918,254.102 509.647,254.102 509.647,515.652 470.282,515.652 470.282,254.102 
	431.011,254.102 431.011,515.652 391.647,515.652 391.647,254.102 352.376,254.102 352.376,515.652 292.425,515.652 
	292.425,254.102 253.154,254.102 253.154,515.652 213.79,515.652 213.79,254.102 174.519,254.102 174.519,515.652 135.154,515.652 
	135.154,254.102 95.883,254.102 95.883,515.652 66.77,515.652 66.77,560.667 576.94,560.667 576.94,515.652 "/>
<polygon fill="#EEEEEE" points="135.154,254.102 135.154,254.102 95.893,254.102 95.883,254.102 76.211,254.102 95.883,273.774 
	95.883,336.569 135.154,375.841 135.154,273.784 154.836,254.102 "/>
<rect x="76.201" y="225.137" fill="#FFFFFF" width="492.399" height="28.965"/>
<polygon fill="#EEEEEE" points="213.79,254.102 174.519,254.102 174.519,254.102 154.846,254.102 174.519,273.774 174.519,395.27 
	213.79,434.541 213.79,273.784 233.472,254.102 213.79,254.102 "/>
<polygon fill="#EEEEEE" points="292.425,254.102 253.154,254.102 253.154,254.102 233.482,254.102 253.154,273.774 253.154,452.554 
	292.425,491.825 292.425,273.784 312.107,254.102 292.425,254.102 "/>
<polygon fill="#EEEEEE" points="352.386,254.102 352.376,254.102 332.704,254.102 352.376,273.774 352.376,336.569 391.647,375.841 
	391.647,273.784 411.329,254.102 391.647,254.102 "/>
<polygon fill="#EEEEEE" points="470.282,254.102 470.282,254.102 431.011,254.102 431.011,254.102 411.339,254.102 431.011,273.774 
	431.011,395.27 470.282,434.541 470.282,273.784 470.282,273.774 489.955,254.102 "/>
<polygon fill="#EEEEEE" points="568.59,254.102 548.918,254.102 548.918,254.102 509.647,254.102 509.647,254.102 489.975,254.102 
	509.647,273.774 509.647,452.554 548.918,491.825 548.918,273.784 548.918,273.774 "/>
<polygon fill="#A0A0A0" points="322.401,115.381 114.028,201.692 530.773,201.692 "/>
<path fill="#0A3160" d="M561.382,188.994l-0.531-0.22c-1.629-0.675-3.317-1.374-5.054-2.093l-2.891-1.198
	c-0.338-0.14-0.679-0.281-1.02-0.423l-4.634-1.919c-1.371-0.568-2.763-1.144-4.181-1.732l-4.814-1.994
	c-0.039-0.016-0.078-0.032-0.118-0.049l-4.118-1.707c-0.714-0.295-1.431-0.592-2.153-0.891l-3.372-1.397
	c-0.685-0.284-1.375-0.569-2.067-0.856l-40.224-16.661C411.013,126.709,322.389,90,322.39,90L55.072,200.726h0.022v24.411h534.612
	v-24.411C589.706,200.726,578.794,196.206,561.382,188.994z M358.387,201.691H234.125H114.028l80.018-33.144L322.4,115.381
	c0,0,118.662,49.152,176.889,73.27l3.571,1.48c1.537,0.636,3.041,1.259,4.475,1.853l23.437,9.708H358.387z"/>
</svg>
