<?xml version="1.0" encoding="UTF-8" standalone="no"?>
<svg width="240px" height="259px" viewBox="0 0 240 259" version="1.1" xmlns="http://www.w3.org/2000/svg" xmlns:xlink="http://www.w3.org/1999/xlink">
    <defs></defs>
    <g id="Page-1" stroke="none" stroke-width="1" fill="none" fill-rule="evenodd">
        <g id="Group">
            <path d="M147.69,196.35 L160.98,196.35 L160.98,238.08 L147.69,238.08 L147.69,196.35 Z" id="Fill-100" fill="#FFFFFF"></path>
            <path d="M184.38,196.35 L197.67,196.35 L197.67,238.08 L184.38,238.08 L184.38,196.35 Z" id="Fill-101" fill="#FFFFFF"></path>
            <path d="M124.05,160.61 L207.79,160.61 L207.79,196.35 L124.05,196.35 L124.05,160.61 Z" id="Fill-102" fill="#797469"></path>
            <path d="M124.1,50.78 L143.9,50.78 L143.9,170.71 L124.1,170.71 L124.1,50.78 Z" id="Fill-103" fill="#2D2E2B"></path>
            <path d="M134.71,33.25 L134.71,54.13 C123.2,54.13 113.83,63.5 113.83,75.01 L92.95,75.01 C92.95,51.98 111.68,33.25 134.71,33.25" id="Fill-104" fill="#2D2E2B"></path>
            <path d="M92.95,75.01 L113.83,75.01 L113.83,111.55 L92.95,111.55 L92.95,75.01 Z" id="Fill-105" fill="#2D2E2B"></path>
            <path d="M134.71,33.25 L197.35,33.25 L197.35,116.77 L134.71,116.77 L134.71,33.25 Z" id="Fill-107" fill="#2D2E2B"></path>
            <path d="M156.86,30.06 L173.41,30.06 L173.41,33.25 L156.86,33.25 L156.86,30.06 Z" id="Fill-108" fill="#2D2E2B"></path>
            <path d="M124.1,38.57 L158.65,38.57 L158.65,4.03 L124.1,38.57" id="Fill-109" fill="#2D2E2B"></path>
            <path d="M173.41,4.03 L173.41,41.32 L210.71,41.32 L173.41,4.03" id="Fill-110" fill="#797469"></path>
            <path d="M170.22,30.06 L173.41,30.06 L173.41,33.25 L170.22,33.25 L170.22,30.06 Z" id="Fill-111" fill="#797469"></path>
            <path d="M155.59,11.41 L155.59,26.99 L161.85,33.25 L170.22,33.25 L176.47,27.01 L176.47,11.41 L155.59,11.41" id="Fill-112" fill="#FFFFFF"></path>
            <path d="M176.47,11.41 L176.47,21.85 L166.03,11.41" id="Fill-113" fill="#797469"></path>
            <path d="M134.71,110.5 L218.22,110.5 L218.22,150.17 L134.71,150.17 L134.71,110.5 Z" id="Fill-114" fill="#2D2E2B"></path>
            <path d="M134.71,116.77 L167.24,116.77 L167.24,170.71 L134.71,170.71 L134.71,116.77 Z" id="Fill-115" fill="#2D2E2B"></path>
            <path d="M176.48,116.77 L186.92,116.77 L186.92,114.68 L170.21,114.68 C167.91,114.68 166.04,112.81 166.04,110.5 L186.92,110.5 L186.92,108.41 L168.13,108.41 C165.82,108.41 163.95,106.54 163.95,104.24 L186.92,104.24 L186.92,102.15 L166.04,102.15 C166.04,99.84 167.91,97.97 170.21,97.97 L186.92,97.97 L186.92,95.89 L184.83,95.89 C182.52,95.89 180.65,94.02 180.65,91.71 L193.17,91.71 L197.35,95.89 L197.35,116.77 L187.26,120.94 L180.65,120.94 C178.35,120.94 176.48,119.07 176.48,116.77" id="Fill-116" fill="#FFFFFF"></path>
            <path d="M160.81,258.95 L160.81,238.08 L147.76,238.08 L147.76,238.17 L147.69,238.08 L143.37,248.51 L134.71,248.51 C128.95,248.51 124.28,253.19 124.28,258.95 L160.81,258.95" id="Fill-117" fill="#2D2E2B"></path>
            <path d="M197.34,258.95 L197.34,238.08 L184.29,238.08 L184.29,238.17 L184.22,238.08 L179.9,248.51 L171.25,248.51 C165.48,248.51 160.81,253.19 160.81,258.95 L197.34,258.95" id="Fill-118" fill="#2D2E2B"></path>
            <path d="M166.03,0.97 C160.26,0.97 155.59,5.64 155.59,11.41 L176.47,11.41 C176.47,5.64 171.79,0.97 166.03,0.97" id="Fill-119" fill="#797469"></path>
            <path d="M155.59,11.41 L166.03,11.41 L158.65,4.03 C156.76,5.92 155.59,8.52 155.59,11.41" id="Fill-120" fill="#2D2E2B"></path>
            <path d="M134.71,54.13 L166.03,85.45 L197.35,54.13 L134.71,54.13" id="Fill-121" fill="#797469"></path>
            <path d="M166.03,95.89 C157.38,95.89 150.37,88.88 150.37,80.23 L166.03,80.23 L166.03,95.89" id="Fill-122" fill="#797469"></path>
            <path d="M150.37,63.52 L166.03,63.52 L166.03,80.23 L150.37,80.23 L150.37,63.52 Z" id="Fill-123" fill="#797469"></path>
            <path d="M197.35,54.13 L218.22,54.13 L218.22,102.82 L197.35,102.82 L197.35,54.13 Z" id="Fill-124" fill="#2D2E2B"></path>
            <path d="M221.57,50.78 L197.35,50.79 L197.35,75.01 L221.57,50.78" id="Fill-125" fill="#2D2E2B"></path>
            <path d="M124.05,196.35 L207.79,196.35 L207.79,238.08 L124.05,238.08 L124.05,196.35 Z" id="Fill-126" fill="#797469"></path>
            <path d="M160.9,207.42 L160.9,170.71 L124.19,170.71 L160.9,207.42" id="Fill-127" fill="#2D2E2B"></path>
            <path d="M218.22,150.17 L160.98,150.17 L160.98,207.42 L218.22,150.17" id="Fill-128" fill="#2D2E2B"></path>
            <path d="M239.1,75.01 L218.22,75.01 C218.22,63.5 208.86,54.13 197.35,54.13 L197.35,33.25 C220.37,33.25 239.1,51.98 239.1,75.01" id="Fill-129" fill="#797469"></path>
            <path d="M197.35,116.77 L197.35,95.89 C208.86,95.89 218.22,86.52 218.22,75.01 L239.1,75.01 C239.1,98.03 220.37,116.77 197.35,116.77" id="Fill-130" fill="#797469"></path>
            <path d="M134.71,33.25 L197.35,33.25 L197.35,54.13 L134.71,54.13 L134.71,33.25 Z" id="Fill-131" fill="#797469"></path>
            <path d="M46.49,111.55 L46.49,132.35 L52.75,138.61 L61.12,138.61 L67.37,132.37 L67.37,111.55 L46.49,111.55" id="Fill-150" fill="#FFFFFF"></path>
            <path d="M56.93,116.77 L46.49,116.77 L46.49,106.33 L67.37,106.33 L67.37,127.21 L56.93,116.77" id="Fill-151" fill="#2D2E2B"></path>
            <path d="M80.41,258.95 L80.41,238.07 L67.36,238.07 L67.36,238.17 L67.29,238.07 L62.97,248.51 L62.15,248.51 C56.38,248.51 51.71,253.18 51.71,258.95 L80.41,258.95" id="Fill-152" fill="#2D2E2B"></path>
            <path d="M51.71,258.95 L51.71,238.07 L38.66,238.07 L38.66,238.17 L38.6,238.07 L34.27,248.51 L33.45,248.51 C27.68,248.51 23.01,253.18 23.01,258.95 L51.71,258.95" id="Fill-153" fill="#2D2E2B"></path>
            <path d="M33.44,138.61 L80.42,138.61 L80.42,191.09 L33.44,191.09 L33.44,138.61 Z" id="Fill-154" fill="#797469"></path>
            <path d="M33.44,191.09 L51.71,191.09 L51.71,238.07 L33.44,238.07 L33.44,191.09 Z" id="Fill-155" fill="#797469"></path>
            <path d="M62.14,191.09 L80.42,191.09 L80.42,238.07 L62.14,238.07 L62.14,191.09 Z" id="Fill-156" fill="#2D2E2B"></path>
            <path d="M33.44,191.09 L80.42,238.07 L80.42,191.09 L33.44,191.09" id="Fill-157" fill="#2D2E2B"></path>
            <path d="M33.46,138.61 L33.46,155.33 C24.24,155.33 16.74,162.83 16.74,172.04 L0.02,172.04 C0.02,153.61 15.02,138.61 33.46,138.61" id="Fill-162" fill="#2D2E2B"></path>
            <path d="M80.4,155.33 L80.4,138.61 C89.62,138.61 97.11,131.11 97.11,121.9 L113.83,121.9 C113.83,140.33 98.83,155.33 80.4,155.33" id="Fill-163" fill="#797469"></path>
            <path d="M113.83,132.42 L113.83,121.98 L111.74,121.98 L111.74,138.68 C111.74,140.99 109.87,142.86 107.57,142.86 L107.57,121.98 L105.48,121.98 L105.48,140.77 C105.48,143.08 103.61,144.95 101.3,144.95 L101.3,121.98 L99.21,121.98 L99.21,142.86 C96.91,142.86 95.04,140.99 95.04,138.68 L95.04,121.98 L92.95,121.98 L92.95,124.07 C92.95,126.37 91.08,128.24 88.78,128.24 L88.78,115.73 L92.95,111.55 L113.83,111.55 L118.01,121.63 L118.01,128.24 C118.01,130.55 116.14,132.42 113.83,132.42" id="Fill-180" fill="#FFFFFF"></path>
        </g>
    </g>
</svg>