<?xml version="1.0" encoding="utf-8"?>
<!-- Generator: Adobe Illustrator 17.0.0, SVG Export Plug-In . SVG Version: 6.00 Build 0)  -->
<!DOCTYPE svg PUBLIC "-//W3C//DTD SVG 1.1//EN" "http://www.w3.org/Graphics/SVG/1.1/DTD/svg11.dtd">
<svg version="1.1" id="Layer_1" xmlns="http://www.w3.org/2000/svg" xmlns:xlink="http://www.w3.org/1999/xlink" x="0px" y="0px"
	 width="650px" height="650px" viewBox="0 0 650 650" enable-background="new 0 0 650 650" xml:space="preserve">
<path fill="#0A3160" d="M318.386,90C188.498,90,83.203,195.295,83.203,325.183s105.295,235.183,235.183,235.183
	s235.183-105.295,235.183-235.183S448.274,90,318.386,90z"/>
<circle fill="#FFFFFF" cx="318.386" cy="325.183" r="212.488"/>
<path fill="#A0A0A0" d="M475.572,295.561c-10.931,10.93-28.716,10.931-39.646,0l-26.538-26.537
	c-17.873-17.872-46.953-17.872-64.826,0c-8.657,8.658-13.425,20.169-13.425,32.413c0,12.244,4.768,23.755,13.425,32.413l37.899,37.9
	c5.296,5.295,8.212,12.335,8.212,19.824s-2.916,14.529-8.212,19.824c-10.93,10.93-28.716,10.931-39.646,0l-57.841-57.84
	c11.93-17.808,10.042-42.194-5.676-57.912l-0.018,0.018l-3.529-3.529c2.931-1.341,5.632-3.203,7.979-5.55
	c10.67-10.671,10.67-28.035,0-38.707c-5.169-5.17-12.043-8.017-19.354-8.017c-7.311,0-14.185,2.847-19.353,8.016
	c-5.17,5.17-8.017,12.043-8.017,19.354c0,7.311,2.847,14.184,8.016,19.353l0,0l21.667,21.668l0.019-0.018
	c8.731,8.731,10.48,21.832,5.265,32.323l-18.793-18.793l-21.667-21.668l-0.001,0c-5.035-5.035-11.56-7.691-18.168-7.975
	c-0.284-6.609-2.94-13.133-7.975-18.169l-0.001,0c-5.169-5.17-12.043-8.016-19.353-8.016c-7.311,0-14.185,2.847-19.353,8.016
	c-5.17,5.17-8.017,12.043-8.017,19.354c0,7.311,2.847,14.183,8.016,19.353v0c4.888,4.889,11.303,7.697,18.168,7.988
	c0.287,6.605,2.943,13.124,7.974,18.156l21.668,21.668v0c8.937,8.936,20.675,13.404,32.413,13.404c8.909,0,17.815-2.58,25.5-7.728
	l57.84,57.84c8.937,8.936,20.675,13.404,32.413,13.404s23.477-4.468,32.413-13.404c8.657-8.658,13.425-20.169,13.425-32.413
	c0-12.244-4.768-23.755-13.425-32.413l-37.899-37.9c-5.296-5.295-8.211-12.335-8.211-19.824s2.916-14.529,8.211-19.824
	c10.929-10.931,28.715-10.931,39.646,0l26.538,26.537c17.873,17.872,46.953,17.872,64.826,0L475.572,295.561z M271.141,273.995
	c-1.806,1.807-4.208,2.802-6.764,2.802s-4.958-0.995-6.764-2.802l-0.001-0.001c-1.807-1.807-2.801-4.209-2.801-6.764
	s0.994-4.957,2.802-6.765c1.806-1.807,4.208-2.802,6.764-2.802s4.958,0.995,6.764,2.802
	C274.871,264.195,274.871,270.265,271.141,273.995z M192.78,300.069c-1.809,1.807-4.211,2.802-6.766,2.802
	c-2.556,0-4.958-0.995-6.764-2.802l-0.001-0.001c-1.807-1.807-2.801-4.209-2.801-6.764c0-2.555,0.994-4.957,2.802-6.765
	c1.806-1.807,4.208-2.802,6.764-2.802c2.554,0,4.957,0.995,6.765,2.802l0,0C196.509,290.27,196.509,296.339,192.78,300.069z
	 M227.062,347.881L227.062,347.881l-21.668-21.668c-3.73-3.73-3.73-9.799-0.001-13.529c3.731-3.729,9.799-3.731,13.531-0.001l0,0
	l21.667,21.668l18.793,18.794C248.893,358.361,235.792,356.612,227.062,347.881z"/>
</svg>
