<?xml version="1.0" encoding="utf-8"?>
<!-- Generator: Adobe Illustrator 17.0.0, SVG Export Plug-In . SVG Version: 6.00 Build 0)  -->
<!DOCTYPE svg PUBLIC "-//W3C//DTD SVG 1.1//EN" "http://www.w3.org/Graphics/SVG/1.1/DTD/svg11.dtd">
<svg version="1.1" id="Layer_1" xmlns="http://www.w3.org/2000/svg" xmlns:xlink="http://www.w3.org/1999/xlink" x="0px" y="0px"
	 width="650px" height="650px" viewBox="0 0 650 650" enable-background="new 0 0 650 650" xml:space="preserve">
<rect x="242.905" y="45" fill="#0A3160" width="110.721" height="66.542"/>
<rect x="95.7" y="260.63" fill="#0A3160" width="165.602" height="16.818"/>
<polygon fill="#F1F1F1" points="113.097,277.448 113.097,294.845 199.408,381.156 243.905,381.156 243.905,277.448 "/>
<polygon fill="#FFFFFF" points="113.097,381.156 199.408,381.156 113.097,294.845 "/>
<path fill="#0A3160" d="M418.603,109.672L418.603,109.672c-0.001-11.077-8.979-20.056-20.057-20.056
	c-11.077,0-20.056,8.979-20.056,20.056c0,11.077,8.979,20.056,20.056,20.056v0h20.057l20.056,20.056v-40.112H418.603z"/>
<polygon fill="#FFFFFF" points="418.603,129.728 398.546,129.728 398.546,159.658 410.58,171.692 426.664,171.692 438.659,159.698 
	438.659,159.658 438.659,149.784 "/>
<path fill="#0A3160" d="M383.504,565.192L383.504,565.192l-8.307,20.056h-16.763c-11.077,0-20.056,8.979-20.056,20.056h30.084
	h10.028h5.014h25.07v-40.112H383.504z"/>
<polygon fill="#0A3160" points="438.659,332.141 428.63,332.141 408.574,332.141 358.434,332.141 358.434,468.397 408.574,468.397 
	408.574,382.281 428.63,402.337 428.63,468.397 478.771,468.397 478.771,332.141 "/>
<path fill="#FFFFFF" d="M558.995,91.486v8.022v8.022v4.011h-4.011v-32.09c0-4.431-3.592-8.022-8.022-8.022v8.022v8.022v24.067
	h-4.011V75.441c0-4.431-3.592-8.022-8.022-8.022v8.022v8.022v28.079h-4.011V87.475v-8.022V71.43c-4.431,0-8.022,3.592-8.022,8.022
	v32.09h-4.011v-4.011c0-4.431-3.592-8.022-8.022-8.022v8.022v8.022v8.004l8.022,8.022h4.011h8.022h4.011h8.022h4.011h8.022h4.011
	l8.022-19.368V99.508C567.018,95.078,563.426,91.486,558.995,91.486z"/>
<path fill="#A0A0A0" d="M518.883,131.58c0,22.118-17.994,40.112-40.112,40.112v0H358.434v0c-22.118,0-40.112-17.994-40.112-40.112
	h-40.113c0,44.236,35.989,80.224,80.225,80.224v120.337h120.337V211.804c44.236,0,80.225-35.988,80.225-80.224H518.883z"/>
<path fill="#FFFFFF" d="M278.209,91.486v8.022v8.022v4.011h4.011v-32.09c0-4.431,3.592-8.022,8.022-8.022v8.022v8.022v24.067h4.011
	V75.441c0-4.431,3.592-8.022,8.022-8.022v8.022v8.022v28.079h4.011V87.475v-8.022V71.43c4.431,0,8.022,3.592,8.022,8.022v32.09
	h4.011v-4.011c0-4.431,3.592-8.022,8.022-8.022v8.022v8.022v8.004l-8.022,8.022h-4.011h-8.022h-4.011h-8.022h-4.011h-8.022h-4.011
	l-8.022-19.368V99.508C270.187,95.078,273.779,91.486,278.209,91.486z"/>
<rect x="383.504" y="468.397" fill="#FFFFFF" width="25.07" height="96.795"/>
<rect x="453.7" y="468.397" fill="#FFFFFF" width="25.07" height="96.795"/>
<path fill="#0A3160" d="M478.771,565.192h-25.07v0.188l-0.131-0.188l-8.307,20.056H428.63c-11.077,0-20.056,8.979-20.056,20.056
	h30.084h10.028h5.014h25.07L478.771,565.192z"/>
<polygon fill="#0A3160" points="95.7,381.156 95.7,408.485 95.7,408.485 95.7,605.304 112.518,605.304 112.518,408.485 
	244.485,408.485 244.485,605.304 261.302,605.304 261.302,408.485 261.302,404.867 261.302,381.156 "/>
</svg>
