<?xml version="1.0" encoding="utf-8"?>
<!-- Generator: Adobe Illustrator 17.0.0, SVG Export Plug-In . SVG Version: 6.00 Build 0)  -->
<!DOCTYPE svg PUBLIC "-//W3C//DTD SVG 1.1//EN" "http://www.w3.org/Graphics/SVG/1.1/DTD/svg11.dtd">
<svg version="1.1" id="Layer_1" xmlns="http://www.w3.org/2000/svg" xmlns:xlink="http://www.w3.org/1999/xlink" x="0px" y="0px"
	 width="650px" height="650px" viewBox="0 0 650 650" enable-background="new 0 0 650 650" xml:space="preserve">
<rect x="247.205" y="58.467" fill="#333333" width="105.338" height="63.307"/>
<rect x="107.156" y="263.615" fill="#333333" width="157.552" height="16"/>
<polygon fill="#EEEEEE" points="123.707,279.615 123.707,296.166 205.823,378.282 248.157,378.282 248.157,279.615 "/>
<polygon fill="#FFFFFF" points="123.707,378.281 205.823,378.281 123.707,296.166 "/>
<path fill="#333333" d="M414.361,119.995L414.361,119.995c0-10.538-8.543-19.081-19.082-19.081
	c-10.538,0-19.081,8.543-19.081,19.081c0,10.538,8.543,19.081,19.081,19.081v0h19.082l19.081,19.081v-38.162H414.361z"/>
<polygon fill="#FFFFFF" points="414.361,139.076 395.28,139.076 395.28,167.551 406.729,179 422.031,179 433.442,167.589 
	433.442,167.551 433.442,158.157 "/>
<path fill="#333333" d="M380.969,553.371L380.969,553.371l-7.904,19.081h-15.948c-10.538,0-19.081,8.543-19.081,19.081h28.622h9.54
	h4.77h23.851v-38.162H380.969z"/>
<polygon fill="#333333" points="433.442,331.649 423.901,331.649 404.82,331.649 357.118,331.649 357.118,461.281 404.82,461.281 
	404.82,379.352 423.901,398.433 423.901,461.281 471.604,461.281 471.604,331.649 "/>
<path fill="#FFFFFF" d="M547.929,102.693v7.632v7.632v3.816h-3.816v-30.53c0-4.215-3.417-7.632-7.632-7.632v7.632v7.632v22.897
	h-3.816V87.428c0-4.215-3.417-7.632-7.632-7.632v7.632v7.632v26.714h-3.816V98.877v-7.632v-7.632c-4.215,0-7.632,3.417-7.632,7.632
	v30.53h-3.816v-3.816c0-4.215-3.417-7.632-7.632-7.632v7.632v7.632v7.615l7.632,7.632h3.816h7.632h3.816h7.632h3.816h7.632h3.816
	l7.632-18.426v-12.086C555.562,106.11,552.145,102.693,547.929,102.693z"/>
<path fill="#A0A0A0" d="M509.767,140.838c0,21.043-17.119,38.162-38.162,38.162v0H357.118v0c-21.043,0-38.162-17.119-38.162-38.162
	h-38.163c0,42.086,34.239,76.324,76.325,76.324v114.487h114.487V217.162c42.085,0,76.325-34.239,76.325-76.324H509.767z"/>
<path fill="#FFFFFF" d="M280.793,102.693v7.632v7.632v3.816h3.816v-30.53c0-4.215,3.417-7.632,7.632-7.632v7.632v7.632v22.897h3.816
	V87.428c0-4.215,3.417-7.632,7.632-7.632v7.632v7.632v26.714h3.816V98.877v-7.632v-7.632c4.215,0,7.632,3.417,7.632,7.632v30.53
	h3.816v-3.816c0-4.215,3.417-7.632,7.632-7.632v7.632v7.632v7.615l-7.632,7.632h-3.816h-7.632h-3.816h-7.632h-3.816h-7.632h-3.816
	l-7.632-18.426v-12.086C273.16,106.11,276.578,102.693,280.793,102.693z"/>
<rect x="380.969" y="461.282" fill="#FFFFFF" width="23.851" height="92.089"/>
<rect x="447.753" y="461.282" fill="#FFFFFF" width="23.851" height="92.089"/>
<path fill="#333333" d="M471.604,553.371h-23.851v0.179l-0.124-0.179l-7.904,19.081h-15.824c-10.538,0-19.081,8.543-19.081,19.081
	h28.622h9.54h4.771h23.851L471.604,553.371z"/>
<polygon fill="#333333" points="107.156,378.281 107.156,404.281 107.156,404.281 107.156,591.533 123.156,591.533 123.156,404.281 
	248.708,404.281 248.708,591.533 264.708,591.533 264.708,404.281 264.708,400.839 264.708,378.281 "/>
</svg>
