<?xml version="1.0" encoding="utf-8"?>
<!-- Generator: Adobe Illustrator 18.1.1, SVG Export Plug-In . SVG Version: 6.00 Build 0)  -->
<svg version="1.1" id="Layer_1" xmlns="http://www.w3.org/2000/svg" xmlns:xlink="http://www.w3.org/1999/xlink" x="0px" y="0px"
	 viewBox="0 0 650 650" enable-background="new 0 0 650 650" xml:space="preserve">
<polygon fill="#0A3160" points="352.735,116.298 326.545,116.298 301.614,125.898 272.635,116.298 246.444,116.298 246.444,52.419 
	352.735,52.419 "/>
<rect x="105.129" y="259.421" fill="#0A3160" width="158.976" height="16.145"/>
<polygon fill="#FFFFFF" points="204.688,384.095 121.83,375.125 121.83,292.267 204.688,292.267 "/>
<polygon fill="#F1F1F1" points="121.83,275.566 121.83,292.267 215.217,385.654 247.405,375.125 247.405,275.566 "/>
<path fill="#0A3160" d="M472.872,551.797l-13.219-9.6l-10.847,9.6v0.18l-0.125-0.18l-7.975,19.254h-15.967
	c-10.633,0-19.254,8.62-19.254,19.254h67.388L472.872,551.797z"/>
<path fill="#0A3160" d="M405.485,551.797l-13.219-9.6l-10.847,9.6v0.18l-0.125-0.18l-7.975,19.254H357.35
	c-10.633,0-19.254,8.62-19.254,19.254h67.388L405.485,551.797z"/>
<polygon fill="#FFFFFF" points="415.112,303.92 357.351,328.071 357.351,551.797 405.484,551.797 405.484,376.205 424.738,395.458 
	424.738,551.797 472.872,551.797 472.872,328.071 "/>
<polygon fill="#0A3160" points="395.858,133.757 395.858,133.757 409.733,149.857 434.365,153.01 434.365,114.503 415.112,114.503 
	415.111,114.503 395.858,114.503 "/>
<polygon fill="#A0A0A0" points="415.112,133.757 395.858,133.757 395.858,162.489 415.131,181.762 434.365,162.527 434.365,162.489 
	434.365,153.01 "/>
<path fill="#A0A0A0" d="M280.336,97.044v19.254h3.851V85.492c0-4.253,3.448-7.701,7.701-7.701v7.701v30.806h3.851V81.642
	c0-4.253,3.448-7.701,7.701-7.701v42.358h3.851V77.791c4.253,0,7.701,3.448,7.701,7.701v30.806h3.851v-3.851
	c0-4.253,3.448-7.701,7.701-7.701v23.087l-24.01,24.01l-22.199-16.308l-7.701-18.593v-12.195
	C272.634,100.492,276.082,97.044,280.336,97.044z"/>
<polygon fill="#0A3160" points="105.129,375.125 105.129,590.304 121.274,590.304 121.274,401.36 247.961,401.36 247.961,590.304 
	264.105,590.304 264.105,375.125 "/>
<path fill="#A0A0A0" d="M549.887,97.044v19.254h-3.851V85.492c0-4.253-3.448-7.701-7.701-7.701v7.701v30.806h-3.851V81.642
	c0-4.253-3.448-7.701-7.701-7.701v42.358h-3.851V77.791c-4.253,0-7.701,3.448-7.701,7.701v30.806h-3.851v-3.851
	c0-4.253-3.448-7.701-7.701-7.701v23.087l24.01,24.01l22.199-16.308l7.701-18.593v-12.195
	C557.589,100.492,554.141,97.044,549.887,97.044z"/>
<path fill="#0A3160" d="M511.38,135.534c0,21.233-17.274,38.507-38.507,38.507v0H357.351v0c-21.233,0-38.507-17.274-38.507-38.507
	h-38.508c0,42.466,34.549,77.014,77.015,77.014v115.522h115.522V212.549c42.466,0,77.015-34.548,77.015-77.014H511.38z"/>
</svg>
