<?xml version="1.0" encoding="UTF-8" standalone="no"?>
<svg width="337px" height="213px" viewBox="0 0 337 213" version="1.1" xmlns="http://www.w3.org/2000/svg" xmlns:xlink="http://www.w3.org/1999/xlink">
    <defs></defs>
    <g id="Page-1" stroke="none" stroke-width="1" fill="none" fill-rule="evenodd">
        <g id="Group">
            <path d="M336.93,60.418 L336.93,15.543 L292.06,15.542 L292.06,15.541 C288.86,15.541 285.67,15.65 282.48,15.849 C246.82,18.07 211.79,32.7 184.42,59.747 C157.37,87.122 142.74,122.148 140.52,157.807 C140.32,160.996 140.21,164.19 140.21,167.384 L140.21,212.259 L185.09,212.259 L185.09,212.261 C188.28,212.261 191.48,212.152 194.67,211.953 C230.33,209.732 265.35,195.101 292.73,168.055 C319.77,140.68 334.4,105.654 336.62,69.995 C336.82,66.805 336.93,63.612 336.93,60.417 L336.93,60.418" id="Fill-550" fill="#DF4846"></path>
            <path d="M247.89,22.034 C244.6,23.021 241.34,24.122 238.11,25.335 L238.11,114.365 L247.89,104.579 L247.89,22.034" id="Fill-551" fill="#FFFFFF"></path>
            <path d="M215.57,35.976 C212.25,37.892 208.99,39.944 205.78,42.13 L205.78,146.688 L215.57,136.902 L215.57,35.976" id="Fill-552" fill="#FFFFFF"></path>
            <path d="M182.78,61.44 C179.31,65.063 176.05,68.813 173,72.678 L173,179.474 L182.78,169.688 L182.78,61.44" id="Fill-553" fill="#FFFFFF"></path>
            <path d="M281.14,15.947 C277.87,16.179 274.61,16.515 271.36,16.956 L271.36,81.117 L281.14,71.331 L281.14,15.947" id="Fill-554" fill="#FFFFFF"></path>
            <path d="M185.09,212.261 C188.28,212.261 191.48,212.151 194.67,211.953 C230.33,209.732 265.35,195.101 292.73,168.055 C319.77,140.68 334.4,105.653 336.62,69.995 C336.82,66.805 336.93,63.612 336.93,60.417 L336.93,60.418 L336.93,15.543 L140.21,212.259 L185.09,212.259 L185.09,212.261" id="Fill-555" fill="#1D2A4A"></path>
            <path d="M330.44,104.579 C329.45,107.87 328.35,111.133 327.14,114.365 L238.11,114.365 L247.89,104.579 L330.44,104.579" id="Fill-556" fill="#44AF6A"></path>
            <path d="M316.5,136.902 C314.58,140.223 312.53,143.488 310.34,146.688 L205.78,146.688 L215.57,136.902 L316.5,136.902" id="Fill-557" fill="#44AF6A"></path>
            <path d="M291.03,169.688 C287.41,173.162 283.66,176.426 279.8,179.474 L173,179.474 L182.78,169.688 L291.03,169.688" id="Fill-558" fill="#44AF6A"></path>
            <path d="M336.53,71.331 C336.29,74.601 335.96,77.864 335.52,81.117 L271.36,81.117 L281.14,71.331 L336.53,71.331" id="Fill-559" fill="#44AF6A"></path>
            <path d="M0.29,28.445 L0.29,0.76 L27.97,0.76 L27.97,0.759 C29.94,0.759 31.91,0.826 33.88,0.949 C55.88,2.319 77.49,11.345 94.37,28.031 C111.06,44.919 120.09,66.528 121.46,88.527 C121.58,90.494 121.65,92.465 121.65,94.435 L121.65,122.12 L93.96,122.12 L93.96,122.121 C91.99,122.121 90.02,122.053 88.05,121.931 C66.05,120.561 44.44,111.535 27.56,94.849 C10.87,77.96 1.84,56.352 0.47,34.353 C0.35,32.385 0.28,30.415 0.28,28.445 L0.29,28.445" id="Fill-581" fill="#DF4846"></path>
            <path d="M93.96,122.121 C91.99,122.121 90.02,122.053 88.05,121.931 C66.05,120.561 44.44,111.535 27.56,94.849 C10.87,77.96 1.84,56.352 0.47,34.353 C0.35,32.385 0.28,30.415 0.28,28.444 L0.29,28.445 L0.29,0.76 L121.65,122.12 L93.96,122.12 L93.96,122.121" id="Fill-582" fill="#1D2A4A"></path>
            <path d="M94.37,28.031 C96.04,29.712 97.6,31.453 99.11,33.223 L99.11,99.582 L89.32,89.797 L89.32,23.418 C91.04,24.891 92.74,26.414 94.37,28.031" id="Fill-583" fill="#FFFFFF"></path>
            <path d="M56.07,5.045 C59.39,6.073 62.66,7.27 65.86,8.671 L65.86,66.335 L56.07,56.549 L56.07,5.045" id="Fill-584" fill="#FFFFFF"></path>
            <path d="M89.32,89.796 L96.02,96.497 L99.11,99.582 L32.75,99.582 C30.98,98.073 29.24,96.51 27.56,94.849 C25.94,93.212 24.42,91.518 22.94,89.796 L89.32,89.796" id="Fill-585" fill="#44AF6A"></path>
            <path d="M8.2,66.334 C6.8,63.13 5.6,59.86 4.57,56.549 L56.07,56.549 L65.86,66.334 L8.2,66.334" id="Fill-586" fill="#44AF6A"></path>
        </g>
    </g>
</svg>