<?xml version="1.0" encoding="utf-8"?>
<!-- Generator: Adobe Illustrator 18.1.1, SVG Export Plug-In . SVG Version: 6.00 Build 0)  -->
<svg version="1.1" id="Layer_1" xmlns="http://www.w3.org/2000/svg" xmlns:xlink="http://www.w3.org/1999/xlink" x="0px" y="0px"
	 viewBox="0 0 650 650" enable-background="new 0 0 650 650" xml:space="preserve">
<path fill="#A0A0A0" d="M416.102,64.794c0,0-47.479,0.1-50.435,0.284c-11.542,0.719-23.012,2.841-34.134,6.368
	c-2.194,0.696-4.375,11.446-6.539,12.251c-2.47,0.918-4.919-8.092-7.345-7.031c-12.523,5.476-24.418,12.849-35.247,22.117
	c-2.582,2.21-5.104,14.528-7.559,16.954c-2.492,2.523-4.871-4.885-7.136-2.228c-20.499,24.045-31.673,53.312-33.525,83.053
	c-0.184,2.953-0.282,50.437-0.282,50.437s95.902-35.893,121.259-60.944C380.21,160.699,416.102,64.794,416.102,64.794z"/>
<path fill="#0A3160" d="M284.333,246.712c29.742-1.85,59.01-13.025,83.056-33.523c2.656-2.265-4.751-4.643-2.228-7.135
	c2.426-2.456,14.745-4.978,16.955-7.561c9.268-10.829,16.64-22.723,22.116-35.246c1.403-3.209-8.318-4.46-7.164-7.745
	c0.576-1.638,12.12-5.285,12.634-6.939c3.376-10.871,5.415-22.069,6.116-33.335c0.184-2.954,0.284-50.434,0.284-50.434
	L233.898,246.996C233.898,246.996,281.379,246.897,284.333,246.712z"/>
<path fill="#0A3160" d="M274.843,105.738c-2.494,2.525-4.843,5.137-7.108,7.795v99.627l14.691-7.346V98.811
	C279.843,101.023,277.301,103.31,274.843,105.738"/>
<path fill="#0A3160" d="M332.344,71.228c-4.972,1.544-9.882,3.34-14.692,5.443v86.573l14.692-7.259V71.228z"/>
<path fill="#A0A0A0" d="M282.428,198.468l-10.061,10.061l-4.632,4.631h99.629c2.658-2.265,5.272-4.613,7.797-7.105
	c2.426-2.458,4.714-5.001,6.927-7.586H282.428z"/>
<path fill="#A0A0A0" d="M404.225,163.244c2.103-4.81,3.901-9.718,5.445-14.691h-77.326l-14.692,14.691H404.225z"/>
<rect x="42.326" y="463.37" fill="#FFFFFF" width="109.142" height="109.142"/>
<path fill="#EEEEEE" d="M42.326,438.045v25.325l109.142,109.142h463.265V438.045H42.326z M328.529,518.135
	c-15.125,0-27.385-12.261-27.385-27.385c0-15.125,12.26-27.385,27.385-27.385c15.123,0,27.384,12.26,27.384,27.385
	C355.913,505.874,343.651,518.135,328.529,518.135z"/>
<path fill="#0A3160" d="M380.015,491.066c0-14.194-5.775-27.067-15.098-36.388l-8.057,8.057
	c7.251,7.251,11.735,17.268,11.735,28.332c0,22.129-17.939,40.066-40.066,40.066c-22.13,0-40.068-17.938-40.068-40.066
	c0-11.064,4.485-21.08,11.735-28.332l-8.057-8.057c-9.323,9.322-15.098,22.194-15.098,36.388c0,19.918,11.377,37.218,27.968,45.777
	c-4.767,2.459-9.111,5.629-12.87,9.388l8.057,8.058c7.249-7.248,17.261-11.733,28.322-11.736h0.01h0.01
	c11.059,0.003,21.071,4.487,28.32,11.736l8.057-8.058c-3.759-3.759-8.102-6.928-12.868-9.387
	C368.638,528.285,380.015,510.986,380.015,491.066z"/>
<polygon fill="#0A3160" points="118.663,293.688 118.663,274.616 156.805,274.616 156.805,312.759 "/>
<polygon fill="#A0A0A0" points="137.734,293.688 118.663,293.688 118.663,322.148 137.753,341.238 156.805,322.186 156.805,322.148 
	156.805,312.759 "/>
<polygon fill="#A0A0A0" points="309.472,293.688 309.472,274.616 347.614,274.616 347.614,312.759 "/>
<polygon fill="#FFFFFF" points="328.543,293.688 309.472,293.688 309.472,322.148 328.562,341.238 347.614,322.186 347.614,322.148 
	347.614,312.759 "/>
<path fill="#0A3160" d="M538.399,255.526c-10.543,0-19.09,8.546-19.09,19.089v0.001h-19.053v19.071l38.143,19.071v-19.052l0,0
	c10.543,0,19.09-8.548,19.09-19.092C557.489,264.072,548.942,255.526,538.399,255.526z"/>
<polygon fill="#FFFFFF" points="519.328,293.688 500.257,293.688 500.257,322.148 519.347,341.238 538.399,322.186 538.399,322.148 
	538.399,312.759 "/>
<polygon fill="#FFFFFF" points="166.34,400.032 109.127,400.032 99.127,358.366 109.127,333.592 166.34,333.592 176.34,357.115 "/>
<polygon fill="#FFFFFF" points="357.149,400.032 299.937,400.032 289.937,358.366 299.937,333.592 357.149,333.592 367.149,357.115 
	"/>
<polygon fill="#FFFFFF" points="547.935,400.032 490.722,400.032 480.722,358.366 490.722,333.592 547.935,333.592 557.935,357.115 
	"/>
<path fill="#A0A0A0" d="M576.542,333.592h-28.607v47.678l-15.95,15.951l-10.284-51.7l4.779-4.777l-7.151-7.151h-0.001l-7.15,7.151
	l4.778,4.777l-10.283,51.7l-15.95-15.952v-47.677h-28.607c-21.076,0-38.161,17.085-38.162,38.161h-0.031l-32.807,38.124
	l128.214,14.084l95.377-14.084v-38.124C614.705,350.677,597.618,333.592,576.542,333.592z"/>
<path fill="#0A3160" d="M423.92,371.753c0-21.076-17.087-38.161-38.163-38.161h-28.607v47.678l-15.95,15.951l-10.284-51.7
	l4.779-4.777l-7.151-7.151h-0.001l-7.15,7.151l4.778,4.777l-10.283,51.7l-15.95-15.952v-47.677h-28.607
	c-21.076,0-38.161,17.085-38.162,38.161h-0.056c0-21.076-17.087-38.161-38.163-38.161H166.34v47.678l-15.95,15.951l-10.284-51.7
	l4.779-4.777l-7.151-7.151h-0.001l-7.15,7.151l4.778,4.777l-10.283,51.7l-15.95-15.952v-47.677H80.52
	c-21.077,0-38.162,17.087-38.162,38.164h-0.031v38.121l28.784,4.249l-2.59-4.249v-40.571l25.896-26.431l8.572,8.399L80.52,374.204
	v35.673l-3.062,5.186l60.275,8.898l95.376-14.084h0.026l28.783,4.249l-2.59-4.249v-40.571l25.896-26.431l8.572,8.399l-22.469,22.931
	v35.673l-3.062,5.186l60.275,8.898l95.376-14.084h0.002v-38.124H423.92z"/>
<g>
	<polygon fill="#1D345C" points="462.114,409.877 456.211,419.877 450.114,409.877 450.114,369.306 476.011,342.875 
		484.583,351.274 462.114,374.204 	"/>
</g>
<rect x="17.002" y="409.877" fill="#FFFFFF" width="615.998" height="28.168"/>
</svg>
