<?xml version="1.0" encoding="utf-8"?>
<!-- Generator: Adobe Illustrator 18.1.1, SVG Export Plug-In . SVG Version: 6.00 Build 0)  -->
<svg version="1.1" id="Layer_1" xmlns="http://www.w3.org/2000/svg" xmlns:xlink="http://www.w3.org/1999/xlink" x="0px" y="0px"
	 viewBox="0 0 650 650" enable-background="new 0 0 650 650" xml:space="preserve">
<polygon fill="#FFFFFF" points="450.533,506.403 450.533,456.073 450.533,456.073 380.5,205.008 199.467,205.008 199.467,205.008 
	199.467,205.008 199.467,506.403 158.949,546.921 491.051,546.921 "/>
<polygon fill="#0A3160" points="450.533,123.971 199.467,123.971 158.949,164.489 322.062,208.5 491.051,164.489 "/>
<polygon fill="#A0A0A0" points="384.711,104.544 340.458,148.797 277.809,86.147 199.467,164.489 322.062,202 444.656,164.489 "/>
<polygon fill="#F1F1F1" points="158.949,164.489 199.467,205.007 199.467,205.008 277.478,283.018 311,353.849 372.054,377.594 
	450.533,456.073 450.533,205.007 491.051,164.489 "/>
<polygon fill="#A0A0A0" points="341.485,289.842 341.485,232.76 308.047,266.198 308.047,313.486 277.478,330.205 277.478,377.493 
	324.766,435.284 372.054,353.849 372.054,306.561 "/>
<polygon fill="#0A3160" points="324.766,306.561 324.766,330.205 277.478,282.917 277.478,330.205 324.766,377.493 324.766,353.849 
	372.054,306.561 372.054,259.273 "/>
<polygon fill="#0A3160" points="324.766,401.137 324.766,424.781 277.478,377.493 277.478,424.781 324.766,472.069 324.766,448.425 
	372.054,401.137 372.054,353.849 "/>
</svg>
