<?xml version="1.0" encoding="utf-8"?>
<!-- Generator: Adobe Illustrator 16.0.1, SVG Export Plug-In . SVG Version: 6.00 Build 0)  -->
<!DOCTYPE svg PUBLIC "-//W3C//DTD SVG 1.1//EN" "http://www.w3.org/Graphics/SVG/1.1/DTD/svg11.dtd">
<svg version="1.1" id="Layer_1" xmlns="http://www.w3.org/2000/svg" xmlns:xlink="http://www.w3.org/1999/xlink" x="0px" y="0px"
	 width="650px" height="650px" viewBox="0 0 650 650" enable-background="new 0 0 650 650" xml:space="preserve">
<g>
	<polygon fill="#FFFFFF" points="450.533,506.403 450.533,456.073 450.533,456.073 380.5,205.008 199.467,205.008 199.467,205.008 
		199.467,205.008 199.467,506.403 158.949,546.921 491.051,546.921 	"/>
	<polygon fill="#0A3160" points="450.533,123.971 199.467,123.971 158.949,164.489 322.062,208.5 491.051,164.489 	"/>
	<polygon fill="#A0A0A0" points="384.711,104.544 340.459,148.796 277.809,86.147 199.467,164.489 322.062,202 444.656,164.489 	"/>
	<polygon fill="#F1F1F1" points="158.949,164.489 199.467,205.007 199.467,205.008 277.479,283.018 311,353.849 372.055,377.594 
		450.533,456.073 450.533,205.007 491.051,164.489 	"/>
	<polygon fill="#A0A0A0" points="341.484,289.842 341.484,232.76 308.047,266.198 308.047,313.486 277.479,330.205 277.479,377.493 
		324.766,435.284 372.055,353.849 372.055,306.561 	"/>
	<polygon fill="#0A3160" points="324.766,306.561 324.766,330.205 277.479,282.917 277.479,330.205 324.766,377.493 
		324.766,353.849 372.055,306.561 372.055,259.272 	"/>
	<polygon fill="#0A3160" points="324.766,401.137 324.766,424.781 277.479,377.493 277.479,424.781 324.766,472.069 
		324.766,448.425 372.055,401.137 372.055,353.849 	"/>
</g>
</svg>
