<?xml version="1.0" encoding="utf-8"?>
<!-- Generator: Adobe Illustrator 18.1.1, SVG Export Plug-In . SVG Version: 6.00 Build 0)  -->
<svg version="1.1" id="Layer_1" xmlns="http://www.w3.org/2000/svg" xmlns:xlink="http://www.w3.org/1999/xlink" x="0px" y="0px"
	 viewBox="0 0 650 650" enable-background="new 0 0 650 650" xml:space="preserve">
<path fill="#A0A0A0" d="M27.328,161.547v283.815H623.35V161.546L27.328,161.547z M425.844,325.882l-35.05,21.537l-25.427-25.427
	v-0.002h-13.454h-53.864h-13.465v0.002l-32.462,31.899l-28.009-28.009c-1.436-6.854-2.208-13.952-2.208-21.233
	c0-56.926,46.147-103.074,103.072-103.074c56.926,0,103.075,46.147,103.075,103.074C428.052,311.93,427.28,319.028,425.844,325.882z
	"/>
<polygon fill="#FFFFFF" points="298.049,279.112 314.152,321.99 335.747,321.99 339.161,311.138 351.903,305.832 351.903,265.651 
	351.903,265.648 323.623,243.809 "/>
<polygon fill="#0A3160" points="298.049,238.718 298.049,279.112 324.975,252.182 324.981,252.182 338.449,265.652 338.45,265.652 
	351.903,265.652 351.903,252.182 351.903,238.718 "/>
<polygon fill="#0A3160" points="298.049,321.99 291.188,328.851 291.188,393.775 356.059,393.775 356.059,331.753 351.913,321.99 
	325.9,328.737 "/>
<polygon fill="#0A3160" points="311.519,305.885 311.519,292.583 311.518,292.583 298.049,279.112 298.049,292.583 298.049,292.584 
	298.049,305.885 298.047,305.885 324.949,332.787 351.849,305.885 "/>
<path fill="#0A3160" d="M405.759,321.992h-40.392l-6.197,38.752l6.197,38.752c15.919-6.793,29.78-17.486,40.392-30.867
	c9.746-12.29,16.761-26.838,20.093-42.751C419.641,323.379,412.864,321.992,405.759,321.992z"/>
<path fill="#0A3160" d="M284.584,321.992h-40.391c-7.105,0-13.88,1.385-20.088,3.883c3.33,15.91,10.342,30.458,20.088,42.747
	c10.611,13.383,24.472,24.075,40.391,30.872l6.197-39.959L284.584,321.992z"/>
<g>
	<polygon fill="#FFFFFF" points="311.522,335.461 311.522,335.461 324.978,335.461 324.978,335.461 324.985,335.461 
		324.985,335.461 338.443,335.461 351.913,321.99 298.049,321.99 311.519,335.461 	"/>
	<path fill="#FFFFFF" d="M351.913,321.99v13.471v11.208h-13.47v28.536c0,7.435-6.026,13.462-13.46,13.462v-13.462h0.002
		l-0.007-14.473h-13.456v-14.063h-13.475v-11.208h0.001V321.99h-13.465v77.508c12.405,5.29,26.056,8.224,40.393,8.224
		c14.338,0,27.985-2.933,40.39-8.222V321.99H351.913z"/>
</g>
<circle fill="#0A3160" cx="511.692" cy="328.738" r="43.959"/>
<rect x="467.733" y="240.892" fill="#0A3160" width="87.918" height="28.57"/>
<circle fill="#0A3160" cx="138.64" cy="328.738" r="43.959"/>
<rect x="94.681" y="240.892" fill="#0A3160" width="87.918" height="28.57"/>
<path fill="#0A3160" d="M642.499,145.361v-0.001H147.975H7.501H7.498v30.984h0.004v109.491l0.001-0.001v35.718l-0.005-0.004v109.488
	v30.984v0.001h140.476l-0.001-0.001h354.053h140.473h0.001v-41.443h0.002V285.835V173.482v-28.121H642.499z M611.518,352.528
	l-78.508,78.509H116.989l-78.502-78.501V254.85l78.504-78.505H533.01l78.508,78.506V352.528z"/>
</svg>
