<?xml version="1.0" encoding="utf-8"?>
<!-- Generator: Adobe Illustrator 16.0.1, SVG Export Plug-In . SVG Version: 6.00 Build 0)  -->
<!DOCTYPE svg PUBLIC "-//W3C//DTD SVG 1.1//EN" "http://www.w3.org/Graphics/SVG/1.1/DTD/svg11.dtd">
<svg version="1.1" id="Layer_1" xmlns="http://www.w3.org/2000/svg" xmlns:xlink="http://www.w3.org/1999/xlink" x="0px" y="0px"
	 width="650px" height="650px" viewBox="0 0 650 650" enable-background="new 0 0 650 650" xml:space="preserve">
<path fill="#A0A0A0" d="M438.368,328.456c0,62.424-50.605,113.025-113.029,113.025S212.31,390.88,212.31,328.456
	c0-62.428,50.605-113.029,113.029-113.029S438.368,266.028,438.368,328.456z"/>
<g>
	<path fill="#FFFFFF" d="M27.328,186.547v283.815H623.35V186.546L27.328,186.547z M425.844,350.882l-35.05,21.538l-25.427-25.428
		v-0.002h-13.454h-53.864h-13.465v0.002l-32.462,31.899l-28.009-28.009c-1.436-6.854-2.208-13.952-2.208-21.233
		c0-56.927,46.147-103.073,103.072-103.073c56.926,0,103.075,46.146,103.075,103.073C428.052,336.93,427.28,344.028,425.844,350.882
		z"/>
	<polygon fill="#FFFFFF" points="298.048,304.111 314.152,346.99 335.747,346.99 339.161,336.139 351.903,330.832 351.903,290.65 
		351.903,290.648 323.623,268.81 	"/>
	<polygon fill="#0A3160" points="298.048,263.719 298.048,304.111 324.975,277.182 324.98,277.182 338.449,290.651 338.45,290.651 
		351.903,290.651 351.903,277.182 351.903,263.719 	"/>
	<polygon fill="#0A3160" points="298.048,346.99 291.188,353.851 291.188,418.775 356.059,418.775 356.059,356.754 351.913,346.99 
		325.9,353.736 	"/>
	<polygon fill="#0A3160" points="311.52,330.885 311.52,317.582 311.518,317.582 298.049,304.111 298.049,317.582 298.049,317.584 
		298.049,330.885 298.047,330.885 324.949,357.787 351.849,330.885 	"/>
	<path fill="#0A3160" d="M405.759,346.992h-40.392l-6.197,38.752l6.197,38.752c15.919-6.794,29.78-17.486,40.392-30.867
		c9.746-12.29,16.761-26.838,20.093-42.752C419.642,348.379,412.863,346.992,405.759,346.992z"/>
	<path fill="#0A3160" d="M284.583,346.992h-40.391c-7.105,0-13.88,1.385-20.088,3.883c3.33,15.91,10.342,30.458,20.088,42.748
		c10.611,13.382,24.471,24.074,40.391,30.871l6.197-39.959L284.583,346.992z"/>
	<g>
		<polygon fill="#FFFFFF" points="311.522,360.461 311.522,360.461 324.978,360.461 324.978,360.461 324.985,360.461 
			324.985,360.461 338.443,360.461 351.913,346.99 298.048,346.99 311.52,360.461 		"/>
		<path fill="#FFFFFF" d="M351.913,346.99v13.471v11.207h-13.47v28.536c0,7.436-6.026,13.463-13.46,13.463v-13.463h0.002
			l-0.007-14.473h-13.456v-14.063h-13.475v-11.207h0.001V346.99h-13.465v77.508c12.405,5.29,26.056,8.225,40.394,8.225
			s27.985-2.934,40.39-8.223v-77.51H351.913z"/>
	</g>
	<circle fill="#A0A0A0" cx="511.691" cy="353.737" r="43.959"/>
	<rect x="467.732" y="265.893" fill="#A0A0A0" width="87.918" height="28.569"/>
	<circle fill="#A0A0A0" cx="138.64" cy="353.737" r="43.959"/>
	<rect x="94.681" y="265.893" fill="#A0A0A0" width="87.918" height="28.569"/>
	<path fill="#A0A0A0" d="M642.499,170.361v-0.002H147.976H7.501H7.498v30.984h0.003v109.491l0.001-0.001v35.718l-0.004-0.004
		v109.489v30.984v0.001h140.476l-0.001-0.001h354.053h140.473h0.001v-41.443h0.002V310.835V198.481v-28.12H642.499z
		 M611.518,377.527l-78.507,78.51H116.989l-78.501-78.501V279.85l78.504-78.506H533.01l78.507,78.507V377.527z"/>
</g>
</svg>
