<?xml version="1.0" encoding="utf-8"?>
<!-- Generator: Adobe Illustrator 18.1.1, SVG Export Plug-In . SVG Version: 6.00 Build 0)  -->
<svg version="1.1" id="Layer_1" xmlns="http://www.w3.org/2000/svg" xmlns:xlink="http://www.w3.org/1999/xlink" x="0px" y="0px"
	 viewBox="0 0 650 650" enable-background="new 0 0 650 650" xml:space="preserve">
<rect x="35.711" y="461.004" fill="#FFFFFF" width="109.142" height="109.142"/>
<path fill="#EEEEEE" d="M35.711,435.68v25.325l109.142,109.142h463.265V435.68H35.711z M321.915,515.769
	c-15.125,0-27.385-12.261-27.385-27.385c0-15.125,12.26-27.385,27.385-27.385c15.123,0,27.384,12.26,27.384,27.385
	C349.298,503.509,337.037,515.769,321.915,515.769z"/>
<path fill="#0A3160" d="M373.401,488.701c0-14.194-5.775-27.067-15.098-36.388l-8.057,8.057
	c7.251,7.251,11.735,17.268,11.735,28.332c0,22.129-17.939,40.066-40.066,40.066c-22.13,0-40.068-17.938-40.068-40.066
	c0-11.064,4.485-21.08,11.735-28.332l-8.057-8.057c-9.324,9.322-15.098,22.194-15.098,36.388c0,19.918,11.377,37.218,27.968,45.777
	c-4.767,2.459-9.111,5.629-12.869,9.388l8.057,8.058c7.249-7.248,17.261-11.733,28.322-11.736h0.01h0.01
	c11.059,0.003,21.071,4.487,28.32,11.736l8.057-8.058c-3.759-3.759-8.102-6.928-12.868-9.387
	C362.023,525.919,373.401,508.62,373.401,488.701z"/>
<polygon fill="#0A3160" points="112.048,291.322 112.048,272.251 150.191,272.251 150.191,310.393 "/>
<polygon fill="#A0A0A0" points="131.119,291.322 112.049,291.322 112.049,319.782 131.138,338.872 150.191,319.82 150.191,319.782 
	150.191,310.393 "/>
<polygon fill="#A0A0A0" points="302.857,291.322 302.857,272.251 341,272.251 341,310.393 "/>
<polygon fill="#FFFFFF" points="321.928,291.322 302.858,291.322 302.858,319.782 321.947,338.872 341,319.82 341,319.782 
	341,310.393 "/>
<path fill="#0A3160" d="M531.785,253.16c-10.543,0-19.09,8.546-19.09,19.089c0,0,0,0.001,0,0.001h-19.053v19.071l38.143,19.071
	v-19.052l0,0c10.543,0,19.09-8.548,19.09-19.092C550.875,261.706,542.328,253.16,531.785,253.16z"/>
<polygon fill="#FFFFFF" points="512.714,291.322 493.643,291.322 493.643,319.782 512.733,338.872 531.785,319.82 531.785,319.782 
	531.785,310.393 "/>
<polygon fill="#FFFFFF" points="159.726,397.667 102.513,397.667 92.513,356 102.513,331.226 159.726,331.226 169.726,354.75 "/>
<polygon fill="#FFFFFF" points="350.535,397.667 293.322,397.667 283.322,356 293.322,331.226 350.535,331.226 360.535,354.75 "/>
<polygon fill="#FFFFFF" points="541.32,397.667 484.107,397.667 474.107,356 484.107,331.226 541.32,331.226 551.32,354.75 "/>
<path fill="#A0A0A0" d="M569.928,331.226H541.32v47.678l-15.95,15.951l-10.284-51.7l4.779-4.777l-7.151-7.151h-0.001l-7.15,7.151
	l4.778,4.777l-10.283,51.7l-15.95-15.952v-47.677H455.5c-21.076,0-38.161,17.085-38.162,38.161h-0.031L384.5,407.511l128.214,14.084
	l95.377-14.084v-38.124C608.091,348.311,591.004,331.226,569.928,331.226z"/>
<path fill="#0A3160" d="M412.048,152.152c0,49.779-40.354,90.133-90.133,90.133s-90.133-40.354-90.133-90.133
	c0-22.573,8.298-43.208,22.01-59.021c7.074-8.157,22.051-3.953,22.051-3.953s16.736-22.623,24.168-24.479
	c7.012-1.751,14.35-2.68,21.904-2.68C371.694,62.018,412.048,102.372,412.048,152.152z"/>
<path fill="#A0A0A0" d="M321.915,70.52v27.571h-0.148L294.195,70.52l5.816-5.816c-18.24,4.554-34.282,14.661-46.219,28.427v20.144
	c0,22.232,18.023,40.255,40.255,40.255c0-15.391,12.477-27.868,27.868-27.868h0l27.571-27.571h0L321.915,70.52z"/>
<path fill="#A0A0A0" d="M390.99,186.995c0-18.482-14.983-33.465-33.465-33.465h-15.931v0l-33.458,33.458h-0.007l0.004,0.004
	l-0.004,0.004h0.007l27.564,27.564l0,26.678c0.421-0.065,0.838-0.138,1.257-0.208L390.99,186.995z"/>
<path fill="#0A3160" d="M417.306,369.388c0-21.076-17.087-38.161-38.163-38.161h-28.607v47.678l-15.95,15.951l-10.284-51.7
	l4.779-4.777l-7.151-7.151h-0.001l-7.15,7.151l4.778,4.777l-10.283,51.7l-15.95-15.952v-47.677h-28.607
	c-21.076,0-38.161,17.085-38.162,38.161h-0.056c0-21.076-17.087-38.161-38.163-38.161h-28.607v47.678l-15.95,15.951l-10.284-51.7
	l4.779-4.777l-7.151-7.151h-0.001l-7.15,7.151l4.778,4.777l-10.283,51.7l-15.95-15.952v-47.677H73.906
	c-21.077,0-38.162,17.087-38.162,38.164h-0.031v38.121l28.784,4.249l-2.59-4.249V366.94l25.896-26.431l8.572,8.399l-22.469,22.931
	v35.673l-3.062,5.186l60.275,8.898l95.376-14.084h0.026l28.783,4.249l-2.59-4.249V366.94l25.896-26.431l8.572,8.399l-22.469,22.931
	v35.673l-3.062,5.186l60.275,8.898l95.376-14.084h0.002v-38.124H417.306z"/>
<g>
	<polygon fill="#1D345C" points="455.5,407.512 449.597,417.512 443.5,407.512 443.5,366.94 469.396,340.51 477.969,348.908 
		455.5,371.839 	"/>
</g>
<rect x="10.387" y="407.512" fill="#FFFFFF" width="615.998" height="28.168"/>
</svg>
