<?xml version="1.0" encoding="utf-8"?>
<!-- Generator: Adobe Illustrator 17.0.0, SVG Export Plug-In . SVG Version: 6.00 Build 0)  -->
<!DOCTYPE svg PUBLIC "-//W3C//DTD SVG 1.1//EN" "http://www.w3.org/Graphics/SVG/1.1/DTD/svg11.dtd">
<svg version="1.1" id="Layer_1" xmlns="http://www.w3.org/2000/svg" xmlns:xlink="http://www.w3.org/1999/xlink" x="0px" y="0px"
	 width="650px" height="650px" viewBox="0 0 650 650" enable-background="new 0 0 650 650" xml:space="preserve">
<g>
	<rect x="71.66" y="447.012" fill="#0A3160" width="67.168" height="158.817"/>
	<path fill="#FFFFFF" d="M474.667,245.509v67.168c-37.095,0-67.168,30.072-67.168,67.168v67.168
		c0-37.095,30.072-67.168,67.168-67.168l0,0c37.095,0,67.168-30.072,67.168-67.168S511.762,245.509,474.667,245.509z"/>
	<path fill="#FFFFFF" d="M273.163,312.677c0-37.096-30.072-67.168-67.168-67.168h-67.168c37.095,0,67.168,30.072,67.168,67.168
		v0.002c-0.001,37.094-30.072,67.164-67.165,67.165h-0.002c-37.095,0-67.168,30.072-67.168,67.168h67.168
		c0-37.095,30.071-67.166,67.165-67.168h0.002l0,0C243.091,379.844,273.163,349.772,273.163,312.677z"/>
	<path fill="#EEEEEE" d="M273.163,312.677v-67.168h-67.168C243.091,245.509,273.163,275.581,273.163,312.677z"/>
	<path fill="#EEEEEE" d="M407.499,312.677c-37.095,0-67.168,30.072-67.168,67.168v67.168c37.095,0,67.168-30.072,67.168-67.168
		s30.072-67.168,67.168-67.168v-67.168C474.667,282.604,444.594,312.677,407.499,312.677z"/>
	<path fill="#EEEEEE" d="M541.833,178.265c-0.041-37.061-30.096-67.092-67.166-67.092c0,37.095-30.072,67.168-67.168,67.168v0
		c37.095,0,67.168,30.072,67.168,67.168v0c31.297,0,57.594,21.405,65.051,50.374c41.337-22.925,69.322-67,69.322-117.618H541.833z"
		/>
	<path fill="#EEEEEE" d="M340.331,245.509L340.331,245.509c-37.095,0-67.168,30.072-67.168,67.168
		c0,37.095-30.071,67.166-67.165,67.168h-0.002c-37.095,0-67.168,30.072-67.168,67.168h67.168c37.096,0,67.168-30.072,67.168-67.168
		c37.095,0,67.168-30.072,67.168-67.168s30.072-67.168,67.168-67.168H340.331z"/>
	<path fill="#FFFFFF" d="M474.667,111.174V44.006c0,37.095-30.072,67.168-67.168,67.168v0.001
		c-74.17,0.024-134.291,60.159-134.291,134.335h-0.045v67.168c0-37.095,30.072-67.168,67.168-67.168h67.168
		c-37.095,0-67.168,30.072-67.168,67.168v0.005c-0.003,37.09-30.069,67.158-67.158,67.163h-0.01
		c0,37.095-30.072,67.168-67.168,67.168h67.168c37.096,0,67.168-30.072,67.168-67.168h0v-0.005
		c0.002-37.093,30.074-67.163,67.168-67.163c37.095,0,67.168-30.072,67.168-67.168c0-37.08-30.048-67.142-67.123-67.167v-0.002
		C444.619,178.316,474.667,148.254,474.667,111.174z"/>
</g>
</svg>
