<?xml version="1.0" encoding="utf-8"?>
<!-- Generator: Adobe Illustrator 18.1.1, SVG Export Plug-In . SVG Version: 6.00 Build 0)  -->
<svg version="1.1" id="Layer_1" xmlns="http://www.w3.org/2000/svg" xmlns:xlink="http://www.w3.org/1999/xlink" x="0px" y="0px"
	 viewBox="0 0 650 650" enable-background="new 0 0 650 650" xml:space="preserve">
<polygon fill="#0A3160" points="138.828,605.829 71.66,605.829 71.66,447.012 105.244,437.012 138.828,447.012 "/>
<path fill="#EEEEEE" d="M541.833,178.265c-0.042-37.06-30.096-67.092-67.166-67.092L392,184.333l36,71
	C388.758,274.828,340.331,342,340.331,342v37.844v67.168c37.096,0,67.168-30.072,67.168-67.168l132.219-83.961
	c41.337-22.925,69.322-67,69.322-117.618H541.833z"/>
<path fill="#FFFFFF" d="M474.667,245.509v67.168c-37.095,0-67.168,30.072-67.168,67.168v67.168
	c0-37.095,30.072-67.168,67.168-67.168l0,0c37.095,0,67.168-30.072,67.168-67.168S511.762,245.509,474.667,245.509z"/>
<path fill="#FFFFFF" d="M474.667,111.174V44.006c0,37.095-30.072,67.168-67.167,67.168v0.001
	c-74.17,0.024-134.291,60.159-134.291,134.335h-0.045v0l-19.673,19.673c-12.155-12.155-28.947-19.673-47.495-19.673h-67.168
	c37.096,0,67.168,30.072,67.168,67.168v0.002c-0.001,37.094-30.072,67.164-67.166,67.165h-0.002
	c-37.095,0-67.167,30.072-67.167,67.168h67.167c0-37.095,104.263,0,67.168,0h67.167c37.096,0,67.167-30.072,67.168-67.167l0,0
	v-0.005c0.002-37.093,30.074-67.163,67.168-67.163c37.095,0,67.167-30.072,67.167-67.168c0-37.08-30.048-67.142-67.123-67.167
	v-0.002C444.619,178.316,474.667,148.254,474.667,111.174z"/>
<path fill="#EEEEEE" d="M273.163,312.677v-67.168h-67.168C243.091,245.509,273.163,275.581,273.163,312.677z"/>
<path fill="#EEEEEE" d="M340.331,245.509L340.331,245.509c-37.095,0-67.168,30.072-67.168,67.168
	c0,37.095-30.071,67.166-67.165,67.168h-0.002c-37.095,0-67.168,30.072-67.168,67.168h67.168c37.096,0,67.168-30.072,67.168-67.168
	c37.095,0,67.168-30.072,67.168-67.168s30.072-67.168,67.168-67.168H340.331z"/>
</svg>
