<?xml version="1.0" encoding="utf-8"?>
<!-- Generator: Adobe Illustrator 16.0.1, SVG Export Plug-In . SVG Version: 6.00 Build 0)  -->
<!DOCTYPE svg PUBLIC "-//W3C//DTD SVG 1.1//EN" "http://www.w3.org/Graphics/SVG/1.1/DTD/svg11.dtd">
<svg version="1.1" id="Layer_1" xmlns="http://www.w3.org/2000/svg" xmlns:xlink="http://www.w3.org/1999/xlink" x="0px" y="0px"
	 width="650px" height="650px" viewBox="0 0 650 650" enable-background="new 0 0 650 650" xml:space="preserve">
<polygon fill="#0A3160" points="146.8,583.604 82.289,583.604 82.289,431.069 114.545,421.465 146.8,431.069 "/>
<path fill="#EEEEEE" d="M533.861,172.954c-0.039-35.594-28.904-64.438-64.508-64.438l-79.396,70.266l34.576,68.191
	c-37.69,18.724-84.201,83.238-84.201,83.238v36.347v64.511c35.628,0,64.51-28.883,64.51-64.511l126.988-80.64
	c39.703-22.018,66.58-64.35,66.58-112.965H533.861z"/>
<path fill="#FFFFFF" d="M469.353,237.538v64.511c-35.628,0-64.511,28.882-64.511,64.51v64.511c0-35.628,28.883-64.511,64.511-64.511
	l0,0c35.628,0,64.511-28.882,64.511-64.51S504.98,237.538,469.353,237.538z"/>
<path fill="#FFFFFF" d="M469.354,108.517V44.006c0,35.628-28.883,64.511-64.512,64.511v0
	c-71.235,0.023-128.977,57.779-128.977,129.021h-0.044l0,0l-18.896,18.895c-11.674-11.674-27.801-18.895-45.615-18.895H146.8
	c35.628,0,64.511,28.883,64.511,64.511v0.002c-0.002,35.626-28.882,64.507-64.508,64.508H146.8
	c-35.628,0-64.511,28.883-64.511,64.511H146.8c0-35.627,100.138,0,64.511,0h64.511c35.628,0,64.51-28.883,64.511-64.511l0,0v-0.004
	c0.002-35.625,28.884-64.506,64.51-64.506c35.629,0,64.512-28.883,64.512-64.511c0-35.614-28.861-64.486-64.469-64.509v-0.002
	C440.492,173.002,469.354,144.13,469.354,108.517z"/>
<path fill="#EEEEEE" d="M275.821,302.048v-64.511h-64.511C246.938,237.537,275.821,266.42,275.821,302.048z"/>
<path fill="#EEEEEE" d="M340.332,237.537L340.332,237.537c-35.629,0-64.512,28.883-64.512,64.511
	c0,35.627-28.881,64.509-64.508,64.511h-0.002c-35.629,0-64.511,28.883-64.511,64.511h64.511c35.627,0,64.51-28.883,64.51-64.511
	c35.629,0,64.512-28.883,64.512-64.511s28.883-64.511,64.51-64.511H340.332z"/>
</svg>
