<?xml version="1.0" encoding="utf-8"?>
<!-- Generator: Adobe Illustrator 17.0.0, SVG Export Plug-In . SVG Version: 6.00 Build 0)  -->
<!DOCTYPE svg PUBLIC "-//W3C//DTD SVG 1.1//EN" "http://www.w3.org/Graphics/SVG/1.1/DTD/svg11.dtd">
<svg version="1.1" id="Layer_1" xmlns="http://www.w3.org/2000/svg" xmlns:xlink="http://www.w3.org/1999/xlink" x="0px" y="0px"
	 width="650px" height="650px" viewBox="0 0 650 650" enable-background="new 0 0 650 650" xml:space="preserve">
<path fill="none" stroke="#FFFFFF" stroke-width="16" stroke-miterlimit="10" d="M359.869,117.488c0-9.202,3.73-17.534,9.761-23.564
	"/>
<path fill="#FFFFFF" d="M487.394,305.904l-11.313-11.313c9.874-9.874,9.874-25.941,0-35.815L363.973,146.667
	c-7.805-7.805-12.104-18.183-12.104-29.221c0-11.039,4.299-21.416,12.104-29.221c0.184-0.184,0.376-0.358,0.575-0.522
	c7.736-7.448,17.877-11.54,28.646-11.54v16c-6.765,0-13.125,2.634-17.908,7.417c-0.142,0.142-0.288,0.277-0.438,0.407
	c-9.434,9.906-9.288,25.64,0.438,35.366l112.108,112.108c7.805,7.805,12.104,18.183,12.104,29.221
	C499.498,287.721,495.199,298.099,487.394,305.904z"/>
<path fill="#333333" d="M458.173,317.988c-10.582,0-21.165-4.028-29.221-12.084L257.361,134.313
	c-4.783-4.783-11.143-7.418-17.908-7.418s-13.125,2.634-17.908,7.417l-11.313-11.313c7.805-7.805,18.183-12.104,29.221-12.104
	s21.416,4.299,29.221,12.104L440.265,294.59c9.875,9.875,25.941,9.874,35.815,0l11.313,11.313
	C479.338,313.96,468.756,317.988,458.173,317.988z"/>
<path fill="#FFFFFF" d="M490.809,497.834l-11.313-11.313c9.874-9.874,9.874-25.941,0-35.815L210.232,181.441
	c-16.113-16.113-16.113-42.33,0-58.442l11.313,11.314c-9.874,9.874-9.874,25.941,0,35.815l269.264,269.264
	C506.922,455.504,506.922,481.721,490.809,497.834z"/>
<path fill="#333333" d="M461.588,509.937c-11.039,0-21.416-4.298-29.221-12.104L206.319,271.786
	c-4.783-4.783-11.143-7.417-17.907-7.417c-6.765,0-13.125,2.634-17.908,7.417l-11.313-11.313
	c7.805-7.805,18.183-12.104,29.221-12.104c11.038,0,21.416,4.299,29.221,12.104L443.68,486.52
	c4.783,4.783,11.143,7.417,17.908,7.417s13.125-2.634,17.908-7.417l11.313,11.314C483.004,505.639,472.627,509.937,461.588,509.937z
	"/>
<path fill="#FFFFFF" d="M361.841,557.38l-11.313-11.313c9.874-9.874,9.874-25.941,0-35.815L159.191,318.914
	c-16.113-16.113-16.113-42.33,0-58.442l11.313,11.314c-9.874,9.874-9.874,25.941,0,35.815l191.337,191.337
	C377.954,515.05,377.954,541.267,361.841,557.38z"/>
<path fill="#333333" d="M332.62,569.484c-11.039,0-21.416-4.298-29.221-12.104L194.699,448.681
	c-4.783-4.783-11.143-7.417-17.907-7.417s-13.125,2.634-17.908,7.417l-11.313-11.313c7.805-7.805,18.183-12.104,29.221-12.104
	s21.416,4.299,29.221,12.104l108.699,108.699c4.783,4.783,11.143,7.417,17.908,7.417s13.125-2.634,17.908-7.417l11.313,11.313
	C354.036,565.185,343.658,569.484,332.62,569.484z"/>
</svg>
