<?xml version="1.0" encoding="utf-8"?>
<!-- Generator: Adobe Illustrator 18.1.1, SVG Export Plug-In . SVG Version: 6.00 Build 0)  -->
<svg version="1.1" id="Layer_1" xmlns="http://www.w3.org/2000/svg" xmlns:xlink="http://www.w3.org/1999/xlink" x="0px" y="0px"
	 viewBox="0 0 650 650" enable-background="new 0 0 650 650" xml:space="preserve">
<path fill="#FFFFFF" d="M137.883,148.289l-1.421,12.579l13.517-0.483c10.557-10.557,27.735-10.557,38.293,0l287.891,287.891
	c17.227,17.227,45.258,17.227,62.485,0l-1.632-9.632l-10.464-2.464c-10.557,10.557-27.735,10.557-38.293,0L200.368,148.289
	C183.141,131.061,155.11,131.061,137.883,148.289z"/>
<path fill="#FFFFFF" d="M74.217,286.179l1.469,11.469l10.628,0.628c10.557-10.557,27.735-10.557,38.293,0L329.18,502.848
	c17.227,17.227,45.258,17.227,62.485,0l-2.424-11.424l-9.672-0.672c-10.557,10.557-27.735,10.557-38.293,0L136.702,286.179
	C119.476,268.952,91.445,268.952,74.217,286.179z"/>
<path fill="#FFFFFF" d="M343.09,151.94l2.118,10.518l9.978,1.578c10.557-10.557,27.735-10.557,38.293,0L513.342,283.9
	c8.345,8.345,19.441,12.941,31.243,12.941c11.802,0,22.898-4.596,31.243-12.941c0.197-0.197,0.383-0.402,0.558-0.614
	c7.964-8.272,12.338-19.114,12.338-30.628h-17.107c0,7.233-2.817,14.032-7.931,19.147c-0.152,0.151-0.297,0.307-0.435,0.468
	c-10.592,10.086-27.414,9.931-37.813-0.468L405.575,151.94c-8.345-8.345-19.441-12.941-31.242-12.941
	C362.531,138.999,351.435,143.595,343.09,151.94z"/>
<path fill="#0A3160" d="M330.17,183.183c0,11.314,4.307,22.629,12.92,31.243l183.462,183.462c5.114,5.114,7.931,11.914,7.931,19.147
	c0,7.233-2.817,14.032-7.931,19.147l12.096,12.096c8.345-8.345,12.941-19.44,12.941-31.243c0-11.802-4.596-22.898-12.941-31.243
	L355.186,202.329c-10.558-10.558-10.557-27.736,0-38.293L343.09,151.94C334.476,160.554,330.17,171.868,330.17,183.183z"/>
<path fill="#0A3160" d="M124.942,179.532c0,11.802,4.596,22.898,12.941,31.243L379.569,452.46
	c5.114,5.114,7.931,11.914,7.931,19.146c0,7.233-2.816,14.032-7.931,19.147l12.096,12.096c8.345-8.345,12.941-19.44,12.941-31.243
	c0-11.802-4.596-22.897-12.941-31.242L149.979,198.678c-5.114-5.114-7.931-11.914-7.931-19.147c0-7.233,2.816-14.032,7.931-19.147
	l-12.096-12.096C129.538,156.634,124.942,167.729,124.942,179.532z"/>
<path fill="#0A3160" d="M61.276,317.422c0,11.802,4.596,22.898,12.941,31.243l116.219,116.219c5.114,5.114,7.93,11.913,7.93,19.146
	c0,7.233-2.817,14.032-7.931,19.147l12.096,12.096c8.345-8.345,12.941-19.44,12.941-31.243c0-11.802-4.596-22.898-12.941-31.243
	L86.314,336.568c-5.114-5.114-7.93-11.914-7.93-19.147c0-7.233,2.816-14.032,7.93-19.147l-12.096-12.096
	C65.872,294.524,61.276,305.619,61.276,317.422z"/>
</svg>
