<?xml version="1.0" encoding="utf-8"?>
<!-- Generator: Adobe Illustrator 17.0.0, SVG Export Plug-In . SVG Version: 6.00 Build 0)  -->
<!DOCTYPE svg PUBLIC "-//W3C//DTD SVG 1.1//EN" "http://www.w3.org/Graphics/SVG/1.1/DTD/svg11.dtd">
<svg version="1.1" id="Layer_1" xmlns="http://www.w3.org/2000/svg" xmlns:xlink="http://www.w3.org/1999/xlink" x="0px" y="0px"
	 width="650px" height="650px" viewBox="0 0 650 650" enable-background="new 0 0 650 650" xml:space="preserve">
<path fill="#0A3160" d="M331.371,148.714c0,13.943,5.307,27.886,15.922,38.502l226.089,226.089
	c6.303,6.302,9.774,14.682,9.774,23.595s-3.471,17.293-9.773,23.595l14.907,14.907c10.284-10.284,15.948-23.957,15.948-38.502
	c0-14.544-5.664-28.218-15.948-38.502L362.2,172.309c-13.011-13.011-13.009-34.18,0-47.19l-14.907-14.907
	C336.678,120.827,331.371,134.77,331.371,148.714z"/>
<path fill="#FFFFFF" d="M94.406,105.712l14.907,14.907c13.01-13.01,34.18-13.01,47.19,0l354.782,354.783
	c21.23,21.23,55.774,21.23,77.004,0l-14.907-14.907c-13.01,13.01-34.18,13.01-47.19,0L171.41,105.712
	C150.18,84.482,115.636,84.482,94.406,105.712z"/>
<path fill="#0A3160" d="M78.458,144.214c0,14.544,5.664,28.218,15.948,38.502l297.841,297.841
	c6.302,6.302,9.773,14.682,9.773,23.595c0,8.913-3.471,17.293-9.773,23.595l14.907,14.907
	c10.284-10.284,15.948-23.957,15.948-38.502c0-14.544-5.664-28.217-15.948-38.501L109.313,167.809
	c-6.303-6.302-9.773-14.682-9.773-23.595s3.471-17.293,9.773-23.595l-14.907-14.907C84.122,115.996,78.458,129.67,78.458,144.214z"
	/>
<path fill="#FFFFFF" d="M15.948,275.641l14.907,14.907c13.01-13.01,34.18-13.01,47.19,0l252.106,252.106
	c21.23,21.23,55.774,21.23,77.004,0l-14.907-14.907c-13.01,13.01-34.18,13.01-47.19,0L92.951,275.641
	C71.722,254.411,37.178,254.411,15.948,275.641z"/>
<path fill="#0A3160" d="M0,314.143c0,14.544,5.664,28.218,15.948,38.502L159.17,495.867c6.302,6.302,9.773,14.681,9.773,23.595
	c0,8.913-3.471,17.293-9.773,23.595l14.907,14.907c10.284-10.284,15.948-23.957,15.948-38.502c0-14.544-5.664-28.218-15.948-38.502
	L30.855,337.738c-6.302-6.302-9.773-14.682-9.773-23.595s3.471-17.293,9.773-23.595l-14.907-14.907
	C5.664,285.925,0,299.598,0,314.143z"/>
<path fill="#FFFFFF" d="M347.293,110.212l14.907,14.907c13.01-13.01,34.18-13.01,47.19,0l147.714,147.714
	c10.284,10.284,23.958,15.948,38.502,15.948c14.544,0,28.218-5.664,38.502-15.948c0.243-0.243,0.472-0.495,0.687-0.757
	C644.609,261.881,650,248.52,650,234.33h-21.082c0,8.913-3.471,17.293-9.773,23.595c-0.187,0.187-0.365,0.379-0.536,0.577
	c-13.052,12.43-33.784,12.238-46.599-0.577L424.297,110.212c-10.284-10.284-23.958-15.948-38.502-15.948
	C371.251,94.263,357.578,99.928,347.293,110.212z"/>
</svg>
