<?xml version="1.0" encoding="UTF-8" standalone="no"?>
<svg width="243px" height="176px" viewBox="0 0 243 176" version="1.1" xmlns="http://www.w3.org/2000/svg" xmlns:xlink="http://www.w3.org/1999/xlink">
    <defs></defs>
    <g id="Page-1" stroke="none" stroke-width="1" fill="none" fill-rule="evenodd">
        <g id="Group">
            <path d="M121.667,28.968 L149.803,28.968 L149.803,0.832 L93.53,0.832 L93.53,57.104 L121.667,28.968" id="Fill-5" fill="#2D2E2B"></path>
            <path d="M93.531,57.104 L93.531,71.011 L110.356,87.837 L132.921,87.837 L149.803,70.955 L149.803,28.968 L121.667,28.968 L93.531,57.104" id="Fill-6" fill="#FFFFFF"></path>
            <path d="M242.586,93.919 C231.132,89.98 218.85,87.836 206.075,87.836 L37.259,87.836 C24.484,87.836 12.202,89.98 0.747,93.919 C20.277,141.493 67.055,175 121.667,175 C176.279,175 223.057,141.493 242.586,93.919" id="Fill-7" fill="#1D2A4A"></path>
            <rect id="Rectangle-1" fill="#1E2B4A" x="0" y="94" width="243" height="82"></rect>
        </g>
    </g>
</svg>