<?xml version="1.0" encoding="utf-8"?>
<!-- Generator: Adobe Illustrator 17.0.0, SVG Export Plug-In . SVG Version: 6.00 Build 0)  -->
<!DOCTYPE svg PUBLIC "-//W3C//DTD SVG 1.1//EN" "http://www.w3.org/Graphics/SVG/1.1/DTD/svg11.dtd">
<svg version="1.1" id="Layer_1" xmlns="http://www.w3.org/2000/svg" xmlns:xlink="http://www.w3.org/1999/xlink" x="0px" y="0px"
	 width="650px" height="650px" viewBox="0 0 650 650" enable-background="new 0 0 650 650" xml:space="preserve">
<path fill="#FFFFFF" d="M149.805,315.706l-30.581,0.003l0.002,18.209l30.577-0.003C149.473,327.878,149.476,321.8,149.805,315.706z"
	/>
<circle fill="#A0A0A0" cx="317.963" cy="324.794" r="168.37"/>
<path fill="#FFFFFF" d="M308.875,492.951l0.003,30.581l18.21-0.002l-0.003-30.578C321.047,493.284,314.969,493.281,308.875,492.951z
	"/>
<path fill="#FFFFFF" d="M327.051,156.636l-0.003-30.581l-18.21,0.002l0.003,30.578C314.878,156.303,320.957,156.307,327.051,156.636
	z"/>
<path fill="#FFFFFF" d="M486.121,333.882l30.581-0.003l-0.002-18.209l-30.577,0.003C486.453,321.709,486.45,327.787,486.121,333.882
	z"/>
<path fill="#0A3160" d="M536.33,386.45c-10.619-4.399-22.454-1.41-29.796,6.598l-29.762-12.328
	c-1.005,2.847-2.087,5.683-3.256,8.506c-1.169,2.823-2.41,5.593-3.712,8.318l29.762,12.328
	c-0.471,10.854,5.784,21.335,16.403,25.734c13.574,5.622,29.135-0.823,34.758-14.397C556.35,407.634,549.904,392.072,536.33,386.45z
	"/>
<path fill="#0A3160" d="M550.728,228.38c-5.623-13.574-21.184-20.02-34.758-14.397c-10.619,4.399-16.875,14.881-16.403,25.735
	l-29.769,12.33c2.623,5.479,4.949,11.095,6.969,16.823l29.769-12.331c7.342,8.008,19.176,10.996,29.795,6.597
	C549.904,257.515,556.35,241.953,550.728,228.38z"/>
<path fill="#0A3160" d="M386.217,136.222l-12.328,29.762c2.847,1.005,5.683,2.087,8.506,3.256c2.823,1.169,5.593,2.41,8.318,3.713
	l12.328-29.762c10.854,0.471,21.335-5.784,25.734-16.403c5.623-13.574-0.823-29.136-14.397-34.758
	c-13.574-5.622-29.136,0.823-34.758,14.397C375.221,117.046,378.209,128.881,386.217,136.222z"/>
<path fill="#0A3160" d="M232.886,143.19l12.33,29.769c5.479-2.623,11.095-4.949,16.823-6.969l-12.331-29.769
	c8.008-7.342,10.996-19.176,6.598-29.795c-5.623-13.574-21.184-20.02-34.758-14.397c-13.574,5.622-20.02,21.184-14.397,34.758
	C211.55,137.406,222.032,143.662,232.886,143.19z"/>
<path fill="#0A3160" d="M162.41,260.361c1.169-2.822,2.41-5.593,3.712-8.317l-29.762-12.328
	c0.471-10.854-5.784-21.336-16.403-25.735c-13.574-5.622-29.136,0.823-34.758,14.397c-5.622,13.574,0.823,29.136,14.397,34.758
	c10.619,4.399,22.454,1.41,29.795-6.597l29.762,12.328C160.159,266.021,161.24,263.184,162.41,260.361z"/>
<path fill="#0A3160" d="M166.128,397.54c-2.623-5.479-4.949-11.095-6.968-16.823l-29.769,12.331
	c-7.342-8.008-19.176-10.996-29.795-6.598c-13.574,5.622-20.02,21.184-14.397,34.758c5.623,13.574,21.184,20.02,34.758,14.397
	c10.619-4.399,16.875-14.881,16.403-25.735L166.128,397.54z"/>
<path fill="#0A3160" d="M249.709,513.365l12.328-29.762c-2.847-1.005-5.684-2.087-8.506-3.256c-2.823-1.169-5.594-2.41-8.318-3.713
	l-12.328,29.762c-10.854-0.471-21.335,5.784-25.733,16.403c-5.623,13.574,0.823,29.136,14.397,34.758
	c13.574,5.622,29.136-0.823,34.758-14.397C260.705,532.542,257.717,520.707,249.709,513.365z"/>
<path fill="#0A3160" d="M403.04,506.397l-12.33-29.769c-5.479,2.623-11.095,4.949-16.823,6.968l12.33,29.769
	c-8.008,7.342-10.996,19.176-6.597,29.795c5.622,13.574,21.184,20.02,34.758,14.397c13.574-5.622,20.02-21.184,14.397-34.758
	C424.376,512.181,413.894,505.925,403.04,506.397z"/>
<circle fill="#0A3160" cx="240.647" cy="302.447" r="26.603"/>
<circle fill="#0A3160" cx="371.905" cy="253.778" r="26.603"/>
<circle fill="#0A3160" cx="321.395" cy="411.027" r="26.603"/>
<g>
	
		<rect x="434.286" y="178.003" transform="matrix(0.7072 0.707 -0.707 0.7072 270.7751 -255.1212)" fill="#FFFFFF" width="18.209" height="42.676"/>
</g>
<g>
	
		<rect x="183.431" y="428.908" transform="matrix(-0.7072 -0.707 0.707 -0.7072 10.3528 904.7801)" fill="#FFFFFF" width="18.209" height="42.676"/>
</g>
<g>
	
		<rect x="434.311" y="428.883" transform="matrix(-0.707 0.7072 -0.7072 -0.707 1075.3127 454.9691)" fill="#FFFFFF" width="18.209" height="42.676"/>
</g>
<g>
	
		<rect x="183.406" y="178.028" transform="matrix(0.707 -0.7072 0.7072 0.707 -84.5886 194.5468)" fill="#FFFFFF" width="18.209" height="42.676"/>
</g>
<circle fill="#FFFFFF" cx="282.585" cy="227.422" r="9.087"/>
<circle fill="#FFFFFF" cx="234.028" cy="376.104" r="9.087"/>
<circle fill="#FFFFFF" cx="321.395" cy="320.2" r="9.087"/>
<circle fill="#FFFFFF" cx="395.11" cy="378.794" r="9.087"/>
<circle fill="#FFFFFF" cx="421.888" cy="311.112" r="9.087"/>
</svg>
