<?xml version="1.0" encoding="utf-8"?>
<!-- Generator: Adobe Illustrator 18.1.1, SVG Export Plug-In . SVG Version: 6.00 Build 0)  -->
<svg version="1.1" id="Layer_1" xmlns="http://www.w3.org/2000/svg" xmlns:xlink="http://www.w3.org/1999/xlink" x="0px" y="0px"
	 viewBox="0 0 650 650" enable-background="new 0 0 650 650" xml:space="preserve">
<path fill="#FFFFFF" d="M159.248,315.706l-40.023,0.003l0.003,18.209l40.019-0.003C158.812,327.878,158.817,321.8,159.248,315.706z"
	/>
<path fill="#FFFFFF" d="M327.051,165.746l-0.003-39.691l-18.21,0.003l0.003,39.687C314.878,165.314,320.957,165.319,327.051,165.746
	z"/>
<path fill="#FFFFFF" d="M474.255,333.882l42.446-0.003l-0.003-18.209l-42.441,0.003
	C474.717,321.709,474.712,327.787,474.255,333.882z"/>
<path fill="#FFFFFF" d="M308.875,480.758l0.003,42.774l18.21-0.003l-0.003-42.769C321.047,481.224,314.969,481.219,308.875,480.758z
	"/>
<path fill="#0A3160" d="M536.33,386.45c-10.619-4.399-22.454-1.41-29.796,6.598l-29.762-12.328l-13.256,1.506l6.288,15.318
	l29.762,12.328c-0.471,10.854,5.784,21.335,16.403,25.734c13.574,5.622,29.135-0.823,34.758-14.397
	C556.35,407.634,549.904,392.072,536.33,386.45z"/>
<path fill="#0A3160" d="M550.728,228.38c-5.623-13.574-21.184-20.02-34.758-14.397c-10.619,4.399-16.875,14.881-16.403,25.735
	l-29.769,12.33l-4.961,14.116l11.93,2.708l29.769-12.331c7.342,8.008,19.176,10.996,29.795,6.597
	C549.904,257.515,556.35,241.953,550.728,228.38z"/>
<path fill="#0A3160" d="M386.217,136.222l-12.328,29.762l3.506,9.256l13.318-2.287l12.328-29.762
	c10.854,0.471,21.335-5.784,25.734-16.403c5.623-13.574-0.823-29.136-14.397-34.758c-13.574-5.622-29.136,0.823-34.758,14.397
	C375.221,117.046,378.209,128.881,386.217,136.222z"/>
<path fill="#0A3160" d="M232.886,143.19l12.33,29.769l11.168,2.771l5.655-9.739l-12.331-29.769
	c8.008-7.342,10.996-19.176,6.598-29.795c-5.623-13.574-21.184-20.02-34.758-14.397c-13.574,5.622-20.02,21.184-14.397,34.758
	C211.55,137.406,222.032,143.662,232.886,143.19z"/>
<path fill="#0A3160" d="M168.41,265.361l-2.288-13.317l-29.762-12.328c0.471-10.854-5.784-21.336-16.403-25.735
	c-13.574-5.622-29.136,0.823-34.758,14.397c-5.622,13.574,0.823,29.136,14.397,34.758c10.619,4.399,22.454,1.41,29.795-6.597
	l29.762,12.328L168.41,265.361z"/>
<path fill="#0A3160" d="M166.128,397.54l2.739-14.664l-9.707-2.159l-29.769,12.331c-7.342-8.008-19.176-10.996-29.795-6.598
	c-13.574,5.622-20.02,21.184-14.397,34.758c5.623,13.574,21.184,20.02,34.758,14.397c10.619-4.399,16.875-14.881,16.403-25.735
	L166.128,397.54z"/>
<path fill="#0A3160" d="M249.709,513.365l12.328-29.762l-4.506-10.256l-12.318,3.287l-12.328,29.762
	c-10.854-0.471-21.335,5.784-25.733,16.403c-5.623,13.574,0.823,29.136,14.397,34.758c13.574,5.622,29.136-0.823,34.758-14.397
	C260.705,532.542,257.717,520.707,249.709,513.365z"/>
<path fill="#0A3160" d="M403.04,506.397l-12.33-29.769l-14.515-4.397l-2.308,11.366l12.33,29.769
	c-8.008,7.342-10.996,19.176-6.597,29.795c5.622,13.574,21.184,20.02,34.758,14.397c13.574-5.622,20.02-21.184,14.397-34.758
	C424.376,512.181,413.894,505.925,403.04,506.397z"/>
<circle fill="#A0A0A0" cx="317.963" cy="324.794" r="168.37"/>
<circle fill="#0A3160" cx="240.647" cy="302.447" r="26.603"/>
<circle fill="#0A3160" cx="371.905" cy="253.778" r="26.603"/>
<circle fill="#0A3160" cx="321.395" cy="411.027" r="26.603"/>
<g>
	
		<rect x="434.286" y="178.003" transform="matrix(0.7072 0.707 -0.707 0.7072 270.7751 -255.1212)" fill="#FFFFFF" width="18.209" height="42.676"/>
</g>
<g>
	
		<rect x="183.431" y="428.908" transform="matrix(-0.7072 -0.707 0.707 -0.7072 10.3528 904.7801)" fill="#FFFFFF" width="18.209" height="42.676"/>
</g>
<g>
	
		<rect x="434.311" y="428.883" transform="matrix(-0.707 0.7072 -0.7072 -0.707 1075.3127 454.9691)" fill="#FFFFFF" width="18.209" height="42.676"/>
</g>
<g>
	
		<rect x="183.406" y="178.028" transform="matrix(0.707 -0.7072 0.7072 0.707 -84.5886 194.5468)" fill="#FFFFFF" width="18.209" height="42.676"/>
</g>
<circle fill="#FFFFFF" cx="282.585" cy="227.422" r="9.087"/>
<circle fill="#FFFFFF" cx="234.028" cy="376.104" r="9.087"/>
<circle fill="#FFFFFF" cx="321.395" cy="320.2" r="9.087"/>
<circle fill="#FFFFFF" cx="395.11" cy="378.794" r="9.087"/>
<circle fill="#FFFFFF" cx="421.888" cy="311.112" r="9.087"/>
</svg>
