<?xml version="1.0" encoding="utf-8"?>
<!-- Generator: Adobe Illustrator 17.0.0, SVG Export Plug-In . SVG Version: 6.00 Build 0)  -->
<!DOCTYPE svg PUBLIC "-//W3C//DTD SVG 1.1//EN" "http://www.w3.org/Graphics/SVG/1.1/DTD/svg11.dtd">
<svg version="1.1" id="Layer_1" xmlns="http://www.w3.org/2000/svg" xmlns:xlink="http://www.w3.org/1999/xlink" x="0px" y="0px"
	 width="650px" height="650px" viewBox="0 0 650 650" enable-background="new 0 0 650 650" xml:space="preserve">
<path fill="#0A3160" d="M147.414,90c-22.491,0-40.724,18.233-40.724,40.724v40.724h81.448v-40.724
	C188.138,108.233,169.905,90,147.414,90z"/>
<path fill="#A0A0A0" d="M421.138,90H147.414c22.491,0,40.724,18.233,40.724,40.724v40.724v307.104v40.724
	c0,22.491,18.233,40.724,40.724,40.724s40.724-18.233,40.724-40.724v-40.724h192.276V171.448v-40.724
	C461.862,108.233,443.629,90,421.138,90z"/>
<g>
	<path fill="#0A3160" d="M226.156,560h2.706c-0.91,0-1.811-0.041-2.706-0.099V560z"/>
	<path fill="#0A3160" d="M502.586,478.552h-40.724H269.586v40.724c0,22.491-18.233,40.724-40.724,40.724h273.724
		c22.491,0,40.724-18.233,40.724-40.724v-40.724H502.586z"/>
</g>
<g>
	<path fill="#FFFFFF" d="M328.198,287.59c30.039,0,54.39-24.351,54.39-54.39h-54.39V287.59z"/>
	<path fill="#FFFFFF" d="M366.658,140.35l-57.69,57.69l-7.893-7.893c-10.62-10.62-27.839-10.62-38.46,0l-7.029,7.029h14.059
		l12.201,12.201l7.893,7.893v0c10.62,10.62,24.54,15.931,38.46,15.931c13.92,0,27.839-5.31,38.46-15.931
		C387.898,196.028,387.898,161.59,366.658,140.35z"/>
</g>
<g>
	<rect x="284.086" y="325" fill="#0A3160" width="95.823" height="14.154"/>
</g>
<g>
	<rect x="240.884" y="353.309" fill="#0A3160" width="182.227" height="14.154"/>
</g>
<g>
	<rect x="261.606" y="381.617" fill="#0A3160" width="139.258" height="14.154"/>
</g>
<g>
	<rect x="240.884" y="409.926" fill="#0A3160" width="182.227" height="14.154"/>
</g>
</svg>
