<?xml version="1.0" encoding="utf-8"?>
<!-- Generator: Adobe Illustrator 17.0.0, SVG Export Plug-In . SVG Version: 6.00 Build 0)  -->
<!DOCTYPE svg PUBLIC "-//W3C//DTD SVG 1.1//EN" "http://www.w3.org/Graphics/SVG/1.1/DTD/svg11.dtd">
<svg version="1.1" id="Layer_1" xmlns="http://www.w3.org/2000/svg" xmlns:xlink="http://www.w3.org/1999/xlink" x="0px" y="0px"
	 width="650px" height="650px" viewBox="0 0 650 650" enable-background="new 0 0 650 650" xml:space="preserve">
<g>
	<path fill="#333333" d="M174.443,125.767c-19.068,0-34.526,15.458-34.526,34.526v34.526h69.052v-34.526
		C208.968,141.225,193.511,125.767,174.443,125.767z"/>
	<path fill="#A0A0A0" d="M406.506,125.767H174.443c19.068,0,34.526,15.458,34.526,34.526v34.526v260.362v34.526
		c0,19.068,15.458,34.526,34.526,34.526s34.526-15.458,34.526-34.526v-34.526h163.011V194.819v-34.526
		C441.032,141.225,425.574,125.767,406.506,125.767z"/>
	<g>
		<path fill="#A0A0A0" d="M241.2,524.233h2.294c-0.772,0-1.535-0.034-2.294-0.084V524.233z"/>
		<path fill="#333333" d="M475.557,455.181h-34.526H278.02v34.526c0,19.068-15.458,34.526-34.526,34.526h232.063
			c19.068,0,34.526-15.458,34.526-34.526v-34.526H475.557z"/>
	</g>
	<g>
		<rect x="290.313" y="325" fill="#333333" width="81.239" height="12"/>
	</g>
	<g>
		<rect x="273.753" y="349" fill="#333333" width="121.422" height="12"/>
	</g>
	<g>
		<rect x="290.313" y="373" fill="#333333" width="81.239" height="12"/>
	</g>
	<g>
		<rect x="290.313" y="397" fill="#333333" width="81.239" height="12"/>
	</g>
	<g>
		<path fill="#FFFFFF" d="M327.711,293.284c25.467,0,46.112-20.645,46.112-46.112h-46.112V293.284z"/>
		<path fill="#FFFFFF" d="M360.317,168.454l-48.909,48.909l-6.692-6.692c-9.004-9.004-23.602-9.004-32.606,0l-5.959,5.959h11.919
			l10.344,10.344l6.692,6.692v0c9.004,9.004,20.805,13.506,32.606,13.506c11.801,0,23.602-4.502,32.606-13.506
			C378.325,215.658,378.325,186.462,360.317,168.454z"/>
	</g>
</g>
</svg>
