<?xml version="1.0" encoding="utf-8"?>
<!-- Generator: Adobe Illustrator 18.1.1, SVG Export Plug-In . SVG Version: 6.00 Build 0)  -->
<svg version="1.1" id="Layer_1" xmlns="http://www.w3.org/2000/svg" xmlns:xlink="http://www.w3.org/1999/xlink" x="0px" y="0px"
	 viewBox="0 0 650 650" enable-background="new 0 0 650 650" xml:space="preserve">
<g>
	<path fill="#FFFFFF" d="M462.118,478.552l-40.667-40.667H229.118V560h273.724c22.491,0,40.724-18.233,40.724-40.724v-40.724
		H462.118z"/>
</g>
<path fill="#A0A0A0" d="M421.394,90H147.756v0.002c-0.029,0-0.057-0.002-0.086-0.002v40.724l40.724,40.724v307.104v40.724
	c0,22.491,18.233,40.724,40.724,40.724c22.491,0,40.724-18.233,40.724-40.724v-40.724h192.276V130.724
	C462.118,108.233,443.885,90,421.394,90z"/>
<path fill="#0A3160" d="M147.414,90c-22.491,0-40.724,18.233-40.724,40.724v40.724h81.448v-40.724
	C188.138,108.233,169.905,90,147.414,90z"/>
<g>
	<path fill="#FFFFFF" d="M328.198,287.59c30.039,0,54.39-24.351,54.39-54.39h-54.39V287.59z"/>
	<path fill="#FFFFFF" d="M366.658,140.35l-57.69,57.69l-7.893-7.893c-10.62-10.62-27.839-10.62-38.46,0l-7.029,7.029h14.059
		l12.201,12.201l7.893,7.893v0c10.62,10.62,24.54,15.931,38.46,15.931c13.92,0,27.839-5.31,38.46-15.931
		C387.898,196.028,387.898,161.59,366.658,140.35z"/>
</g>
<g>
	<rect x="284.086" y="325" fill="#0A3160" width="95.823" height="14.154"/>
</g>
<g>
	<rect x="240.884" y="353.309" fill="#0A3160" width="182.227" height="14.154"/>
</g>
<g>
	<rect x="261.606" y="381.617" fill="#0A3160" width="139.258" height="14.154"/>
</g>
<g>
	<rect x="240.884" y="409.926" fill="#0A3160" width="182.227" height="14.154"/>
</g>
</svg>
