<?xml version="1.0" encoding="utf-8"?>
<!-- Generator: Adobe Illustrator 18.1.1, SVG Export Plug-In . SVG Version: 6.00 Build 0)  -->
<svg version="1.1" id="Layer_1" xmlns="http://www.w3.org/2000/svg" xmlns:xlink="http://www.w3.org/1999/xlink" x="0px" y="0px"
	 viewBox="0 0 650 650" enable-background="new 0 0 650 650" xml:space="preserve">
<g>
	<polygon fill="#0A3160" points="406.358,140.582 396.374,182.975 406.358,225.338 448.736,182.96 	"/>
	<polygon fill="#A0A0A0" points="406.358,225.339 406.358,140.583 382.398,140.583 376.408,145.575 370.418,140.583 
		346.451,140.583 340.459,145.575 334.468,140.583 310.505,140.583 304.174,145.575 298.527,140.583 274.564,140.583 
		268.574,145.575 262.584,140.583 244.608,140.583 239.615,182.975 244.608,225.339 	"/>
	<polygon fill="#FFFFFF" points="32.938,197.929 34.032,157.49 50.94,140.581 118.801,140.581 123.794,182.975 118.801,225.337 	"/>
	<polygon fill="#EEEEEE" points="59.968,183.426 34.033,157.49 17.126,174.396 17.126,174.397 8.564,182.959 17.126,191.521 
		17.126,191.521 50.942,225.337 101.879,225.337 101.88,225.337 118.801,225.337 123.794,191.414 	"/>
	<polygon fill="#EEEEEE" points="220.645,225.338 136.774,225.338 131.781,182.974 136.774,140.583 154.747,140.583 
		160.738,145.575 166.728,140.583 190.691,140.583 196.68,145.575 202.669,140.583 220.645,140.583 225.637,182.974 	"/>
	<polygon fill="#FFFFFF" points="220.644,174.4 17.125,174.4 17.125,140.582 0,140.582 0,225.338 17.125,225.338 17.125,191.525 
		220.644,191.525 225.637,182.96 	"/>
	<rect x="118.801" y="119.469" fill="#0A3160" width="17.972" height="127.01"/>
	<rect x="220.645" y="140.583" fill="#0A3160" width="23.963" height="84.756"/>
	<polygon fill="#FFFFFF" points="479.355,199.979 440.175,199.979 440.175,165.945 479.355,165.945 496.383,182.973 
		479.355,200.002 	"/>
	<rect x="370.414" y="140.583" fill="#0A3160" width="11.982" height="33.828"/>
	<rect x="334.469" y="140.583" fill="#0A3160" width="11.982" height="33.828"/>
	<rect x="298.525" y="140.583" fill="#0A3160" width="11.982" height="33.828"/>
	<rect x="262.58" y="140.583" fill="#0A3160" width="11.982" height="33.828"/>
	<rect x="190.691" y="140.583" fill="#0A3160" width="11.982" height="33.828"/>
	<rect x="154.746" y="140.583" fill="#0A3160" width="11.982" height="33.828"/>
	<polygon fill="#0A3160" points="649,177.609 490.594,177.609 490.594,188.312 638.297,188.312 	"/>
	<polygon fill="#0A3160" points="406.358,275.007 396.374,317.4 406.358,359.763 448.736,317.385 	"/>
	<polygon fill="#A0A0A0" points="406.358,359.763 406.358,275.008 382.398,275.008 376.408,280 370.418,275.008 346.451,275.008 
		340.459,280 334.468,275.008 315.619,275.008 310.627,317.399 315.619,359.763 	"/>
	<polygon fill="#FFFFFF" points="32.938,332.354 34.032,291.914 50.94,275.006 190.278,275.006 195.27,317.399 190.278,359.762 	"/>
	<polygon fill="#EEEEEE" points="59.968,317.851 34.033,291.914 17.126,308.821 17.126,308.822 8.564,317.384 17.126,325.946 
		17.126,325.946 50.942,359.762 101.879,359.762 101.88,359.762 190.278,359.762 195.27,325.839 	"/>
	<polygon fill="#EEEEEE" points="291.656,359.763 201.76,359.763 196.768,317.399 201.76,275.007 291.656,275.007 296.648,317.399 	
		"/>
	<polygon fill="#FFFFFF" points="291.656,308.825 17.125,308.825 17.125,275.007 0,275.007 0,359.763 17.125,359.763 17.125,325.95 
		291.656,325.95 296.648,317.384 	"/>
	<rect x="190.278" y="253.894" fill="#0A3160" width="17.972" height="127.01"/>
	<polygon fill="#FFFFFF" points="479.355,334.404 440.175,334.404 440.175,300.37 479.355,300.37 496.383,317.398 479.355,334.427 	
		"/>
	<rect x="370.414" y="275.007" fill="#0A3160" width="11.982" height="33.828"/>
	<rect x="334.469" y="275.007" fill="#0A3160" width="11.982" height="33.828"/>
	<rect x="262.58" y="275.007" fill="#0A3160" width="11.982" height="33.828"/>
	<rect x="226.635" y="275.007" fill="#0A3160" width="11.982" height="33.828"/>
	<rect x="190.691" y="275.007" fill="#0A3160" width="11.982" height="33.828"/>
	<rect x="154.746" y="275.007" fill="#0A3160" width="11.982" height="33.828"/>
	<rect x="118.801" y="275.007" fill="#0A3160" width="11.982" height="33.828"/>
	<polygon fill="#0A3160" points="649,312.034 490.594,312.034 490.594,322.737 638.297,322.737 	"/>
	<rect x="291.656" y="275.008" fill="#0A3160" width="23.963" height="84.756"/>
	<polygon fill="#0A3160" points="406.358,423.56 396.374,465.952 406.358,508.316 448.736,465.938 	"/>
	<polygon fill="#A0A0A0" points="406.358,508.316 406.358,423.561 387.921,423.561 382.929,465.952 387.921,508.316 	"/>
	<polygon fill="#FFFFFF" points="32.938,480.907 34.032,440.467 50.94,423.559 262.58,423.559 267.572,465.952 262.58,508.314 	"/>
	<polygon fill="#EEEEEE" points="59.968,466.404 34.033,440.467 17.126,457.374 17.126,457.375 8.564,465.937 17.126,474.499 
		17.126,474.499 50.942,508.315 101.879,508.315 101.88,508.315 262.58,508.315 267.572,474.391 	"/>
	<polygon fill="#EEEEEE" points="363.958,508.316 280.552,508.316 275.56,465.951 280.552,423.56 363.958,423.56 368.95,465.951 	
		"/>
	<polygon fill="#FFFFFF" points="363.958,457.378 17.125,457.378 17.125,423.56 0,423.56 0,508.316 17.125,508.316 17.125,474.503 
		363.958,474.503 368.95,465.937 	"/>
	<rect x="262.58" y="402.446" fill="#0A3160" width="17.972" height="127.01"/>
	<polygon fill="#FFFFFF" points="479.355,482.956 440.175,482.956 440.175,448.923 479.355,448.923 496.383,465.95 479.355,482.979 
			"/>
	<rect x="370.414" y="423.56" fill="#0A3160" width="11.982" height="33.828"/>
	<rect x="334.469" y="423.56" fill="#0A3160" width="11.982" height="33.828"/>
	<rect x="297.647" y="423.56" fill="#0A3160" width="11.982" height="33.828"/>
	<rect x="226.635" y="423.56" fill="#0A3160" width="11.982" height="33.828"/>
	<rect x="190.691" y="423.56" fill="#0A3160" width="11.982" height="33.828"/>
	<rect x="154.746" y="423.56" fill="#0A3160" width="11.982" height="33.828"/>
	<rect x="118.801" y="423.56" fill="#0A3160" width="11.982" height="33.828"/>
	<polygon fill="#0A3160" points="649,460.587 490.594,460.587 490.594,471.29 638.297,471.29 	"/>
	<rect x="363.958" y="423.56" fill="#0A3160" width="23.963" height="84.756"/>
</g>
</svg>
