<?xml version="1.0" encoding="utf-8"?>
<!-- Generator: Adobe Illustrator 16.0.1, SVG Export Plug-In . SVG Version: 6.00 Build 0)  -->
<!DOCTYPE svg PUBLIC "-//W3C//DTD SVG 1.1//EN" "http://www.w3.org/Graphics/SVG/1.1/DTD/svg11.dtd">
<svg version="1.1" id="Layer_1" xmlns="http://www.w3.org/2000/svg" xmlns:xlink="http://www.w3.org/1999/xlink" x="0px" y="0px"
	 width="650px" height="650px" viewBox="0 0 650 650" enable-background="new 0 0 650 650" xml:space="preserve">
<g>
	<polygon fill="#0A3160" points="406.713,130.283 396.729,172.676 406.713,215.04 449.092,172.662 	"/>
	<polygon fill="#A0A0A0" points="406.713,215.04 406.713,130.285 382.753,130.285 376.763,135.277 370.773,130.285 346.806,130.285 
		340.814,135.277 334.824,130.285 310.86,130.285 304.529,135.277 298.882,130.285 274.919,130.285 268.93,135.277 262.939,130.285 
		244.963,130.285 239.971,172.676 244.963,215.04 	"/>
	<polygon fill="#FFFFFF" points="33.294,187.631 34.388,147.191 51.295,130.283 119.157,130.283 124.149,172.676 119.157,215.039 	
		"/>
	<polygon fill="#EEEEEE" points="60.323,173.128 34.388,147.191 17.481,164.098 17.481,164.099 8.919,172.66 17.481,181.223 
		17.481,181.223 51.297,215.039 102.234,215.039 102.235,215.039 119.156,215.039 124.149,181.115 	"/>
	<polygon fill="#EEEEEE" points="221,215.04 137.129,215.04 132.137,172.676 137.129,130.284 155.102,130.284 161.093,135.276 
		167.083,130.284 191.046,130.284 197.035,135.276 203.024,130.284 221,130.284 225.992,172.676 	"/>
	<polygon fill="#FFFFFF" points="221,164.102 17.48,164.102 17.48,130.283 0.355,130.283 0.355,215.04 17.48,215.04 17.48,181.227 
		221,181.227 225.992,172.661 	"/>
	<rect x="119.157" y="109.17" fill="#0A3160" width="17.972" height="127.011"/>
	<rect x="221" y="130.284" fill="#0A3160" width="23.963" height="84.756"/>
	<polygon fill="#FFFFFF" points="479.71,189.681 440.53,189.681 440.53,155.646 479.71,155.646 496.738,172.674 479.71,189.703 	"/>
	<rect x="370.769" y="130.284" fill="#0A3160" width="11.981" height="33.827"/>
	<rect x="334.824" y="130.284" fill="#0A3160" width="11.981" height="33.827"/>
	<rect x="298.88" y="130.284" fill="#0A3160" width="11.981" height="33.827"/>
	<rect x="262.935" y="130.284" fill="#0A3160" width="11.981" height="33.827"/>
	<rect x="191.046" y="130.284" fill="#0A3160" width="11.981" height="33.827"/>
	<rect x="155.102" y="130.284" fill="#0A3160" width="11.981" height="33.827"/>
	<polygon fill="#0A3160" points="649.355,167.311 490.949,167.311 490.949,178.014 638.652,178.014 	"/>
</g>
<g>
	<polygon fill="#0A3160" points="406.713,419.764 396.729,462.155 406.713,504.52 449.092,462.141 	"/>
	<polygon fill="#A0A0A0" points="406.713,504.52 406.713,419.764 388.276,419.764 383.284,462.155 388.276,504.52 	"/>
	<polygon fill="#FFFFFF" points="33.294,477.11 34.388,436.671 51.295,419.762 262.935,419.762 267.927,462.155 262.935,504.518 	
		"/>
	<polygon fill="#EEEEEE" points="60.323,462.607 34.388,436.67 17.481,453.577 17.481,453.578 8.919,462.141 17.481,470.702 
		17.481,470.702 51.297,504.518 102.234,504.518 102.235,504.518 262.935,504.518 267.927,470.595 	"/>
	<polygon fill="#EEEEEE" points="364.313,504.52 280.907,504.52 275.915,462.154 280.907,419.764 364.313,419.764 369.306,462.154 	
		"/>
	<polygon fill="#FFFFFF" points="364.313,453.581 17.48,453.581 17.48,419.764 0.355,419.764 0.355,504.52 17.48,504.52 
		17.48,470.706 364.313,470.706 369.306,462.141 	"/>
	<rect x="262.935" y="398.65" fill="#0A3160" width="17.972" height="127.01"/>
	<polygon fill="#FFFFFF" points="479.71,479.16 440.53,479.16 440.53,445.126 479.71,445.126 496.738,462.154 479.71,479.183 	"/>
	<rect x="370.769" y="419.764" fill="#0A3160" width="11.981" height="33.828"/>
	<rect x="334.824" y="419.764" fill="#0A3160" width="11.981" height="33.828"/>
	<rect x="298.002" y="419.764" fill="#0A3160" width="11.981" height="33.828"/>
	<rect x="226.991" y="419.764" fill="#0A3160" width="11.981" height="33.828"/>
	<rect x="191.046" y="419.764" fill="#0A3160" width="11.981" height="33.828"/>
	<rect x="155.102" y="419.764" fill="#0A3160" width="11.981" height="33.828"/>
	<rect x="119.157" y="419.764" fill="#0A3160" width="11.981" height="33.828"/>
	<polygon fill="#0A3160" points="649.355,456.79 490.949,456.79 490.949,467.493 638.652,467.493 	"/>
	<rect x="364.313" y="419.764" fill="#0A3160" width="23.963" height="84.756"/>
</g>
<g>
	<polygon fill="#0A3160" points="406.713,275.007 396.729,317.399 406.713,359.764 449.092,317.385 	"/>
	<polygon fill="#A0A0A0" points="406.713,359.764 406.713,275.008 382.753,275.008 376.763,280 370.773,275.008 346.806,275.008 
		340.814,280 334.824,275.008 315.975,275.008 310.982,317.399 315.975,359.764 	"/>
	<polygon fill="#FFFFFF" points="33.294,332.354 34.388,291.914 51.295,275.006 190.633,275.006 195.625,317.399 190.633,359.762 	
		"/>
	<polygon fill="#EEEEEE" points="60.323,317.852 34.388,291.914 17.481,308.821 17.481,308.822 8.919,317.384 17.481,325.946 
		17.481,325.946 51.297,359.762 102.234,359.762 102.235,359.762 190.633,359.762 195.625,325.839 	"/>
	<polygon fill="#EEEEEE" points="292.011,359.763 202.115,359.763 197.123,317.398 202.115,275.008 292.011,275.008 
		297.003,317.398 	"/>
	<polygon fill="#FFFFFF" points="292.011,308.825 17.48,308.825 17.48,275.007 0.355,275.007 0.355,359.764 17.48,359.764 
		17.48,325.95 292.011,325.95 297.003,317.385 	"/>
	<rect x="190.633" y="253.894" fill="#0A3160" width="17.972" height="127.01"/>
	<polygon fill="#FFFFFF" points="479.71,334.403 440.53,334.403 440.53,300.37 479.71,300.37 496.738,317.397 479.71,334.427 	"/>
	<rect x="370.769" y="275.008" fill="#0A3160" width="11.981" height="33.827"/>
	<rect x="334.824" y="275.008" fill="#0A3160" width="11.981" height="33.827"/>
	<rect x="262.935" y="275.008" fill="#0A3160" width="11.981" height="33.827"/>
	<rect x="226.991" y="275.008" fill="#0A3160" width="11.981" height="33.827"/>
	<rect x="191.046" y="275.008" fill="#0A3160" width="11.981" height="33.827"/>
	<rect x="155.102" y="275.008" fill="#0A3160" width="11.981" height="33.827"/>
	<rect x="119.157" y="275.008" fill="#0A3160" width="11.981" height="33.827"/>
	<polygon fill="#0A3160" points="649.355,312.033 490.949,312.033 490.949,322.737 638.652,322.737 	"/>
	<rect x="292.011" y="275.008" fill="#0A3160" width="23.963" height="84.756"/>
</g>
</svg>
