<?xml version="1.0" encoding="utf-8"?>
<!-- Generator: Adobe Illustrator 18.1.1, SVG Export Plug-In . SVG Version: 6.00 Build 0)  -->
<svg version="1.1" id="Layer_1" xmlns="http://www.w3.org/2000/svg" xmlns:xlink="http://www.w3.org/1999/xlink" x="0px" y="0px"
	 viewBox="0 0 650 650" enable-background="new 0 0 650 650" xml:space="preserve">
<path fill="#A0A0A0" d="M291.709,476.779C221.902,461.538,169.633,399.378,169.633,325c0-85.807,69.56-155.367,155.367-155.367
	c74.378,0,136.538,52.269,151.78,122.077l74.203,74.203c2.388-13.277,3.637-26.949,3.637-40.913
	c0-126.816-102.804-229.62-229.62-229.62S95.379,198.184,95.379,325c0,126.816,102.805,229.62,229.621,229.62
	c13.963,0,27.632-1.255,40.907-3.643L291.709,476.779z"/>
<path fill="#0A3160" d="M325,90C195.213,90,90,195.213,90,325s105.213,235,235,235c129.787,0,235-105.213,235-235S454.787,90,325,90
	z M325,541.623c-119.638,0-216.623-96.985-216.623-216.623c0-119.638,96.985-216.623,216.623-216.623S541.623,205.362,541.623,325
	C541.623,444.637,444.638,541.623,325,541.623z"/>
<path fill="#0A3160" d="M325,90C195.213,90,90,195.213,90,325s105.213,235,235,235c129.787,0,235-105.213,235-235S454.787,90,325,90
	z M325,541.623c-119.638,0-216.623-96.985-216.623-216.623c0-119.638,96.985-216.623,216.623-216.623S541.623,205.362,541.623,325
	C541.623,444.637,444.638,541.623,325,541.623z"/>
<path fill="#0A3160" d="M476.78,291.71l-16.911-16.911L417.54,232.47L232.471,417.529c-0.097-0.097-0.197-0.191-0.293-0.288
	c0.097,0.097,0.189,0.197,0.287,0.294l59.244,59.245c10.726,2.341,21.863,3.587,33.291,3.587
	c85.807,0,155.366-69.56,155.366-155.367C480.367,313.572,479.122,302.436,476.78,291.71z"/>
<circle fill="#A0A0A0" cx="325" cy="325" r="130.864"/>
<circle fill="#A0A0A0" cx="325" cy="325" r="23.918"/>
<path fill="#FFFFFF" d="M365.913,314.252c-4.756-18.153-21.268-31.547-40.913-31.547s-36.157,13.394-40.913,31.547h-22.181v21.495
	h22.181c4.756,18.153,21.268,31.547,40.913,31.547s36.157-13.394,40.913-31.547h22.181v-21.495H365.913z M325,348.918
	c-13.21,0-23.918-10.708-23.918-23.918S311.79,301.082,325,301.082c13.209,0,23.918,10.709,23.918,23.918
	S338.209,348.918,325,348.918z"/>
</svg>
