<?xml version="1.0" encoding="utf-8"?>
<!-- Generator: Adobe Illustrator 17.0.0, SVG Export Plug-In . SVG Version: 6.00 Build 0)  -->
<!DOCTYPE svg PUBLIC "-//W3C//DTD SVG 1.1//EN" "http://www.w3.org/Graphics/SVG/1.1/DTD/svg11.dtd">
<svg version="1.1" id="Layer_1" xmlns="http://www.w3.org/2000/svg" xmlns:xlink="http://www.w3.org/1999/xlink" x="0px" y="0px"
	 width="650px" height="650px" viewBox="0 0 650 650" enable-background="new 0 0 650 650" xml:space="preserve">
<path fill="#A0A0A0" d="M325,90C195.209,90,89.994,195.216,89.994,325.006c0,129.79,105.216,235.006,235.006,235.006
	s235.006-105.216,235.006-235.006C560.006,195.216,454.791,90,325,90z M354.54,539.61l-62.83-62.831
	C221.902,461.538,169.633,399.378,169.633,325c0-85.807,69.56-155.367,155.367-155.367c74.378,0,136.538,52.269,151.78,122.077
	l62.83,62.83C526.518,450.541,450.54,526.518,354.54,539.61z"/>
<path fill="#0A3160" d="M325,90C195.213,90,90,195.213,90,325s105.213,235,235,235c129.787,0,235-105.213,235-235S454.787,90,325,90
	z M325,541.623c-119.638,0-216.623-96.985-216.623-216.623c0-119.638,96.985-216.623,216.623-216.623S541.623,205.362,541.623,325
	C541.623,444.637,444.638,541.623,325,541.623z"/>
<circle fill="#A0A0A0" cx="325" cy="325" r="130.864"/>
<path fill="#0A3160" d="M476.78,291.71L417.54,232.47c23.679,23.681,38.324,56.395,38.324,92.53
	c0,72.274-58.59,130.864-130.864,130.864c-36.285,0-69.118-14.771-92.822-38.623c0.097,0.097,0.19,0.197,0.287,0.294l59.244,59.245
	c10.726,2.341,21.863,3.587,33.291,3.587c85.807,0,155.367-69.56,155.367-155.367C480.367,313.572,479.122,302.435,476.78,291.71z"
	/>
<circle fill="#A0A0A0" cx="325" cy="325" r="23.918"/>
<path fill="#FFFFFF" d="M365.913,314.252c-4.756-18.153-21.268-31.547-40.913-31.547s-36.157,13.394-40.913,31.547h-22.181v21.495
	h22.181c4.756,18.153,21.268,31.547,40.913,31.547s36.157-13.394,40.913-31.547h22.181v-21.495H365.913z M325,348.918
	c-13.21,0-23.918-10.708-23.918-23.918S311.79,301.082,325,301.082c13.209,0,23.918,10.709,23.918,23.918
	S338.209,348.918,325,348.918z"/>
</svg>
