<?xml version="1.0" encoding="utf-8"?>
<!-- Generator: Adobe Illustrator 16.0.1, SVG Export Plug-In . SVG Version: 6.00 Build 0)  -->
<!DOCTYPE svg PUBLIC "-//W3C//DTD SVG 1.1//EN" "http://www.w3.org/Graphics/SVG/1.1/DTD/svg11.dtd">
<svg version="1.1" id="Layer_1" xmlns="http://www.w3.org/2000/svg" xmlns:xlink="http://www.w3.org/1999/xlink" x="0px" y="0px"
	 width="650px" height="650px" viewBox="0 0 650 650" enable-background="new 0 0 650 650" xml:space="preserve">
<path fill="#0A3160" d="M119.674,84.821c-10.205,0-18.477,8.263-18.496,18.462h-0.002c0,0.006,0.001,0.012,0.001,0.019
	c0,0.006-0.001,0.012-0.001,0.018h0.002c0.02,10.199,8.291,18.462,18.496,18.462v0.101l37.398-18.8V84.821H119.674z"/>
<circle fill="#FFFFFF" cx="119.674" cy="103.32" r="7.008"/>
<polygon fill="#A0A0A0" points="138.373,103.183 119.774,121.781 157.072,140.48 157.072,103.082 138.373,103.082 "/>
<polygon fill="#FFFFFF" points="145.89,160.905 157.072,149.723 157.072,149.686 157.072,140.48 138.373,121.781 119.674,121.781 
	119.674,149.686 130.894,160.905 110.262,160.905 110.262,192.291 166.434,192.291 166.434,160.905 "/>
<polygon fill="#0A3160" points="145.482,167.914 138.474,160.905 131.465,167.914 136.148,172.597 133.793,184.436 138.348,196.5 
	143.112,184.226 140.799,172.597 "/>
<path fill="#FFFFFF" d="M7.479,347.879V329.18h3.739v29.918c0,4.131,3.35,7.479,7.48,7.479V329.18h3.739v33.659
	c0,4.131,3.349,7.479,7.479,7.479V329.18h3.74v37.398c4.131,0,7.48-3.349,7.48-7.479V329.18h3.738v3.74c0,4.131,3.35,7.48,7.48,7.48
	v-22.422l-28.793-28.792L7.479,310.498L0,328.556V340.4C0,344.531,3.349,347.879,7.479,347.879z"/>
<path fill="#0A3160" d="M194.471,527.78L194.471,527.78V310.498l-62.447-20l-49.748,20v217.629h23.23l-7.602,18.353H82.275
	c-10.328,0-18.699,8.372-18.699,18.699h65.447l0,0h65.447V527.78z M163.229,546.479h-15.507c-10.326,0-18.698,8.371-18.699,18.698
	v-37.05v-0.347V357.246l18.699,18.699v152.182h23.109L163.229,546.479z"/>
<path fill="#A0A0A0" d="M166.459,160.905l-28.086,28.085l-28.086-28.085H82.275c-41.242,0-74.796,33.554-74.796,74.797v74.796
	h37.398v-74.796c0-20.622,16.776-37.398,37.397-37.398v112.194h112.195V198.304h74.461v-37.398H166.459z"/>
<polygon fill="#0A3160" points="306.311,122.009 306.311,103.32 343.689,103.32 343.689,140.699 "/>
<polygon fill="#A0A0A0" points="325,122.009 306.312,122.009 306.312,149.899 325.018,168.607 343.689,149.937 343.689,149.899 
	343.689,140.699 "/>
<path fill="#FFFFFF" d="M642.52,347.879V329.18h-3.738v29.918c0,4.131-3.35,7.479-7.48,7.479V329.18h-3.74v33.659
	c0,4.131-3.348,7.479-7.479,7.479V329.18h-3.74v37.398c-4.131,0-7.479-3.349-7.479-7.479V329.18h-3.74v3.74
	c0,4.131-3.349,7.48-7.479,7.48v-22.422l28.793-28.792l16.084,21.312l7.48,18.058V340.4C650,344.531,646.65,347.879,642.52,347.879z
	"/>
<path fill="#0A3160" d="M567.724,527.78V310.498l-56.446-21l-55.748,21v217.629h23.23l-7.602,18.353h-15.629
	c-10.328,0-18.699,8.372-18.699,18.699h65.447l0,0h65.446V527.78z M536.482,546.479h-15.506c-10.327,0-18.699,8.371-18.699,18.698
	V527.78l0,0V357.246l18.699,18.699v152.182h23.109L536.482,546.479z"/>
<path fill="#0A3160" d="M492.826,84.821c-10.203,0-18.477,8.263-18.496,18.462h-0.002c0,0.006,0.002,0.012,0.002,0.019
	c0,0.006-0.002,0.012-0.002,0.018h0.002c0.02,10.199,8.293,18.462,18.496,18.462v0.101l37.398-18.8V84.821H492.826z"/>
<circle fill="#FFFFFF" cx="492.827" cy="103.32" r="7.009"/>
<polygon fill="#A0A0A0" points="511.525,103.183 492.928,121.781 530.225,140.48 530.225,103.082 511.525,103.082 "/>
<polygon fill="#FFFFFF" points="519.043,160.905 530.226,149.723 530.226,149.686 530.226,140.48 511.525,121.781 492.826,121.781 
	492.826,149.686 504.047,160.905 483.416,160.905 483.416,192.291 539.586,192.291 539.586,160.905 "/>
<polygon fill="#0A3160" points="518.635,167.914 511.627,160.905 504.618,167.914 509.301,172.597 506.946,184.436 511.5,196.5 
	516.266,184.226 513.951,172.597 "/>
<path fill="#A0A0A0" d="M567.724,160.905h-28.138L511.5,188.991l-28.084-28.085H381.068v37.398h74.461v112.194h112.194V198.304
	c20.622,0,37.398,16.777,37.398,37.398v74.796h37.398v-74.796C642.521,194.459,608.967,160.905,567.724,160.905z"/>
<rect x="296.965" y="161.113" fill="#FFFFFF" width="56.069" height="70.937"/>
<path fill="#0A3160" d="M455.826,235.872L455.826,235.872c0-41.222-33.536-74.758-74.758-74.758l0,0h-28.034l0,0v46.724v0
	l-15.632,15.631l-3.108-15.631l-6.969-35.032l4.684-4.683L325,161.113l-7.009,7.008l4.684,4.683l-10.077,50.664l-15.633-15.631
	v-46.724l0,0h-28.033l0,0c-41.221,0-74.759,33.536-74.759,74.758h0.001c0,41.215,33.545,74.747,74.758,74.758l0,0V527.8h23.24h0.122
	v0.175l-0.122-0.175l-7.741,18.689h-15.499c-10.322,0-18.689,8.367-18.689,18.689h65.413l0,0h65.413v-0.001V527.8l0,0V310.629
	C422.289,310.629,455.826,277.093,455.826,235.872z M381.068,198.493c20.611,0,37.379,16.768,37.379,37.379
	s-16.768,37.379-37.379,37.379v-37.548L390.5,218.5L381.068,198.493z M268.932,273.25c-20.602-0.011-37.379-16.774-37.379-37.378
	c0-20.611,16.768-37.379,37.379-37.379l-13,19.008l13,18.202V273.25z M357.707,527.975l-0.121-0.175l-7.742,18.689h-15.499
	c-10.321,0-18.688,8.367-18.689,18.688l0,0V527.8l0,0V357.353l18.689,18.689V527.8h23.241h0.121V527.975z"/>
<path fill="#FFFFFF" d="M194.172,235.702h18.699v-3.74h-29.92c-4.131,0-7.479-3.349-7.479-7.479h37.398v-3.74h-33.658
	c-4.131,0-7.48-3.349-7.48-7.48h41.139v-3.74h-37.398c0-4.131,3.348-7.479,7.479-7.479h29.92v-3.74h-3.74
	c-4.131,0-7.48-3.349-7.48-7.479h22.423l28.792,28.792l-21.312,16.085l-18.058,7.48H201.65
	C197.52,243.182,194.172,239.833,194.172,235.702z"/>
<rect x="231.553" y="198.304" fill="#A0A0A0" width="37.379" height="37.398"/>
<path fill="#FFFFFF" d="M455.828,235.702h-18.699v-3.74h29.918c4.131,0,7.48-3.349,7.48-7.479h-37.398v-3.74h33.658
	c4.131,0,7.48-3.349,7.48-7.48h-41.139v-3.74h37.398c0-4.131-3.35-7.479-7.48-7.479h-29.918v-3.74h3.74
	c4.131,0,7.479-3.349,7.479-7.479h-22.422l-28.792,28.792l21.312,16.085l18.057,7.48h11.845
	C452.479,243.182,455.828,239.833,455.828,235.702z"/>
<rect x="381.068" y="198.304" fill="#A0A0A0" width="37.379" height="37.398"/>
</svg>
