<?xml version="1.0" encoding="utf-8"?>
<!-- Generator: Adobe Illustrator 17.0.0, SVG Export Plug-In . SVG Version: 6.00 Build 0)  -->
<!DOCTYPE svg PUBLIC "-//W3C//DTD SVG 1.1//EN" "http://www.w3.org/Graphics/SVG/1.1/DTD/svg11.dtd">
<svg version="1.1" id="Layer_1" xmlns="http://www.w3.org/2000/svg" xmlns:xlink="http://www.w3.org/1999/xlink" x="0px" y="0px"
	 width="650px" height="650px" viewBox="0 0 650 650" enable-background="new 0 0 650 650" xml:space="preserve">
<path fill="#A0A0A0" d="M194.47,160.905h-4h-24.012l-28.086,28.085l-28.085-28.085H82.276c-41.243,0-74.796,33.554-74.796,74.797
	v74.796h37.398v-74.796c0-20.622,16.776-37.398,37.398-37.398v112.194H194.47V198.304h74.461v-37.398H194.47z"/>
<polygon fill="#0A3160" points="325,122.009 306.311,122.009 306.311,103.32 343.69,103.32 343.69,140.699 "/>
<polygon fill="#A0A0A0" points="306.311,122.009 306.311,149.9 317.525,161.113 332.513,161.113 343.69,149.937 343.69,149.9 
	343.69,140.699 325,122.009 "/>
<path fill="#FFFFFF" d="M642.52,347.879v-7.48v-7.48v-3.74h-3.74v29.919c0,4.131-3.349,7.48-7.48,7.48v-7.48v-7.48V329.18h-3.74
	v33.658c0,4.131-3.349,7.48-7.48,7.48v-7.48v-7.48V329.18h-3.74v22.439v7.48v7.48c-4.131,0-7.48-3.349-7.48-7.48V329.18h-3.74v3.74
	c0,4.131-3.349,7.48-7.48,7.48v-7.48v-7.48v-7.462l7.48-7.48h3.74h7.48h3.74h7.48h3.74h7.48h3.74l7.48,18.057V340.4
	C650,344.531,646.651,347.879,642.52,347.879z"/>
<path fill="#0A3160" d="M567.724,527.78V310.498h-37.398h-9.35h-18.699H455.53v217.629h23.23l-7.602,18.352h-15.629
	c-10.327,0-18.699,8.372-18.699,18.699h28.049h9.35h4.675h23.374l0,0h28.049h9.35h4.675h23.374V527.78z M536.483,546.479h-15.507
	c-10.327,0-18.699,8.371-18.699,18.698V527.78l0,0V357.246l18.699,18.699v152.182h23.108L536.483,546.479z"/>
<polygon fill="#FFFFFF" points="119.674,121.781 119.674,149.686 130.893,160.905 145.89,160.905 157.072,149.723 157.072,149.686 
	157.072,140.48 138.373,121.781 "/>
<path fill="#0A3160" d="M194.47,527.78L194.47,527.78V310.498h-37.398h-9.35h-18.699H82.276v217.629h23.23l-7.602,18.352H82.276
	c-10.328,0-18.699,8.372-18.699,18.699h28.049h9.349h4.675h23.374l0,0h28.049h9.35h4.675h23.374V527.78z M163.229,546.479h-15.507
	c-10.327,0-18.698,8.371-18.699,18.698v-37.05v-0.347V357.246l18.699,18.699v152.182h23.109L163.229,546.479z"/>
<path fill="#FFFFFF" d="M7.48,347.879v-7.48v-7.48v-3.74h3.74v29.919c0,4.131,3.349,7.48,7.48,7.48v-7.48v-7.48V329.18h3.74v33.658
	c0,4.131,3.349,7.48,7.48,7.48v-7.48v-7.48V329.18h3.74v22.439v7.48v7.48c4.131,0,7.48-3.349,7.48-7.48V329.18h3.74v3.74
	c0,4.131,3.349,7.48,7.48,7.48v-7.48v-7.48v-7.462l-7.48-7.48h-3.74h-7.48h-3.74h-7.48h-3.74h-7.48H7.48L0,328.556L0,340.4
	C0,344.531,3.349,347.879,7.48,347.879z"/>
<polygon fill="#FFFFFF" points="483.416,160.905 511.501,188.991 539.587,160.905 "/>
<path fill="#A0A0A0" d="M567.724,160.905h-28.137L511.5,188.991l-28.085-28.085H467h-11.47h-74.461v37.398h74.461v112.195h112.194
	V198.304c20.622,0,37.398,16.777,37.398,37.398v74.796h37.398v-74.796C642.521,194.459,608.967,160.905,567.724,160.905z"/>
<g>
	<polygon fill="#0A3160" points="483.593,160.905 483.415,160.905 483.593,161.082 	"/>
	<polygon fill="#0A3160" points="518.635,167.914 511.627,160.905 504.619,167.914 509.301,172.597 506.946,184.436 
		511.501,188.991 516.265,184.226 513.952,172.597 	"/>
</g>
<polygon fill="#FFFFFF" points="110.288,160.905 138.373,188.991 166.459,160.905 "/>
<g>
	<polygon fill="#0A3160" points="110.465,160.905 110.287,160.905 110.465,161.082 	"/>
	<polygon fill="#0A3160" points="145.507,167.914 138.499,160.905 131.49,167.914 136.173,172.597 133.818,184.436 138.373,188.991 
		143.137,184.226 140.824,172.597 	"/>
</g>
<path fill="#0A3160" d="M138.373,84.822h-6.882h-11.816c-10.204,0-18.477,8.262-18.497,18.461h-0.001
	c0,0.006,0.001,0.013,0.001,0.019c0,0.006-0.001,0.012-0.001,0.018h0.001c0.02,10.199,8.292,18.461,18.497,18.461v0.101
	l18.699-18.699v-0.101h18.7v-18.26H138.373z"/>
<polygon fill="#A0A0A0" points="138.373,103.182 119.774,121.781 138.373,121.781 157.072,140.48 157.072,103.082 138.373,103.082 
	"/>
<circle fill="#FFFFFF" cx="119.673" cy="103.32" r="7.008"/>
<path fill="#0A3160" d="M455.827,235.871L455.827,235.871c0-41.222-33.537-74.758-74.758-74.758v0h-28.034v0v46.724v0
	l-15.631,15.631l-3.109-15.631l-6.969-35.032l4.684-4.683L325,161.113l-7.009,7.008l4.684,4.683l-10.078,50.664l-15.631-15.631
	v-46.724v0h-28.034v0c-41.221,0-74.758,33.536-74.758,74.758h0c0,41.215,33.545,74.747,74.758,74.758v0V527.8h23.241h0.122v0.175
	l-0.122-0.175l-7.742,18.689h-15.499c-10.322,0-18.689,8.368-18.689,18.689h65.413l0,0h65.414c0,0,0-0.001,0-0.001V527.8h0v-217.17
	C422.29,310.629,455.827,277.093,455.827,235.871z M381.068,198.492c20.611,0,37.379,16.768,37.379,37.379
	c0,20.611-16.768,37.379-37.379,37.379V198.492z M268.932,273.25c-20.602-0.011-37.379-16.774-37.379-37.378
	c0-20.611,16.768-37.379,37.379-37.379V273.25z M357.707,527.974l-0.122-0.175l-7.742,18.689h-15.499
	c-10.321,0-18.688,8.367-18.689,18.688l0,0V527.8l0,0V357.353l18.689,18.689V527.8h23.241h0.122V527.974z"/>
<polygon fill="#FFFFFF" points="322.675,172.805 317.992,168.122 325,161.113 296.966,161.113 296.966,207.837 312.597,223.468 "/>
<polygon fill="#FFFFFF" points="325,161.113 332.009,168.122 327.326,172.805 337.403,223.468 353.034,207.837 353.034,161.113 "/>
<rect x="231.553" y="198.304" fill="#A0A0A0" width="37.379" height="37.398"/>
<path fill="#FFFFFF" d="M194.172,235.702h7.48h7.48h3.74v-3.74h-29.919c-4.131,0-7.48-3.349-7.48-7.48h7.48h7.48h22.439v-3.74
	h-33.658c-4.131,0-7.48-3.349-7.48-7.48h7.48h7.48h26.179v-3.74h-22.439h-7.48h-7.48c0-4.131,3.349-7.48,7.48-7.48h29.919v-3.74
	h-3.74c-4.131,0-7.48-3.349-7.48-7.48h7.48h7.48h7.463l7.48,7.48v3.74v7.48v3.74v7.48v3.74v7.48v3.74l-18.057,7.48h-11.844
	C197.52,243.181,194.172,239.833,194.172,235.702z"/>
<path fill="#FFFFFF" d="M455.828,235.702h-7.48h-7.48h-3.74v-3.74h29.919c4.131,0,7.48-3.349,7.48-7.48h-7.48h-7.48h-22.439v-3.74
	h33.658c4.131,0,7.48-3.349,7.48-7.48h-7.48h-7.48h-26.179v-3.74h22.439h7.48h7.48c0-4.131-3.349-7.48-7.48-7.48h-29.919v-3.74h3.74
	c4.131,0,7.48-3.349,7.48-7.48h-7.48h-7.48h-7.462l-7.48,7.48v3.74v7.48v3.74v7.48v3.74v7.48v3.74l18.057,7.48h11.844
	C452.48,243.181,455.828,239.833,455.828,235.702z"/>
<rect x="381.068" y="198.304" fill="#A0A0A0" width="37.379" height="37.398"/>
<polygon fill="#FFFFFF" points="492.827,121.781 492.827,149.686 504.046,160.905 519.043,160.905 530.225,149.723 530.225,149.686 
	530.225,140.48 511.526,121.781 "/>
<path fill="#0A3160" d="M511.526,84.822h-6.882h-11.816c-10.204,0-18.477,8.262-18.497,18.461h-0.001
	c0,0.006,0.001,0.013,0.001,0.019c0,0.006-0.001,0.012-0.001,0.018h0.001c0.02,10.199,8.292,18.461,18.497,18.461v0.101
	l18.699-18.699v-0.101h18.7v-18.26H511.526z"/>
<polygon fill="#A0A0A0" points="511.526,103.182 492.927,121.781 511.526,121.781 530.225,140.48 530.225,103.082 511.526,103.082 
	"/>
<circle fill="#FFFFFF" cx="492.827" cy="103.32" r="7.008"/>
</svg>
