<?xml version="1.0" encoding="utf-8"?>
<!-- Generator: Adobe Illustrator 17.0.0, SVG Export Plug-In . SVG Version: 6.00 Build 0)  -->
<!DOCTYPE svg PUBLIC "-//W3C//DTD SVG 1.1//EN" "http://www.w3.org/Graphics/SVG/1.1/DTD/svg11.dtd">
<svg version="1.1" id="Layer_1" xmlns="http://www.w3.org/2000/svg" xmlns:xlink="http://www.w3.org/1999/xlink" x="0px" y="0px"
	 width="650px" height="650px" viewBox="0 0 650 650" enable-background="new 0 0 650 650" xml:space="preserve">
<path fill="#FFFFFF" d="M532.1,269.161c-0.012,0-0.023,0.001-0.036,0.001H399.324v-0.001h-45.347l45.068,45.067v0.281H532.1v-0.001
	h0c12.522,0,22.673-10.151,22.673-22.674C554.773,279.313,544.622,269.161,532.1,269.161z"/>
<path fill="#FFFFFF" d="M308.765,269.161h-45.347v0.001H130.677c-0.012,0-0.023-0.001-0.035-0.001
	c-12.522,0-22.674,10.152-22.674,22.674c0,12.522,10.151,22.674,22.674,22.674h0.001v0.001h133.055v-0.281L308.765,269.161z"/>
<path fill="#0A3160" d="M446.608,443.591l-32.587-78.674l-59.436-59.435l-0.139,0.139v-25.015l0.139,0.139l62.094-62.093V117.914
	l61.204-61.204l-11.083-11.083l-65.795,65.795v100.738l-46.559,46.559v-11.333h-0.279l-8.921-8.921l0,0
	c7.518,0,13.613-6.095,13.613-13.613c0-7.518-6.095-13.613-13.613-13.613c-3.134,0-6.012,1.07-8.312,2.849v-67.142h-10.322v67.351
	c-2.344-1.91-5.333-3.058-8.591-3.058c-7.518,0-13.612,6.094-13.612,13.613c0,7.518,6.094,13.613,13.612,13.613h0l-8.922,8.921
	v11.333l-46.559-46.559V111.421l-65.796-65.795l-11.083,11.083l61.205,61.205v100.738l62.093,62.093l0.14-0.14v25.016l-0.14-0.14
	l-59.435,59.436l-32.587,78.673l-72.469,72.468l11.083,11.083l74.674-74.673l32.587-78.674l46.286-46.286v16.008h1.415
	l-49.347,119.134l37.772,91.189l-38.739,38.738l11.083,11.084l46.144-46.144l-39.295-94.866l42.162-101.79v127.212l11.359,11.359
	l11.359-11.359h-0.044V360.188l42.441,102.463l-39.295,94.866l46.144,46.144l11.083-11.084l-38.739-38.738l37.772-91.189
	L353.03,343.517h1.416v-16.008l46.287,46.286l32.587,78.673l74.673,74.673l11.083-11.083L446.608,443.591z"/>
<polygon fill="#EEEEEE" points="484.432,269.162 462.474,269.162 507.821,314.509 529.918,314.509 "/>
<polygon fill="#EEEEEE" points="442.611,269.162 427.161,269.162 427.161,269.161 420.652,269.161 466,314.509 488.098,314.509 "/>
</svg>
