<?xml version="1.0" encoding="utf-8"?>
<!-- Generator: Adobe Illustrator 16.0.1, SVG Export Plug-In . SVG Version: 6.00 Build 0)  -->
<!DOCTYPE svg PUBLIC "-//W3C//DTD SVG 1.1//EN" "http://www.w3.org/Graphics/SVG/1.1/DTD/svg11.dtd">
<svg version="1.1" id="Layer_1" xmlns="http://www.w3.org/2000/svg" xmlns:xlink="http://www.w3.org/1999/xlink" x="0px" y="0px"
	 width="650px" height="650px" viewBox="0 0 650 650" enable-background="new 0 0 650 650" xml:space="preserve">
<path fill="#FFFFFF" d="M532.1,269.161c-0.012,0-0.023,0.001-0.035,0.001h-47.633l-7.432,4l-14.526-4H442.61l-6.943,6l-15.015-6
	h-21.329v-0.001h-45.347l45.067,45.067v0.28H466l4-6l18.098,6h19.724l7.255-4l14.842,4h2.182l0,0l0,0
	c12.522,0,22.674-10.151,22.674-22.674C554.773,279.313,544.622,269.161,532.1,269.161z"/>
<path fill="#FFFFFF" d="M308.765,269.161h-45.347v0.001H130.677c-0.012,0-0.023-0.001-0.036-0.001
	c-12.522,0-22.673,10.152-22.673,22.674c0,12.522,10.151,22.674,22.673,22.674h0.001l0,0h133.056v-0.28L308.765,269.161z"/>
<polygon fill="#EEEEEE" points="484.432,269.162 462.474,269.162 507.821,314.509 529.918,314.509 "/>
<polygon fill="#EEEEEE" points="442.611,269.162 420.652,269.161 466,314.509 488.098,314.509 "/>
<path fill="#0A3160" d="M446.608,443.591l-32.586-78.674l-59.437-59.436l-0.14,0.14v-25.015l0.14,0.14l62.094-62.094V117.914
	l61.204-61.205l-11.084-11.083l-65.794,65.795v100.738l-46.56,46.559v-11.333h-0.279l-8.921-8.921
	c7.518,0,13.613-6.095,13.613-13.612c0-7.519-6.095-13.613-13.613-13.613c-3.134,0-6.012,1.07-8.312,2.85v-67.143h-10.321v67.352
	c-2.344-1.91-5.333-3.059-8.592-3.059c-7.518,0-13.612,6.095-13.612,13.613c0,7.518,6.095,13.612,13.612,13.612h0.001l-8.922,8.921
	v11.333l-46.559-46.559V111.421l-65.796-65.795l-11.083,11.083l61.205,61.205v100.738l62.094,62.094l0.14-0.14v25.015l-0.14-0.14
	l-59.436,59.437l-32.587,78.672l-72.469,72.469l11.083,11.083l74.674-74.672l32.587-78.674l46.286-46.286v19.425L261.167,462.65
	l37.772,91.189l-38.738,38.737l11.083,11.084l46.145-46.144l-39.295-94.867l42.162-101.789v127.211l11.359,11.359l11.358-11.359
	h-0.044V360.188L385.41,462.65l-39.295,94.867l46.145,46.144l11.084-11.084l-38.738-38.737l37.771-91.189l-47.932-115.715V327.51
	l46.287,46.286l32.587,78.673l74.673,74.673l11.083-11.083L446.608,443.591z"/>
</svg>
