<?xml version="1.0" encoding="utf-8"?>
<!-- Generator: Adobe Illustrator 17.0.0, SVG Export Plug-In . SVG Version: 6.00 Build 0)  -->
<!DOCTYPE svg PUBLIC "-//W3C//DTD SVG 1.1//EN" "http://www.w3.org/Graphics/SVG/1.1/DTD/svg11.dtd">
<svg version="1.1" id="Layer_1" xmlns="http://www.w3.org/2000/svg" xmlns:xlink="http://www.w3.org/1999/xlink" x="0px" y="0px"
	 width="650px" height="650px" viewBox="0 0 650 650" enable-background="new 0 0 650 650" xml:space="preserve">
<g>
	<path fill="#0A3160" d="M27.3,414.853c36.29,36.29,95.128,36.29,131.417,0l-65.709-65.709l65.709-65.709
		c-36.29-36.29-95.128-36.29-131.418,0S-8.991,378.563,27.3,414.853z"/>
	<path fill="#A0A0A0" d="M158.717,283.436l-65.709,65.709l65.709,65.709c-1.091,1.091-2.205,2.145-3.335,3.171
		c18.764-17.003,30.553-41.563,30.553-68.879C185.935,323.483,175.534,300.252,158.717,283.436z"/>
	<path fill="#0A3160" d="M253.44,480.565c18.145,18.145,47.564,18.145,65.709,0l-65.709-65.709
		C235.295,433.001,235.295,462.42,253.44,480.565z"/>
	<path fill="#0A3160" d="M253.441,217.723c18.145-18.145,47.564-18.145,65.709,0l-65.709,65.709
		C235.296,265.287,235.296,235.868,253.441,217.723z"/>
	<path fill="#FFFFFF" d="M206.081,303.054c-15.794,0-30.301-5.479-41.752-14.624v1.159c13.482,16.128,21.606,36.89,21.606,59.555
		c0,22.665-8.124,43.427-21.606,59.555v1.159c11.451-9.144,25.958-14.624,41.752-14.624c18.497,0,35.238,7.5,47.36,19.622h0V283.432
		C241.319,295.553,224.577,303.054,206.081,303.054z"/>
	<path fill="#0A3160" d="M448.553,155.826c-34.185,0-61.898,27.712-61.898,61.897h61.898v0.001h61.898v-61.898H448.553z"/>
	<polygon fill="#A0A0A0" points="253.44,414.856 253.44,414.856 253.44,414.856 319.149,480.565 352.659,447.054 352.659,309.366 
		352.659,251.233 319.149,217.723 319.149,217.723 253.44,283.432 253.441,283.432 253.44,283.432 	"/>
	<polygon fill="#FFFFFF" points="534.4,241.673 487.671,288.402 487.671,447.054 560.232,447.054 560.232,267.505 	"/>
	<path fill="#0A3160" d="M420.165,281.638L420.165,281.638h-33.753v67.506c0,1.229,0.059,2.444,0.145,3.651
		c0.019,0.267,0.038,0.534,0.061,0.8c0.103,1.179,0.239,2.348,0.421,3.502c0.026,0.165,0.06,0.327,0.088,0.491
		c0.178,1.058,0.39,2.103,0.633,3.138c0.049,0.21,0.094,0.421,0.145,0.63c0.279,1.125,0.596,2.234,0.949,3.328
		c0.066,0.206,0.139,0.409,0.208,0.614c0.35,1.04,0.728,2.066,1.143,3.075c0.037,0.09,0.07,0.183,0.108,0.273
		c0.452,1.08,0.947,2.136,1.469,3.177c0.094,0.188,0.19,0.374,0.287,0.561c1.091,2.107,2.326,4.125,3.692,6.046
		c0.094,0.132,0.187,0.265,0.282,0.397c0.7,0.964,1.428,1.904,2.193,2.815c0.041,0.049,0.084,0.096,0.125,0.144
		c0.767,0.907,1.566,1.786,2.394,2.637c0.047,0.048,0.092,0.097,0.138,0.145c0.852,0.869,1.737,1.705,2.649,2.51
		c0.07,0.062,0.141,0.122,0.211,0.183c1.85,1.615,3.817,3.097,5.889,4.433c0.072,0.047,0.144,0.093,0.217,0.139
		c2.102,1.34,4.307,2.528,6.604,3.55c0.047,0.021,0.093,0.042,0.139,0.063c1.165,0.515,2.351,0.988,3.561,1.415
		c0,0,0.001,0,0.002,0.001v0c5.273,1.862,10.942,2.885,16.852,2.885c27.948,0,50.604-22.656,50.604-50.604h0.05L420.165,281.638z"/>
	<path fill="#FFFFFF" d="M420.165,396.863L420.165,396.863c-0.001,0-0.001,0-0.002-0.001c-1.209-0.427-2.396-0.9-3.561-1.415
		c-0.047-0.021-0.093-0.042-0.139-0.063c-2.297-1.023-4.502-2.211-6.604-3.55c-0.072-0.046-0.145-0.092-0.217-0.139
		c-2.072-1.336-4.04-2.817-5.889-4.433c-0.07-0.061-0.141-0.121-0.211-0.183c-0.912-0.806-1.797-1.641-2.649-2.51
		c-0.047-0.048-0.092-0.097-0.138-0.145c-0.828-0.851-1.627-1.73-2.394-2.637c-0.041-0.048-0.084-0.096-0.125-0.144
		c-0.764-0.911-1.493-1.851-2.193-2.815c-0.095-0.131-0.188-0.264-0.282-0.397c-1.366-1.921-2.6-3.939-3.692-6.046
		c-0.097-0.187-0.193-0.373-0.287-0.561c-0.523-1.04-1.018-2.097-1.469-3.177c-0.038-0.09-0.07-0.183-0.108-0.273
		c-0.415-1.008-0.793-2.035-1.143-3.075c-0.069-0.205-0.141-0.408-0.208-0.614c-0.353-1.094-0.67-2.203-0.949-3.328
		c-0.052-0.209-0.096-0.42-0.145-0.63c-0.242-1.034-0.455-2.08-0.633-3.138c-0.028-0.164-0.062-0.326-0.088-0.491
		c-0.182-1.154-0.318-2.323-0.421-3.502c-0.023-0.266-0.042-0.533-0.061-0.8c-0.086-1.207-0.145-2.422-0.145-3.651v-67.506h33.753h0
		v-31.061l-33.51-32.854h-67.506l33.51,32.854v196.477h67.506L420.165,396.863L420.165,396.863z"/>
	<path fill="#0A3160" d="M533.641,447.054h-46.343h-20.671h-46.463c0,25.661,20.802,46.463,46.463,46.463v-0.12h20.671l0,0
		L533.641,447.054z"/>
	<path fill="#A0A0A0" d="M650.082,357.355l-89.85-89.85v179.7l0.097-0.097C609.898,447.108,650.082,406.924,650.082,357.355z"/>
	<path fill="#A0A0A0" d="M437.017,399.748c-5.91,0-11.579-1.023-16.852-2.885v50.191h67.506v-97.91h-0.05
		C487.621,377.092,464.965,399.748,437.017,399.748z"/>
	<polygon fill="#A0A0A0" points="510.451,217.723 386.655,217.723 386.655,217.723 420.165,250.578 420.165,281.638 
		487.671,349.144 487.671,319.099 487.671,288.402 534.4,241.672 	"/>
</g>
</svg>
