<?xml version="1.0" encoding="utf-8"?>
<!-- Generator: Adobe Illustrator 16.0.1, SVG Export Plug-In . SVG Version: 6.00 Build 0)  -->
<!DOCTYPE svg PUBLIC "-//W3C//DTD SVG 1.1//EN" "http://www.w3.org/Graphics/SVG/1.1/DTD/svg11.dtd">
<svg version="1.1" id="Layer_1" xmlns="http://www.w3.org/2000/svg" xmlns:xlink="http://www.w3.org/1999/xlink" x="0px" y="0px"
	 width="650px" height="650px" viewBox="0 0 650 650" enable-background="new 0 0 650 650" xml:space="preserve">
<path fill="#FFFFFF" d="M354.227,119.856h0.026c0-8.256-3.346-15.729-8.757-21.139l-21.137-21.137l-21.138,21.138
	c-4.847,4.848-8.029,11.354-8.64,18.594c-0.138,1.169-0.218,2.356-0.218,3.562c0,0.328,0.014,0.652,0.025,0.977h-0.025v58.912
	h59.889v-58.912h-0.025c0.01-0.324,0.025-0.648,0.025-0.977C354.253,120.533,354.238,120.195,354.227,119.856z"/>
<path fill="#EEEEEE" d="M444.086,533.449v-23.296l-70.256-70.257l0,70.257v23.419l23.418,23.418v23.542
	c26.003,0,47.083-21.08,47.083-47.083H444.086z"/>
<path fill="#FFFFFF" d="M204.776,533.449v-23.296l70.256-70.257v70.257v23.419l-23.419,23.418v23.542
	c-26.003,0-47.083-21.08-47.083-47.083H204.776z"/>
<path fill="#FFFFFF" d="M204.521,180.764L204.521,180.764c0,0,0.007,0,0.01,0v0.01l75.012,75.013l-75.012,14.801v0.011l-0.01-44.917
	L99.798,330.402H54.892C54.892,247.763,121.882,180.77,204.521,180.764z"/>
<path fill="#A0A0A0" d="M444.086,270.598l-71.566-39.26l-18.243-50.55l-29.969-29.969l-29.944,29.944l-8.54,21.104l-21.395,8.831
	l-29.966,29.966l-6.853,23.007l-23.08,6.927v119.777l0,0c0,66.152,53.626,119.778,119.778,119.778
	C390.46,510.153,444.086,270.598,444.086,270.598L444.086,270.598z"/>
<path fill="#FFFFFF" d="M444.086,180.764L444.086,180.764c0,0-0.007,0-0.01,0v0.01l-71.47,71.471l71.47,18.343v0.011l0.01-44.917
	l104.722,104.722h44.907C593.715,247.763,526.725,180.77,444.086,180.764z"/>
<path fill="#0A3160" d="M354.275,180.785v-0.021h-0.022h-59.889l-29.934,29.935l29.934,29.934v0.021h0.042l-0.042-0.042h59.889
	l-29.944,29.944v0.043l29.944,29.944h-59.889l-29.934,29.935l29.934,29.934v0.021h59.889l-29.944,29.944v0.001l29.944,29.944
	h-59.889l0,0l0,0l-29.934,29.935l59.879,59.898c66.151,0,119.778-53.626,119.778-119.778V270.597L354.275,180.785z"/>
<polygon fill="#0A3160" points="324.276,270.587 294.364,240.674 294.364,240.652 234.453,240.652 204.519,270.588 234.453,300.521 
	234.453,300.542 294.364,300.521 294.364,300.5 "/>
</svg>
