<?xml version="1.0" encoding="utf-8"?>
<!-- Generator: Adobe Illustrator 18.1.1, SVG Export Plug-In . SVG Version: 6.00 Build 0)  -->
<svg version="1.1" id="Layer_1" xmlns="http://www.w3.org/2000/svg" xmlns:xlink="http://www.w3.org/1999/xlink" x="0px" y="0px"
	 viewBox="0 0 650 650" enable-background="new 0 0 650 650" xml:space="preserve">
<path fill="#FFFFFF" d="M357.647,92.107h0.029c0-9.199-3.729-17.527-9.757-23.555L324.366,45l-23.554,23.554
	c-5.401,5.402-8.947,12.653-9.628,20.72c-0.154,1.303-0.243,2.625-0.243,3.969c0,0.365,0.016,0.727,0.028,1.089h-0.028v65.646
	h66.734V94.331h-0.028c0.011-0.362,0.028-0.724,0.028-1.089C357.676,92.862,357.66,92.485,357.647,92.107z"/>
<path fill="#EEEEEE" d="M457.778,552.975v-25.958l-78.287-78.287l0,78.287v26.095l26.096,26.096v26.232
	c28.976,0,52.464-23.489,52.464-52.465H457.778z"/>
<path fill="#FFFFFF" d="M191.113,552.975v-25.958l78.287-78.287l0,78.287v26.095l-26.096,26.096v26.232
	c-28.976,0-52.464-23.489-52.464-52.465H191.113z"/>
<path fill="#FFFFFF" d="M190.829,159.977L190.829,159.977c0,0,0.007,0,0.011,0v0.011l83.586,83.586l-83.586,16.493v0.011
	l-0.011-50.051L74.137,326.719H24.097C24.097,234.633,98.745,159.983,190.829,159.977z"/>
<path fill="#A0A0A0" d="M457.778,260.078l-79.747-43.747l-20.328-56.328l-33.395-33.395l-33.367,33.367l-9.515,23.515l-23.841,9.841
	l-33.391,33.391l-7.636,25.636l-25.718,7.718v133.469l0,0c0,73.713,59.756,133.469,133.469,133.469S457.778,260.078,457.778,260.078
	L457.778,260.078z"/>
<path fill="#FFFFFF" d="M457.778,159.977L457.778,159.977c0,0-0.007,0-0.011,0v0.011l-79.639,79.639l79.639,20.44v0.011
	l0.011-50.051L574.47,326.719h50.039C624.509,234.633,549.862,159.983,457.778,159.977z"/>
<path fill="#0A3160" d="M357.701,160.001v-0.024h-0.025h-66.734l-33.356,33.356l33.356,33.355v0.023h0.047l-0.047-0.047h66.734
	l-33.367,33.367v0.048l33.367,33.367h-66.734l-33.356,33.356l33.356,33.355v0.023h66.734l-33.367,33.367v0.001l33.367,33.367
	h-66.734l0,0l0,0l-33.356,33.356l66.723,66.746c73.713,0,133.469-59.756,133.469-133.469V260.078L357.701,160.001z"/>
<polygon fill="#0A3160" points="324.273,260.067 290.942,226.735 290.942,226.711 224.183,226.711 190.827,260.067 224.183,293.423 
	224.183,293.446 290.942,293.423 290.942,293.398 "/>
</svg>
