<?xml version="1.0" encoding="utf-8"?>
<!-- Generator: Adobe Illustrator 18.1.1, SVG Export Plug-In . SVG Version: 6.00 Build 0)  -->
<svg version="1.1" id="Layer_1" xmlns="http://www.w3.org/2000/svg" xmlns:xlink="http://www.w3.org/1999/xlink" x="0px" y="0px"
	 viewBox="0 0 650 650" enable-background="new 0 0 650 650" xml:space="preserve">
<path fill="#FFFFFF" d="M324.999,90C195.212,90,90.001,195.214,90.001,325c0,129.787,105.212,235,234.999,235s235-105.213,235-235
	C560,195.214,454.787,90,324.999,90z M324.513,526.425c-111.241-0.148-201.304-90.445-201.157-201.69
	c0.148-111.244,90.447-201.306,201.692-201.16c111.242,0.148,201.305,90.447,201.156,201.692
	C526.057,436.51,435.758,526.57,324.513,526.425z"/>
<path fill="#FFFFFF" d="M325.003,156.932c-92.822-0.123-168.168,75.025-168.292,167.847
	c-0.123,92.822,75.026,168.167,167.847,168.29c92.823,0.122,168.167-75.024,168.291-167.847
	C492.971,232.402,417.824,157.054,325.003,156.932z M324.644,459.672c-74.375-0.1-134.591-60.473-134.493-134.85
	c0.1-74.376,60.473-134.591,134.851-134.492c74.374,0.098,134.591,60.473,134.491,134.848
	C459.394,399.556,399.022,459.768,324.644,459.672z"/>
<path fill="#FFFFFF" d="M324.958,223.685c-55.957-0.075-101.376,45.227-101.452,101.181
	c-0.073,55.954,45.228,101.376,101.182,101.449c55.957,0.073,101.375-45.226,101.449-101.182
	C426.215,269.18,380.913,223.758,324.958,223.685z M324.731,392.96c-37.533-0.048-67.92-30.515-67.87-68.048
	s30.518-67.922,68.052-67.872c37.531,0.05,67.92,30.519,67.87,68.052C392.733,362.625,362.267,393.012,324.731,392.96z"/>
</svg>
