<?xml version="1.0" encoding="utf-8"?>
<!-- Generator: Adobe Illustrator 18.1.1, SVG Export Plug-In . SVG Version: 6.00 Build 0)  -->
<svg version="1.1" id="Layer_1" xmlns="http://www.w3.org/2000/svg" xmlns:xlink="http://www.w3.org/1999/xlink" x="0px" y="0px"
	 viewBox="0 0 650 650" enable-background="new 0 0 650 650" xml:space="preserve">
<polygon fill="#FFFFFF" points="574.277,131.199 542.5,162.564 574.277,193.93 650,162.564 "/>
<polygon fill="#A0A0A0" points="469.5,197 481.87,212.31 574.277,193.929 574.277,131.198 471.812,110.817 471.812,110.817 
	103.496,110.817 32.156,182.156 225.67,214.311 341,190.5 429.109,214.311 "/>
<polygon fill="#FFFFFF" points="268.849,153.992 225.674,153.992 225.674,110.817 "/>
<polygon fill="#FFFFFF" points="472.282,153.992 429.107,153.992 429.107,110.817 "/>
<polygon fill="#0A3160" points="103.496,171.135 103.496,110.817 50.259,110.817 0.002,90 0.002,235.533 51.235,214.311 
	225.674,214.31 225.674,171.136 225.674,171.136 "/>
<polygon fill="#0A3160" points="268.85,171.136 225.675,214.31 429.106,214.31 429.106,171.136 "/>
<polygon fill="#0A3160" points="472.282,171.136 472.282,171.136 429.106,214.311 472.282,214.311 472.282,214.218 481.87,212.311 
	523.045,171.136 "/>
<polygon fill="#FFFFFF" points="574.277,293.432 542.5,324.798 574.277,356.163 650,324.798 "/>
<polygon fill="#A0A0A0" points="469.5,359.234 481.87,374.544 574.277,356.163 574.277,293.432 471.812,273.051 471.812,273.051 
	103.496,273.051 32.156,344.39 225.67,376.545 341,352.734 429.109,376.545 "/>
<polygon fill="#FFFFFF" points="268.849,316.226 225.674,316.226 225.674,273.051 "/>
<polygon fill="#FFFFFF" points="472.282,316.226 429.107,316.226 429.107,273.051 "/>
<polygon fill="#0A3160" points="103.496,333.369 103.496,273.051 50.259,273.051 0.002,252.234 0.002,397.766 51.235,376.545 
	225.674,376.544 225.674,333.37 225.674,333.369 "/>
<polygon fill="#0A3160" points="268.85,333.369 225.675,376.544 429.106,376.544 429.106,333.37 "/>
<polygon fill="#0A3160" points="472.282,333.37 472.282,333.37 429.106,376.545 472.282,376.545 472.282,376.451 481.87,374.544 
	523.045,333.37 "/>
<polygon fill="#FFFFFF" points="574.277,455.666 542.5,487.031 574.277,518.397 650,487.031 "/>
<polygon fill="#A0A0A0" points="469.5,521.467 481.87,536.778 574.277,518.396 574.277,455.665 471.812,435.284 471.812,435.284 
	103.496,435.284 32.156,506.623 225.67,538.778 341,514.967 429.109,538.778 "/>
<polygon fill="#FFFFFF" points="268.849,478.459 225.674,478.459 225.674,435.284 "/>
<polygon fill="#FFFFFF" points="472.282,478.459 429.107,478.459 429.107,435.284 "/>
<polygon fill="#0A3160" points="103.496,495.602 103.496,435.284 50.259,435.284 0.002,414.467 0.002,560 51.235,538.778 
	225.674,538.777 225.674,495.603 225.674,495.603 "/>
<polygon fill="#0A3160" points="268.85,495.603 225.675,538.777 429.106,538.777 429.106,495.603 "/>
<polygon fill="#0A3160" points="472.282,495.603 472.282,495.603 429.106,538.778 472.282,538.778 472.282,538.685 481.87,536.778 
	523.045,495.603 "/>
</svg>
