<?xml version="1.0" encoding="utf-8"?>
<!-- Generator: Adobe Illustrator 16.0.1, SVG Export Plug-In . SVG Version: 6.00 Build 0)  -->
<!DOCTYPE svg PUBLIC "-//W3C//DTD SVG 1.1//EN" "http://www.w3.org/Graphics/SVG/1.1/DTD/svg11.dtd">
<svg version="1.1" id="Layer_1" xmlns="http://www.w3.org/2000/svg" xmlns:xlink="http://www.w3.org/1999/xlink" x="0px" y="0px"
	 width="650px" height="650px" viewBox="0 0 650 650" enable-background="new 0 0 650 650" xml:space="preserve">
<path fill="#0A3160" d="M370.062,529.98l56.598-56.598l-62.962-62.962l118.308-118.308l-48.961-48.962L179.557,496.638
	l33.342,33.342H93.357v45.058h417.953V529.98H370.062z M347.689,426.43l46.95,46.952l-56.588,56.588l0.01,0.009h-93.923
	L347.689,426.43z"/>
<polygon fill="#FFFFFF" points="227.936,453.293 266.084,375.028 227.936,370.176 175.234,422.877 109.551,395.67 82.557,422.664 
	217.006,557.007 244,530.013 216.824,464.404 "/>
<polygon fill="#EEEEEE" points="227.936,370.176 227.936,453.293 312.642,368.587 271.084,327.028 "/>
<polygon fill="#EEEEEE" points="511.76,191.632 448.038,191.632 511.76,127.91 "/>
<polygon fill="#FFFFFF" points="489.272,127.91 448.038,127.91 448.038,155.462 227.936,302.53 293.331,367.927 485.734,189.346 
	557.043,82.627 "/>
<polygon fill="#EEEEEE" points="293.331,367.927 337.139,411.735 513.57,147.688 "/>
</svg>
