<?xml version="1.0" encoding="utf-8"?>
<!-- Generator: Adobe Illustrator 17.0.0, SVG Export Plug-In . SVG Version: 6.00 Build 0)  -->
<!DOCTYPE svg PUBLIC "-//W3C//DTD SVG 1.1//EN" "http://www.w3.org/Graphics/SVG/1.1/DTD/svg11.dtd">
<svg version="1.1" id="Layer_1" xmlns="http://www.w3.org/2000/svg" xmlns:xlink="http://www.w3.org/1999/xlink" x="0px" y="0px"
	 width="650px" height="650px" viewBox="0 0 650 650" enable-background="new 0 0 650 650" xml:space="preserve">
<g>
	<polygon fill="#A0A0A0" points="471.812,273.051 471.812,273.051 103.496,273.051 103.496,376.545 471.812,376.545 
		471.812,376.545 574.277,356.163 574.277,293.432 	"/>
	<polygon fill="#FFFFFF" points="268.849,316.226 225.674,316.226 225.674,273.051 	"/>
	<polygon fill="#FFFFFF" points="472.282,316.226 429.107,316.226 429.107,273.051 	"/>
	<polygon fill="#FFFFFF" points="574.277,293.432 574.277,324.798 574.277,356.163 650,324.798 	"/>
	<polygon fill="#0A3160" points="103.496,333.369 103.496,273.051 50.259,273.051 0.002,252.234 0.002,273.051 0.002,333.369 
		0,333.369 0,376.544 0.002,376.544 0.002,376.545 0.002,397.766 51.235,376.545 103.496,376.545 103.496,376.544 225.674,376.544 
		225.674,333.37 225.674,333.369 	"/>
	<polygon fill="#0A3160" points="268.85,333.369 247.262,354.957 225.675,376.544 429.106,376.544 429.106,333.37 	"/>
	<polygon fill="#0A3160" points="472.282,333.37 472.282,333.37 429.106,376.545 472.282,376.545 472.282,376.451 481.87,374.544 
		523.045,333.37 	"/>
</g>
<g>
	<polygon fill="#A0A0A0" points="471.812,435.284 471.812,435.284 103.496,435.284 103.496,538.778 471.812,538.778 
		471.812,538.778 574.277,518.396 574.277,455.665 	"/>
	<polygon fill="#FFFFFF" points="268.849,478.459 225.674,478.459 225.674,435.284 	"/>
	<polygon fill="#FFFFFF" points="472.282,478.459 429.107,478.459 429.107,435.284 	"/>
	<polygon fill="#FFFFFF" points="574.277,455.666 574.277,487.031 574.277,518.397 650,487.031 	"/>
	<polygon fill="#0A3160" points="103.496,495.602 103.496,435.284 50.259,435.284 0.002,414.467 0.002,435.284 0.002,495.602 
		0,495.602 0,538.777 0.002,538.777 0.002,538.778 0.002,560 51.235,538.778 103.496,538.778 103.496,538.777 225.674,538.777 
		225.674,495.603 225.674,495.603 	"/>
	<polygon fill="#0A3160" points="268.85,495.603 247.262,517.19 225.675,538.777 429.106,538.777 429.106,495.603 	"/>
	<polygon fill="#0A3160" points="472.282,495.603 472.282,495.603 429.106,538.778 472.282,538.778 472.282,538.685 481.87,536.778 
		523.045,495.603 	"/>
</g>
<g>
	<polygon fill="#A0A0A0" points="471.812,110.817 471.812,110.817 103.496,110.817 103.496,214.311 471.812,214.311 
		471.812,214.311 574.277,193.929 574.277,131.198 	"/>
	<polygon fill="#FFFFFF" points="268.849,153.992 225.674,153.992 225.674,110.817 	"/>
	<polygon fill="#FFFFFF" points="472.282,153.992 429.107,153.992 429.107,110.817 	"/>
	<polygon fill="#FFFFFF" points="574.277,131.199 574.277,162.564 574.277,193.93 650,162.564 	"/>
	<polygon fill="#0A3160" points="103.496,171.135 103.496,110.817 50.259,110.817 0.002,90 0.002,110.817 0.002,171.135 0,171.135 
		0,214.31 0.002,214.31 0.002,214.311 0.002,235.533 51.235,214.311 103.496,214.311 103.496,214.31 225.674,214.31 
		225.674,171.136 225.674,171.136 	"/>
	<polygon fill="#0A3160" points="268.85,171.136 247.262,192.723 225.675,214.31 429.106,214.31 429.106,171.136 	"/>
	<polygon fill="#0A3160" points="472.282,171.136 472.282,171.136 429.106,214.311 472.282,214.311 472.282,214.218 481.87,212.311 
		523.045,171.136 	"/>
</g>
</svg>
