<?xml version="1.0" encoding="UTF-8" standalone="no"?>
<svg width="390px" height="248px" viewBox="0 0 390 248" version="1.1" xmlns="http://www.w3.org/2000/svg" xmlns:xlink="http://www.w3.org/1999/xlink">
    <defs></defs>
    <g id="Page-1" stroke="none" stroke-width="1" fill="none" fill-rule="evenodd">
        <g id="Group">
            <path d="M270.21,39.459 L328.03,39.459 L328.03,116.549 L270.21,116.549 L270.21,39.459 Z" id="Fill-407" fill="#44AF6A"></path>
            <path d="M270.21,39.459 L270.21,58.732 C259.58,58.732 250.94,67.377 250.94,78.004 L231.66,78.004 C231.66,56.75 248.96,39.459 270.21,39.459" id="Fill-408" fill="#1D2A4A"></path>
            <path d="M366.57,78.004 L347.3,78.004 C347.3,67.377 338.65,58.732 328.03,58.732 L328.03,39.459 C349.28,39.459 366.57,56.751 366.57,78.004" id="Fill-409" fill="#1D2A4A"></path>
            <path d="M347.3,78.004 L366.57,78.004 L366.57,116.549 L347.3,116.549 L347.3,78.004 Z" id="Fill-410" fill="#1D2A4A"></path>
            <path d="M308.75,14.479 L308.75,33.678 L302.97,39.459 L295.24,39.459 L289.48,33.697 L289.48,14.479 L308.75,14.479" id="Fill-411" fill="#FFFFFF"></path>
            <path d="M270.21,116.549 L270.21,204.429 L282.25,216.474 L294.3,216.475 L294.3,116.549 L270.21,116.549" id="Fill-412" fill="#44AF6A"></path>
            <path d="M282.25,216.475 L294.3,216.475 L294.3,228.521 L282.25,228.521 L282.25,216.475 Z" id="Fill-413" fill="#1D2A4A"></path>
            <path d="M270.59,116.549 L309.14,155.094 L309.14,116.549 L270.59,116.549" id="Fill-414" fill="#1D2A4A"></path>
            <path d="M294.3,247.792 L294.3,228.521 L282.25,228.521 L282.25,228.611 L282.19,228.521 L278.2,238.157 L270.21,238.157 C264.89,238.157 260.57,242.471 260.57,247.793 L294.3,247.793 L294.3,247.792" id="Fill-415" fill="#1D2A4A"></path>
            <path d="M328.03,116.549 L328.03,204.429 L315.98,216.474 L315.98,228.611 L316.04,228.521 L320.03,238.157 L328.03,238.157 C333.35,238.157 337.66,242.471 337.66,247.793 L303.94,247.793 L303.94,116.549 L328.03,116.549" id="Fill-416" fill="#1D2A4A"></path>
            <path d="M314.54,20.187 C314.54,28.702 307.63,35.605 299.12,35.605 C290.6,35.605 283.7,28.702 283.7,20.187 L279.84,20.187 C279.84,30.831 288.47,39.459 299.12,39.459 C309.76,39.459 318.39,30.831 318.39,20.187 L314.54,20.187" id="Fill-417" fill="#1D2A4A"></path>
            <path d="M316.87,12.667 C313.94,5.76 307.09,0.915 299.12,0.915 C291.14,0.915 284.3,5.76 281.37,12.667 C280.19,15.501 278.47,18.051 276.34,20.187 L321.9,20.187 C319.76,18.051 318.04,15.501 316.87,12.667" id="Fill-418" fill="#44AF6A"></path>
            <path d="M242.93,105.26 L256.56,91.632 C252.81,87.875 250.93,82.94 250.93,78.004 L231.66,78.004 C231.66,87.875 235.42,97.745 242.93,105.26" id="Fill-419" fill="#1D2A4A"></path>
            <path d="M273.43,108.503 L259.81,122.131 L242.94,105.259 L256.56,91.632 L273.43,108.503" id="Fill-420" fill="#1D2A4A"></path>
            <path d="M294.3,87.638 L380.06,87.638 L380.06,106.881 L294.3,106.881 L294.3,87.638 Z" id="Fill-421" fill="#1D2A4A"></path>
            <path d="M305.34,87.637 L389.7,87.637 L389.7,97.274 L305.34,97.274 L305.34,87.637 Z" id="Fill-422" fill="#1D2A4A"></path>
            <path d="M248.69,133.245 L266.25,150.805 L294.3,122.759 L294.3,87.638 L248.69,133.245" id="Fill-423" fill="#1D2A4A"></path>
            <path d="M303.8,106.91 C303.8,112.156 299.54,116.408 294.3,116.408 L294.3,122.759 C303.05,122.759 310.15,115.663 310.15,106.91 L303.8,106.91" id="Fill-424" fill="#1D2A4A"></path>
            <path d="M273.43,135.752 L270.7,133.027 L267.98,130.301 L266.61,128.938 L267.98,127.576 L278.88,138.478 C280.38,139.983 282.82,139.983 284.33,138.478 L281.6,135.752 L278.88,133.027 L270.7,124.85 L272.06,123.487 L284.33,135.752 C285.84,137.257 288.28,137.257 289.78,135.752 L287.06,133.027 L284.33,130.301 L274.79,120.762 L276.15,119.399 L284.33,127.576 L287.06,130.301 L289.78,133.027 C291.29,131.521 291.29,129.081 289.78,127.576 L278.88,116.674 L280.24,115.311 L281.6,116.674 C283.11,118.179 285.55,118.179 287.06,116.674 L281.6,111.223 L278.89,108.503 L273.43,108.503 L272.07,109.866 L269.35,112.591 L267.98,113.954 L265.26,116.68 L263.89,118.043 L259.81,122.131 L263.66,131.436 L267.98,135.752 C269.48,137.257 271.92,137.257 273.43,135.752" id="Fill-425" fill="#FFFFFF"></path>
            <path d="M347.3,97.285 L347.3,106.922 L349.23,106.922 L349.23,91.504 C349.23,89.375 350.95,87.649 353.08,87.649 L353.08,106.922 L355.01,106.922 L355.01,89.577 C355.01,87.448 356.73,85.722 358.86,85.722 L358.86,106.922 L360.79,106.922 L360.79,87.649 C362.92,87.649 364.64,89.375 364.64,91.504 L364.64,106.922 L366.57,106.922 L366.57,104.994 C366.57,102.866 368.3,101.14 370.43,101.14 L370.43,112.695 L366.57,116.549 L347.3,116.549 L343.44,107.243 L343.44,101.14 C343.44,99.011 345.17,97.285 347.3,97.285" id="Fill-426" fill="#FFFFFF"></path>
            <path d="M0.62,118.398 L0.62,118.398 L2.62,120.394 C2.76,120.537 2.91,120.675 3.06,120.808 C4.88,122.413 7.15,123.216 9.43,123.216 L19.07,123.216 L19.07,113.58 L9.37,113.58 C6.95,113.594 4.74,114.502 3.06,115.989 C2.91,116.122 2.76,116.259 2.62,116.401 L0.62,118.398" id="Fill-427" fill="#1D2A4A"></path>
            <path d="M116.69,113.512 L174.51,113.512 L174.51,190.049 L116.69,190.049 L116.69,113.512 Z" id="Fill-428" fill="#44AF6A"></path>
            <path d="M135.96,88.532 L135.96,107.731 L141.75,113.512 L149.47,113.512 L155.24,107.75 L155.24,88.532 L135.96,88.532" id="Fill-429" fill="#FFFFFF"></path>
            <path d="M130.18,94.24 C130.18,102.755 137.09,109.658 145.6,109.658 C154.12,109.658 161.02,102.755 161.02,94.24 L164.87,94.24 C164.87,104.884 156.24,113.512 145.6,113.512 C134.96,113.512 126.33,104.884 126.33,94.24 L130.18,94.24" id="Fill-430" fill="#1D2A4A"></path>
            <path d="M127.85,86.72 C130.78,79.813 137.62,74.968 145.6,74.968 C153.58,74.968 160.42,79.813 163.35,86.72 C164.53,89.554 166.25,92.104 168.38,94.24 L122.82,94.24 C124.95,92.104 126.68,89.554 127.85,86.72" id="Fill-431" fill="#44AF6A"></path>
            <path d="M122.98,132.755 L132.48,132.755 L132.48,142.253 C127.24,142.253 122.98,138 122.98,132.755 L122.98,132.755 Z M37.08,123.148 L46.72,123.148 L46.72,132.755 L116.63,132.755 C116.63,141.508 123.73,148.604 132.48,148.604 L132.48,148.633 L160.53,176.679 L178.09,159.119 L132.48,113.513 L132.48,113.512 L37.08,113.512 L37.08,123.148 L37.08,123.148 Z" id="Fill-432" fill="#1D2A4A"></path>
            <path d="M249.59,227.103 L246.18,223.697 L244.48,221.993 L235.96,213.476 L235.96,213.477 L225.81,223.62 L174.51,223.62 L174.51,190.049 L150.42,190.049 L150.42,223.62 C150.42,236.925 161.2,247.71 174.51,247.71 L206.8,247.71 L218.84,235.665 L230.89,235.665 L230.89,235.577 L230.91,235.557 L230.89,235.665 L240.53,231.674 L246.18,237.324 C249.94,241.087 256.04,241.087 259.81,237.324 L249.59,227.103" id="Fill-433" fill="#1D2A4A"></path>
            <path d="M91.41,113.492 L91.41,123.128 L89.48,123.128 L89.48,107.71 C89.48,105.581 87.75,103.856 85.63,103.856 L85.63,123.128 L83.7,123.128 L83.7,105.783 C83.7,103.654 81.97,101.928 79.84,101.928 L79.84,123.128 L77.92,123.128 L77.92,103.856 C75.79,103.856 74.06,105.581 74.06,107.71 L74.06,123.128 L72.14,123.128 L72.14,121.201 C72.14,119.072 70.41,117.346 68.28,117.346 L68.28,128.901 L72.14,132.755 L91.41,132.755 L95.26,123.45 L95.26,117.346 C95.26,115.217 93.54,113.492 91.41,113.492" id="Fill-434" fill="#FFFFFF"></path>
            <path d="M133.99,152.042 L143.62,152.042 L143.62,150.115 L128.21,150.115 C126.08,150.115 124.35,148.389 124.35,146.26 L143.62,146.26 L143.62,144.333 L126.28,144.333 C124.15,144.333 122.42,142.608 122.42,140.479 L143.62,140.479 L143.62,138.552 L124.35,138.552 C124.35,136.423 126.08,134.697 128.21,134.697 L143.62,134.697 L143.62,132.77 L141.7,132.77 C139.57,132.77 137.84,131.044 137.84,128.915 L149.4,128.915 L153.25,132.77 L153.25,152.042 L143.95,155.897 L137.84,155.897 C135.71,155.897 133.99,154.171 133.99,152.042" id="Fill-435" fill="#FFFFFF"></path>
            <path d="M174.51,132.77 L174.51,113.512 L199.57,113.512 C210.21,113.512 218.84,122.133 218.85,132.77 L218.85,132.777 L218.85,132.784 C218.84,143.421 210.21,152.042 199.57,152.042 L153.25,152.042 L153.25,132.77 L174.51,132.77" id="Fill-436" fill="#1D2A4A"></path>
            <path d="M91.41,132.755 L91.41,139.961 L117.86,113.512 L131.49,127.139 L105.04,153.589 L105.03,153.587 C101.55,157.075 96.73,159.232 91.41,159.232 C80.76,159.232 72.14,150.604 72.14,139.96 L72.14,132.755 L91.41,132.755" id="Fill-437" fill="#1D2A4A"></path>
            <path d="M92.6,238.157 L100.59,238.157 L104.58,228.521 L104.65,228.611 L104.65,216.474 L92.6,204.429 L92.6,190.049 C92.6,176.744 103.39,165.958 116.69,165.958 C123.34,165.958 129.37,168.655 133.73,173.014 L150.42,189.707 L150.42,223.776 L116.69,190.049 L116.69,247.793 L82.97,247.793 C82.97,242.471 87.28,238.157 92.6,238.157" id="Fill-438" fill="#44AF6A"></path>
            <path d="M116.69,228.521 L116.69,216.475 L104.65,216.475 L104.65,228.611 L104.58,228.521 L100.59,238.157 L92.6,238.157 C87.28,238.157 82.97,242.471 82.97,247.793 L116.69,247.793 L116.69,228.521" id="Fill-439" fill="#1D2A4A"></path>
            <path d="M19.07,123.216 L19.07,113.58 L28.7,113.58 L19.07,123.216" id="Fill-440" fill="#FFFFFF"></path>
        </g>
    </g>
</svg>