<?xml version="1.0" encoding="utf-8"?>
<!-- Generator: Adobe Illustrator 16.0.1, SVG Export Plug-In . SVG Version: 6.00 Build 0)  -->
<!DOCTYPE svg PUBLIC "-//W3C//DTD SVG 1.1//EN" "http://www.w3.org/Graphics/SVG/1.1/DTD/svg11.dtd">
<svg version="1.1" id="Layer_1" xmlns="http://www.w3.org/2000/svg" xmlns:xlink="http://www.w3.org/1999/xlink" x="0px" y="0px"
	 width="650px" height="650px" viewBox="0 0 650 650" enable-background="new 0 0 650 650" xml:space="preserve">
<path fill="#A0A0A0" d="M560.125,325.125c0-129.787-105.214-235-235-235c-129.787,0-235.001,105.213-235.001,235
	c0,12.682,1.009,25.128,2.942,37.266l0.01-0.006L161,406.132l100.873-50.934l70.127,19l56.525-19h38.223l69.271,51.447l61.153-44.26
	l0,0C559.106,350.248,560.125,337.806,560.125,325.125z"/>
<path fill="#FFFFFF" d="M388.432,317.339v-0.125v-0.144l-9.098-25.992l9.098-24.482v-13.495l0,0l-12.617-75.156l-82.344,13.141
	c-17.482,0-31.653,14.172-31.654,31.653v0v62.989l37.984,69.47h-37.928V481.85l126.652-126.652h-37.953L388.432,317.339z"/>
<g>
	<path fill="#0A3160" d="M363.129,253.886c0-6.998,5.674-12.671,12.672-12.671c6.732,0,12.223,5.255,12.631,11.886v-62.015l0,0
		c0-17.482-14.172-31.654-31.653-31.654h-94.962c0,17.482,14.172,31.654,31.654,31.654h63.308V199h-0.001
		c-8.74,0-15.826,7.085-15.826,15.827c0,0.001,0,0.003,0,0.004v54.903l0,0l-47.48,47.481v0v0h-0.059
		c-0.029-17.394-14.139-31.485-31.539-31.485v31.485h-0.057l37.984,37.984l63.301-63.301h0.027V253.886z"/>
	<polygon fill="#0A3160" points="388.432,291.897 388.432,266.596 363.129,291.897 363.129,291.897 388.502,317.27 388.502,291.897 
			"/>
</g>
<rect x="149.065" y="253.868" fill="#FFFFFF" width="64.079" height="20.737"/>
<rect x="133.752" y="285.725" fill="#FFFFFF" width="94.707" height="31.489"/>
<rect x="427.696" y="195.509" fill="#FFFFFF" width="64.079" height="20.737"/>
<rect x="413.793" y="238.485" fill="#FFFFFF" width="91.885" height="20.737"/>
<rect x="413.793" y="270.341" fill="#FFFFFF" width="91.885" height="20.737"/>
<rect x="413.793" y="317.214" fill="#FFFFFF" width="91.885" height="20.737"/>
<g>
	<path fill="#A0A0A0" d="M198.359,523.007c-0.55-0.353-1.092-0.718-1.637-1.075C197.269,522.289,197.809,522.654,198.359,523.007z"
		/>
	<path fill="#A0A0A0" d="M190.654,517.83v0.026c0.375,0.262,0.764,0.506,1.141,0.766
		C191.414,518.359,191.033,518.095,190.654,517.83z"/>
</g>
<g>
	<polygon fill="#0A3160" points="322.037,358.547 300.926,379.657 322.035,400.768 	"/>
	<polygon fill="#0A3160" points="279.814,400.768 300.926,379.657 279.814,358.547 	"/>
</g>
<path fill="#0A3160" d="M198.873,418.197l63-62.999H135.201c-14.77,0-28.945,2.538-42.125,7.187
	c10.77,67.601,50.371,125.58,105.797,160.96V418.197z"/>
<path fill="#0A3160" d="M515.047,355.198h-88.299v63.263h-56.94l28.47,28.47L288.029,557.18c12.086,1.917,24.469,2.945,37.096,2.945
	c117.105,0,214.191-85.662,232.048-197.739C543.993,357.736,529.816,355.198,515.047,355.198z"/>
</svg>
