<?xml version="1.0" encoding="utf-8"?>
<!-- Generator: Adobe Illustrator 18.1.1, SVG Export Plug-In . SVG Version: 6.00 Build 0)  -->
<svg version="1.1" id="Layer_1" xmlns="http://www.w3.org/2000/svg" xmlns:xlink="http://www.w3.org/1999/xlink" x="0px" y="0px"
	 viewBox="0 0 650 650" enable-background="new 0 0 650 650" xml:space="preserve">
<path fill="#A0A0A0" d="M560.125,325.124c0-129.787-105.213-235-235-235c-129.787,0-235,105.213-235,235
	c0,12.682,1.009,25.128,2.943,37.266l0.009-0.006l105.794,160.95c26.582,16.966,56.797,28.743,89.228,33.876
	c-0.029-0.013-0.069-0.032-0.069-0.032l269.144-194.795v0C559.106,350.248,560.125,337.806,560.125,325.124z"/>
<path fill="#FFFFFF" d="M388.432,317.339v-0.125v-0.143l-9.098-25.992l9.098-24.482v-13.495v0l-12.616-75.156l-82.345,13.141
	c-17.482,0-31.653,14.172-31.654,31.653v0v62.989l37.984,69.47h-37.928V481.85l126.653-126.652h-37.954L388.432,317.339z"/>
<g>
	<path fill="#0A3160" d="M363.13,253.886c0-6.998,5.673-12.671,12.671-12.671c6.733,0,12.224,5.256,12.631,11.886v-62.015h0
		c0-17.482-14.172-31.653-31.654-31.653h-94.961c0,17.482,14.172,31.654,31.654,31.654h63.307v7.913h0
		c-8.741,0-15.827,7.086-15.827,15.827c0,0.001,0,0.003,0,0.004v54.903h0l-47.48,47.481l0,0l0,0.001h-0.058
		c-0.03-17.394-14.139-31.485-31.54-31.485v31.485h-0.056l37.985,37.984l63.3-63.3h0.028V253.886z"/>
	<polygon fill="#0A3160" points="388.432,291.898 388.432,266.596 363.13,291.898 363.13,291.898 388.501,317.269 388.501,291.898 	
		"/>
</g>
<rect x="149.066" y="253.868" fill="#FFFFFF" width="64.079" height="20.737"/>
<rect x="133.752" y="285.725" fill="#FFFFFF" width="94.707" height="31.489"/>
<rect x="427.696" y="195.509" fill="#FFFFFF" width="64.079" height="20.737"/>
<rect x="413.794" y="238.485" fill="#FFFFFF" width="91.885" height="20.737"/>
<rect x="413.794" y="270.341" fill="#FFFFFF" width="91.885" height="20.737"/>
<rect x="413.794" y="317.214" fill="#FFFFFF" width="91.885" height="20.737"/>
<g>
	<path fill="#A0A0A0" d="M198.359,523.007c-0.55-0.353-1.09-0.718-1.637-1.075C197.269,522.289,197.809,522.654,198.359,523.007z"/>
	<path fill="#A0A0A0" d="M190.655,517.829v0.026c0.375,0.262,0.764,0.506,1.141,0.766
		C191.414,518.359,191.034,518.094,190.655,517.829z"/>
</g>
<g>
	<polygon fill="#0A3160" points="322.037,358.547 300.926,379.657 322.037,400.768 	"/>
	<polygon fill="#0A3160" points="279.816,400.768 300.926,379.657 279.816,358.547 	"/>
</g>
<path fill="#0A3160" d="M198.873,418.197l63-62.999H135.202c-14.771,0-28.947,2.538-42.126,7.187
	c10.77,67.601,50.372,125.58,105.797,160.96V418.197z"/>
<path fill="#0A3160" d="M515.046,355.198h-88.298v63.262h-56.941l28.47,28.471L288.029,557.18
	c12.087,1.917,24.469,2.945,37.096,2.945c117.105,0,214.191-85.662,232.048-197.739
	C543.993,357.736,529.817,355.198,515.046,355.198z"/>
</svg>
