<?xml version="1.0" encoding="utf-8"?>
<!-- Generator: Adobe Illustrator 17.0.0, SVG Export Plug-In . SVG Version: 6.00 Build 0)  -->
<!DOCTYPE svg PUBLIC "-//W3C//DTD SVG 1.1//EN" "http://www.w3.org/Graphics/SVG/1.1/DTD/svg11.dtd">
<svg version="1.1" id="Layer_1" xmlns="http://www.w3.org/2000/svg" xmlns:xlink="http://www.w3.org/1999/xlink" x="0px" y="0px"
	 width="650px" height="650px" viewBox="0 0 650 650" enable-background="new 0 0 650 650" xml:space="preserve">
<g>
	<circle fill="#A0A0A0" cx="325" cy="329.763" r="211.182"/>
	<path fill="#FFFFFF" d="M296.554,209.31c-15.71,0-28.445,12.735-28.445,28.445l0,0v84.898l34.134,34.134h45.625l34.022-34.022
		v-0.113V209.31H296.554z"/>
	<g>
		<path fill="#333333" d="M359.153,265.745c0-6.289,5.098-11.387,11.386-11.387c6.05,0,10.985,4.723,11.351,10.681V209.31h0
			c0-15.71-12.735-28.445-28.445-28.445H325h-28.445h-28.445c0,15.71,12.735,28.445,28.445,28.445h56.891v7.111h0
			c-7.855,0-14.223,6.368-14.223,14.223c0,0.001,0,0.002,0,0.004v49.338h0l-16.001,16.001l-26.668,26.668l0,0l0,0h-0.052
			c-0.027-15.631-12.706-28.294-28.343-28.294v28.294h-0.051l26.234,26.234h0l7.901,7.9l56.884-56.885h0.025v-22.773V265.745z"/>
		<polygon fill="#333333" points="381.891,299.904 381.891,277.167 359.153,299.904 359.153,299.904 381.953,322.704 
			381.953,299.904 		"/>
	</g>
	<rect x="166.786" y="265.729" fill="#FFFFFF" width="57.584" height="18.635"/>
	<rect x="153.024" y="294.357" fill="#FFFFFF" width="85.108" height="28.298"/>
	<rect x="417.176" y="213.285" fill="#FFFFFF" width="57.584" height="18.635"/>
	<rect x="404.682" y="251.905" fill="#FFFFFF" width="82.572" height="18.635"/>
	<rect x="404.682" y="280.533" fill="#FFFFFF" width="82.572" height="18.635"/>
	<rect x="404.682" y="322.654" fill="#FFFFFF" width="82.572" height="18.635"/>
	<g>
		<path fill="#A0A0A0" d="M211.083,507.59c-0.494-0.317-0.98-0.645-1.471-0.966C210.103,506.945,210.589,507.273,211.083,507.59z"/>
		<path fill="#A0A0A0" d="M204.16,502.937v0.024c0.337,0.236,0.686,0.455,1.025,0.688C204.842,503.413,204.5,503.175,204.16,502.937
			z"/>
	</g>
	<polygon fill="#FFFFFF" points="381.975,356.789 268.16,356.789 268.16,470.604 	"/>
	<g>
		<polygon fill="#333333" points="322.225,359.798 303.254,378.769 322.225,397.74 		"/>
		<polygon fill="#333333" points="284.284,397.74 303.254,378.769 284.284,359.798 		"/>
	</g>
	<path fill="#333333" d="M211.545,500.899v-87.496l56.615-56.614H154.327c-13.274,0-26.013,2.281-37.856,6.458
		c9.679,60.749,45.267,112.852,95.074,144.646V500.899z"/>
	<path fill="#333333" d="M495.672,356.789h-79.348v56.85h-34.433l0,0h-16.736l25.585,25.585l-99.075,99.074
		c10.861,1.723,21.989,2.646,33.336,2.646c105.236,0,192.482-76.979,208.529-177.698
		C521.685,359.07,508.946,356.789,495.672,356.789z"/>
</g>
</svg>
