<?xml version="1.0" encoding="utf-8"?>
<!-- Generator: Adobe Illustrator 17.0.0, SVG Export Plug-In . SVG Version: 6.00 Build 0)  -->
<!DOCTYPE svg PUBLIC "-//W3C//DTD SVG 1.1//EN" "http://www.w3.org/Graphics/SVG/1.1/DTD/svg11.dtd">
<svg version="1.1" id="Layer_1" xmlns="http://www.w3.org/2000/svg" xmlns:xlink="http://www.w3.org/1999/xlink" x="0px" y="0px"
	 width="650px" height="650px" viewBox="0 0 650 650" enable-background="new 0 0 650 650" xml:space="preserve">
<rect x="247.32" y="126.268" fill="#FFFFFF" width="155.36" height="51.787"/>
<polygon fill="#333333" points="247.32,178.054 299.106,178.054 299.106,229.84 "/>
<polygon fill="#333333" points="350.894,229.84 350.894,178.054 402.68,178.054 "/>
<rect x="299.106" y="178.054" fill="#A0A0A0" width="51.787" height="51.786"/>
<polygon fill="#FFFFFF" points="402.68,436.987 350.893,385.2 247.32,385.2 247.32,446.052 402.68,446.052 "/>
<polygon fill="#A0A0A0" points="350.893,385.2 402.68,436.987 402.68,385.2 "/>
<path fill="#333333" d="M325,523.732c42.901,0,77.68-34.778,77.68-77.68h0H247.32C247.32,488.954,282.099,523.732,325,523.732z"/>
<polygon fill="#A0A0A0" points="247.32,281.627 247.32,342.479 247.32,385.2 350.893,385.2 "/>
<polygon fill="#333333" points="350.894,229.84 299.106,229.84 247.32,281.627 247.32,281.627 247.32,281.627 350.893,385.2 
	402.68,385.2 402.68,342.479 402.68,281.627 "/>
</svg>
