<?xml version="1.0" encoding="utf-8"?>
<!-- Generator: Adobe Illustrator 18.1.1, SVG Export Plug-In . SVG Version: 6.00 Build 0)  -->
<svg version="1.1" id="Layer_1" xmlns="http://www.w3.org/2000/svg" xmlns:xlink="http://www.w3.org/1999/xlink" x="0px" y="0px"
	 viewBox="0 0 650 650" enable-background="new 0 0 650 650" xml:space="preserve">
<polygon fill="#A0A0A0" points="233.073,273.855 233.073,396.424 355.642,438.667 355.642,273.855 "/>
<polygon fill="#0A3160" points="416.928,151.285 325,114.667 233.073,151.285 294.357,212.57 294.357,212.57 233.073,273.854 
	233.073,273.854 233.073,273.855 386.285,427.067 416.928,396.424 416.928,273.854 355.643,212.57 "/>
<path fill="#0A3160" d="M325,560.365c50.77,0,91.927-41.157,91.927-91.927h0L325,448l-91.927,20.438
	C233.073,519.208,274.23,560.365,325,560.365z"/>
<polygon fill="#FFFFFF" points="416.927,457.71 390,396.424 233.073,396.424 233.073,468.438 416.927,468.438 "/>
<polygon fill="#A0A0A0" points="294.357,151.285 325,120.643 355.643,151.285 355.643,212.57 294.357,212.57 "/>
<rect x="233.073" y="90" fill="#FFFFFF" width="183.855" height="61.285"/>
<polygon fill="#F1F1F1" points="355.642,396.424 416.928,457.71 416.928,396.424 "/>
</svg>
