<?xml version="1.0" encoding="utf-8"?>
<!-- Generator: Adobe Illustrator 17.0.0, SVG Export Plug-In . SVG Version: 6.00 Build 0)  -->
<!DOCTYPE svg PUBLIC "-//W3C//DTD SVG 1.1//EN" "http://www.w3.org/Graphics/SVG/1.1/DTD/svg11.dtd">
<svg version="1.1" id="Layer_1" xmlns="http://www.w3.org/2000/svg" xmlns:xlink="http://www.w3.org/1999/xlink" x="0px" y="0px"
	 width="650px" height="650px" viewBox="0 0 650 650" enable-background="new 0 0 650 650" xml:space="preserve">
<rect x="233.073" y="90" fill="#FFFFFF" width="183.855" height="61.285"/>
<polygon fill="#0A3160" points="233.073,151.285 294.357,151.285 294.357,212.57 "/>
<polygon fill="#0A3160" points="355.643,212.57 355.643,151.285 416.928,151.285 "/>
<rect x="294.357" y="151.285" fill="#A0A0A0" width="61.286" height="61.285"/>
<polygon fill="#FFFFFF" points="416.927,457.71 355.642,396.424 233.073,396.424 233.073,468.438 416.927,468.438 "/>
<polygon fill="#A0A0A0" points="355.642,396.424 416.928,457.71 416.928,396.424 "/>
<path fill="#0A3160" d="M325,560.365c50.77,0,91.927-41.157,91.927-91.927h0H233.073C233.073,519.208,274.23,560.365,325,560.365z"
	/>
<polygon fill="#A0A0A0" points="233.073,273.855 233.073,345.868 233.073,396.424 355.642,396.424 "/>
<polygon fill="#0A3160" points="355.643,212.57 294.357,212.57 233.073,273.854 233.073,273.854 233.073,273.855 355.642,396.424 
	416.928,396.424 416.928,345.868 416.928,273.854 "/>
</svg>
