<?xml version="1.0" encoding="utf-8"?>
<!-- Generator: Adobe Illustrator 17.0.0, SVG Export Plug-In . SVG Version: 6.00 Build 0)  -->
<!DOCTYPE svg PUBLIC "-//W3C//DTD SVG 1.1//EN" "http://www.w3.org/Graphics/SVG/1.1/DTD/svg11.dtd">
<svg version="1.1" id="Layer_1" xmlns="http://www.w3.org/2000/svg" xmlns:xlink="http://www.w3.org/1999/xlink" x="0px" y="0px"
	 width="650px" height="650px" viewBox="0 0 650 650" enable-background="new 0 0 650 650" xml:space="preserve">
<circle fill="#333333" cx="325" cy="323.164" r="120.06"/>
<path fill="#FFFFFF" d="M325,129.656c26.378,0,51.959,5.163,76.032,15.344c23.259,9.838,44.152,23.925,62.097,41.87
	c17.945,17.945,32.032,38.838,41.87,62.097c10.182,24.073,15.345,49.654,15.345,76.032c0,26.378-5.163,51.959-15.345,76.032
	c-9.838,23.259-23.925,44.152-41.87,62.097c-17.945,17.945-38.838,32.032-62.097,41.87c-24.073,10.182-49.653,15.344-76.032,15.344
	c-26.378,0-51.959-5.163-76.032-15.344c-23.259-9.838-44.152-23.925-62.097-41.87c-17.945-17.945-32.032-38.838-41.87-62.097
	c-10.182-24.073-15.344-49.653-15.344-76.032c0-26.378,5.163-51.959,15.344-76.032c9.838-23.26,23.925-44.152,41.87-62.097
	c17.945-17.945,38.838-32.032,62.097-41.87C273.041,134.819,298.622,129.656,325,129.656 M325,113.656
	c-116.722,0-211.344,94.622-211.344,211.344c0,116.722,94.622,211.344,211.344,211.344S536.344,441.722,536.344,325
	C536.344,208.278,441.722,113.656,325,113.656L325,113.656z"/>
<path fill="#A0A0A0" d="M325,214.428v36.725h-0.198l-36.725-36.725l7.747-7.747c-24.297,6.066-45.665,19.528-61.565,37.865v26.833
	c0,29.614,24.007,53.621,53.621,53.621c0-20.501,16.619-37.121,37.121-37.121h0l36.725-36.725h0L325,214.428z"/>
<path fill="#A0A0A0" d="M417.011,369.576c0-24.619-19.958-44.576-44.576-44.576h-21.221v0l-44.567,44.566h-0.01l0.005,0.005
	l-0.005,0.005h0.01l36.716,36.716l0,35.536c0.56-0.086,1.116-0.184,1.674-0.277L417.011,369.576z"/>
</svg>
