<?xml version="1.0" encoding="utf-8"?>
<!-- Generator: Adobe Illustrator 18.1.1, SVG Export Plug-In . SVG Version: 6.00 Build 0)  -->
<svg version="1.1" id="Layer_1" xmlns="http://www.w3.org/2000/svg" xmlns:xlink="http://www.w3.org/1999/xlink" x="0px" y="0px"
	 viewBox="0 0 650 650" enable-background="new 0 0 650 650" xml:space="preserve">
<path fill="#0A3160" d="M458.685,323.403c0,73.832-59.853,133.685-133.685,133.685s-133.685-59.853-133.685-133.685
	c0-33.481,12.308-64.086,32.646-87.54c10.492-12.099,32.706-5.863,32.706-5.863s24.822-33.554,35.845-36.306
	c10.401-2.597,21.283-3.975,32.488-3.975C398.832,189.718,458.685,249.571,458.685,323.403z"/>
<path fill="#FFFFFF" d="M325,107.936c29.372,0,57.855,5.748,84.66,17.086c25.899,10.954,49.162,26.64,69.144,46.622
	c19.982,19.982,35.667,43.245,46.622,69.144c11.337,26.805,17.086,55.288,17.086,84.66c0,29.372-5.749,57.855-17.086,84.66
	c-10.954,25.899-26.64,49.162-46.622,69.144c-19.982,19.982-43.245,35.667-69.144,46.622c-26.804,11.337-55.288,17.086-84.66,17.086
	c-29.372,0-57.855-5.749-84.66-17.086c-25.899-10.954-49.162-26.64-69.144-46.622c-19.982-19.982-35.667-43.245-46.622-69.144
	c-11.337-26.804-17.086-55.288-17.086-84.66c0-29.372,5.749-57.855,17.086-84.66c10.954-25.899,26.64-49.162,46.622-69.144
	c19.982-19.981,43.245-35.668,69.144-46.622C267.145,113.685,295.628,107.936,325,107.936 M325,90.121
	c-129.968,0-235.327,105.36-235.327,235.327S195.032,560.775,325,560.775s235.327-105.359,235.327-235.327
	S454.967,90.121,325,90.121L325,90.121z"/>
<path fill="#A0A0A0" d="M325,202.328v40.893h-0.22l-40.893-40.893l8.626-8.626c-27.054,6.755-50.847,21.744-68.552,42.162v29.878
	c0,32.974,26.731,59.706,59.706,59.706c0-22.828,18.505-41.333,41.333-41.333h0l40.893-40.893h0L325,202.328z"/>
<path fill="#A0A0A0" d="M427.453,375.083c0-27.413-22.222-49.635-49.635-49.635h-23.629v0l-49.624,49.624h-0.011l0.006,0.005
	l-0.005,0.005h0.011l40.882,40.882l0,39.569c0.624-0.096,1.243-0.204,1.864-0.309L427.453,375.083z"/>
</svg>
