<?xml version="1.0" encoding="utf-8"?>
<!-- Generator: Adobe Illustrator 17.0.0, SVG Export Plug-In . SVG Version: 6.00 Build 0)  -->
<!DOCTYPE svg PUBLIC "-//W3C//DTD SVG 1.1//EN" "http://www.w3.org/Graphics/SVG/1.1/DTD/svg11.dtd">
<svg version="1.1" id="Layer_1" xmlns="http://www.w3.org/2000/svg" xmlns:xlink="http://www.w3.org/1999/xlink" x="0px" y="0px"
	 width="650px" height="650px" viewBox="0 0 650 650" enable-background="new 0 0 650 650" xml:space="preserve">
<path fill="#A0A0A0" d="M402.447,417.591l30.699,30.699c16.955-16.955,16.955-44.444,0-61.399L294.41,248.156l-15.377,15.377
	c-16.955,16.955-44.444,16.955-61.399,0l30.699-30.699l30.638-30.637l-0.008-0.008h30.638h30.692l-30.692-30.692h-61.33
	l-37.512-37.512L103.346,241.398l37.512,37.512l64.931,156.758l0.013-0.013l27.759,27.759l0.016-0.015h30.669l14.84,14.84
	l0.507,0.529h61.42l-31.228-31.229l-0.001,0l-92.04-92.041l15.271-15.271l122.751,122.751l0.625,0.647h61.42l-31.346-31.346
	L263.714,309.528l15.334-15.334L402.447,417.591z"/>
<g>
	<path fill="#FFFFFF" d="M433.078,448.223c-0.022,0.023-0.041,0.045-0.062,0.068l0.065-0.065L433.078,448.223z"/>
	<g>
		<g>
			
				<rect x="239.459" y="368.063" transform="matrix(0.7071 0.7071 -0.7071 0.7071 369.9855 -135.3895)" fill="#0A3160" width="217.926" height="21.708"/>
			
				<rect x="199.88" y="398.625" transform="matrix(0.7071 0.7071 -0.7071 0.7071 373.6278 -83.0588)" fill="#0A3160" width="174.389" height="21.708"/>
			<path fill="#FFFFFF" d="M264.276,432.699L233.577,402l-30.7,30.699c-16.942,16.942-16.954,44.4-0.038,61.358l-0.001,0.001h0.002
				c0.013,0.013,0.025,0.027,0.038,0.04l0.04-0.04l30.541,0v-30.54l0.12-0.119L264.276,432.699z"/>
			<polygon fill="#0A3160" points="264.181,463.414 233.561,463.414 233.561,494.034 			"/>
			<polygon fill="#0A3160" points="218.172,417.405 218.187,386.61 187.552,417.405 187.552,448.025 			"/>
			<path fill="#FFFFFF" d="M218.187,386.61l-30.699-30.699l-30.699,30.699c-16.942,16.942-16.954,44.4-0.039,61.358l-0.001,0.001
				h0.002c0.013,0.013,0.025,0.027,0.038,0.04l0.04-0.04l30.54,0v-30.541l0.119-0.119L218.187,386.61z"/>
			<path fill="#FFFFFF" d="M371.818,417.441l-15.397,15.397c-16.942,16.942-16.954,44.4-0.039,61.358l-0.001,0.001h0.002
				c0.013,0.013,0.024,0.027,0.038,0.04l0.04-0.04l30.54,0v-30.541l0.119-0.119l15.398-15.397L371.818,417.441z"/>
			<path fill="#FFFFFF" d="M325.673,463.427l-30.699-30.699l-21.773,21.773l0,0c-16.942,16.942-16.954,44.4-0.039,61.358
				l-0.001,0.001h0.002c0.013,0.013,0.024,0.027,0.038,0.04l0.04-0.04l30.54,0v-30.541l0.119-0.119v0L325.673,463.427z"/>
			<path fill="#FFFFFF" d="M433.078,448.223c-0.022,0.023-0.041,0.045-0.062,0.068l0.065-0.065L433.078,448.223z"/>
			<polygon fill="#0A3160" points="417.74,463.538 387.12,463.538 387.12,494.158 			"/>
			<polygon fill="#0A3160" points="310.363,478.737 303.9,485.2 303.9,515.82 334.52,485.2 340.983,478.737 			"/>
		</g>
	</g>
	<path fill="#F1F1F1" d="M433.146,386.892c16.33,16.33,16.924,42.429,1.797,59.479l29.874-29.751l44.325-107.011l37.513-37.512
		H318.351L433.146,386.892z"/>
	<g>
		<path fill="#FFFFFF" d="M401.729,202.196L401.729,202.196L401.729,202.196l-122.758-0.001l-30.637,30.638l-30.699,30.699
			c16.955,16.955,44.444,16.955,61.399,0l15.377-15.377l23.942,23.942h228.303L439.241,164.684L401.729,202.196z"/>
	</g>
</g>
</svg>
