<?xml version="1.0" encoding="utf-8"?>
<!-- Generator: Adobe Illustrator 17.0.0, SVG Export Plug-In . SVG Version: 6.00 Build 0)  -->
<!DOCTYPE svg PUBLIC "-//W3C//DTD SVG 1.1//EN" "http://www.w3.org/Graphics/SVG/1.1/DTD/svg11.dtd">
<svg version="1.1" id="Layer_1" xmlns="http://www.w3.org/2000/svg" xmlns:xlink="http://www.w3.org/1999/xlink" x="0px" y="0px"
	 width="650px" height="650px" viewBox="0 0 650 650" enable-background="new 0 0 650 650" xml:space="preserve">
<path fill="#A0A0A0" d="M393.214,409.129l28.576,28.576c15.782-15.782,15.782-41.369,0-57.151L292.651,251.415l-14.313,14.313
	c-15.782,15.782-41.37,15.782-57.151,0l28.576-28.576l28.518-28.518l-0.007-0.007h28.518h28.568l-28.568-28.569h-57.087
	l-34.917-34.917l-99.982,99.982l34.917,34.917l60.439,145.914l0.012-0.012l25.838,25.839l0.015-0.014h28.547l13.813,13.813
	l0.472,0.492h57.171l-29.068-29.068l0,0l-85.673-85.673l14.214-14.214l114.259,114.259l0.582,0.602h57.171l-29.178-29.178
	L264.079,308.541l14.273-14.273L393.214,409.129z"/>
<g>
	<path fill="#FFFFFF" d="M421.727,437.642c-0.02,0.021-0.038,0.042-0.058,0.063l0.061-0.06L421.727,437.642z"/>
	<g>
		<g>
			
				<rect x="241.502" y="363.027" transform="matrix(0.7071 0.7071 -0.7071 0.7071 364.284 -133.1989)" fill="#333333" width="202.85" height="20.206"/>
			
				<rect x="204.661" y="391.475" transform="matrix(0.7071 0.7071 -0.7071 0.7071 367.6743 -84.4881)" fill="#333333" width="162.324" height="20.206"/>
			<path fill="#FFFFFF" d="M264.602,423.192l-28.575-28.576l-28.576,28.576c-15.77,15.77-15.781,41.328-0.036,57.113l-0.001,0.001
				h0.001c0.012,0.012,0.023,0.025,0.035,0.037l0.037-0.037l28.428,0v-28.428l0.111-0.111L264.602,423.192z"/>
			<polygon fill="#333333" points="264.513,451.782 236.012,451.781 236.012,480.283 			"/>
			<polygon fill="#333333" points="221.687,408.955 221.701,380.291 193.185,408.955 193.185,437.457 			"/>
			<path fill="#FFFFFF" d="M221.701,380.291l-28.576-28.576l-28.576,28.576c-15.77,15.77-15.781,41.328-0.036,57.113l-0.001,0.001
				h0.002c0.012,0.012,0.023,0.025,0.035,0.037l0.037-0.037l28.427,0v-28.428l0.111-0.111L221.701,380.291z"/>
			<path fill="#FFFFFF" d="M364.704,408.989l-14.332,14.332c-15.77,15.77-15.781,41.328-0.036,57.113l-0.001,0.001h0.002
				c0.012,0.012,0.022,0.025,0.035,0.037l0.037-0.037l28.427,0v-28.428l0.111-0.111l14.333-14.332L364.704,408.989z"/>
			<path fill="#FFFFFF" d="M321.751,451.794l-28.576-28.576l-20.267,20.267l0,0c-15.77,15.77-15.781,41.328-0.036,57.113
				l-0.001,0.001h0.002c0.012,0.012,0.022,0.025,0.035,0.037l0.037-0.037l28.427,0v-28.428l0.111-0.111v0L321.751,451.794z"/>
			<path fill="#FFFFFF" d="M421.727,437.642c-0.02,0.021-0.038,0.042-0.058,0.063l0.061-0.06L421.727,437.642z"/>
			<polygon fill="#333333" points="407.449,451.897 378.948,451.897 378.948,480.399 			"/>
			<polygon fill="#333333" points="307.5,466.045 301.485,472.06 301.485,500.562 329.986,472.061 336.002,466.045 			"/>
		</g>
	</g>
	<path fill="#EEEEEE" d="M421.79,380.553c15.201,15.201,15.753,39.494,1.672,55.365l27.807-27.693l41.259-99.608l34.917-34.917
		H314.936L421.79,380.553z"/>
	<g>
		<path fill="#FFFFFF" d="M392.546,208.635L392.546,208.635L392.546,208.635l-114.266,0l-28.518,28.518l-28.576,28.576
			c15.782,15.782,41.369,15.782,57.151,0l14.313-14.313l22.286,22.286h212.509l-99.982-99.982L392.546,208.635z"/>
	</g>
</g>
</svg>
