<?xml version="1.0" encoding="utf-8"?>
<!-- Generator: Adobe Illustrator 16.0.1, SVG Export Plug-In . SVG Version: 6.00 Build 0)  -->
<!DOCTYPE svg PUBLIC "-//W3C//DTD SVG 1.1//EN" "http://www.w3.org/Graphics/SVG/1.1/DTD/svg11.dtd">
<svg version="1.1" id="Layer_1" xmlns="http://www.w3.org/2000/svg" xmlns:xlink="http://www.w3.org/1999/xlink" x="0px" y="0px"
	 width="650px" height="650px" viewBox="0 0 650 650" enable-background="new 0 0 650 650" xml:space="preserve">
<g>
	<polygon fill="#0A3160" points="273.698,289.662 180.814,382.546 154.5,444.355 171.549,461.404 171.572,461.469 215.654,417.386 
		205.75,495.75 222.799,512.798 222.821,512.863 266.977,468.708 284.237,520.024 301.285,537.073 301.311,537.138 301.443,537.004 
		301.443,537.094 377.232,461.465 377.171,495.905 394.264,512.998 445.737,461.701 	"/>
	<path fill="#F1F1F1" d="M440.849,229.799l-123.271,35.193h-0.002h0.002l-21.332,21.332L445.681,435.76l-0.016,25.869l2.122-2.122
		c-0.015,0.017-0.027,0.035-0.043,0.051l33.352-33.215l49.486-119.472l41.881-41.879L440.849,229.799z"/>
	<path fill="#A0A0A0" d="M445.708,393.283L317.494,265.07l24.578-77.966l-34.265-34.266h-68.471l-41.88-41.88l-119.92,119.92
		l41.879,41.88l72.492,175.01l0.015-0.014l30.991,30.991l0.018-0.017h34.239l17.135,17.159h68.571L205.256,358.264l17.049-17.049
		l137.74,137.766h68.573l-172.04-172.04l17.12-17.12l172.04,172.04c18.928-18.929,18.928-49.619,0-68.548L445.708,393.283z"/>
	<path fill="#FFFFFF" d="M445.662,461.626c-0.023,0.025-0.045,0.05-0.069,0.075l0.073-0.072L445.662,461.626z"/>
	<path fill="#FFFFFF" d="M257.205,444.25l-34.273-34.274l-34.274,34.274c-18.914,18.914-18.928,49.569-0.043,68.502l-0.001,0.001
		h0.002c0.014,0.015,0.027,0.03,0.042,0.044l0.044-0.044h34.098v-34.096l0.133-0.133L257.205,444.25z"/>
	<path fill="#FFFFFF" d="M205.75,392.839l-34.273-34.274l-34.275,34.274c-18.913,18.914-18.927,49.57-0.043,68.502v0.001h0.002
		c0.014,0.015,0.027,0.03,0.041,0.044l0.045-0.044l34.097,0v-34.097l0.134-0.133L205.75,392.839z"/>
	<path fill="#FFFFFF" d="M377.27,427.259l-17.19,17.19c-18.914,18.914-18.929,49.57-0.044,68.502v0.001h0.002
		c0.014,0.015,0.027,0.03,0.042,0.044l0.044-0.044h34.096v-34.096l0.133-0.133l17.191-17.19L377.27,427.259z"/>
	<path fill="#FFFFFF" d="M325.752,478.6l-34.275-34.274l-24.307,24.308l0,0c-18.915,18.914-18.929,49.57-0.043,68.502l-0.002,0.001
		h0.002c0.014,0.015,0.027,0.03,0.043,0.045l0.044-0.045l34.096,0v-34.097l0.134-0.133l0,0L325.752,478.6z"/>
	<path fill="#FFFFFF" d="M445.662,461.626c-0.023,0.025-0.045,0.05-0.069,0.075l0.073-0.072L445.662,461.626z"/>
	<g>
		<path fill="#FFFFFF" d="M410.662,186.952L410.662,186.952L410.662,186.952l-137.051,0l-68.479,68.479
			c18.929,18.929,49.619,18.929,68.548,0l17.167-17.168l26.73,26.73h254.885l-119.92-119.92L410.662,186.952z"/>
	</g>
</g>
</svg>
