<?xml version="1.0" encoding="utf-8"?>
<!-- Generator: Adobe Illustrator 18.1.1, SVG Export Plug-In . SVG Version: 6.00 Build 0)  -->
<svg version="1.1" id="Layer_1" xmlns="http://www.w3.org/2000/svg" xmlns:xlink="http://www.w3.org/1999/xlink" x="0px" y="0px"
	 viewBox="0 0 650 650" enable-background="new 0 0 650 650" xml:space="preserve">
<polygon fill="#0A3160" points="268.317,287.141 165.691,389.768 136.616,458.061 155.453,476.897 155.479,476.969 204.186,428.263 
	193.242,514.845 212.078,533.682 212.104,533.754 260.891,484.968 279.962,541.666 298.799,560.503 298.825,560.575 
	298.972,560.428 298.972,560.526 382.712,476.965 382.644,515.018 401.529,533.903 458.402,477.226 "/>
<path fill="#F1F1F1" d="M453,221l-136.201,38.885h0l0,0l-23.569,23.569l165.109,165.109l-0.017,28.583l2.345-2.345
	c-0.017,0.019-0.031,0.038-0.048,0.057l36.85-36.699l54.677-132.003l46.273-46.272L453,221z"/>
<path fill="#A0A0A0" d="M458.369,401.631L316.707,259.97l27.156-86.144l-37.859-37.859h-75.652l-46.273-46.273L51.581,222.192
	l46.272,46.273l80.095,193.367l0.016-0.016l34.242,34.242l0.02-0.019h37.831l18.932,18.958h75.764L192.696,362.939l18.837-18.837
	l152.189,152.216h75.765L249.402,306.233l18.916-18.915l190.085,190.085c20.914-20.915,20.914-54.823,0-75.738L458.369,401.631z"/>
<path fill="#FFFFFF" d="M458.319,477.142c-0.027,0.028-0.05,0.056-0.077,0.083l0.08-0.08L458.319,477.142z"/>
<path fill="#FFFFFF" d="M250.094,457.944l-37.868-37.869l-37.87,37.869c-20.898,20.898-20.913,54.769-0.047,75.688l-0.001,0.001
	h0.002c0.016,0.016,0.031,0.033,0.047,0.049l0.049-0.049l37.673,0V495.96l0.148-0.147L250.094,457.944z"/>
<path fill="#FFFFFF" d="M193.242,401.141l-37.869-37.869l-37.869,37.869c-20.898,20.898-20.913,54.769-0.048,75.687l-0.001,0.001
	h0.002c0.016,0.016,0.03,0.033,0.047,0.049l0.049-0.049l37.673,0v-37.673l0.147-0.147L193.242,401.141z"/>
<path fill="#FFFFFF" d="M382.752,439.171l-18.993,18.993c-20.898,20.898-20.914,54.769-0.048,75.687l-0.001,0.001h0.003
	c0.016,0.016,0.03,0.033,0.047,0.049l0.049-0.049l37.672,0v-37.673l0.147-0.147l18.994-18.993L382.752,439.171z"/>
<path fill="#FFFFFF" d="M325.83,495.897l-37.869-37.869l-26.858,26.858l0,0c-20.898,20.898-20.914,54.769-0.048,75.687l-0.001,0.001
	h0.003c0.016,0.016,0.03,0.033,0.047,0.049l0.049-0.049l37.672,0v-37.673l0.147-0.147v0L325.83,495.897z"/>
<path fill="#FFFFFF" d="M458.319,477.142c-0.027,0.028-0.05,0.056-0.077,0.083l0.08-0.08L458.319,477.142z"/>
<g>
	<path fill="#FFFFFF" d="M419.648,173.659L419.648,173.659L419.648,173.659l-151.427-0.001L192.56,249.32
		c20.914,20.914,54.823,20.914,75.738,0l18.968-18.968l29.533,29.533h281.62L465.921,127.386L419.648,173.659z"/>
</g>
</svg>
