<?xml version="1.0" encoding="utf-8"?>
<!-- Generator: Adobe Illustrator 18.1.1, SVG Export Plug-In . SVG Version: 6.00 Build 0)  -->
<svg version="1.1" id="Layer_1" xmlns="http://www.w3.org/2000/svg" xmlns:xlink="http://www.w3.org/1999/xlink" x="0px" y="0px"
	 viewBox="0 0 650 650" enable-background="new 0 0 650 650" xml:space="preserve">
<polygon fill="#FFFFFF" points="383.208,132.175 285.037,134.392 285.037,210.212 335.894,261.069 386.651,210.312 386.651,210.212 
	386.651,158.956 "/>
<polygon fill="#A0A0A0" points="336.116,360.951 204.09,441.263 224.09,501.126 283.858,521.126 336.597,521.126 453.734,509.126 
	467.734,463.043 467.734,441.263 "/>
<path fill="#FFFFFF" d="M607.898,360.738c0-66.297-53.744-120.042-120.042-120.042v0H335.98h-0.136H183.968
	c-66.297,0-120.042,53.744-120.042,120.042h-0.043v73.282l-7.26,7.26L42.102,455.8v43.529c8.019,0,14.52-6.502,14.52-14.521v-7.26
	h7.26v58.083c0,8.02,6.502,14.521,14.521,14.521v-72.604h7.261v79.864c8.019,0,14.52-6.501,14.52-14.521v-65.344h7.261v58.083
	v14.521c8.019,0,14.52-6.501,14.52-14.521v-58.083h7.262v36.302c8.018,0,14.52-6.501,14.52-14.521v-22.994l-14.52-35.056
	l-0.002-0.002l-5.322-12.848v-67.691c0.024-33.152,26.906-60.021,60.065-60.021v20.078l10,10.039l-10,10.039v20.078l10,10.039
	l-10,10.039v20.078l10,10.039l-10,10.039l20.123,20.078h51.714l20.01-20.01l0.107-10.107l19.971-9.971l20.078-20.078l0.107-10.107
	l20.039-10.039l19.898,9.898l0.044,10.044l20.076,20.076l20.318,10.318l-0.241,9.759l20.217,20.217h51.306l20.123-20.078l-10-10.039
	l10-10.039v-20.078l-10-10.039l10-10.039v-20.078l-10-10.039l10-10.039v-20.122c33.152,0.024,60.021,26.906,60.021,60.065v42.284
	h0.044c-0.024,33.152-26.906,60.021-60.065,60.021h-49.647l-7.26-7.26l-14.521-14.52h-43.529c0,8.019,6.502,14.52,14.521,14.52
	h7.261v7.26h-58.083c-8.019,0-14.521,6.502-14.521,14.521h72.604v7.26h-79.864c0,8.019,6.501,14.52,14.521,14.52h65.344v7.261
	h-58.083h-14.521c0,8.019,6.501,14.521,14.521,14.521h58.083v7.261h-36.302c0,8.018,6.501,14.52,14.521,14.52h22.994l35.056-14.52
	v-0.001h0v0.001l0.002-0.002l12.848-5.322h44.057c66.297,0,120.042-53.744,120.042-120.042L607.898,360.738L607.898,360.738z"/>
<circle fill="#0A3160" cx="226.007" cy="310.756" r="10.039"/>
<polygon fill="#EEEEEE" points="335.98,320.931 335.98,320.795 183.968,320.795 184.012,340.873 316.038,340.873 "/>
<g>
	<polygon fill="#EEEEEE" points="336.252,280.775 336.252,280.639 336.116,280.639 	"/>
	<polygon fill="#EEEEEE" points="336.116,280.639 183.968,280.639 184.012,300.717 316.038,300.717 	"/>
</g>
<polygon fill="#EEEEEE" points="183.967,401.107 295.824,401.107 275.746,421.185 184.012,421.185 "/>
<g>
	<polygon fill="#EEEEEE" points="184.012,381.029 183.967,360.951 335.98,360.951 315.902,381.029 	"/>
	<polygon fill="#EEEEEE" points="335.98,360.951 336.252,360.951 336.252,361.223 	"/>
</g>
<polygon fill="#EEEEEE" points="487.856,401.107 376,401.107 396.078,421.185 487.812,421.185 "/>
<g>
	<polygon fill="#EEEEEE" points="487.812,381.029 487.856,360.951 335.844,360.951 355.922,381.029 	"/>
	<polygon fill="#EEEEEE" points="335.844,360.951 335.572,360.951 335.572,361.223 	"/>
</g>
<g>
	<polygon fill="#EEEEEE" points="336.116,320.795 335.844,320.795 335.844,321.067 	"/>
	<polygon fill="#EEEEEE" points="336.116,320.795 356.194,340.873 487.812,340.873 487.856,320.795 	"/>
</g>
<g>
	<polygon fill="#EEEEEE" points="336.116,280.639 335.572,280.639 335.572,281.184 	"/>
	<polygon fill="#EEEEEE" points="336.116,280.639 356.194,300.717 487.812,300.717 487.856,280.639 	"/>
</g>
<polygon fill="#EEEEEE" points="204.09,441.263 204.09,521.126 283.858,521.126 "/>
<circle fill="#0A3160" cx="446.452" cy="310.756" r="10.039"/>
<circle fill="#A0A0A0" cx="78.144" cy="454.868" r="14.78"/>
<circle fill="#A0A0A0" cx="109.337" cy="461.493" r="10.949"/>
<path fill="#0A3160" d="M386.651,134.392l-25.403-25.403h-76.211v25.404h46.056l14.69,14.69v20.239h20.239l0.253,0.253v-0.253
	v-10.365h-0.095c0-5.637,4.57-10.207,10.207-10.207c5.637,0,10.207,4.57,10.207,10.207h0.058L386.651,134.392L386.651,134.392
	L386.651,134.392z"/>
</svg>
