<?xml version="1.0" encoding="utf-8"?>
<!-- Generator: Adobe Illustrator 17.0.0, SVG Export Plug-In . SVG Version: 6.00 Build 0)  -->
<!DOCTYPE svg PUBLIC "-//W3C//DTD SVG 1.1//EN" "http://www.w3.org/Graphics/SVG/1.1/DTD/svg11.dtd">
<svg version="1.1" id="Layer_1" xmlns="http://www.w3.org/2000/svg" xmlns:xlink="http://www.w3.org/1999/xlink" x="0px" y="0px"
	 width="650px" height="650px" viewBox="0 0 650 650" enable-background="new 0 0 650 650" xml:space="preserve">
<g>
	<path fill="#FFFFFF" d="M339.739,282.651l-144.527-59.891L50.685,282.651v144.591c79.855,0,144.591-64.736,144.591-144.591
		c0,79.855,64.736,144.591,144.591,144.591V282.651H339.739z"/>
	<path fill="#EEEEEE" d="M195.276,282.651c0,79.855,64.736,144.591,144.591,144.591V282.651H195.276z"/>
	<path fill="#333333" d="M195.276,282.651c0,79.853-64.731,144.586-144.583,144.591h289.173
		C260.011,427.241,195.276,362.506,195.276,282.651z"/>
</g>
<g>
	<path fill="#333333" d="M488.468,525.739v-30.543h-19.09v0.143l-0.099-0.143l0,0l-6.326,15.272h-12.665
		c-8.435,0-15.272,6.838-15.272,15.272h22.909h7.636h3.818h19.09h0L488.468,525.739z"/>
	<path fill="#333333" d="M541.921,525.739v-30.543h-19.09v0.143l-0.099-0.143l0,0l-6.326,15.272H503.74
		c-8.435,0-15.272,6.838-15.272,15.272h22.909h7.636h3.818h19.09h0L541.921,525.739z"/>
	<path fill="#333333" d="M541.93,226.045l-45.825,45.825v15.275c-12.654,0-22.913-10.258-22.913-22.913v-15.275l-22.912-22.912
		v-30.55h51.965l4.661-4.661v-16.498l-10.801-10.801l-10.801-10.801l-43.342,43.342c-29.768,4.072-52.782,29.651-52.782,60.519
		v48.735h30.55v-48.735c0-11.174,6.048-20.937,15.024-26.264V396.8h-0.076l53.79,53.789l84.012-84.012h0.001v-40.658V305.33v-48.735
		C572.481,239.75,558.776,226.045,541.93,226.045z"/>
	<g>
		<polygon fill="#A0A0A0" points="488.468,450.589 434.678,396.8 434.678,434.143 434.678,495.196 557.206,495.196 557.206,434.143 
			557.206,381.852 557.205,381.852 		"/>
	</g>
	<g>
		<path fill="#FFFFFF" d="M480.83,163.535v0.03c0-0.01,0.001-0.02,0.001-0.03H480.83z"/>
		<polygon fill="#FFFFFF" points="496.075,163.535 496.104,163.565 480.83,163.565 480.83,186.33 489.995,195.495 502.246,195.495 
			511.381,186.36 511.381,186.33 511.381,163.535 		"/>
	</g>
	<path fill="#FFFFFF" d="M419.73,335.866v-6.11v-6.11v-3.055h-3.055v24.44c0,3.374-2.736,6.11-6.11,6.11v-6.11v-6.11v-18.33h-3.055
		v27.495c0,3.374-2.736,6.11-6.11,6.11v-6.11v-6.11v-21.385h-3.055v18.33v6.11v6.11c-3.374,0-6.11-2.736-6.11-6.11v-24.44h-3.055
		v3.055c0,3.374-2.736,6.11-6.11,6.11v-6.11v-6.11v-6.096l6.11-6.11h3.055h6.11h3.055h6.11h3.055h6.11h3.055l6.11,14.751v9.675
		C425.84,333.131,423.104,335.866,419.73,335.866z"/>
	<path fill="#A0A0A0" d="M603.031,256.595c0-30.868-23.014-56.447-52.782-60.519l-43.342-43.341
		c-2.764-2.765-6.583-4.475-10.802-4.475c-4.218,0-8.037,1.71-10.801,4.474l10.801,10.801l10.801,10.801v16.498l-4.661,4.661
		h-51.965v30.55l22.912,22.912v15.275c0,12.654,10.259,22.913,22.913,22.913V271.87l45.825-45.825
		c16.845,0,30.55,13.705,30.55,30.55v48.735h30.55L603.031,256.595L603.031,256.595z"/>
	<path fill="#FFFFFF" d="M603.031,335.866v-6.11v-6.11v-3.055h-3.055v24.44c0,3.374-2.736,6.11-6.11,6.11v-6.11v-6.11v-18.33h-3.055
		v27.495c0,3.374-2.736,6.11-6.11,6.11v-6.11v-6.11v-21.385h-3.055v18.33v6.11v6.11c-3.375,0-6.11-2.736-6.11-6.11v-24.44h-3.055
		v3.055c0,3.374-2.736,6.11-6.11,6.11v-6.11v-6.11v-6.096l6.11-6.11h3.055h6.11h3.055h6.11h3.055h6.11h3.055l6.11,14.751v9.675
		C609.141,333.131,606.405,335.866,603.031,335.866z"/>
</g>
</svg>
