<?xml version="1.0" encoding="UTF-8" standalone="no"?>
<svg width="450px" height="201px" viewBox="0 0 450 201" version="1.1" xmlns="http://www.w3.org/2000/svg" xmlns:xlink="http://www.w3.org/1999/xlink">
    <defs></defs>
    <g id="Page-1" stroke="none" stroke-width="1" fill="none" fill-rule="evenodd">
        <g id="Group">
            <path d="M171.92,200.66 C248.49,200.66 310.57,138.58 310.57,62.01 L171.92,62.01 L171.92,200.66" id="Fill-459" fill="#FFFFFF"></path>
            <path d="M310.57,62.01 C310.57,138.58 372.64,200.66 449.21,200.66 L449.21,62.01 L310.57,62.01" id="Fill-460" fill="#B9DCEA"></path>
            <path d="M310.57,62.01 C310.57,138.58 248.5,200.65 171.93,200.66 L449.21,200.66 C372.64,200.66 310.57,138.58 310.57,62.01" id="Fill-461" fill="#1D2A4A"></path>
            <path d="M310.51,4.58 L171.92,62.01 L449.09,62.01 L310.51,4.58" id="Fill-462" fill="#FFFFFF"></path>
            <path d="M115.26,151.77 L125.58,151.77 L125.58,184.17 L115.26,184.17 L115.26,151.77 Z" id="Fill-666" fill="#FFFFFF"></path>
            <path d="M143.75,151.77 L154.06,151.77 L154.06,184.17 L143.75,184.17 L143.75,151.77 Z" id="Fill-667" fill="#FFFFFF"></path>
            <path d="M96.9,124.03 L161.91,124.03 L161.91,151.77 L96.9,151.77 L96.9,124.03 Z" id="Fill-668" fill="#B9DCEA"></path>
            <path d="M96.94,38.77 L112.32,38.77 L112.32,131.87 L96.94,131.87 L96.94,38.77 Z" id="Fill-669" fill="#1D2A4A"></path>
            <path d="M105.18,25.15 L105.18,41.36 C96.24,41.36 88.97,48.63 88.97,57.57 L72.76,57.57 C72.76,39.7 87.31,25.15 105.18,25.15" id="Fill-670" fill="#1D2A4A"></path>
            <path d="M72.76,57.57 L88.97,57.57 L88.97,85.94 L72.76,85.94 L72.76,57.57 Z" id="Fill-671" fill="#1D2A4A"></path>
            <path d="M105.18,25.15 L153.81,25.15 L153.81,89.99 L105.18,89.99 L105.18,25.15 Z" id="Fill-672" fill="#1D2A4A"></path>
            <path d="M122.38,22.68 L135.23,22.68 L135.23,25.15 L122.38,25.15 L122.38,22.68 Z" id="Fill-673" fill="#2D2E2B"></path>
            <path d="M96.94,29.29 L123.77,29.29 L123.77,2.47 L96.94,29.29" id="Fill-674" fill="#1D2A4A"></path>
            <path d="M135.23,2.47 L135.23,31.42 L164.18,31.42 L135.23,2.47" id="Fill-675" fill="#B9DCEA"></path>
            <path d="M132.75,22.68 L135.23,22.68 L135.23,25.15 L132.75,25.15 L132.75,22.68 Z" id="Fill-676" fill="#797469"></path>
            <path d="M121.39,8.2 L121.39,20.29 L126.25,25.15 L132.75,25.15 L137.6,20.31 L137.6,8.2 L121.39,8.2" id="Fill-677" fill="#FFFFFF"></path>
            <path d="M137.6,8.2 L137.6,16.3 L129.5,8.2" id="Fill-678" fill="#B9DCEA"></path>
            <path d="M105.18,85.13 L170.02,85.13 L170.02,115.92 L105.18,115.92 L105.18,85.13 Z" id="Fill-679" fill="#1D2A4A"></path>
            <path d="M105.18,89.99 L130.43,89.99 L130.43,131.87 L105.18,131.87 L105.18,89.99 Z" id="Fill-680" fill="#1D2A4A"></path>
            <path d="M137.61,89.99 L145.71,89.99 L145.71,88.37 L132.75,88.37 C130.95,88.37 129.5,86.92 129.5,85.13 L145.71,85.13 L145.71,83.51 L131.12,83.51 C129.33,83.51 127.88,82.05 127.88,80.26 L145.71,80.26 L145.71,78.64 L129.5,78.64 C129.5,76.85 130.95,75.4 132.75,75.4 L145.71,75.4 L145.71,73.78 L144.09,73.78 C142.3,73.78 140.85,72.33 140.85,70.54 L150.57,70.54 L153.81,73.78 L153.81,89.99 L145.98,93.23 L140.85,93.23 C139.06,93.23 137.61,91.78 137.61,89.99" id="Fill-681" fill="#FFFFFF"></path>
            <path d="M125.44,200.37 L125.44,184.17 L115.31,184.17 L115.31,184.24 L115.26,184.17 L111.91,192.27 L105.19,192.27 C100.71,192.27 97.08,195.9 97.08,200.37 L125.44,200.37" id="Fill-682" fill="#1D2A4A"></path>
            <path d="M153.8,200.37 L153.8,184.17 L143.68,184.17 L143.68,184.24 L143.62,184.17 L140.27,192.27 L133.55,192.27 C129.07,192.27 125.44,195.9 125.44,200.37 L153.8,200.37" id="Fill-683" fill="#1D2A4A"></path>
            <path d="M129.5,0.09 C125.02,0.09 121.39,3.72 121.39,8.2 L137.6,8.2 C137.6,3.72 133.97,0.09 129.5,0.09" id="Fill-684" fill="#B9DCEA"></path>
            <path d="M121.39,8.2 L129.5,8.2 L123.77,2.47 C122.3,3.93 121.39,5.96 121.39,8.2" id="Fill-685" fill="#1D2A4A"></path>
            <path d="M105.18,41.36 L129.5,65.68 L153.81,41.36 L105.18,41.36" id="Fill-686" fill="#B9DCEA"></path>
            <path d="M129.5,73.78 C122.78,73.78 117.34,68.34 117.34,61.62 L129.5,61.62 L129.5,73.78" id="Fill-687" fill="#B9DCEA"></path>
            <path d="M117.34,48.66 L129.5,48.66 L129.5,61.62 L117.34,61.62 L117.34,48.66 Z" id="Fill-688" fill="#B9DCEA"></path>
            <path d="M153.81,41.36 L170.02,41.36 L170.02,79.17 L153.81,79.17 L153.81,41.36 Z" id="Fill-689" fill="#1D2A4A"></path>
            <path d="M172.61,38.77 L153.81,38.77 L153.81,57.57 L172.61,38.77" id="Fill-690" fill="#1D2A4A"></path>
            <path d="M96.9,151.77 L161.91,151.77 L161.91,184.17 L96.9,184.17 L96.9,151.77 Z" id="Fill-691" fill="#B9DCEA"></path>
            <path d="M125.51,160.36 L125.51,131.87 L97.01,131.87 L125.51,160.36" id="Fill-692" fill="#1D2A4A"></path>
            <path d="M170.02,115.92 L125.58,115.92 L125.58,160.36 L170.02,115.92" id="Fill-693" fill="#1D2A4A"></path>
            <path d="M186.23,57.57 L170.02,57.57 C170.02,48.63 162.75,41.36 153.81,41.36 L153.81,25.15 C171.69,25.15 186.23,39.7 186.23,57.57" id="Fill-694" fill="#B9DCEA"></path>
            <path d="M153.81,89.99 L153.81,73.78 C162.75,73.78 170.02,66.51 170.02,57.57 L186.23,57.57 C186.23,75.45 171.68,89.99 153.81,89.99" id="Fill-695" fill="#B9DCEA"></path>
            <path d="M105.18,25.15 L153.81,25.15 L153.81,41.36 L105.18,41.36 L105.18,25.15 Z" id="Fill-696" fill="#B9DCEA"></path>
            <path d="M36.69,85.94 L36.69,102.08 L41.56,106.95 L48.06,106.95 L52.9,102.1 L52.9,85.94 L36.69,85.94" id="Fill-697" fill="#FFFFFF"></path>
            <path d="M44.8,89.99 L36.69,89.99 L36.69,81.89 L52.9,81.89 L52.9,98.09 L44.8,89.99" id="Fill-698" fill="#1D2A4A"></path>
            <path d="M63.03,200.37 L63.03,184.16 L52.9,184.16 L52.9,184.24 L52.85,184.16 L49.49,192.27 L48.85,192.27 C44.37,192.27 40.75,195.89 40.75,200.37 L63.03,200.37" id="Fill-699" fill="#1D2A4A"></path>
            <path d="M40.75,200.37 L40.75,184.16 L30.62,184.16 L30.62,184.24 L30.57,184.16 L27.21,192.27 L26.57,192.27 C22.09,192.27 18.47,195.89 18.47,200.37 L40.75,200.37" id="Fill-700" fill="#1D2A4A"></path>
            <path d="M26.56,106.95 L63.03,106.95 L63.03,147.69 L26.56,147.69 L26.56,106.95 Z" id="Fill-701" fill="#B9DCEA"></path>
            <path d="M26.56,147.69 L40.75,147.69 L40.75,184.16 L26.56,184.16 L26.56,147.69 Z" id="Fill-702" fill="#B9DCEA"></path>
            <path d="M48.85,147.69 L63.03,147.69 L63.03,184.16 L48.85,184.16 L48.85,147.69 Z" id="Fill-703" fill="#1D2A4A"></path>
            <path d="M26.56,147.69 L63.03,184.16 L63.03,147.69 L26.56,147.69" id="Fill-704" fill="#1D2A4A"></path>
            <path d="M26.58,106.95 L26.58,119.93 C19.42,119.93 13.6,125.75 13.6,132.9 L0.62,132.9 C0.62,118.59 12.26,106.95 26.58,106.95" id="Fill-705" fill="#1D2A4A"></path>
            <path d="M63.02,119.93 L63.02,106.95 C70.17,106.95 76,101.13 76,93.97 L88.97,93.97 C88.97,108.28 77.33,119.93 63.02,119.93" id="Fill-706" fill="#B9DCEA"></path>
            <path d="M88.97,102.14 L88.97,94.04 L87.35,94.04 L87.35,107 C87.35,108.79 85.9,110.25 84.11,110.25 L84.11,94.04 L82.49,94.04 L82.49,108.63 C82.49,110.42 81.04,111.87 79.25,111.87 L79.25,94.04 L77.63,94.04 L77.63,110.25 C75.84,110.25 74.38,108.79 74.38,107 L74.38,94.04 L72.76,94.04 L72.76,95.66 C72.76,97.45 71.31,98.9 69.52,98.9 L69.52,89.18 L72.76,85.94 L88.97,85.94 L92.21,93.77 L92.21,98.9 C92.21,100.69 90.76,102.14 88.97,102.14" id="Fill-707" fill="#FFFFFF"></path>
        </g>
    </g>
</svg>