<?xml version="1.0" encoding="utf-8"?>
<!-- Generator: Adobe Illustrator 17.0.0, SVG Export Plug-In . SVG Version: 6.00 Build 0)  -->
<!DOCTYPE svg PUBLIC "-//W3C//DTD SVG 1.1//EN" "http://www.w3.org/Graphics/SVG/1.1/DTD/svg11.dtd">
<svg version="1.1" id="Layer_1" xmlns="http://www.w3.org/2000/svg" xmlns:xlink="http://www.w3.org/1999/xlink" x="0px" y="0px"
	 width="650px" height="650px" viewBox="0 0 650 650" enable-background="new 0 0 650 650" xml:space="preserve">
<g>
	<path fill="#FFFFFF" d="M340.517,329.47l-170.258-70.554L0,329.47v170.333c94.072,0,170.333-76.261,170.333-170.333
		c0,94.072,76.261,170.333,170.333,170.333V329.47H340.517z"/>
	<path fill="#F1F1F1" d="M170.333,329.47c0,94.073,76.261,170.333,170.333,170.333V329.47H170.333z"/>
	<path fill="#0A3160" d="M170.333,329.47c0,94.069-76.256,170.328-170.324,170.333h340.657
		C246.594,499.803,170.333,423.542,170.333,329.47z"/>
</g>
<g>
	<path fill="#0A3160" d="M499.563,604.998v-38.077h-23.799v0.178l-0.123-0.178l0,0l-7.886,19.039h-15.789
		c-10.515,0-19.039,8.524-19.039,19.039h28.559h9.519h4.76h23.799h0L499.563,604.998z"/>
	<path fill="#0A3160" d="M566.201,604.998v-38.077h-23.799v0.178l-0.123-0.178l0,0l-7.886,19.039h-15.789
		c-10.515,0-19.039,8.524-19.039,19.039h28.559h9.519h4.76h23.799h0L566.201,604.998z"/>
	<path fill="#0A3160" d="M566.212,231.386l-57.127,57.127v19.043c-15.775,0-28.564-12.788-28.564-28.564V259.95l-28.563-28.563
		v-38.085h64.782l5.81-5.81v-20.567l-13.465-13.465l-13.465-13.465l-54.033,54.033c-37.11,5.076-65.801,36.964-65.801,75.446v60.755
		h38.086v-60.755c0-13.929,7.54-26.101,18.73-32.742v207.527h-0.095l67.057,67.056l104.733-104.734h0.001v-50.685v-25.667v-60.755
		C604.298,248.471,587.213,231.386,566.212,231.386z"/>
	<g>
		<polygon fill="#A0A0A0" points="499.564,511.313 432.507,444.256 432.507,490.811 432.507,566.922 585.255,566.922 
			585.255,490.811 585.255,425.622 585.254,425.622 		"/>
	</g>
	<g>
		<path fill="#FFFFFF" d="M490.042,153.458v0.037c0-0.012,0.002-0.024,0.002-0.037H490.042z"/>
		<polygon fill="#FFFFFF" points="509.047,153.458 509.083,153.495 490.042,153.495 490.042,181.875 501.468,193.301 
			516.74,193.301 528.128,181.913 528.128,181.875 528.128,153.458 		"/>
	</g>
	<path fill="#FFFFFF" d="M413.872,368.294v-7.617v-7.617v-3.809h-3.809v30.468c0,4.207-3.41,7.617-7.617,7.617v-7.617v-7.617
		v-22.851h-3.809v34.277c0,4.207-3.41,7.617-7.617,7.617v-7.617v-7.617v-26.66h-3.809v22.851v7.617v7.617
		c-4.207,0-7.617-3.41-7.617-7.617v-30.468h-3.809v3.809c0,4.207-3.41,7.617-7.617,7.617v-7.617v-7.617v-7.6l7.617-7.617h3.809
		h7.617h3.809h7.617h3.809h7.617h3.809l7.617,18.389v12.062C421.489,364.884,418.079,368.294,413.872,368.294z"/>
	<path fill="#A0A0A0" d="M642.383,269.471c0-38.481-28.69-70.37-65.8-75.446l-54.032-54.031c-3.446-3.447-8.207-5.578-13.466-5.578
		c-5.258,0-10.019,2.131-13.465,5.578l13.465,13.465l13.465,13.465v20.567l-5.81,5.81h-64.782v38.085l28.563,28.563v19.043
		c0,15.776,12.789,28.564,28.564,28.564v-19.043l57.127-57.127c21,0,38.086,17.085,38.086,38.085v60.755h38.086L642.383,269.471
		L642.383,269.471z"/>
	<path fill="#FFFFFF" d="M642.383,368.294v-7.617v-7.617v-3.809h-3.809v30.468c0,4.207-3.41,7.617-7.617,7.617v-7.617v-7.617
		v-22.851h-3.809v34.277c0,4.207-3.41,7.617-7.617,7.617v-7.617v-7.617v-26.66h-3.809v22.851v7.617v7.617
		c-4.207,0-7.617-3.41-7.617-7.617v-30.468h-3.809v3.809c0,4.207-3.41,7.617-7.617,7.617v-7.617v-7.617v-7.6l7.617-7.617h3.809
		h7.617h3.809h7.617h3.809h7.617h3.809L650,348.616v12.062C650,364.884,646.59,368.294,642.383,368.294z"/>
</g>
</svg>
