<?xml version="1.0" encoding="utf-8"?>
<!-- Generator: Adobe Illustrator 18.1.1, SVG Export Plug-In . SVG Version: 6.00 Build 0)  -->
<svg version="1.1" id="Layer_1" xmlns="http://www.w3.org/2000/svg" xmlns:xlink="http://www.w3.org/1999/xlink" x="0px" y="0px"
	 viewBox="0 0 650 650" enable-background="new 0 0 650 650" xml:space="preserve">
<polyline fill="#0A3160" points="209.363,154.642 31.841,332.173 386.894,332.173 209.363,154.642 "/>
<path fill="#FFFFFF" d="M386.737,154.642L209.285,81.107L31.832,154.642v177.532c98.048,0,177.531-79.483,177.531-177.532
	c0,44.416,177.531,177.531,177.531,177.531l-40-93.173l40-84.358H386.737z"/>
<path fill="#EEEEEE" d="M209.363,154.642c0,98.049,79.482,177.531,177.531,177.531V154.642H209.363z"/>
<path fill="#0A3160" d="M610.534,307.349V192.792l-38.163-38.162h-64.906l-11.453-39.942h-0.001v-0.001l-40,40
	c0.604-0.028-36.343,38.118-36.343,38.118v336.195h61.904l74.481-54.482l54.482-74.483v-92.688H610.534z"/>
<path fill="#0A3160" d="M481.705,529L481.705,529l-7.904,19.082h-15.949c-10.538,0-19.081,8.543-19.081,19.081h66.785V529l-9.224-7
	L481.705,529z"/>
<path fill="#0A3160" d="M548.49,529L548.49,529l-7.903,19.082h-15.949c-10.538,0-19.081,8.543-19.081,19.081h66.785V529l-13.008-10
	L548.49,529z"/>
<polygon fill="#FFFFFF" points="496.012,114.688 496.012,143.177 507.465,154.63 539.833,154.63 539.833,107.167 "/>
<path fill="#A0A0A0" d="M610.535,192.792c0-21.076-17.088-38.162-38.164-38.162v38.154h-0.003v-0.002
	c-0.002,21.075-17.087,38.166-38.167,38.166h38.167c21.076,0,38.16-17.084,38.165-38.156H610.535z"/>
<path fill="#FFFFFF" d="M610.534,345.493v-7.631v-7.633v-3.816h-3.815v30.529c0,4.215-3.417,7.632-7.632,7.632v-7.632v-7.633
	v-22.896h-3.817v34.346c0,4.215-3.417,7.632-7.632,7.632v-7.632v-7.633v-26.713h-3.817v22.896v7.633v7.632
	c-4.215,0-7.632-3.417-7.632-7.632v-30.529h-3.815v3.816c0,4.214-3.417,7.633-7.634,7.633v-7.633v-7.633v-7.615l7.634-7.633h3.815
	h7.632h3.817h7.632h3.817h7.632h3.815l7.634,18.427v12.087C618.168,342.076,614.751,345.493,610.534,345.493"/>
<polygon fill="#A0A0A0" points="610.536,400.036 610.536,529.001 481.571,529.001 "/>
<path fill="#A0A0A0" d="M534.192,95.599h-19.091c-10.543,0-19.09,8.547-19.09,19.09h19.09h0.001l19.09,19.09v0.049
	c-0.096,11.503-9.441,20.803-20.968,20.803h-55.393v0.012c-21.075,0-38.161,17.088-38.163,38.163h-0.001
	c0,21.076,17.088,38.161,38.163,38.162v0.692c0.001-21.449,17.392-38.844,38.845-38.844l37.516-0.023l0.008,0.023
	c21.081,0,38.171-17.092,38.171-38.174h0.001v-20.863L534.192,95.599z"/>
<polygon fill="#EEEEEE" points="95.636,524.223 74.165,545.694 132.667,554.667 231.611,545.694 246.667,524.223 "/>
<polygon fill="#A0A0A0" points="95.636,545.693 95.636,545.694 74.165,545.694 95.636,567.164 95.636,567.163 210.139,567.163 
	244.87,545.693 "/>
<polygon fill="#EEEEEE" points="95.636,481.282 74.165,502.752 155.667,510 231.611,502.752 249.667,481.282 "/>
<polygon fill="#A0A0A0" points="95.636,502.751 95.636,502.752 74.165,502.752 95.636,524.223 95.636,524.222 231.611,524.222 
	249.667,502.751 "/>
<polygon fill="#FFFFFF" points="364.647,545.695 364.647,519.023 336.148,460.524 272.947,427.27 260,392 231.61,385.986 
	231.61,545.694 210.139,567.164 231.61,567.164 231.61,567.163 364.646,567.163 364.647,567.163 386.117,567.163 "/>
<polygon fill="#EEEEEE" points="364.646,364.516 231.61,364.516 210.139,364.516 231.61,385.986 272.947,427.27 289.145,469 
	323.059,477.436 364.646,519.023 364.646,385.986 386.117,364.516 "/>
<polygon fill="#A0A0A0" points="323.062,414.74 306.863,430.938 306.863,400.691 289.145,418.411 289.145,443.468 272.947,427.27 
	272.947,452.326 272.947,452.326 272.947,477.385 272.947,477.385 272.947,502.441 298.005,527.5 298.005,514.971 323.062,489.912 
	323.062,464.855 323.062,464.855 323.062,439.799 323.062,439.797 "/>
<polygon fill="#0A3160" points="306.863,400.691 289.145,418.411 289.145,443.468 323.062,477.438 323.062,464.855 323.062,464.855 
	323.062,439.799 323.062,439.797 323.062,414.74 306.863,430.938 "/>
</svg>
