<?xml version="1.0" encoding="utf-8"?>
<!-- Generator: Adobe Illustrator 17.0.0, SVG Export Plug-In . SVG Version: 6.00 Build 0)  -->
<!DOCTYPE svg PUBLIC "-//W3C//DTD SVG 1.1//EN" "http://www.w3.org/Graphics/SVG/1.1/DTD/svg11.dtd">
<svg version="1.1" id="Layer_1" xmlns="http://www.w3.org/2000/svg" xmlns:xlink="http://www.w3.org/1999/xlink" x="0px" y="0px"
	 width="650px" height="650px" viewBox="0 0 650 650" enable-background="new 0 0 650 650" xml:space="preserve">
<polygon fill="#A0A0A0" points="448.371,286.55 448.371,286.55 138.863,286.55 138.863,373.519 448.371,373.519 448.371,373.519 
	534.476,356.392 534.476,303.677 "/>
<polygon fill="#FFFFFF" points="277.815,322.831 241.533,322.831 241.533,286.55 "/>
<polygon fill="#FFFFFF" points="448.765,322.831 412.484,322.831 412.484,286.55 "/>
<polygon fill="#FFFFFF" points="534.476,303.677 534.476,330.035 534.476,356.392 598.108,330.035 "/>
<polygon fill="#333333" points="138.863,337.237 138.863,286.55 94.126,286.55 51.894,269.057 51.894,286.55 51.894,337.237 
	51.892,337.237 51.892,373.518 51.894,373.518 51.894,373.519 51.894,391.353 94.947,373.519 138.863,373.519 138.863,373.518 
	241.533,373.518 241.533,337.238 241.533,337.237 "/>
<polygon fill="#333333" points="277.815,337.238 259.674,355.378 241.534,373.518 412.484,373.518 412.484,337.238 "/>
<polygon fill="#333333" points="448.766,337.238 448.766,337.238 412.484,373.519 448.766,373.519 448.766,373.441 456.823,371.838 
	491.423,337.238 "/>
</svg>
