<?xml version="1.0" encoding="utf-8"?>
<!-- Generator: Adobe Illustrator 18.1.1, SVG Export Plug-In . SVG Version: 6.00 Build 0)  -->
<svg version="1.1" id="Layer_1" xmlns="http://www.w3.org/2000/svg" xmlns:xlink="http://www.w3.org/1999/xlink" x="0px" y="0px"
	 viewBox="0 0 650 650" enable-background="new 0 0 650 650" xml:space="preserve">
<circle fill="#FFFFFF" cx="325" cy="325.183" r="223.112"/>
<path fill="#0A3160" d="M325,90C195.112,90,89.817,195.295,89.817,325.183S195.112,560.365,325,560.365
	s235.183-105.295,235.183-235.183S454.888,90,325,90z M324.719,537.67c-117.354-0.155-212.362-95.414-212.207-212.768
	c0.155-117.354,95.415-212.362,212.768-212.207c117.354,0.155,212.362,95.414,212.207,212.768
	C537.333,442.817,442.073,537.825,324.719,537.67z"/>
<path fill="#A0A0A0" d="M409.951,500.191l-0.089-0.037c15.609-8.304,22.702-26.348,17.772-42.653
	c-2.744-6.624-10.339-9.77-16.963-7.026c-15.609,8.304-22.702,26.348-17.772,42.653l0.089,0.037
	C395.732,499.79,403.326,502.935,409.951,500.191z"/>
<path fill="#A0A0A0" d="M354.253,489.459l0.037,0.089c-16.908-5.165-34.684,2.579-42.727,17.594
	c-2.744,6.624,0.402,14.219,7.026,16.963c16.908,5.165,34.683-2.579,42.727-17.594l-0.037-0.089
	C364.023,499.797,360.878,492.203,354.253,489.459z"/>
<path fill="#A0A0A0" d="M298.191,502.475l-0.037,0.089c-8.304-15.609-26.348-22.702-42.653-17.772
	c-6.624,2.744-9.77,10.339-7.026,16.963c8.304,15.609,26.348,22.702,42.653,17.772l0.037-0.089
	C297.79,516.694,300.935,509.1,298.191,502.475z"/>
<path fill="#A0A0A0" d="M422.736,420.485l0.08-0.054c-1.767,17.591,9.295,33.514,25.591,38.473
	c7.032,1.399,13.867-3.168,15.266-10.201c1.767-17.591-9.295-33.514-25.591-38.473l-0.08,0.054
	C430.97,408.886,424.135,413.453,422.736,420.485z"/>
<path fill="#A0A0A0" d="M350.535,480.057l-0.054-0.08c17.591,1.767,33.514-9.295,38.473-25.591
	c1.399-7.032-3.168-13.867-10.201-15.266c-17.591-1.767-33.514,9.295-38.473,25.591l0.054,0.08
	C338.936,471.823,343.503,478.658,350.535,480.057z"/>
<path fill="#A0A0A0" d="M319.874,439.89l0.068,0.068c-17.598,1.698-31.057,15.655-32.741,32.605c0,7.17,5.813,12.983,12.983,12.983
	c17.598-1.698,31.057-15.655,32.741-32.605l-0.068-0.068C332.857,445.703,327.045,439.89,319.874,439.89z"/>
<path fill="#A0A0A0" d="M253.768,475.333l-0.068-0.068c17.598-1.698,31.057-15.655,32.741-32.605c0-7.17-5.813-12.983-12.983-12.983
	c-17.598,1.698-31.057,15.655-32.742,32.605l0.068,0.068C240.786,469.521,246.598,475.333,253.768,475.333z"/>
<path fill="#A0A0A0" d="M208.626,469.594l-0.089-0.037c15.609-8.304,22.702-26.348,17.772-42.653
	c-2.744-6.624-10.339-9.77-16.963-7.026c-15.609,8.304-22.702,26.348-17.772,42.653l0.089,0.037
	C194.407,469.192,202.002,472.338,208.626,469.594z"/>
<path fill="#A0A0A0" d="M479.372,371.07l0.089,0.037c-15.609,8.304-22.702,26.348-17.772,42.653
	c2.744,6.624,10.339,9.77,16.963,7.026c15.609-8.304,22.702-26.348,17.772-42.653l-0.089-0.037
	C493.591,371.472,485.996,368.326,479.372,371.07z"/>
<path fill="#A0A0A0" d="M446.678,367.023l0.037,0.089c-16.908-5.165-34.684,2.579-42.727,17.594
	c-2.744,6.624,0.402,14.219,7.026,16.963c16.908,5.165,34.683-2.579,42.727-17.594l-0.037-0.089
	C456.448,377.361,453.303,369.767,446.678,367.023z"/>
<path fill="#A0A0A0" d="M399.464,404.45v0.096c-13.645-11.243-33.03-10.891-46.207-0.096c-5.07,5.07-5.07,13.29,0,18.361
	c13.645,11.243,33.03,10.89,46.207,0.096v-0.096C404.534,417.74,404.534,409.52,399.464,404.45z"/>
<path fill="#A0A0A0" d="M296.699,431.961l-0.037-0.089c16.908,5.165,34.684-2.579,42.727-17.594
	c2.744-6.624-0.402-14.219-7.026-16.963c-16.908-5.165-34.684,2.579-42.727,17.594l0.037,0.089
	C286.929,421.623,290.075,429.217,296.699,431.961z"/>
<path fill="#A0A0A0" d="M240.039,420.508l-0.054-0.08c17.591,1.767,33.514-9.295,38.473-25.591
	c1.399-7.032-3.168-13.867-10.201-15.266c-17.591-1.767-33.514,9.295-38.473,25.591l0.054,0.08
	C228.44,412.274,233.007,419.109,240.039,420.508z"/>
<path fill="#A0A0A0" d="M154.421,416.884v-0.096c13.645,11.243,33.03,10.89,46.207,0.096c5.07-5.07,5.07-13.29,0-18.361
	c-13.645-11.243-33.03-10.891-46.207-0.096v0.096C149.351,403.594,149.351,411.814,154.421,416.884z"/>
<path fill="#A0A0A0" d="M518.498,353.667l-0.089,0.037c5.165-16.908-2.579-34.684-17.594-42.727
	c-6.624-2.744-14.219,0.402-16.963,7.026c-5.165,16.908,2.579,34.684,17.594,42.727l0.089-0.037
	C508.16,363.437,515.754,360.291,518.498,353.667z"/>
<path fill="#A0A0A0" d="M440.403,318.533l0.089-0.037c-5.165,16.908,2.579,34.684,17.594,42.727
	c6.624,2.744,14.219-0.402,16.963-7.026c5.165-16.908-2.579-34.684-17.594-42.727l-0.089,0.037
	C450.741,308.763,443.147,311.909,440.403,318.533z"/>
<path fill="#A0A0A0" d="M380.261,363.875l-0.019-0.095c15.576,8.365,34.52,4.237,45.338-8.92c3.984-5.962,2.38-14.024-3.582-18.008
	c-15.576-8.365-34.52-4.237-45.338,8.92l0.019,0.095C372.696,351.829,374.3,359.891,380.261,363.875z"/>
<path fill="#A0A0A0" d="M367.571,378.271l-0.08,0.054c1.767-17.591-9.295-33.514-25.591-38.473
	c-7.032-1.399-13.867,3.168-15.266,10.201c-1.767,17.591,9.295,33.514,25.591,38.473l0.08-0.054
	C359.337,389.87,366.172,385.303,367.571,378.271z"/>
<path fill="#A0A0A0" d="M293.748,338.499l0.095,0.019c-13.689,11.189-17.125,30.271-9.109,45.3
	c3.984,5.962,12.046,7.565,18.008,3.582c13.689-11.189,17.125-30.271,9.109-45.3l-0.095-0.019
	C307.772,336.119,299.71,334.515,293.748,338.499z"/>
<path fill="#A0A0A0" d="M223.499,340.655l0.089,0.037c-15.609,8.304-22.702,26.348-17.772,42.653
	c2.744,6.624,10.339,9.77,16.963,7.026c15.609-8.304,22.702-26.348,17.772-42.653l-0.089-0.037
	C237.718,341.057,230.124,337.911,223.499,340.655z"/>
<path fill="#A0A0A0" d="M186.444,341.176l0.054,0.08c-17.591-1.767-33.514,9.295-38.473,25.591
	c-1.399,7.032,3.168,13.867,10.201,15.266c17.591,1.767,33.514-9.295,38.473-25.591l-0.054-0.08
	C198.043,349.409,193.476,342.574,186.444,341.176z"/>
<path fill="#A0A0A0" d="M180.647,319.145l-0.037,0.089c-8.304-15.609-26.348-22.702-42.653-17.772
	c-6.624,2.744-9.77,10.339-7.026,16.963c8.304,15.609,26.348,22.702,42.653,17.772l0.037-0.089
	C180.245,333.364,183.391,325.77,180.647,319.145z"/>
<path fill="#A0A0A0" d="M504.087,275.373v0.096c-13.645-11.243-33.03-10.89-46.207-0.096c-5.07,5.07-5.07,13.29,0,18.361
	c13.645,11.243,33.03,10.891,46.207,0.096v-0.096C509.157,288.663,509.157,280.443,504.087,275.373z"/>
<path fill="#A0A0A0" d="M422.203,273.412l0.089,0.037c-15.609,8.304-22.702,26.348-17.772,42.653
	c2.744,6.624,10.339,9.77,16.963,7.026c15.609-8.304,22.702-26.348,17.772-42.653l-0.089-0.037
	C436.422,273.814,428.827,270.668,422.203,273.412z"/>
<path fill="#A0A0A0" d="M380.442,291.394l0.068,0.068c-17.598,1.698-31.057,15.655-32.741,32.605c0,7.17,5.813,12.983,12.983,12.983
	c17.598-1.698,31.057-15.655,32.741-32.605l-0.068-0.068C393.424,297.207,387.612,291.394,380.442,291.394z"/>
<path fill="#A0A0A0" d="M297.136,320.641l-0.019-0.095c15.576,8.365,34.52,4.237,45.338-8.92c3.984-5.962,2.38-14.024-3.582-18.008
	c-15.576-8.365-34.52-4.237-45.338,8.92l0.019,0.095C289.571,308.595,291.174,316.658,297.136,320.641z"/>
<path fill="#A0A0A0" d="M253.29,305.071h0.096c-11.243,13.645-10.89,33.03-0.096,46.207c5.07,5.07,13.29,5.07,18.361,0
	c11.243-13.645,10.89-33.03,0.096-46.207h-0.096C266.581,300.001,258.361,300.001,253.29,305.071z"/>
<path fill="#A0A0A0" d="M217.825,284.213l0.089,0.037c-15.609,8.304-22.702,26.348-17.772,42.653
	c2.744,6.624,10.339,9.77,16.963,7.026c15.609-8.304,22.702-26.348,17.772-42.653l-0.089-0.037
	C232.044,284.615,224.449,281.47,217.825,284.213z"/>
<path fill="#A0A0A0" d="M194.533,253.458l0.068,0.068c-17.598,1.698-31.057,15.655-32.742,32.605c0,7.17,5.813,12.983,12.983,12.983
	c17.598-1.698,31.057-15.655,32.741-32.605l-0.068-0.068C207.516,259.271,201.703,253.458,194.533,253.458z"/>
<path fill="#A0A0A0" d="M479.942,214.61l0.068,0.068c-17.598,1.698-31.057,15.655-32.741,32.605c0,7.17,5.813,12.983,12.983,12.983
	c17.598-1.698,31.057-15.655,32.741-32.605l-0.068-0.068C492.925,220.423,487.112,214.61,479.942,214.61z"/>
<path fill="#A0A0A0" d="M409.249,216.744h0.096c-11.243,13.645-10.89,33.03-0.096,46.207c5.07,5.07,13.29,5.07,18.361,0
	c11.243-13.645,10.89-33.03,0.096-46.207h-0.096C422.539,211.674,414.319,211.674,409.249,216.744z"/>
<path fill="#A0A0A0" d="M383.077,249.615l0.037,0.089c-16.908-5.165-34.683,2.579-42.727,17.594
	c-2.744,6.624,0.402,14.219,7.026,16.963c16.908,5.165,34.684-2.579,42.727-17.594l-0.037-0.089
	C392.847,259.953,389.701,252.359,383.077,249.615z"/>
<path fill="#A0A0A0" d="M293.265,268.633v0.096c-13.645-11.243-33.03-10.89-46.207-0.096c-5.07,5.07-5.07,13.29,0,18.361
	c13.645,11.243,33.03,10.891,46.207,0.096v-0.096C298.335,281.923,298.335,273.703,293.265,268.633z"/>
<path fill="#A0A0A0" d="M246.976,251.04l-0.068,0.068c-1.698-17.598-15.655-31.057-32.605-32.741
	c-7.17,0-12.983,5.813-12.983,12.983c1.698,17.598,15.655,31.057,32.605,32.742l0.068-0.068
	C241.163,264.023,246.976,258.21,246.976,251.04z"/>
<path fill="#A0A0A0" d="M158.837,257.836l-0.068-0.068c17.598-1.698,31.057-15.655,32.742-32.605c0-7.17-5.813-12.983-12.983-12.983
	c-17.598,1.698-31.057,15.655-32.741,32.605l0.068,0.068C145.854,252.024,151.666,257.836,158.837,257.836z"/>
<path fill="#A0A0A0" d="M415.462,192.386l0.037-0.089c8.304,15.609,26.348,22.702,42.653,17.772
	c6.624-2.744,9.77-10.339,7.026-16.963c-8.304-15.609-26.348-22.702-42.653-17.772l-0.037,0.089
	C415.864,178.167,412.719,185.761,415.462,192.386z"/>
<path fill="#A0A0A0" d="M387.758,201.944l0.037,0.089c-16.908-5.165-34.684,2.579-42.727,17.594
	c-2.744,6.624,0.402,14.219,7.026,16.963c16.908,5.165,34.683-2.579,42.727-17.594l-0.037-0.089
	C397.528,212.283,394.383,204.688,387.758,201.944z"/>
<path fill="#A0A0A0" d="M327.242,273.637h-0.096c11.243-13.645,10.89-33.03,0.096-46.207c-5.07-5.07-13.29-5.07-18.361,0
	c-11.243,13.645-10.89,33.03-0.096,46.207h0.096C313.952,278.707,322.172,278.707,327.242,273.637z"/>
<path fill="#A0A0A0" d="M266.101,250.497l-0.068-0.068c17.598-1.698,31.057-15.655,32.741-32.605c0-7.17-5.813-12.983-12.983-12.983
	c-17.598,1.698-31.057,15.655-32.741,32.605l0.068,0.068C253.118,244.684,258.93,250.497,266.101,250.497z"/>
<path fill="#A0A0A0" d="M251.993,201.51l-0.068,0.068c-1.698-17.598-15.655-31.057-32.605-32.741
	c-7.17,0-12.983,5.813-12.983,12.983c1.698,17.598,15.655,31.057,32.605,32.741l0.068-0.068
	C246.18,214.493,251.993,208.68,251.993,201.51z"/>
<path fill="#A0A0A0" d="M369.731,144.154l0.089-0.037c-5.165,16.908,2.579,34.684,17.594,42.727
	c6.624,2.744,14.219-0.402,16.963-7.026c5.165-16.908-2.579-34.683-17.594-42.727l-0.089,0.037
	C380.069,134.384,372.475,137.53,369.731,144.154z"/>
<path fill="#A0A0A0" d="M329.685,210.698l-0.068-0.068c17.598-1.698,31.057-15.655,32.741-32.605c0-7.17-5.813-12.983-12.983-12.983
	c-17.598,1.698-31.057,15.655-32.741,32.605l0.068,0.068C316.702,204.885,322.515,210.698,329.685,210.698z"/>
<path fill="#A0A0A0" d="M253.463,176.886l0.037-0.089c8.304,15.609,26.348,22.702,42.653,17.772
	c6.624-2.744,9.77-10.339,7.026-16.963c-8.304-15.609-26.348-22.702-42.653-17.772l-0.037,0.089
	C253.865,162.667,250.719,170.262,253.463,176.886z"/>
<path fill="#A0A0A0" d="M337.6,126.205l0.037,0.089c-16.908-5.165-34.684,2.579-42.727,17.594
	c-2.744,6.624,0.402,14.219,7.026,16.963c16.908,5.165,34.684-2.579,42.727-17.594l-0.037-0.089
	C347.37,136.544,344.225,128.949,337.6,126.205z"/>
</svg>
