<?xml version="1.0" encoding="utf-8"?>
<!-- Generator: Adobe Illustrator 17.0.0, SVG Export Plug-In . SVG Version: 6.00 Build 0)  -->
<!DOCTYPE svg PUBLIC "-//W3C//DTD SVG 1.1//EN" "http://www.w3.org/Graphics/SVG/1.1/DTD/svg11.dtd">
<svg version="1.1" id="Layer_1" xmlns="http://www.w3.org/2000/svg" xmlns:xlink="http://www.w3.org/1999/xlink" x="0px" y="0px"
	 width="650px" height="650px" viewBox="0 0 650 650" enable-background="new 0 0 650 650" xml:space="preserve">
<circle fill="#FFFFFF" cx="325" cy="323.779" r="190.965"/>
<path fill="#333333" d="M325,112.417c-116.732,0-211.362,94.63-211.362,211.362c0,116.732,94.63,211.362,211.362,211.362
	s211.362-94.63,211.362-211.362C536.362,207.047,441.732,112.417,325,112.417z M324.748,514.744
	c-105.467-0.139-190.853-85.75-190.713-191.217c0.139-105.467,85.75-190.852,191.218-190.713
	c105.467,0.139,190.853,85.75,190.713,191.217C515.826,429.498,430.215,514.884,324.748,514.744z"/>
<path fill="#A0A0A0" d="M401.346,481.061l-0.08-0.033c14.028-7.463,20.402-23.68,15.972-38.333
	c-2.466-5.953-9.291-8.781-15.245-6.315c-14.028,7.462-20.402,23.68-15.972,38.333l0.08,0.033
	C388.568,480.7,395.393,483.527,401.346,481.061z"/>
<path fill="#A0A0A0" d="M351.29,471.416l0.033,0.08c-15.196-4.642-31.171,2.317-38.399,15.812
	c-2.466,5.953,0.361,12.779,6.315,15.245c15.196,4.642,31.171-2.317,38.399-15.812l-0.033-0.08
	C360.071,480.707,357.244,473.882,351.29,471.416z"/>
<path fill="#A0A0A0" d="M300.907,483.114l-0.033,0.08c-7.462-14.028-23.68-20.402-38.333-15.972
	c-5.953,2.466-8.781,9.291-6.315,15.245c7.462,14.028,23.68,20.402,38.333,15.972l0.033-0.08
	C300.546,495.893,303.373,489.067,300.907,483.114z"/>
<path fill="#A0A0A0" d="M412.837,409.429l0.072-0.048c-1.588,15.809,8.354,30.119,22.999,34.576
	c6.32,1.257,12.463-2.847,13.72-9.167c1.588-15.809-8.354-30.119-22.999-34.576l-0.072,0.048
	C420.237,399.004,414.094,403.108,412.837,409.429z"/>
<path fill="#A0A0A0" d="M347.949,462.966l-0.048-0.072c15.809,1.588,30.119-8.354,34.576-22.999
	c1.257-6.32-2.847-12.463-9.167-13.72c-15.809-1.588-30.119,8.354-34.576,22.999l0.048,0.072
	C337.524,455.566,341.629,461.709,347.949,462.966z"/>
<path fill="#A0A0A0" d="M320.394,426.868l0.061,0.061c-15.816,1.526-27.911,14.069-29.425,29.303
	c0,6.444,5.224,11.668,11.668,11.668c15.816-1.526,27.911-14.069,29.425-29.303l-0.061-0.061
	C332.061,432.092,326.837,426.868,320.394,426.868z"/>
<path fill="#A0A0A0" d="M260.983,458.721l-0.061-0.061c15.816-1.526,27.911-14.069,29.425-29.303
	c0-6.444-5.224-11.668-11.668-11.668c-15.816,1.526-27.911,14.069-29.425,29.303l0.061,0.061
	C249.316,453.497,254.539,458.721,260.983,458.721z"/>
<path fill="#A0A0A0" d="M220.413,453.563l-0.08-0.033c14.028-7.462,20.402-23.68,15.972-38.333
	c-2.466-5.953-9.291-8.781-15.245-6.315c-14.028,7.462-20.402,23.68-15.972,38.333l0.08,0.033
	C207.635,453.202,214.46,456.029,220.413,453.563z"/>
<path fill="#A0A0A0" d="M463.736,365.018l0.08,0.033c-14.028,7.463-20.402,23.68-15.972,38.333
	c2.466,5.953,9.291,8.781,15.245,6.315c14.028-7.462,20.402-23.68,15.972-38.333l-0.08-0.033
	C476.514,365.379,469.689,362.552,463.736,365.018z"/>
<path fill="#A0A0A0" d="M434.354,361.381l0.033,0.08c-15.196-4.642-31.171,2.317-38.399,15.812
	c-2.466,5.953,0.361,12.779,6.315,15.245c15.196,4.642,31.171-2.317,38.399-15.812l-0.033-0.08
	C443.134,370.672,440.307,363.847,434.354,361.381z"/>
<path fill="#A0A0A0" d="M391.922,395.017v0.087c-12.263-10.104-29.685-9.787-41.527-0.087c-4.557,4.557-4.557,11.944,0,16.501
	c12.263,10.104,29.685,9.787,41.527,0.087v-0.087C396.478,406.962,396.478,399.574,391.922,395.017z"/>
<path fill="#A0A0A0" d="M299.566,419.742l-0.033-0.08c15.196,4.642,31.171-2.317,38.399-15.812
	c2.466-5.953-0.361-12.779-6.315-15.245c-15.196-4.642-31.171,2.317-38.399,15.812l0.033,0.08
	C290.785,410.451,293.612,417.276,299.566,419.742z"/>
<path fill="#A0A0A0" d="M248.644,409.449l-0.048-0.072c15.809,1.588,30.119-8.354,34.576-22.999
	c1.257-6.32-2.847-12.463-9.167-13.72c-15.809-1.588-30.119,8.354-34.576,22.999l0.048,0.072
	C238.22,402.049,242.324,408.191,248.644,409.449z"/>
<path fill="#A0A0A0" d="M171.699,406.192v-0.087c12.263,10.104,29.685,9.787,41.527,0.087c4.557-4.557,4.557-11.944,0-16.501
	c-12.263-10.104-29.685-9.787-41.527-0.087v0.087C167.142,394.248,167.142,401.635,171.699,406.192z"/>
<path fill="#A0A0A0" d="M498.899,349.378l-0.08,0.033c4.642-15.196-2.317-31.17-15.812-38.399
	c-5.953-2.466-12.779,0.361-15.245,6.315c-4.642,15.196,2.317,31.171,15.812,38.399l0.08-0.033
	C489.608,358.158,496.433,355.331,498.899,349.378z"/>
<path fill="#A0A0A0" d="M428.714,317.803l0.08-0.033c-4.642,15.196,2.317,31.171,15.812,38.399
	c5.953,2.466,12.779-0.361,15.245-6.315c4.642-15.196-2.317-31.171-15.812-38.399l-0.08,0.033
	C438.005,309.022,431.18,311.85,428.714,317.803z"/>
<path fill="#A0A0A0" d="M374.664,358.552l-0.017-0.085c13.998,7.518,31.024,3.808,40.746-8.017
	c3.58-5.358,2.139-12.604-3.219-16.184c-13.998-7.518-31.024-3.808-40.746,8.017l0.017,0.085
	C367.865,347.726,369.306,354.972,374.664,358.552z"/>
<path fill="#A0A0A0" d="M363.259,371.49l-0.072,0.048c1.588-15.809-8.354-30.119-22.999-34.576
	c-6.32-1.257-12.463,2.847-13.72,9.167c-1.588,15.809,8.354,30.119,22.999,34.576l0.072-0.048
	C355.859,381.914,362.002,377.81,363.259,371.49z"/>
<path fill="#A0A0A0" d="M296.914,335.746l0.085,0.017c-12.302,10.056-15.391,27.205-8.186,40.712
	c3.58,5.358,10.826,6.799,16.184,3.219c12.302-10.056,15.391-27.205,8.186-40.712l-0.085-0.017
	C309.517,333.608,302.272,332.166,296.914,335.746z"/>
<path fill="#A0A0A0" d="M233.78,337.684l0.08,0.033c-14.028,7.462-20.402,23.68-15.972,38.333c2.466,5.953,9.291,8.781,15.245,6.315
	c14.028-7.463,20.402-23.68,15.972-38.333l-0.08-0.033C246.559,338.045,239.734,335.218,233.78,337.684z"/>
<path fill="#A0A0A0" d="M200.478,338.152l0.048,0.072c-15.809-1.588-30.119,8.354-34.576,22.999
	c-1.257,6.32,2.847,12.463,9.167,13.72c15.809,1.588,30.119-8.354,34.576-22.999l-0.048-0.072
	C210.902,345.552,206.798,339.409,200.478,338.152z"/>
<path fill="#A0A0A0" d="M195.268,318.353l-0.033,0.08c-7.462-14.028-23.68-20.402-38.333-15.972
	c-5.953,2.466-8.781,9.291-6.315,15.245c7.462,14.028,23.68,20.402,38.333,15.972l0.033-0.08
	C194.907,331.132,197.734,324.306,195.268,318.353z"/>
<path fill="#A0A0A0" d="M485.948,279.014v0.087c-12.263-10.104-29.685-9.787-41.527-0.087c-4.557,4.557-4.557,11.944,0,16.501
	c12.263,10.104,29.685,9.787,41.527,0.087v-0.087C490.504,290.958,490.504,283.571,485.948,279.014z"/>
<path fill="#A0A0A0" d="M412.357,277.252l0.08,0.033c-14.028,7.462-20.402,23.68-15.972,38.333
	c2.466,5.953,9.291,8.781,15.245,6.315c14.028-7.462,20.402-23.68,15.972-38.333l-0.08-0.033
	C425.136,277.613,418.311,274.786,412.357,277.252z"/>
<path fill="#A0A0A0" d="M374.826,293.413l0.061,0.061c-15.816,1.526-27.911,14.069-29.425,29.303
	c0,6.444,5.224,11.668,11.668,11.668c15.816-1.526,27.911-14.069,29.425-29.303l-0.061-0.061
	C386.494,298.636,381.27,293.413,374.826,293.413z"/>
<path fill="#A0A0A0" d="M299.958,319.697l-0.017-0.085c13.998,7.518,31.024,3.808,40.746-8.017
	c3.58-5.358,2.139-12.604-3.219-16.184c-13.998-7.518-31.024-3.808-40.746,8.017l0.017,0.085
	C293.159,308.872,294.6,316.117,299.958,319.697z"/>
<path fill="#A0A0A0" d="M260.554,305.705h0.087c-10.104,12.263-9.787,29.685-0.087,41.527c4.557,4.557,11.944,4.557,16.501,0
	c10.104-12.263,9.787-29.685,0.087-41.527h-0.087C272.498,301.148,265.11,301.148,260.554,305.705z"/>
<path fill="#A0A0A0" d="M228.68,286.959l0.08,0.033c-14.028,7.462-20.402,23.68-15.972,38.333c2.466,5.953,9.291,8.781,15.245,6.315
	c14.028-7.462,20.402-23.68,15.972-38.333l-0.08-0.033C241.459,287.32,234.634,284.493,228.68,286.959z"/>
<path fill="#A0A0A0" d="M207.748,259.319l0.061,0.061c-15.816,1.526-27.911,14.069-29.425,29.303
	c0,6.444,5.224,11.668,11.668,11.668c15.816-1.526,27.911-14.069,29.425-29.303l-0.061-0.061
	C219.415,264.543,214.191,259.319,207.748,259.319z"/>
<path fill="#A0A0A0" d="M464.248,224.406l0.061,0.061c-15.816,1.526-27.911,14.069-29.425,29.303
	c0,6.444,5.224,11.668,11.668,11.668c15.816-1.526,27.911-14.069,29.425-29.303l-0.061-0.061
	C475.916,229.63,470.692,224.406,464.248,224.406z"/>
<path fill="#A0A0A0" d="M400.715,226.323h0.087c-10.104,12.263-9.787,29.685-0.087,41.527c4.557,4.557,11.944,4.557,16.501,0
	c10.104-12.263,9.787-29.685,0.087-41.527h-0.087C412.66,221.767,405.272,221.767,400.715,226.323z"/>
<path fill="#A0A0A0" d="M377.194,255.865l0.033,0.08c-15.196-4.642-31.17,2.317-38.399,15.812
	c-2.466,5.953,0.361,12.779,6.315,15.245c15.196,4.642,31.171-2.317,38.399-15.812l-0.033-0.08
	C385.975,265.156,383.148,258.331,377.194,255.865z"/>
<path fill="#A0A0A0" d="M296.479,272.957v0.087c-12.263-10.104-29.685-9.787-41.527-0.087c-4.557,4.557-4.557,11.944,0,16.501
	c12.263,10.104,29.685,9.787,41.527,0.087v-0.087C301.035,284.901,301.035,277.514,296.479,272.957z"/>
<path fill="#A0A0A0" d="M254.879,257.146l-0.061,0.061c-1.526-15.816-14.069-27.911-29.303-29.425
	c-6.444,0-11.668,5.224-11.668,11.668c1.526,15.816,14.069,27.911,29.303,29.425l0.061-0.061
	C249.655,268.814,254.879,263.59,254.879,257.146z"/>
<path fill="#A0A0A0" d="M175.667,263.254l-0.061-0.061c15.816-1.526,27.911-14.069,29.425-29.303
	c0-6.444-5.224-11.668-11.668-11.668c-15.816,1.526-27.911,14.069-29.425,29.303l0.061,0.061
	C163.999,258.03,169.223,263.254,175.667,263.254z"/>
<path fill="#A0A0A0" d="M406.3,204.433l0.033-0.08c7.462,14.028,23.68,20.402,38.333,15.972c5.953-2.466,8.781-9.291,6.315-15.245
	c-7.463-14.028-23.68-20.402-38.333-15.972l-0.033,0.08C406.661,191.654,403.834,198.479,406.3,204.433z"/>
<path fill="#A0A0A0" d="M381.402,213.023l0.033,0.08c-15.196-4.642-31.171,2.317-38.399,15.812
	c-2.466,5.953,0.361,12.779,6.315,15.245c15.196,4.642,31.171-2.317,38.399-15.812l-0.033-0.08
	C390.182,222.314,387.355,215.489,381.402,213.023z"/>
<path fill="#A0A0A0" d="M327.015,277.454h-0.087c10.104-12.263,9.787-29.685,0.087-41.527c-4.557-4.557-11.944-4.557-16.501,0
	c-10.104,12.263-9.787,29.685-0.087,41.527h0.087C315.071,282.011,322.458,282.011,327.015,277.454z"/>
<path fill="#A0A0A0" d="M272.066,256.658l-0.061-0.061c15.816-1.526,27.911-14.069,29.425-29.303
	c0-6.444-5.224-11.668-11.668-11.668c-15.816,1.526-27.911,14.069-29.425,29.303l0.061,0.061
	C260.398,251.434,265.622,256.658,272.066,256.658z"/>
<path fill="#A0A0A0" d="M259.387,212.633l-0.061,0.061c-1.526-15.816-14.069-27.911-29.303-29.425
	c-6.444,0-11.668,5.224-11.668,11.668c1.526,15.816,14.069,27.911,29.303,29.425l0.061-0.061
	C254.163,224.301,259.387,219.077,259.387,212.633z"/>
<path fill="#A0A0A0" d="M365.2,161.086l0.08-0.033c-4.642,15.196,2.317,31.171,15.812,38.399c5.953,2.466,12.779-0.361,15.245-6.315
	c4.642-15.196-2.317-31.17-15.812-38.399l-0.08,0.033C374.492,152.306,367.666,155.133,365.2,161.086z"/>
<path fill="#A0A0A0" d="M329.211,220.89l-0.061-0.061c15.816-1.526,27.911-14.069,29.425-29.303c0-6.444-5.224-11.668-11.668-11.668
	c-15.816,1.526-27.911,14.069-29.425,29.303l0.061,0.061C317.543,215.666,322.767,220.89,329.211,220.89z"/>
<path fill="#A0A0A0" d="M260.709,190.503l0.033-0.08c7.463,14.028,23.68,20.402,38.333,15.972c5.953-2.466,8.781-9.291,6.315-15.245
	c-7.462-14.028-23.68-20.402-38.333-15.972l-0.033,0.08C261.07,177.724,258.243,184.55,260.709,190.503z"/>
<path fill="#A0A0A0" d="M336.324,144.955l0.033,0.08c-15.196-4.642-31.171,2.317-38.399,15.812
	c-2.466,5.953,0.361,12.779,6.315,15.245c15.196,4.642,31.171-2.317,38.399-15.812l-0.033-0.08
	C345.104,154.247,342.277,147.421,336.324,144.955z"/>
</svg>
