<?xml version="1.0" encoding="utf-8"?>
<!-- Generator: Adobe Illustrator 16.0.1, SVG Export Plug-In . SVG Version: 6.00 Build 0)  -->
<!DOCTYPE svg PUBLIC "-//W3C//DTD SVG 1.1//EN" "http://www.w3.org/Graphics/SVG/1.1/DTD/svg11.dtd">
<svg version="1.1" id="Layer_1" xmlns="http://www.w3.org/2000/svg" xmlns:xlink="http://www.w3.org/1999/xlink" x="0px" y="0px"
	 width="650px" height="650px" viewBox="0 0 650 650" enable-background="new 0 0 650 650" xml:space="preserve">
<g>
	<path fill="#0A3160" d="M156,416.306l-13.476-165.559c-56.137,0-101.645,45.507-101.645,101.644v43.655L156,416.306z"/>
	<polygon fill="#A0A0A0" points="447.367,386.046 457.367,325 447.367,250.747 142.524,250.747 142.524,396.046 0.517,396.046 
		0.517,481.873 78.148,481.873 223.375,504.858 447.367,504.858 457.367,468 447.367,417.734 360.914,417.734 336.333,429.734 
		314.788,417.734 304.788,408.734 304.788,386.046 	"/>
	<path fill="#0A3160" d="M447.367,250.747v123.61H195.171l-21.688,21.688l0,0l42.914,42.914l-42.914,42.913H78.148
		c17.53,14.364,39.945,22.985,64.376,22.985h80.852l14.521-0.191v46.294h47.886v-32.25l-4-7.544l4-6.309v-7.259l-4-7.432l4-7.09
		v-7.26l-5-7.261l5-7.26v-7.26l-5-7.369l5-7.152v-21.781h0.203h28.802v-21.688h132.579l7,12.954l-7,8.734v87.124h101.645v-61.125
		l-8-13.232l8-12.767v-65.342C549.012,296.254,503.504,250.747,447.367,250.747z"/>
	<g>
		<path fill="#FFFFFF" d="M294.998,242.292c14.764,0,28.322-5.138,39.009-13.708v-78.961h-78.019v78.961
			C266.675,237.154,280.232,242.292,294.998,242.292z"/>
		<path fill="#0A3160" d="M357.413,161.905v10.824c0,34.471-27.944,62.416-62.416,62.416s-62.416-27.945-62.416-62.416v-10.824
			h-15.604v10.824c0,43.089,34.931,78.019,78.019,78.019c43.089,0,78.019-34.93,78.019-78.019v-10.824H357.413z"/>
		<path fill="#A0A0A0" d="M366.854,142.287c-11.861-27.963-39.568-47.578-71.857-47.578l0,0l0,0l0,0l0,0
			c-32.288,0-59.996,19.614-71.857,47.578c-4.757,11.471-11.724,21.796-20.37,30.441h92.227l0,0h92.228
			C378.578,164.083,371.611,153.758,366.854,142.287z"/>
	</g>
	<polygon fill="#0A3160" points="650.517,400.569 621.569,400.569 621.569,374.358 604.404,374.358 604.5,400.208 549.012,400.208 
		545.012,409.5 549.012,417.734 650.517,417.734 	"/>
	<path fill="#0A3160" d="M527.23,417.734h7.261v-3.009c0-7.994,6.46-14.475,14.444-14.517
		c-11.438-1.902-20.369-11.207-21.705-22.827V417.734z"/>
	<path fill="#FFFFFF" d="M259.646,454.036h26.138v-14.521h-26.138v-7.261h7.26c8.02,0,14.521-6.5,14.521-14.521h-43.528
		l-14.521,14.521v72.604l35.057,14.521h22.993c1.519,0,2.982-0.235,4.357-0.667v-13.853h-26.138v-7.26h26.138v-14.521h-26.138v-7.26
		h26.138v-14.521h-26.138V454.036z"/>
	<path fill="#FFFFFF" d="M461.888,385.684v36.301h7.26v-47.628h14.521v47.628h7.26v-47.628h14.52v47.628h7.261v-47.628h14.521
		v47.628h7.261v-7.26c0-8.02,6.501-14.521,14.521-14.521v17.529v26l-14.521,14.521h-72.604l-14.521-35.056v-22.994
		C447.367,392.185,453.868,385.684,461.888,385.684z"/>
	<path fill="#0A3160" d="M360.914,417.734h-46.126c0,73.579,59.648,133.227,133.227,133.227v-46.125
		C399.911,504.835,360.914,465.839,360.914,417.734z"/>
</g>
</svg>
