<?xml version="1.0" encoding="utf-8"?>
<!-- Generator: Adobe Illustrator 17.0.0, SVG Export Plug-In . SVG Version: 6.00 Build 0)  -->
<!DOCTYPE svg PUBLIC "-//W3C//DTD SVG 1.1//EN" "http://www.w3.org/Graphics/SVG/1.1/DTD/svg11.dtd">
<svg version="1.1" id="Layer_1" xmlns="http://www.w3.org/2000/svg" xmlns:xlink="http://www.w3.org/1999/xlink" x="0px" y="0px"
	 width="650px" height="650px" viewBox="0 0 650 650" enable-background="new 0 0 650 650" xml:space="preserve">
<polygon fill="#A0A0A0" points="372.498,133.072 241.528,133.072 241.528,307.699 241.528,307.699 241.528,506.77 268.815,534.055 
	296.099,534.056 296.099,307.699 372.498,307.699 "/>
<path fill="#0A3160" d="M296.099,561.344v-27.287h-27.285v27.287h-0.001v0.204l-0.142-0.204l-9.042,21.828h-18.102
	c-12.055,0-21.828,9.773-21.828,21.828h32.743h10.914h5.457h27.286h0l0-0.002L296.099,561.344L296.099,561.344z"/>
<path fill="#0A3160" d="M372.499,583.172h-18.102l-9.042-21.828l-0.141,0.204v-0.204h0v-27.289l27.285-27.284V307.699h-54.571v0.001
	h-75.528l75.528,75.528v129.692v21.137v27.287h0v43.655l0,0.001h0h27.286h5.457h10.914h32.743
	C394.327,592.945,384.554,583.172,372.499,583.172z"/>
<path fill="#0A3160" d="M341.939,89.415c0,19.289-15.637,34.926-34.926,34.926c-19.289,0-34.926-15.637-34.926-34.926h-8.731
	c0,24.111,19.545,43.656,43.656,43.656c24.111,0,43.656-19.545,43.656-43.656H341.939z"/>
<path fill="#FFFFFF" d="M307.013,124.341c8.262,0,15.848-2.875,21.828-7.671V76.486h-43.657v40.184
	C291.165,121.466,298.751,124.341,307.013,124.341z"/>
<path fill="#A0A0A0" d="M347.221,72.381c-6.637-15.647-22.141-26.623-40.208-26.623l0,0l0,0l0,0l0,0
	c-18.067,0-33.571,10.975-40.208,26.623c-2.662,6.419-6.56,12.196-11.399,17.034h51.607l0,0h51.607
	C353.782,84.578,349.883,78.8,347.221,72.381z"/>
<path fill="#0A3160" d="M210.616,251.246c-8.508-8.509-12.764-19.684-12.766-30.86h0.021c0-24.073,19.584-43.657,43.657-43.657
	v-43.657c-48.141,0-87.308,39.163-87.314,87.304l0,0c0,0.001,0,0.002,0,0.003c0,0.002,0,0.004,0,0.007h0
	c0.002,22.356,8.513,44.712,25.532,61.731l0,0l38.218,38.218l30.87-30.87L210.616,251.246z"/>
<path fill="#0A3160" d="M512.2,242.207H321.117v0h-25.02v0.003L192.789,345.519l39.779,39.779l63.531-63.531
	c19.828,0,35.901-16.074,35.901-35.902h-14.387c0,11.882-9.632,21.515-21.515,21.515v-21.581h194.273v-21.763H512.2V242.207z"/>
<path fill="#0A3160" d="M416.155,220.386v21.822h43.656v-21.822c0-48.145-39.168-87.314-87.313-87.314v43.657
	C396.571,176.729,416.155,196.313,416.155,220.386z"/>
<path fill="#FFFFFF" d="M248.82,351.199l-6.174-6.174l-6.174-6.174l-3.087-3.087l3.087-3.087l24.696,24.696
	c3.41,3.41,8.938,3.41,12.348,0l-6.174-6.174l-6.174-6.174l-18.522-18.522l3.087-3.087l27.783,27.783c3.41,3.41,8.938,3.41,12.348,0
	l-6.174-6.174l-6.174-6.174l-21.609-21.609l3.087-3.087l18.522,18.522l6.174,6.174l6.174,6.174c3.41-3.41,3.41-8.938,0-12.348
	l-24.696-24.696l3.087-3.087l3.087,3.087c3.41,3.41,8.938,3.41,12.348,0l-6.174-6.174l-6.174-6.174l-6.16-6.16h-12.348l-3.087,3.087
	l-6.174,6.174l-3.087,3.087l-6.174,6.174l-3.087,3.087l-6.174,6.174l-3.087,3.087l8.731,21.079l9.777,9.777
	C239.882,354.609,245.41,354.609,248.82,351.199z"/>
<path fill="#FFFFFF" d="M416.155,264.063v8.731v8.731v4.366h4.366v-34.925c0-4.822,3.909-8.731,8.731-8.731v8.731v8.731v26.194
	h4.366V246.6c0-4.822,3.909-8.731,8.731-8.731v8.731v8.731v30.56h4.366v-26.194v-8.731v-8.731c4.822,0,8.731,3.909,8.731,8.731
	v34.925h4.366v-4.366c0-4.822,3.909-8.731,8.731-8.731v8.731v8.731v8.711l-8.731,8.731h-4.366h-8.731h-4.366h-8.731h-4.366h-8.731
	h-4.366l-8.731-21.079v-13.826C407.424,267.972,411.333,264.063,416.155,264.063z"/>
</svg>
