<?xml version="1.0" encoding="utf-8"?>
<!-- Generator: Adobe Illustrator 18.1.1, SVG Export Plug-In . SVG Version: 6.00 Build 0)  -->
<svg version="1.1" id="Layer_1" xmlns="http://www.w3.org/2000/svg" xmlns:xlink="http://www.w3.org/1999/xlink" x="0px" y="0px"
	 viewBox="0 0 650 650" enable-background="new 0 0 650 650" xml:space="preserve">
<path fill="#0A3160" d="M296.099,534.056l-27.285-27.285v54.573h-0.001v0.204l-0.142-0.204l-9.042,21.828h-18.102
	c-12.055,0-21.828,9.773-21.828,21.828h76.399h0l0-0.002L296.099,534.056z"/>
<path fill="#FFFFFF" d="M307.013,128.341c8.262,0,15.848-2.875,21.828-7.671V76.486h-43.657v44.184
	C291.165,125.466,298.751,128.341,307.013,128.341z"/>
<path fill="#0A3160" d="M341.938,83.359v6.056c0,19.289-15.637,34.926-34.926,34.926c-19.289,0-34.926-15.637-34.926-34.926v-6.056
	h-8.731v6.056c0,24.111,19.546,43.656,43.656,43.656c24.111,0,43.656-19.545,43.656-43.656v-6.056H341.938z"/>
<path fill="#A0A0A0" d="M347.221,72.381c-6.637-15.647-22.141-26.623-40.208-26.623l0,0l0,0l0,0l0,0
	c-18.067,0-33.571,10.975-40.208,26.623c-2.662,6.419-6.56,12.196-11.399,17.034h51.607l0,0h51.607
	C353.782,84.578,349.883,78.8,347.221,72.381z"/>
<polygon fill="#A0A0A0" points="372.498,133.072 241.528,133.072 219.699,154.9 241.528,176.729 241.528,506.77 268.815,534.055 
	296.099,534.056 296.099,361.399 372.498,307.699 372.498,176.729 394.327,154.901 "/>
<path fill="#0A3160" d="M459.812,242.207v-21.822c0-48.145-39.168-87.314-87.313-87.314v43.657
	c24.073,0,43.657,19.584,43.657,43.657v21.822l-120.058,0v0.003l-47.258,47.258l-38.223-38.223
	c-8.508-8.509-12.764-19.684-12.766-30.86h0.021c0-24.073,19.584-43.657,43.657-43.657v-43.657
	c-48.141,0-87.308,39.163-87.314,87.304c0,0.001,0,0.002,0,0.003c0,0.002,0,0.004,0,0.007h0
	c0.002,22.356,8.512,44.712,25.532,61.731l0,0l38.223,38.223l-25.181,25.181l39.779,39.779l43.715-43.715l41.644,41.644l0,221.772
	l0,0.001h0h76.399c0-12.055-9.772-21.828-21.828-21.828h-18.102l-9.042-21.828l-0.141,0.204v-0.204h0v-27.289l27.285-27.284V307.699
	h-47.907c4.643-6.05,7.409-13.617,7.409-21.833v-0.066h75.424l4.366-4.366l4.366,4.366h4.365l4.366-4.366l4.366,4.366h4.365
	l4.366-4.366l4.366,4.366h4.366l4.366-4.366l4.366,4.366h4.366l4.366-4.366l4.366,4.366h21.828v-21.763H512.2v-21.828H459.812z
	 M317.614,285.866c0,11.882-9.632,21.515-21.515,21.515v-21.581h21.515V285.866z"/>
<path fill="#FFFFFF" d="M248.82,351.199l-6.174-6.174l-6.174-6.174l-3.087-3.087l3.087-3.087l24.696,24.696
	c3.41,3.41,8.938,3.41,12.348,0l-6.174-6.174l-6.174-6.174l-18.522-18.522l3.087-3.087l27.783,27.783c3.41,3.41,8.938,3.41,12.348,0
	l-6.174-6.174l-6.174-6.174l-21.609-21.609l3.087-3.087l18.522,18.522l6.174,6.174l6.174,6.174c3.41-3.41,3.41-8.938,0-12.348
	l-24.696-24.696l3.087-3.087l3.087,3.087c3.41,3.41,8.938,3.41,12.348,0l-6.174-6.174l-6.174-6.174l-6.16-6.16h-12.348l-3.087,3.087
	l-6.174,6.174l-3.087,3.087l-6.174,6.174l-3.087,3.087l-6.174,6.174l-3.087,3.087l8.731,21.079l9.777,9.777
	C239.882,354.609,245.41,354.609,248.82,351.199z"/>
<g>
	<path fill="#FFFFFF" d="M468.543,285.799v-4.274v-8.731c-4.822,0-8.731,3.909-8.731,8.731v4.274H468.543z"/>
	<path fill="#FFFFFF" d="M442.349,285.799v-30.468V246.6v-8.731c-4.822,0-8.731,3.909-8.731,8.731v39.199H442.349z"/>
	<path fill="#FFFFFF" d="M455.446,285.799v-34.834c0-4.822-3.909-8.731-8.731-8.731v8.731v8.731v26.102H455.446z"/>
	<path fill="#FFFFFF" d="M429.252,285.799v-26.102v-8.731v-8.731c-4.822,0-8.731,3.909-8.731,8.731v34.834H429.252z"/>
	<path fill="#FFFFFF" d="M416.155,285.799v-4.274v-8.731v-8.731c-4.822,0-8.731,3.909-8.731,8.731v13.005H416.155z"/>
</g>
</svg>
