<?xml version="1.0" encoding="utf-8"?>
<!-- Generator: Adobe Illustrator 17.0.0, SVG Export Plug-In . SVG Version: 6.00 Build 0)  -->
<!DOCTYPE svg PUBLIC "-//W3C//DTD SVG 1.1//EN" "http://www.w3.org/Graphics/SVG/1.1/DTD/svg11.dtd">
<svg version="1.1" id="Layer_1" xmlns="http://www.w3.org/2000/svg" xmlns:xlink="http://www.w3.org/1999/xlink" x="0px" y="0px"
	 width="650px" height="650px" viewBox="0 0 650 650" enable-background="new 0 0 650 650" xml:space="preserve">
<path fill="#333333" d="M371.148,142.064v42.156c23.245,0,42.156,18.911,42.156,42.156v42.156h42.156v-42.156
	C455.46,179.887,417.638,142.064,371.148,142.064z"/>
<polygon fill="#A0A0A0" points="371.147,142.065 244.679,142.065 244.679,310.689 244.679,310.689 244.679,502.917 271.028,529.264 
	297.374,529.265 297.374,310.689 371.147,310.689 "/>
<path fill="#333333" d="M297.374,555.614v-26.349h-26.347v26.349h-0.001v0.197l-0.137-0.197l-8.731,21.078h-17.48
	c-11.641,0-21.078,9.437-21.078,21.078h31.618h10.538h5.269h26.348h0l0-0.002L297.374,555.614L297.374,555.614z"/>
<path fill="#333333" d="M371.148,576.692h-17.48l-8.731-21.078l-0.136,0.197v-0.197h0v-26.351l26.347-26.346V310.689h-52.695v0.001
	h-72.931l72.931,72.931v125.234v20.41v26.349h0v42.155l0,0.001h0h26.348h5.269h10.538h31.617
	C392.226,586.129,382.789,576.692,371.148,576.692z"/>
<path fill="#333333" d="M341.638,99.909c0,18.626-15.099,33.725-33.725,33.725c-18.626,0-33.725-15.099-33.725-33.725h-8.431
	c0,23.282,18.874,42.156,42.156,42.156s42.156-18.874,42.156-42.156H341.638z"/>
<path fill="#FFFFFF" d="M307.914,133.634c7.978,0,15.303-2.776,21.078-7.407V87.424h-42.156v38.802
	C292.61,130.857,299.936,133.634,307.914,133.634z"/>
<path fill="#A0A0A0" d="M346.74,83.46c-6.409-15.109-21.38-25.707-38.826-25.707l0,0l0,0l0,0l0,0
	c-17.446,0-32.417,10.598-38.826,25.707c-2.57,6.198-6.335,11.777-11.007,16.448h49.833l0,0h49.833
	C353.075,95.237,349.31,89.659,346.74,83.46z"/>
<path fill="#333333" d="M214.83,256.176c-8.216-8.216-12.325-19.007-12.327-29.799h0.02c0-23.245,18.911-42.156,42.156-42.156
	v-42.156c-46.487,0-84.307,37.817-84.313,84.302l0,0c0,0.001,0,0.002,0,0.003c0,0.002,0,0.004,0,0.006h0
	c0.002,21.587,8.22,43.175,24.654,59.609l0,0l36.904,36.904l29.809-29.809L214.83,256.176z"/>
<path fill="#333333" d="M506.047,247.448H321.533v0h-24.159v0.003l-99.757,99.758l38.412,38.412l61.347-61.347
	c19.146,0,34.667-15.521,34.667-34.668H318.15c0,11.474-9.301,20.775-20.775,20.775v-20.839h187.594v-21.015h21.078V247.448z"/>
<path fill="#FFFFFF" d="M251.721,352.694l-5.962-5.962l-5.962-5.962l-2.981-2.981l2.981-2.981l23.847,23.847
	c3.293,3.293,8.631,3.293,11.924,0l-5.962-5.962l-5.962-5.962l-17.885-17.885l2.981-2.981l26.828,26.828
	c3.293,3.293,8.631,3.293,11.924,0l-5.962-5.962l-5.962-5.962l-20.866-20.866l2.981-2.981l17.885,17.885l5.962,5.962l5.962,5.962
	c3.293-3.293,3.293-8.631,0-11.924l-23.847-23.847l2.981-2.981l2.981,2.981c3.293,3.293,8.631,3.293,11.924,0L275.568,305
	l-5.962-5.962l-5.948-5.948h-11.924l-2.981,2.981l-5.962,5.962l-2.981,2.981l-5.962,5.962l-2.981,2.981l-5.962,5.962l-2.981,2.981
	l8.431,20.355l9.44,9.44C243.09,355.986,248.428,355.986,251.721,352.694z"/>
<path fill="#FFFFFF" d="M413.304,268.552v8.431v8.431v4.216h4.216v-33.725c0-4.656,3.775-8.431,8.431-8.431v8.431v8.431v25.294
	h4.216v-37.94c0-4.656,3.775-8.431,8.431-8.431v8.431v8.431v29.509h4.216v-25.294v-8.431v-8.431c4.656,0,8.431,3.775,8.431,8.431
	v33.725h4.216v-4.216c0-4.656,3.775-8.431,8.431-8.431v8.431v8.431v8.412l-8.431,8.431h-4.216h-8.431h-4.216h-8.431h-4.216h-8.431
	h-4.216l-8.431-20.355v-13.351C404.873,272.327,408.647,268.552,413.304,268.552z"/>
</svg>
