<?xml version="1.0" encoding="utf-8"?>
<!-- Generator: Adobe Illustrator 17.0.0, SVG Export Plug-In . SVG Version: 6.00 Build 0)  -->
<!DOCTYPE svg PUBLIC "-//W3C//DTD SVG 1.1//EN" "http://www.w3.org/Graphics/SVG/1.1/DTD/svg11.dtd">
<svg version="1.1" id="Layer_1" xmlns="http://www.w3.org/2000/svg" xmlns:xlink="http://www.w3.org/1999/xlink" x="0px" y="0px"
	 width="650px" height="650px" viewBox="0 0 650 650" enable-background="new 0 0 650 650" xml:space="preserve">
<polygon fill="#FFFFFF" points="254.414,232.048 215.432,271.031 240.411,271.031 254.414,257.027 "/>
<polygon fill="#A0A0A0" points="254.414,344.593 254.414,518.684 278.277,542.545 302.137,542.546 302.137,344.593 "/>
<path fill="#0A3160" d="M302.137,566.409v-23.863h-23.861v23.863h0v0.179l-0.124-0.179l-7.907,19.089h-15.831
	c-10.543,0-19.089,8.547-19.089,19.089h28.634h9.544h4.772h23.861h0l0-0.001L302.137,566.409L302.137,566.409z"/>
<path fill="#0A3160" d="M368.95,585.498H353.12l-7.907-19.089l-0.124,0.179v-0.179h0v-23.865l23.861-23.86v-174.09h-47.723v0h-66.05
	l66.05,66.05v113.418v18.484v23.863h0v38.177l0,0.001h0h23.862h4.772h9.544h28.634C388.039,594.045,379.493,585.498,368.95,585.498z
	"/>
<path fill="#0A3160" d="M342.225,153.701c0,16.868-13.675,30.543-30.543,30.543c-16.868,0-30.543-13.675-30.543-30.543h-7.635
	c0,21.085,17.093,38.178,38.178,38.178s38.178-17.093,38.178-38.178H342.225z"/>
<path fill="#A0A0A0" d="M346.845,138.805c-5.804-13.684-19.363-23.282-35.163-23.282l0,0l0,0l0,0l0,0
	c-15.8,0-29.359,9.598-35.163,23.282c-2.328,5.613-5.737,10.666-9.968,14.896h45.131l0,0h45.131
	C352.582,149.471,349.172,144.418,346.845,138.805z"/>
<path fill="#FFFFFF" d="M311.682,153.701h-19.089v23.834c5.229,4.194,11.864,6.708,19.089,6.708s13.859-2.514,19.089-6.708v-23.834
	H311.682z"/>
<path fill="#FFFFFF" d="M445.307,68.274v7.636v7.636v3.818h-3.818V56.821c0-4.217-3.419-7.636-7.636-7.636v7.636v7.636v22.907
	h-3.818V53.003c0-4.217-3.419-7.636-7.636-7.636v7.636v7.636v26.725h-3.818V64.456v-7.636v-7.636c-4.217,0-7.636,3.419-7.636,7.636
	v30.543h-3.818v-3.818c0-4.217-3.419-7.636-7.636-7.636v7.636v7.636V98.8l7.636,7.636h3.818h7.636h3.818h7.636h3.818h7.636h3.818
	l7.636-18.434V75.91C452.942,71.693,449.524,68.274,445.307,68.274z"/>
<path fill="#FFFFFF" d="M178.057,68.274v7.636v7.636v3.818h3.818V56.821c0-4.217,3.419-7.636,7.636-7.636v7.636v7.636v22.907h3.818
	V53.003c0-4.217,3.419-7.636,7.636-7.636v7.636v7.636v26.725h3.818V64.456v-7.636v-7.636c4.217,0,7.636,3.419,7.636,7.636v30.543
	h3.818v-3.818c0-4.217,3.419-7.636,7.636-7.636v7.636v7.636V98.8l-7.636,7.636h-3.818h-7.636h-3.818h-7.636h-3.818h-7.636h-3.818
	l-7.636-18.434V75.91C170.422,71.693,173.84,68.274,178.057,68.274z"/>
<path fill="#0A3160" d="M216.236,153.701v-47.266h-38.178v47.266c0,42.103,34.253,76.357,76.356,76.357V191.88
	C233.362,191.88,216.236,174.753,216.236,153.701z"/>
<path fill="#0A3160" d="M445.307,153.701v-47.266h-38.178v47.266h0c0,21.052-17.126,38.178-38.178,38.178v38.178
	C411.053,230.058,445.307,195.805,445.307,153.701L445.307,153.701z"/>
<rect x="351.193" y="191.88" fill="#FFFFFF" width="17.756" height="123.183"/>
<polygon fill="#A0A0A0" points="351.193,315.062 351.193,191.88 254.414,191.88 254.414,344.594 368.95,344.594 368.95,315.062 "/>
<path fill="#0A3160" d="M340.387,286.5L340.387,286.5l-15.472-15.471l-0.001,0.002H197.146v49.197h78.572
	c12.261,12.261,32.17,12.231,44.431-0.03l97.944,97.922l13.458-13.458l13.498,13.498l13.498-13.498L340.387,286.5z M284.615,311.331
	l13.345-13.345l13.303,13.303C303.916,318.628,291.96,318.676,284.615,311.331z"/>
</svg>
