<?xml version="1.0" encoding="utf-8"?>
<!-- Generator: Adobe Illustrator 18.1.1, SVG Export Plug-In . SVG Version: 6.00 Build 0)  -->
<svg version="1.1" id="Layer_1" xmlns="http://www.w3.org/2000/svg" xmlns:xlink="http://www.w3.org/1999/xlink" x="0px" y="0px"
	 viewBox="0 0 650 650" enable-background="new 0 0 650 650" xml:space="preserve">
<polygon fill="#FFFFFF" points="260.065,223.398 207.242,276.221 232.221,276.221 254.414,254.027 "/>
<path fill="#0A3160" d="M302.137,542.546l-14.137-10l-9.724,10v23.863h0v0.179l-0.124-0.179l-7.907,19.089h-15.831
	c-10.543,0-19.089,8.547-19.089,19.089h66.812h0l0-0.001L302.137,542.546z"/>
<path fill="#FFFFFF" d="M311.682,142.333l-19.089,11.368v26.834c5.229,4.194,11.864,6.708,19.089,6.708s13.859-2.514,19.089-6.708
	v-26.834L311.682,142.333z"/>
<path fill="#FFFFFF" d="M178.057,68.274v19.089h3.818V56.821c0-4.217,3.419-7.636,7.636-7.636v38.178h3.818V53.003
	c0-4.217,3.419-7.636,7.636-7.636v41.996h3.818V49.185c4.217,0,7.636,3.419,7.636,7.636v30.543h3.818v-3.818
	c0-4.217,3.419-7.636,7.636-7.636V98.8l-24.703,24.703l-21.111-17.067l-7.636-18.434V75.91
	C170.422,71.693,173.84,68.274,178.057,68.274z"/>
<path fill="#0A3160" d="M216.236,153.701v-47.266h-38.178v47.266c0,42.103,34.253,76.357,76.356,76.357l10-20.391l-10-17.787
	C233.362,191.88,216.236,174.753,216.236,153.701z"/>
<path fill="#FFFFFF" d="M445.307,68.274v19.089h-3.818V56.821c0-4.217-3.419-7.636-7.636-7.636v38.178h-3.818V53.003
	c0-4.217-3.419-7.636-7.636-7.636v41.996h-3.818V49.185c-4.217,0-7.636,3.419-7.636,7.636v30.543h-3.818v-3.818
	c0-4.217-3.419-7.636-7.636-7.636V98.8l24.703,24.703l21.111-17.067l7.636-18.434V75.91
	C452.942,71.693,449.524,68.274,445.307,68.274z"/>
<path fill="#0A3160" d="M445.307,153.701v-47.266h-38.178v47.266h0c0,21.052-17.126,38.178-38.178,38.178l-10,19.121l10,19.058
	C411.053,230.058,445.307,195.805,445.307,153.701L445.307,153.701z"/>
<polygon fill="#A0A0A0" points="368.95,315.062 351.193,191.88 254.414,191.88 254.414,344.594 254.414,344.594 254.414,518.684 
	278.277,542.545 302.137,542.546 302.137,391.555 368.95,344.594 "/>
<rect x="351.193" y="191.88" fill="#FFFFFF" width="17.756" height="123.183"/>
<path fill="#0A3160" d="M342.225,153.701c0,16.868-13.675,30.543-30.543,30.543c-16.868,0-30.543-13.675-30.543-30.543l-3.806-3
	l-3.83,3c0,21.085,17.093,38.178,38.178,38.178s38.178-17.093,38.178-38.178l-4.193-3L342.225,153.701z"/>
<path fill="#A0A0A0" d="M346.845,138.805c-5.804-13.684-19.363-23.282-35.163-23.282l0,0l0,0l0,0l0,0
	c-15.8,0-29.359,9.598-35.163,23.282c-2.328,5.613-5.737,10.666-9.968,14.896h45.131l0,0h45.131
	C352.582,149.471,349.172,144.418,346.845,138.805z"/>
<path fill="#0A3160" d="M324.916,271.029l-0.001,0.002H197.146v49.197h78.572c12.261,12.261,32.17,12.231,44.431-0.03l24.402,24.396
	l-89.375,0l66.05,66.05l0,193.943l0,0.001h0h66.812c0-10.542-8.546-19.089-19.089-19.089H353.12l-7.907-19.089l-0.124,0.179v-0.179
	h0v-23.865l23.861-23.86V368.986l49.144,49.133l13.458-13.458l13.498,13.498l13.498-13.498L324.916,271.029z M284.615,311.331
	l13.345-13.345l13.303,13.303C303.916,318.628,291.96,318.676,284.615,311.331z"/>
</svg>
