<?xml version="1.0" encoding="utf-8"?>
<!-- Generator: Adobe Illustrator 16.0.1, SVG Export Plug-In . SVG Version: 6.00 Build 0)  -->
<!DOCTYPE svg PUBLIC "-//W3C//DTD SVG 1.1//EN" "http://www.w3.org/Graphics/SVG/1.1/DTD/svg11.dtd">
<svg version="1.1" id="Layer_1" xmlns="http://www.w3.org/2000/svg" xmlns:xlink="http://www.w3.org/1999/xlink" x="0px" y="0px"
	 width="650px" height="650px" viewBox="0 0 650 650" enable-background="new 0 0 650 650" xml:space="preserve">
<g>
	<polygon fill="#0A3160" points="269.542,119.039 244.139,144.442 244.139,220.263 294.996,271.12 345.753,220.363 345.753,220.263 
		345.753,119.039 	"/>
	<path fill="#0A3160" d="M156,416.306l-13.476-165.559c-56.137,0-101.645,45.508-101.645,101.645v43.654L156,416.306z"/>
	<polygon fill="#A0A0A0" points="447.367,386.046 457.367,325 447.367,250.747 142.524,250.747 142.524,396.046 0.517,396.046 
		0.517,481.873 78.149,481.873 223.375,504.857 447.367,504.857 457.367,468 447.367,417.734 360.914,417.734 336.333,429.734 
		314.788,417.734 304.789,408.734 304.789,386.046 	"/>
	<path fill="#0A3160" d="M447.367,250.747v123.61H195.171l-21.688,21.688l0,0l42.914,42.913l-42.914,42.914H78.149
		c17.529,14.363,39.945,22.984,64.375,22.984h80.852l14.521-0.19v46.294h47.887v-32.25l-4-7.544l4-6.309v-7.26l-4-7.432l4-7.09
		v-7.261l-5-7.26l5-7.261v-7.26l-5-7.369l5-7.152v-21.78h0.203h28.802v-21.688h132.579l7,12.954l-7,8.734v87.123h101.645v-61.125
		l-8-13.232l8-12.767v-65.342C549.012,296.255,503.504,250.747,447.367,250.747z"/>
	<path fill="#FFFFFF" d="M300.283,159.261h-40.88c-8.405,0-15.219,6.813-15.219,15.219s6.814,15.22,15.219,15.22h5.221l15.219-15.22
		l15.22,15.22h5.22c8.406,0,15.22-6.814,15.22-15.22S308.689,159.261,300.283,159.261z"/>
	<path fill="#FFFFFF" d="M264.624,220.263h30.439c0-8.405-6.814-15.22-15.22-15.22C271.438,205.043,264.624,211.857,264.624,220.263
		z"/>
	<polygon fill="#0A3160" points="650.517,400.568 621.57,400.568 621.57,374.357 604.404,374.357 604.5,400.208 549.012,400.208 
		545.012,409.5 549.012,417.734 650.517,417.734 	"/>
	<path fill="#0A3160" d="M527.23,417.734h7.261v-3.009c0-7.994,6.46-14.476,14.444-14.518
		c-11.439-1.901-20.369-11.206-21.705-22.826V417.734z"/>
	<path fill="#FFFFFF" d="M259.645,454.035h26.139v-14.52h-26.139v-7.261h7.26c8.02,0,14.521-6.501,14.521-14.521h-43.529
		l-14.521,14.521v72.604l35.056,14.521h22.993c1.519,0,2.982-0.235,4.358-0.668v-13.853h-26.139v-7.261h26.139v-14.521h-26.139
		v-7.261h26.139v-14.521h-26.139V454.035z"/>
	<path fill="#FFFFFF" d="M461.888,385.684v36.302h7.26v-47.628h14.521v47.628h7.26v-47.628h14.521v47.628h7.26v-47.628h14.521
		v47.628h7.261v-7.26c0-8.021,6.501-14.521,14.521-14.521v17.529v25.999l-14.521,14.521h-72.604l-14.521-35.056v-22.993
		C447.367,392.185,453.868,385.684,461.888,385.684z"/>
	<path fill="#0A3160" d="M360.914,417.734h-46.125c0,73.578,59.648,133.227,133.227,133.227v-46.125
		C399.911,504.836,360.914,465.839,360.914,417.734z"/>
</g>
</svg>
