<?xml version="1.0" encoding="utf-8"?>
<!-- Generator: Adobe Illustrator 17.0.0, SVG Export Plug-In . SVG Version: 6.00 Build 0)  -->
<!DOCTYPE svg PUBLIC "-//W3C//DTD SVG 1.1//EN" "http://www.w3.org/Graphics/SVG/1.1/DTD/svg11.dtd">
<svg version="1.1" id="Layer_1" xmlns="http://www.w3.org/2000/svg" xmlns:xlink="http://www.w3.org/1999/xlink" x="0px" y="0px"
	 width="650px" height="650px" viewBox="0 0 650 650" enable-background="new 0 0 650 650" xml:space="preserve">
<polygon fill="#0A3160" points="244.139,210.263 274.623,240.747 315.369,240.747 345.753,210.363 345.753,210.263 345.753,109.039 
	269.542,109.039 244.139,134.443 "/>
<polygon fill="#A0A0A0" points="367.82,386.046 447.367,386.046 447.367,240.747 142.524,240.747 142.524,494.858 447.367,494.858 
	447.367,407.734 367.82,407.734 314.788,407.734 314.788,386.046 "/>
<g>
	<polygon fill="#A0A0A0" points="0.517,471.873 173.483,471.873 216.396,428.959 173.483,386.046 0.517,386.046 	"/>
</g>
<path fill="#0A3160" d="M447.367,240.747v101.644v21.966H195.171l-21.688,21.688v0l42.913,42.913l-42.913,42.913H78.149
	c17.529,14.363,39.945,22.985,64.375,22.985h80.852v-72.603H223.1l13.535-13.535l0.002,0.274l1.259-1.259v133.227h47.886V407.734
	h0.203h4.957h23.845v-21.688h64.37h68.209v108.812h101.644V342.391C549.012,286.255,503.504,240.747,447.367,240.747z"/>
<path fill="#0A3160" d="M142.524,386.046v-43.655v0V240.747c-56.137,0-101.644,45.508-101.644,101.644v43.655H142.524z"/>
<path fill="#FFFFFF" d="M300.283,149.261h-40.88c-8.405,0-15.219,6.814-15.219,15.219c0,8.406,6.814,15.22,15.219,15.22h5.221
	l15.219-15.22l15.219,15.22h5.221c8.405,0,15.22-6.814,15.22-15.22C315.503,156.075,308.689,149.261,300.283,149.261z"/>
<path fill="#FFFFFF" d="M264.624,210.263h30.439c0-8.405-6.814-15.22-15.22-15.22C271.438,195.043,264.624,201.857,264.624,210.263z
	"/>
<path fill="#0A3160" d="M650.517,390.569H621.57v-26.211h-17.165v26.211h-51.283c-1.399-0.008-2.771-0.128-4.109-0.346v14.503v3.009
	h4.255h44.337h6.801v0h17.165v0h28.947V390.569z"/>
<path fill="#0A3160" d="M527.231,407.734h7.26v-3.009c0-7.994,6.46-14.475,14.444-14.517c-11.439-1.902-20.369-11.206-21.705-22.826
	V407.734z"/>
<path fill="#FFFFFF" d="M259.645,444.036h26.139v-14.521h-26.139v-7.26h7.26c8.02,0,14.521-6.501,14.521-14.521h-14.521h-14.521
	h-14.487l-14.521,14.521v7.26v14.521v7.26v14.521v7.26v14.521v7.261l35.056,14.521h22.993c1.519,0,2.982-0.235,4.358-0.668v-13.853
	h-4.358h-14.521h-7.26v-7.261h26.139v-14.521h-26.139v-7.26h26.139v-14.521h-26.139V444.036z"/>
<path fill="#FFFFFF" d="M461.888,375.684v14.521v14.521v7.26h7.26v-47.628h14.521v4.066v43.562h7.26v-47.628h14.521v47.628h7.26
	v-43.562v-4.066h14.521v47.628h7.26v-7.26c0-8.02,6.501-14.521,14.521-14.521v14.521v14.521v14.487l-14.521,14.521h-7.26H512.71
	h-7.26h-14.521h-7.26h-14.521h-7.26l-14.521-35.056v-22.993C447.367,382.185,453.868,375.684,461.888,375.684z"/>
<path fill="#0A3160" d="M360.914,407.734h-46.126c0,73.579,59.649,133.227,133.227,133.227v-46.125
	C399.911,494.835,360.914,455.839,360.914,407.734z"/>
<path fill="#FFFFFF" d="M259.645,444.036h26.139v-14.521h-26.139v-7.26h7.26c8.02,0,14.521-6.501,14.521-14.521h-14.521h-14.521
	h-14.487l-14.521,14.521v7.26v14.521v7.26v14.521v7.26v14.521v7.261l35.056,14.521h22.993c1.519,0,2.982-0.235,4.358-0.668v-13.853
	h-4.358h-14.521h-7.26v-7.261h26.139v-14.521h-26.139v-7.26h26.139v-14.521h-26.139V444.036z"/>
</svg>
