<?xml version="1.0" encoding="utf-8"?>
<!-- Generator: Adobe Illustrator 18.1.1, SVG Export Plug-In . SVG Version: 6.00 Build 0)  -->
<svg version="1.1" id="Layer_1" xmlns="http://www.w3.org/2000/svg" xmlns:xlink="http://www.w3.org/1999/xlink" x="0px" y="0px"
	 viewBox="0 0 650 650" enable-background="new 0 0 650 650" xml:space="preserve">
<polygon fill="#0A3160" points="269.542,109.039 244.139,134.443 244.139,210.263 294.996,261.12 345.753,210.363 345.753,210.263 
	345.753,109.039 "/>
<path fill="#0A3160" d="M156,406.306l-13.476-165.559c-56.137,0-101.644,45.508-101.644,101.644v43.655L156,406.306z"/>
<polygon fill="#A0A0A0" points="447.367,376.046 457.367,315 447.367,240.747 142.524,240.747 142.524,386.046 0.517,386.046 
	0.517,471.873 78.149,471.873 223.376,494.858 447.367,494.858 457.367,458 447.367,407.734 360.914,407.734 336.333,419.734 
	314.788,407.734 304.788,398.734 304.788,376.046 "/>
<path fill="#0A3160" d="M447.367,240.747v123.61H195.171l-21.688,21.688v0l42.913,42.913l-42.913,42.913H78.149
	c17.529,14.363,39.945,22.985,64.375,22.985h80.852l14.521-0.191v46.294h47.886v-32.25l-4-7.544l4-6.309v-7.26l-4-7.431l4-7.09
	v-7.26l-5-7.26l5-7.26v-7.26l-5-7.369l5-7.152v-21.781h0.203h28.802v-21.688h132.579l7,12.954l-7,8.734v87.124h101.644v-61.125
	l-8-13.233l8-12.766v-65.342C549.012,286.255,503.504,240.747,447.367,240.747z"/>
<path fill="#FFFFFF" d="M300.283,149.261h-40.88c-8.405,0-15.219,6.814-15.219,15.219c0,8.406,6.814,15.22,15.219,15.22h5.221
	l15.219-15.22l15.219,15.22h5.221c8.405,0,15.22-6.814,15.22-15.22C315.503,156.075,308.689,149.261,300.283,149.261z"/>
<path fill="#FFFFFF" d="M264.624,210.263h30.439c0-8.405-6.814-15.22-15.22-15.22C271.438,195.043,264.624,201.857,264.624,210.263z
	"/>
<polygon fill="#0A3160" points="650.517,390.569 621.57,390.569 621.57,364.358 604.405,364.358 604.5,390.208 549.012,390.208 
	545.012,399.5 549.012,407.734 650.517,407.734 "/>
<path fill="#0A3160" d="M527.231,407.734h7.26v-3.009c0-7.994,6.46-14.475,14.444-14.517c-11.439-1.902-20.369-11.206-21.705-22.826
	V407.734z"/>
<path fill="#FFFFFF" d="M259.645,444.036h26.139v-14.521h-26.139v-7.26h7.26c8.02,0,14.521-6.501,14.521-14.521h-43.528
	l-14.521,14.521v72.603l35.056,14.521h22.993c1.519,0,2.982-0.235,4.358-0.668v-13.853h-26.139v-7.261h26.139v-14.521h-26.139v-7.26
	h26.139v-14.521h-26.139V444.036z"/>
<path fill="#FFFFFF" d="M461.888,375.684v36.301h7.26v-47.628h14.521v47.628h7.26v-47.628h14.521v47.628h7.26v-47.628h14.521v47.628
	h7.26v-7.26c0-8.02,6.501-14.521,14.521-14.521v17.529v25.999l-14.521,14.521h-72.603l-14.521-35.056v-22.993
	C447.367,382.185,453.868,375.684,461.888,375.684z"/>
<path fill="#0A3160" d="M360.914,407.734h-46.126c0,73.579,59.649,133.227,133.227,133.227v-46.125
	C399.911,494.835,360.914,455.839,360.914,407.734z"/>
</svg>
