<?xml version="1.0" encoding="utf-8"?>
<!-- Generator: Adobe Illustrator 16.0.1, SVG Export Plug-In . SVG Version: 6.00 Build 0)  -->
<!DOCTYPE svg PUBLIC "-//W3C//DTD SVG 1.1//EN" "http://www.w3.org/Graphics/SVG/1.1/DTD/svg11.dtd">
<svg version="1.1" id="Layer_1" xmlns="http://www.w3.org/2000/svg" xmlns:xlink="http://www.w3.org/1999/xlink" x="0px" y="0px"
	 width="650px" height="650px" viewBox="0 0 650 650" enable-background="new 0 0 650 650" xml:space="preserve">
<g>
	<path fill="#A0A0A0" d="M461.862,478.552l-40.667-40.667H228.862V560h273.724c22.491,0,40.724-18.233,40.724-40.724v-40.724
		H461.862z"/>
</g>
<circle fill="#A0A0A0" cx="325" cy="209.06" r="39.358"/>
<path fill="#FFFFFF" d="M421.138,90H147.5v0.002c-0.029,0-0.057-0.002-0.086-0.002v40.724l40.724,40.724v307.104v40.724
	c0,22.491,18.232,40.724,40.724,40.724c22.491,0,40.724-18.233,40.724-40.724v-40.724h192.276V130.724
	C461.862,108.233,443.629,90,421.138,90z M291.058,208.921c0-18.746,15.196-33.943,33.942-33.943s33.943,15.197,33.943,33.943
	S343.746,242.864,325,242.864S291.058,227.667,291.058,208.921z M379.742,385.691v12.604l-43.031,17.824l0,0l17.824-43.032h12.604
	l9.808-9.808l12.604,12.604L379.742,385.691z"/>
<path fill="#0A3160" d="M388.816,209.314c0-17.594-7.157-33.548-18.712-45.104l-9.987,9.988
	c8.987,8.987,14.545,21.402,14.545,35.116c0,27.427-22.234,49.662-49.662,49.662s-49.662-22.234-49.662-49.662
	c0-13.714,5.559-26.129,14.546-35.116l-9.988-9.988c-11.555,11.556-18.712,27.509-18.712,45.104
	c0,24.688,14.101,46.13,34.664,56.739c-5.908,3.048-11.292,6.976-15.951,11.635l9.988,9.987
	c8.987-8.987,21.402-14.545,35.116-14.545s26.129,5.559,35.116,14.545l9.987-9.987c-4.659-4.659-10.042-8.587-15.951-11.635
	C374.715,255.445,388.816,234.002,388.816,209.314z"/>
<rect x="348.831" y="283.592" transform="matrix(0.7071 -0.7071 0.7071 0.7071 -78.5909 408.1173)" fill="#0A3160" width="209.03" height="30.668"/>
<path fill="#0A3160" d="M147.414,90c-22.492,0-40.725,18.233-40.725,40.724v40.724h81.449v-40.724
	C188.138,108.233,169.905,90,147.414,90z"/>
</svg>
