<?xml version="1.0" encoding="utf-8"?>
<!-- Generator: Adobe Illustrator 17.0.0, SVG Export Plug-In . SVG Version: 6.00 Build 0)  -->
<!DOCTYPE svg PUBLIC "-//W3C//DTD SVG 1.1//EN" "http://www.w3.org/Graphics/SVG/1.1/DTD/svg11.dtd">
<svg version="1.1" id="Layer_1" xmlns="http://www.w3.org/2000/svg" xmlns:xlink="http://www.w3.org/1999/xlink" x="0px" y="0px"
	 width="650px" height="650px" viewBox="0 0 650 650" enable-background="new 0 0 650 650" xml:space="preserve">
<path fill="#333333" d="M174.443,125.767c-19.068,0-34.526,15.458-34.526,34.526v34.526h69.052v-34.526
	C208.969,141.225,193.511,125.767,174.443,125.767z"/>
<path fill="#FFFFFF" d="M406.506,125.767H174.443c19.068,0,34.526,15.458,34.526,34.526v34.526v260.362v34.526
	c0,19.068,15.458,34.526,34.526,34.526s34.526-15.458,34.526-34.526v-34.526h163.011V194.819v-34.526
	C441.032,141.225,425.574,125.767,406.506,125.767z"/>
<g>
	<path fill="#A0A0A0" d="M241.2,524.233h2.294c-0.772,0-1.535-0.034-2.294-0.084V524.233z"/>
	<path fill="#A0A0A0" d="M475.558,455.181h-34.526H278.02v34.526c0,19.068-15.458,34.526-34.526,34.526h232.063
		c19.068,0,34.526-15.458,34.526-34.526v-34.526H475.558z"/>
</g>
<g>
	<circle fill="#878787" cx="325" cy="226.589" r="28.777"/>
	<path fill="#333333" d="M379.103,226.922c0-14.916-6.068-28.442-15.864-38.239l-8.467,8.467
		c7.619,7.619,12.332,18.145,12.332,29.771c0,23.253-18.85,42.103-42.103,42.103s-42.103-18.85-42.103-42.103
		c0-11.626,4.713-22.152,12.332-29.771l-8.467-8.467c-9.797,9.797-15.864,23.322-15.864,38.239c0,20.93,11.955,39.109,29.388,48.103
		c-5.009,2.584-9.573,5.914-13.523,9.864l8.467,8.467c7.619-7.619,18.145-12.332,29.771-12.332s22.152,4.713,29.771,12.332
		l8.467-8.467c-3.95-3.95-8.514-7.28-13.523-9.864C367.148,266.031,379.103,247.852,379.103,226.922z"/>
</g>
<g>
	
		<rect x="345.204" y="289.895" transform="matrix(0.7071 -0.7071 0.7071 0.7071 -87.1184 395.4667)" fill="#333333" width="177.216" height="26"/>
	<polygon fill="#878787" points="334.928,402.251 371.41,387.139 371.41,376.454 376.753,371.111 366.068,360.426 360.725,365.769 
		350.04,365.769 334.928,402.251 334.928,402.251 334.928,402.251 334.928,402.251 	"/>
</g>
</svg>
