<?xml version="1.0" encoding="utf-8"?>
<!-- Generator: Adobe Illustrator 17.0.0, SVG Export Plug-In . SVG Version: 6.00 Build 0)  -->
<!DOCTYPE svg PUBLIC "-//W3C//DTD SVG 1.1//EN" "http://www.w3.org/Graphics/SVG/1.1/DTD/svg11.dtd">
<svg version="1.1" id="Layer_1" xmlns="http://www.w3.org/2000/svg" xmlns:xlink="http://www.w3.org/1999/xlink" x="0px" y="0px"
	 width="650px" height="650px" viewBox="0 0 650 650" enable-background="new 0 0 650 650" xml:space="preserve">
<path fill="#0A3160" d="M147.414,90c-22.491,0-40.724,18.233-40.724,40.724v40.724h81.448v-40.724
	C188.138,108.233,169.905,90,147.414,90z"/>
<g>
	<path fill="#A0A0A0" d="M226.156,560h2.706c-0.91,0-1.811-0.041-2.706-0.099V560z"/>
	<path fill="#A0A0A0" d="M502.586,478.552h-40.724H269.586v40.724c0,22.491-18.233,40.724-40.724,40.724h273.724
		c22.491,0,40.724-18.233,40.724-40.724v-40.724H502.586z"/>
</g>
<path fill="#FFFFFF" d="M421.138,90H147.414c22.491,0,40.724,18.233,40.724,40.724v40.724v307.104v40.724
	c0,22.491,18.233,40.724,40.724,40.724c22.491,0,40.724-18.233,40.724-40.724v-40.724h192.276V171.448v-40.724
	C461.862,108.233,443.629,90,421.138,90z M291.057,208.921c0-18.746,15.197-33.943,33.943-33.943
	c18.746,0,33.943,15.197,33.943,33.943S343.746,242.864,325,242.864C306.254,242.864,291.057,227.667,291.057,208.921z
	 M379.742,385.691v12.604l-43.031,17.824h0l17.824-43.031h12.604l6.302-6.302l12.604,12.604L379.742,385.691z"/>
<path fill="#0A3160" d="M388.816,209.314c0-17.594-7.157-33.548-18.712-45.103l-9.988,9.988
	c8.987,8.987,14.546,21.402,14.546,35.116c0,27.427-22.234,49.662-49.662,49.662s-49.662-22.234-49.662-49.662
	c0-13.714,5.559-26.129,14.546-35.116l-9.988-9.988c-11.556,11.556-18.712,27.509-18.712,45.103
	c0,24.688,14.101,46.13,34.663,56.739c-5.908,3.048-11.292,6.976-15.951,11.635l9.988,9.988
	c8.987-8.987,21.402-14.546,35.116-14.546s26.129,5.559,35.116,14.546l9.988-9.988c-4.659-4.659-10.043-8.587-15.951-11.635
	C374.715,255.445,388.816,234.002,388.816,209.314z"/>
<rect x="348.831" y="283.592" transform="matrix(0.7071 -0.7071 0.7071 0.7071 -78.5909 408.1172)" fill="#0A3160" width="209.03" height="30.668"/>
</svg>
