<?xml version="1.0" encoding="utf-8"?>
<!-- Generator: Adobe Illustrator 18.1.1, SVG Export Plug-In . SVG Version: 6.00 Build 0)  -->
<svg version="1.1" id="Layer_1" xmlns="http://www.w3.org/2000/svg" xmlns:xlink="http://www.w3.org/1999/xlink" x="0px" y="0px"
	 viewBox="0 0 650 650" enable-background="new 0 0 650 650" xml:space="preserve">
<rect x="103.898" y="76.035" fill="#1D345C" width="258.555" height="38.922"/>
<rect x="103.898" y="198.674" fill="#1D345C" width="258.555" height="32.408"/>
<rect x="103.898" y="314.802" fill="#1D345C" width="258.555" height="32.408"/>
<polygon fill="#1D345C" points="159.508,579.464 110.516,579.464 103.898,547.056 183.533,547.056 "/>
<rect x="103.898" y="430.929" fill="#1D345C" width="258.555" height="32.409"/>
<polygon fill="#FFFFFF" points="93.973,65.999 93.973,579.464 110.521,579.464 110.521,82.548 354.911,82.548 354.911,579.464 
	371.459,579.464 371.459,65.999 "/>
<path fill="#A0A0A0" d="M371.647,415.915c-42.788,0-77.474,34.686-77.474,77.474H449.12
	C449.12,450.601,414.434,415.915,371.647,415.915"/>
<path fill="#FFFFFF" d="M294.383,487.674c-46.461-6.573-91.788-19.012-134.875-36.859v128.649h226.677l-13.942-44.962
	L294.383,487.674z"/>
<path fill="#EEEEEE" d="M371.458,493.12c-25.909-0.01-51.658-1.859-77.07-5.454l-0.005,0.004l91.795,91.795h197.228V450.815
	C514.028,479.554,442.154,493.148,371.458,493.12z"/>
</svg>
