<?xml version="1.0" encoding="utf-8"?>
<!-- Generator: Adobe Illustrator 16.0.1, SVG Export Plug-In . SVG Version: 6.00 Build 0)  -->
<!DOCTYPE svg PUBLIC "-//W3C//DTD SVG 1.1//EN" "http://www.w3.org/Graphics/SVG/1.1/DTD/svg11.dtd">
<svg version="1.1" id="Layer_1" xmlns="http://www.w3.org/2000/svg" xmlns:xlink="http://www.w3.org/1999/xlink" x="0px" y="0px"
	 width="650px" height="650px" viewBox="0 0 650 650" enable-background="new 0 0 650 650" xml:space="preserve">
<rect x="103.897" y="76.035" fill="#1D345C" width="258.556" height="38.921"/>
<rect x="103.897" y="198.674" fill="#1D345C" width="258.556" height="32.408"/>
<rect x="103.897" y="314.802" fill="#1D345C" width="258.556" height="32.408"/>
<polygon fill="#1D345C" points="159.508,579.464 110.516,579.464 103.897,547.056 183.533,547.056 "/>
<rect x="103.897" y="430.929" fill="#1D345C" width="258.556" height="32.409"/>
<polygon fill="#FFFFFF" points="93.973,65.999 93.973,579.464 110.52,579.464 110.52,82.548 354.911,82.548 354.911,579.464 
	371.459,579.464 371.459,65.999 "/>
<path fill="#FFFFFF" d="M371.646,415.915c-42.787,0-77.473,34.686-77.473,77.474v36.446h154.945v-36.446
	C449.119,450.601,414.434,415.915,371.646,415.915z"/>
<path fill="#FFFFFF" d="M294.383,487.674c-46.461-6.572-91.787-19.012-134.875-36.858v128.649h226.677l-13.941-44.963
	L294.383,487.674z"/>
<path fill="#EEEEEE" d="M371.459,493.119c-25.91-0.009-51.658-1.858-77.07-5.453l-0.005,0.003l91.795,91.796h197.228V450.815
	C514.027,479.554,442.154,493.147,371.459,493.119z"/>
</svg>
