<?xml version="1.0" encoding="UTF-8" standalone="no"?>
<svg width="231px" height="238px" viewBox="0 0 231 238" version="1.1" xmlns="http://www.w3.org/2000/svg" xmlns:xlink="http://www.w3.org/1999/xlink">
    <defs></defs>
    <g id="Page-1" stroke="none" stroke-width="1" fill="none" fill-rule="evenodd">
        <g id="Group">
            <path d="M0.23,0.48 L92.87,0.48 L92.87,31.36 L0.23,31.36 L0.23,0.48 Z" id="Fill-441" fill="#FFFFFF"></path>
            <path d="M92.87,191.16 L92.87,93.12 L61.99,62.24 L31.11,62.24 L0.23,93.12 L0.23,191.16 C0.23,216.75 20.97,237.48 46.55,237.48 C72.13,237.48 92.87,216.75 92.87,191.16" id="Fill-442" fill="#1D2A4A"></path>
            <path d="M0.23,31.36 L31.11,31.36 L31.11,62.24 L0.23,31.36" id="Fill-443" fill="#1D2A4A"></path>
            <path d="M61.99,62.24 L61.99,31.36 L92.87,31.36 L61.99,62.24" id="Fill-444" fill="#1D2A4A"></path>
            <path d="M31.11,31.36 L61.99,31.36 L61.99,62.24 L31.11,62.24 L31.11,31.36 Z" id="Fill-445" fill="#F5B929"></path>
            <path d="M92.87,185.76 L0.23,93.12 L0.23,191.16 C0.23,216.75 20.97,237.48 46.55,237.48 C72.13,237.48 92.87,216.75 92.87,191.16 L92.87,185.76" id="Fill-446" fill="#F5B929"></path>
            <path d="M0.23,154.88 L92.87,154.88 L92.87,191.16 L0.23,191.16 L0.23,154.88 Z" id="Fill-447" fill="#B9DCEA"></path>
            <path d="M92.87,185.76 L61.99,154.88 L0.23,154.88 L0.23,191.16 L92.87,191.16 L92.87,185.76" id="Fill-448" fill="#FFFFFF"></path>
            <path d="M46.55,237.48 C72.13,237.48 92.87,216.75 92.87,191.16 L0.23,191.16 C0.23,216.75 20.97,237.48 46.55,237.48" id="Fill-449" fill="#1D2A4A"></path>
            <path d="M157.1,92.29 L157.1,76.42 L172.97,76.42 C172.97,85.18 165.86,92.29 157.1,92.29 L157.1,92.29 Z M141.06,235.76 L141.06,219.66 L157.1,219.66 L157.1,102.89 C171.72,102.89 183.57,91.04 183.57,76.42 L183.62,76.42 L230.47,29.58 L201.14,0.25 L124.97,76.42 L124.96,76.42 L124.96,235.76 L141.06,235.76 L141.06,235.76 Z" id="Fill-824" fill="#1D2A4A"></path>
            <path d="M183.57,76.42 L172.97,76.42 C172.97,85.18 165.86,92.29 157.1,92.29 L157.1,102.89 C171.72,102.89 183.57,91.04 183.57,76.42" id="Fill-825" fill="#FFFFFF"></path>
        </g>
    </g>
</svg>