<?xml version="1.0" encoding="utf-8"?>
<!-- Generator: Adobe Illustrator 18.1.1, SVG Export Plug-In . SVG Version: 6.00 Build 0)  -->
<svg version="1.1" id="Layer_1" xmlns="http://www.w3.org/2000/svg" xmlns:xlink="http://www.w3.org/1999/xlink" x="0px" y="0px"
	 viewBox="0 0 650 650" enable-background="new 0 0 650 650" xml:space="preserve">
<path fill="#A0A0A0" d="M476.139,458.463v-45.757h94.757v-48.384h-8.562l-11.496-59.832l-74.7-74.7V89.566h-85.914v54.066
	l-59.768,43.042l-59.768-43.042V89.566h-48.384v140.29H79.103v48.384h69.363l44.196,42.083l-44.194,44H79.106v48.384h79.577v147.538
	h48.384v-61.456l183.158,61.457v0.263l18.538-10l18.723,10h11.388l6.125-10l6.68,10h24.459v-53.661h94.758v-48.384H476.139z"/>
<rect x="270.689" y="143.632" fill="#FFFFFF" width="119.537" height="86.082"/>
<polygon fill="#FFFFFF" points="390.226,498.788 207.067,498.788 207.067,412.706 319.068,412.706 364.5,421.596 390.226,435.027 
	"/>
<polygon fill="#FFFFFF" points="562.335,364.322 550.839,364.322 524.589,278.24 562.335,278.24 "/>
<rect x="148.467" y="278.24" fill="#FFFFFF" width="86.196" height="86.082"/>
<polygon fill="#0A3160" points="234.663,278.24 234.663,364.322 148.467,364.322 174.048,389.904 260.244,389.904 260.244,303.822 
	"/>
<g>
	<rect x="427.49" y="89.492" fill="#FFFFFF" width="11.385" height="31.337"/>
</g>
<polygon fill="#FFFFFF" points="427.49,152.358 427.49,181.142 438.875,192.527 438.875,152.358 "/>
<path fill="#0A3160" d="M476.139,278.24v-48.45l-37.264-37.264v22.506H427.49v-33.891l-37.264-37.264v85.978H270.689v0.104
	l48.28,48.28l-48.282,86.083l48.384,48.384l71.154,22.138h0v125.401h37.264v-31.075h11.385v31.075h12.808v-86.082l-12.808-12.808
	v36.287H427.49V449.97l-15.126-15.126h15.126l5.69,10l5.69-10h21.875v-44.271h90.093v-26.25L476.139,278.24z M438.875,403.439
	H427.49v-62.675h11.385V403.439z M438.875,309.236H427.49v-62.675h11.385V309.236z"/>
<polygon fill="#EEEEEE" points="476.139,364.322 550.839,364.322 550.839,304.49 524.589,278.24 476.139,278.24 "/>
<polygon fill="#FFFFFF" points="390.224,364.322 270.688,364.322 270.688,278.24 318.974,278.24 370.224,298.24 390.224,349.494 "/>
<polygon fill="#EEEEEE" points="390.224,349.494 390.224,278.24 318.97,278.24 "/>
<polygon fill="#EEEEEE" points="341.393,435.027 390.226,435.027 390.226,412.706 319.072,412.706 "/>
<polygon fill="#FFFFFF" points="438.875,461.355 438.875,434.967 427.49,434.967 427.49,449.97 "/>
<polygon fill="#0A3160" points="404.167,560.245 390.226,498.788 207.067,498.788 268.524,560.245 "/>
</svg>
