<?xml version="1.0" encoding="utf-8"?>
<!-- Generator: Adobe Illustrator 16.0.1, SVG Export Plug-In . SVG Version: 6.00 Build 0)  -->
<!DOCTYPE svg PUBLIC "-//W3C//DTD SVG 1.1//EN" "http://www.w3.org/Graphics/SVG/1.1/DTD/svg11.dtd">
<svg version="1.1" id="Layer_1" xmlns="http://www.w3.org/2000/svg" xmlns:xlink="http://www.w3.org/1999/xlink" x="0px" y="0px"
	 width="650px" height="650px" viewBox="0 0 650 650" enable-background="new 0 0 650 650" xml:space="preserve">
<polygon fill="#A0A0A0" points="476.139,458.463 476.139,412.706 570.896,412.706 570.896,364.322 562.334,364.322 550.839,304.49 
	476.139,229.791 476.139,89.566 390.226,89.566 390.226,143.632 330.457,186.673 270.689,143.632 270.689,89.566 222.305,89.566 
	222.305,229.855 79.104,229.855 79.104,278.239 148.467,278.239 192.662,320.322 148.468,364.322 79.106,364.322 79.106,412.706 
	158.684,412.706 158.684,536 244.279,536 244.279,503.201 390.226,520.508 390.226,560.245 390.226,560.508 427.486,560.508 
	432.881,556.508 438.875,560.508 476.139,560.508 476.139,506.847 570.897,506.847 570.897,458.463 "/>
<rect x="270.689" y="143.632" fill="#FFFFFF" width="119.537" height="86.082"/>
<polygon fill="#FFFFFF" points="390.226,498.788 207.066,498.788 207.066,412.706 319.068,412.706 364.5,421.596 390.226,435.027 
	"/>
<polygon fill="#FFFFFF" points="562.334,364.322 550.838,364.322 524.588,278.24 562.334,278.24 "/>
<rect x="148.467" y="278.24" fill="#FFFFFF" width="86.195" height="86.082"/>
<polygon fill="#0A3160" points="234.662,278.24 234.662,364.322 148.467,364.322 174.048,389.904 260.244,389.904 260.244,303.822 
	"/>
<g>
	<rect x="427.489" y="89.492" fill="#FFFFFF" width="11.386" height="31.337"/>
</g>
<polygon fill="#FFFFFF" points="427.489,152.358 427.489,181.142 438.875,192.526 438.875,152.358 "/>
<path fill="#0A3160" d="M476.139,278.24v-48.449l-37.264-37.265v22.506h-11.386v-33.891l-37.264-37.265v85.979H270.689v0.104
	l48.279,48.279l-48.281,86.083l48.383,48.384l71.155,22.138l0,0V536h37.264v-86.03l-15.126-15.126h15.126l5.69,10l5.69-10h21.876
	v-44.271h90.092v-26.25L476.139,278.24z M438.875,403.438h-11.386v-62.674h11.386V403.438z M438.875,309.235h-11.386v-62.674h11.386
	V309.235z"/>
<polygon fill="#EEEEEE" points="476.139,364.322 550.838,364.322 550.838,304.49 524.588,278.24 476.139,278.24 "/>
<polygon fill="#FFFFFF" points="390.224,364.322 270.688,364.322 270.688,278.24 318.974,278.24 370.224,298.24 390.224,349.494 "/>
<polygon fill="#EEEEEE" points="390.224,349.494 390.224,278.24 318.971,278.24 "/>
<polygon fill="#EEEEEE" points="341.393,435.027 390.226,435.027 390.227,412.706 319.07,412.706 "/>
<polygon fill="#0A3160" points="399.92,536 410.226,498.788 207.066,498.788 244.279,536 "/>
<rect x="427.489" y="435.027" fill="#FFFFFF" width="11.386" height="62.674"/>
<rect x="427.489" y="529.361" fill="#FFFFFF" width="11.386" height="31.146"/>
</svg>
