<?xml version="1.0" encoding="utf-8"?>
<!-- Generator: Adobe Illustrator 17.0.0, SVG Export Plug-In . SVG Version: 6.00 Build 0)  -->
<!DOCTYPE svg PUBLIC "-//W3C//DTD SVG 1.1//EN" "http://www.w3.org/Graphics/SVG/1.1/DTD/svg11.dtd">
<svg version="1.1" id="Layer_1" xmlns="http://www.w3.org/2000/svg" xmlns:xlink="http://www.w3.org/1999/xlink" x="0px" y="0px"
	 width="650px" height="650px" viewBox="0 0 650 650" enable-background="new 0 0 650 650" xml:space="preserve">
<rect x="88.627" y="346.469" fill="#A0A0A0" width="456.099" height="37.965"/>
<polygon fill="#EEEEEE" points="246.305,542.171 506.761,542.171 506.761,384.434 126.592,384.434 126.592,422.457 "/>
<polygon fill="#FFFFFF" points="126.592,422.457 126.592,542.17 246.305,542.17 "/>
<circle fill="#878787" cx="316.405" cy="449.367" r="26.148"/>
<path fill="#333333" d="M365.566,449.67c0-13.554-5.513-25.844-14.415-34.745l-7.694,7.694c6.923,6.923,11.205,16.487,11.205,27.052
	c0,21.129-17.128,38.257-38.257,38.257s-38.257-17.128-38.257-38.257c0-10.564,4.282-20.128,11.205-27.052l-7.694-7.694
	c-8.902,8.902-14.415,21.192-14.415,34.745c0,19.018,10.863,35.537,26.703,43.709c-4.551,2.348-8.699,5.374-12.288,8.963
	l7.694,7.694c6.923-6.923,16.487-11.205,27.052-11.205s20.129,4.282,27.052,11.205l7.694-7.694
	c-3.589-3.589-7.736-6.615-12.288-8.963C354.703,485.207,365.566,468.689,365.566,449.67z"/>
<path fill="#333333" d="M240.793,261.163l37.866-37.866h-76.136v0c-41.936,0-75.931,33.995-75.931,75.931v47.241h75.931h38.27
	v-26.785V261.163z"/>
<path fill="#333333" d="M430.83,223.297h-53.072v38.024h-23.03h-11.194l17.112,17.112l-68.036,68.035h138.22h75.931v-47.241v0
	C506.761,257.292,472.765,223.297,430.83,223.297z"/>
<polygon fill="#333333" points="354.727,185.25 354.727,170.042 339.52,185.25 339.52,185.25 354.769,200.5 354.769,185.25 "/>
<g>
	<path fill="#FFFFFF" d="M339.52,185.25l15.208-15.208v15.208h0v-23.16c-0.164-4.059-3.497-7.302-7.596-7.302
		c-4.204,0-7.612,3.408-7.612,7.612v7.612v0.026h-15.25v-15.25v0l10.753-10.753l-0.03-0.03l10.028-10.028l-9.32-9.32l-19.026,0
		c0,10.507-8.518,19.025-19.025,19.025v0h-19.025h0v56.784l22.831,22.831h30.516l22.755-22.755v-0.075v-0.008L339.52,185.25z"/>
</g>
<polygon fill="#FFFFFF" points="240.793,223.339 232.307,214.853 177.158,270.003 177.158,346.469 189.158,346.469 189.158,274.973 
	"/>
<polygon fill="#FFFFFF" points="301.456,276.625 293.884,284.197 354.784,223.297 278.659,223.297 278.659,265.027 301.456,242.23 
	"/>
<rect x="294.762" y="226.07" transform="matrix(-0.7071 0.7071 -0.7071 -0.7071 679.2057 184.1905)" fill="#333333" width="13.388" height="13.388"/>
<polygon fill="#333333" points="301.456,242.23 278.659,265.027 278.659,299.422 301.456,276.625 "/>
<path fill="#333333" d="M339.52,170.011L339.52,170.011v-7.612c0-4.204,3.408-7.612,7.612-7.612c4.099,0,7.432,3.243,7.596,7.302
	v-18.408l-9.706-9.706l-10.028,10.028l0.03,0.03l-10.753,10.753v0v15.25h15.25V170.011z"/>
<path fill="#333333" d="M297.651,124.657L297.651,124.657l-19.025,0v19.026h19.025v0c10.507,0,19.025-8.518,19.025-19.025H297.651z"
	/>
</svg>
