<?xml version="1.0" encoding="utf-8"?>
<!-- Generator: Adobe Illustrator 17.0.0, SVG Export Plug-In . SVG Version: 6.00 Build 0)  -->
<!DOCTYPE svg PUBLIC "-//W3C//DTD SVG 1.1//EN" "http://www.w3.org/Graphics/SVG/1.1/DTD/svg11.dtd">
<svg version="1.1" id="Layer_1" xmlns="http://www.w3.org/2000/svg" xmlns:xlink="http://www.w3.org/1999/xlink" x="0px" y="0px"
	 width="650px" height="650px" viewBox="0 0 650 650" enable-background="new 0 0 650 650" xml:space="preserve">
<rect x="64.241" y="343.371" fill="#A0A0A0" width="504.872" height="42.025"/>
<polygon fill="#FFFFFF" points="106.265,427.485 106.265,560 238.78,560 "/>
<path fill="#F1F1F1" d="M106.265,385.396v42.09L238.78,560h288.307V385.396H106.265z M316.376,486.217
	c-15.985,0-28.944-12.959-28.944-28.944c0-15.985,12.959-28.944,28.944-28.944s28.944,12.959,28.944,28.944
	C345.32,473.258,332.362,486.217,316.376,486.217z"/>
<path fill="#0A3160" d="M370.794,457.608c0-15.003-6.103-28.607-15.957-38.461l-8.517,8.517c7.663,7.663,12.403,18.25,12.403,29.944
	c0,23.388-18.96,42.348-42.348,42.348s-42.348-18.96-42.348-42.348c0-11.694,4.74-22.281,12.404-29.944l-8.517-8.517
	c-9.854,9.854-15.957,23.458-15.957,38.461c0,21.052,12.024,39.337,29.558,48.383c-5.038,2.599-9.629,5.949-13.602,9.922
	l8.517,8.517c7.663-7.663,18.25-12.403,29.944-12.403s22.281,4.74,29.944,12.403l8.517-8.517c-3.973-3.973-8.564-7.322-13.602-9.922
	C358.77,496.945,370.794,478.66,370.794,457.608z"/>
<path fill="#0A3160" d="M232.678,248.943l41.916-41.915h-84.278v0c-46.42,0-84.051,37.631-84.051,84.051v52.292h84.051h42.362
	v-29.649V248.943z"/>
<path fill="#0A3160" d="M443.036,207.028H384.29v42.09h-25.493h-12.391l18.942,18.942l-75.311,75.311h153h84.051v-52.292v0
	C527.087,244.659,489.457,207.028,443.036,207.028z"/>
<polygon fill="#0A3160" points="358.796,164.912 358.796,148.078 341.962,164.912 341.962,164.912 358.843,181.793 358.843,164.912 
	"/>
<g>
	<path fill="#FFFFFF" d="M341.962,164.912l16.834-16.834v16.834h0v-25.637c-0.181-4.493-3.871-8.083-8.408-8.083
		c-4.653,0-8.426,3.772-8.426,8.426v8.426v0.029h-16.88v-16.88v0l11.903-11.903l-0.033-0.033l11.1-11.1L337.737,97.84l-21.061,0
		c0,11.631-9.429,21.06-21.059,21.06v0h-21.06h0v62.856l25.272,25.272h33.779l25.189-25.189v-0.084v-0.009L341.962,164.912z"/>
</g>
<polygon fill="#FFFFFF" points="232.678,207.074 223.285,197.681 162.239,258.728 162.239,343.371 175.522,343.371 175.522,264.23 
	"/>
<polygon fill="#FFFFFF" points="299.828,266.058 291.447,274.44 358.859,207.028 274.594,207.028 274.594,253.22 299.828,227.985 
	"/>
<rect x="292.418" y="210.097" transform="matrix(-0.7071 0.7071 -0.7071 -0.7071 665.639 159.2965)" fill="#0A3160" width="14.819" height="14.819"/>
<polygon fill="#0A3160" points="299.828,227.985 274.594,253.22 274.594,291.293 299.828,266.059 "/>
<path fill="#0A3160" d="M341.962,148.044L341.962,148.044v-8.426c0-4.653,3.772-8.426,8.426-8.426c4.538,0,8.227,3.59,8.408,8.083
	V118.9l-10.744-10.744l-11.1,11.1l0.033,0.033l-11.903,11.903v0v16.88h16.88V148.044z"/>
<path fill="#0A3160" d="M295.616,97.84L295.616,97.84l-21.06,0v21.06h21.06v0c11.631,0,21.059-9.429,21.059-21.06H295.616z"/>
</svg>
