<?xml version="1.0" encoding="utf-8"?>
<!-- Generator: Adobe Illustrator 18.1.1, SVG Export Plug-In . SVG Version: 6.00 Build 0)  -->
<svg version="1.1" id="Layer_1" xmlns="http://www.w3.org/2000/svg" xmlns:xlink="http://www.w3.org/1999/xlink" x="0px" y="0px"
	 viewBox="0 0 650 650" enable-background="new 0 0 650 650" xml:space="preserve">
<g>
	<path fill="#0A3160" d="M223.813,316.216l50.616-50.615h-101.77l0,0c-56.055,0-101.496,45.441-101.496,101.496v63.146
		l72.133,31.351l80.517-31.351V316.216z"/>
	<polygon fill="#FFFFFF" points="223.813,265.657 212.471,254.315 138.754,328.032 138.754,430.243 145.711,439.053 
		154.794,430.243 154.794,334.676 	"/>
	<path fill="#0A3160" d="M477.832,265.601h-70.94v50.827h-45.747l22.874,22.874l-90.942,90.942l153.718,31.351l132.534-31.351
		v-63.146v0C579.328,311.043,533.887,265.601,477.832,265.601z"/>
	<polygon fill="#A0A0A0" points="376.108,183.787 376.108,159.182 350.677,133.751 308.786,165.644 335.297,223.303 	"/>
	<path fill="#FFFFFF" d="M376.183,265.601h-30.492l30.417-30.417v-0.101v-0.011l-10.136-20.328l10.136-20.328l0.001-10.63
		c-0.219-5.426-4.674-9.761-10.153-9.761c-5.62,0-10.175,4.555-10.175,10.174v10.175v0.035h-20.384v-20.384l0,0V154.41l0-5.379
		l15.281-15.281l0,0h-25.432l-50.861,25.431l0,0v75.902l30.517,30.518h-30.472v55.779l30.472,15.503L376.183,265.601z"/>
	<polygon fill="#0A3160" points="304.9,290.908 274.428,321.38 274.428,367.356 304.9,336.884 	"/>
	<polygon fill="#A0A0A0" points="376.108,214.744 376.108,194.417 355.78,214.744 355.78,214.744 376.164,235.128 376.164,214.744 	
		"/>
	<path fill="#A0A0A0" d="M291.297,133.751L291.297,133.751l-16.914-0.001v33.949h16.914v-0.001
		c18.749,0,33.948-15.199,33.948-33.948H291.297z"/>
</g>
<rect x="20.621" y="430.243" fill="#A0A0A0" width="609.437" height="29.428"/>
<rect x="45.985" y="459.671" fill="#F1F1F1" width="558.707" height="55.601"/>
<polygon fill="#0A3160" points="304.9,291.052 304.9,265.601 330.351,265.601 "/>
</svg>
