<?xml version="1.0" encoding="utf-8"?>
<!-- Generator: Adobe Illustrator 17.0.0, SVG Export Plug-In . SVG Version: 6.00 Build 0)  -->
<!DOCTYPE svg PUBLIC "-//W3C//DTD SVG 1.1//EN" "http://www.w3.org/Graphics/SVG/1.1/DTD/svg11.dtd">
<svg version="1.1" id="Layer_1" xmlns="http://www.w3.org/2000/svg" xmlns:xlink="http://www.w3.org/1999/xlink" x="0px" y="0px"
	 width="650px" height="650px" viewBox="0 0 650 650" enable-background="new 0 0 650 650" xml:space="preserve">
<polygon fill="#A0A0A0" points="384.207,132.328 253.215,132.328 253.215,306.984 253.215,306.984 253.215,506.088 280.506,533.378 
	307.795,533.378 307.795,306.984 384.207,306.984 "/>
<path fill="#0A3160" d="M209.568,175.991c0-24.115,19.549-43.664,43.664-43.664v43.664h-0.001v24.347h0.001
	c0,12.038,4.897,22.954,12.803,30.861l5.189,5.16l0.031-0.031c15.813,15.813,25.607,37.645,25.607,61.722h0.001v8.912h-43.664
	v-8.912h-0.001c0-12.038-4.663-23.22-12.848-30.815l-5.174-5.174c-15.813-15.813-25.607-37.645-25.607-61.721L209.568,175.991
	L209.568,175.991z"/>
<path fill="#0A3160" d="M307.795,560.67v-27.292h-27.29v27.292l0,0v0.204l-0.142-0.204l-9.044,21.832h-18.105
	c-12.058,0-21.832,9.775-21.832,21.832h32.749h10.916h5.458h27.29l0,0v-0.002V560.67L307.795,560.67z"/>
<path fill="#0A3160" d="M384.208,582.502h-18.105l-9.043-21.832l-0.142,0.204v-0.204h-0.001v-27.294l27.29-27.289V306.983h-54.58
	v0.001h-75.54l75.54,75.54v129.714v21.14v27.292h0.001v43.662l-0.001,0.001h0.001h27.29h5.458h10.915h32.749
	C406.039,592.277,396.265,582.502,384.208,582.502z"/>
<path fill="#0A3160" d="M353.642,88.664c0,19.292-15.64,34.931-34.931,34.931c-19.292,0-34.931-15.64-34.931-34.931h-8.732
	c0,24.115,19.549,43.664,43.664,43.664c24.115,0,43.664-19.549,43.664-43.664H353.642z"/>
<path fill="#A0A0A0" d="M358.926,71.627C352.288,55.977,336.781,45,318.711,45l0,0l0,0l0,0l0,0
	c-18.07,0-33.577,10.977-40.215,26.627c-2.662,6.42-6.561,12.198-11.401,17.037h51.616l0,0h51.616
	C365.488,83.825,361.588,78.047,358.926,71.627z"/>
<path fill="#FFFFFF" d="M318.711,88.664h-21.832v27.259c5.981,4.797,13.569,7.672,21.832,7.672s15.851-2.876,21.832-7.672V88.664
	H318.711z"/>
<path fill="#A0A0A0" d="M275.098,337.508c16.844,0,30.547-13.704,30.547-30.547h-8.732c0,12.048-9.767,21.815-21.815,21.815
	c-12.048,0-21.816-9.767-21.816-21.815h-8.732C244.55,323.805,258.254,337.508,275.098,337.508z"/>
<path fill="#FFFFFF" d="M253.265,350.627v-8.733v-8.733v-4.366h4.366v34.931c0,4.823,3.91,8.733,8.733,8.733v-8.733v-8.733v-26.198
	h4.366v39.298c0,4.823,3.91,8.733,8.733,8.733v-8.733v-8.733v-30.565h4.366v26.198v8.733v8.733c4.823,0,8.733-3.91,8.733-8.733
	v-34.931h4.366v4.366c0,4.823,3.91,8.733,8.733,8.733v-8.733v-8.733v-8.713l-8.733-8.733h-4.366h-8.733h-4.366h-8.733h-4.366h-8.733
	h-4.366l-8.733,21.083v13.828C244.533,346.718,248.442,350.627,253.265,350.627z"/>
<path fill="#A0A0A0" d="M362.392,337.508c16.844,0,30.547-13.704,30.547-30.547h-8.732c0,12.048-9.767,21.815-21.815,21.815
	s-21.816-9.767-21.816-21.815h-8.732C331.844,323.805,345.548,337.508,362.392,337.508z"/>
<path fill="#FFFFFF" d="M384.24,350.627v-8.733v-8.733v-4.366h-4.366v34.931c0,4.823-3.91,8.733-8.733,8.733v-8.733v-8.733v-26.198
	h-4.366v39.298c0,4.823-3.91,8.733-8.733,8.733v-8.733v-8.733v-30.565h-4.366v26.198v8.733v8.733c-4.823,0-8.733-3.91-8.733-8.733
	v-34.931h-4.366v4.366c0,4.823-3.91,8.733-8.733,8.733v-8.733v-8.733v-8.713l8.733-8.733h4.366h8.733h4.366h8.733h4.366h8.733h4.366
	l8.733,21.083v13.828C392.973,346.718,389.063,350.627,384.24,350.627z"/>
<path fill="#0A3160" d="M427.854,175.991c0-24.115-19.549-43.664-43.664-43.664v43.664h0v24.347h-0.001
	c0,12.038-4.897,22.954-12.803,30.861l-5.189,5.16l-0.031-0.031c-15.813,15.813-25.607,37.645-25.607,61.722h-0.001v8.912h43.664
	v-8.912h0.001c0-12.038,4.663-23.22,12.849-30.815l5.174-5.174c15.813-15.813,25.607-37.645,25.607-61.721L427.854,175.991
	L427.854,175.991z"/>
<path fill="#FFFFFF" d="M362.392,276.414c-6.851,0-13.182,2.267-18.283,6.09l-7.027-7.026l-1.482-1.471
	c-4.511-4.512-10.51-6.996-16.89-6.996s-12.378,2.484-16.909,7.016l-8.429,8.471c-5.1-3.819-11.427-6.084-18.275-6.084
	c-16.844,0-30.548,13.703-30.548,30.547h8.732c0-12.048,9.767-21.815,21.816-21.815c12.048,0,21.815,9.767,21.815,21.815h8.732
	c0-6.851-2.268-13.182-6.09-18.283l4.24-4.24l4.201-4.257c2.862-2.862,6.667-4.439,10.715-4.439s7.853,1.576,10.727,4.45
	l8.496,8.487c-3.823,5.101-6.089,11.431-6.089,18.281h8.732c0-12.048,9.767-21.815,21.816-21.815
	c12.048,0,21.815,9.767,21.815,21.815h8.732C392.939,290.117,379.236,276.414,362.392,276.414z"/>
</svg>
