<?xml version="1.0" encoding="utf-8"?>
<!-- Generator: Adobe Illustrator 16.0.1, SVG Export Plug-In . SVG Version: 6.00 Build 0)  -->
<!DOCTYPE svg PUBLIC "-//W3C//DTD SVG 1.1//EN" "http://www.w3.org/Graphics/SVG/1.1/DTD/svg11.dtd">
<svg version="1.1" id="Layer_1" xmlns="http://www.w3.org/2000/svg" xmlns:xlink="http://www.w3.org/1999/xlink" x="0px" y="0px"
	 width="650px" height="650px" viewBox="0 0 650 650" enable-background="new 0 0 650 650" xml:space="preserve">
<path fill="#0A3160" d="M186.806,416.306L173.33,250.747c-56.137,0-101.645,45.507-101.645,101.645v43.654v108.812H173.33
	L186.806,416.306z"/>
<path fill="#0A3160" d="M478.173,504.858h101.644V352.392l0,0v0c0-56.137-45.507-101.644-101.644-101.644l-20,123.61
	L478.173,504.858z"/>
<path fill="#A0A0A0" d="M173.33,250.747v254.111h304.843V250.747H173.33z M442.494,408.443l-7.943-4.983
	c0-20.012-16.223-36.236-36.234-36.236c-20.014,0-36.236,16.224-36.236,36.236l-6.789,4.983l-22.262-5.157l-14.425,0.042
	l-21.448,6.644l-7.602-6.644c0-20.012-16.225-36.235-36.236-36.235s-36.235,16.223-36.235,36.235l-6.302,3.322l-8.203-3.322
	c0-27.978,22.763-50.74,50.74-50.74c22.908,0,42.311,15.264,48.594,36.152h47.85c6.324-20.82,25.694-36.02,48.555-36.02
	c27.977,0,50.739,22.762,50.739,50.74L442.494,408.443z"/>
<g>
	<path fill="#FFFFFF" d="M325.803,242.292c14.766,0,28.322-5.138,39.01-13.708v-78.961h-78.02v78.961
		C297.48,237.154,311.038,242.292,325.803,242.292z"/>
	<path fill="#0A3160" d="M388.219,161.905v10.824c0,34.471-27.944,62.416-62.416,62.416c-34.471,0-62.416-27.945-62.416-62.416
		v-10.824h-15.604v10.824c0,43.089,34.932,78.019,78.02,78.019c43.09,0,78.02-34.93,78.02-78.019v-10.824H388.219z"/>
	<path fill="#A0A0A0" d="M397.66,142.287c-11.861-27.963-39.568-47.578-71.857-47.578l0,0l0,0l0,0l0,0
		c-32.287,0-59.996,19.614-71.856,47.578c-4.757,11.471-11.724,21.796-20.37,30.441h92.227l0,0h92.229
		C409.385,164.083,402.416,153.758,397.66,142.287z"/>
</g>
<polygon fill="#0A3160" points="304.059,504.858 202.578,504.858 202.578,403.46 209.129,410.46 217.084,403.46 289.555,403.46 
	296.337,413.46 304.059,403.46 "/>
<polygon fill="#0A3160" points="449.056,504.858 347.576,504.858 347.576,444.351 362.084,403.46 434.551,403.46 442.332,409.46 
	449.056,403.46 "/>
<path fill="#FFFFFF" d="M434.551,403.296c0,20.012-16.223,36.235-36.234,36.235c-20.013,0-36.236-16.223-36.236-36.235h-14.504
	c0-0.003,0-0.007,0-0.01h-14.547c0,18.029,7.314,34.351,19.135,46.16l10.271-10.272c9.184,9.183,21.869,14.862,35.881,14.862
	c28.022,0,50.739-22.717,50.739-50.74H434.551z"/>
<path fill="#FFFFFF" d="M318.604,403.286h-14.546c0,0.003,0,0.006,0,0.01h-14.504c0,20.012-16.225,36.235-36.236,36.235
	s-36.236-16.223-36.236-36.235h-14.504c0,28.023,22.717,50.74,50.74,50.74c14.012,0,26.697-5.679,35.879-14.862l10.271,10.272
	C311.291,437.637,318.604,421.315,318.604,403.286z"/>
<path fill="#FFFFFF" d="M289.555,330.797v36.264h-7.254v-58.021c0-8.011-6.494-14.505-14.505-14.505v14.505v58.021h-7.253v-65.274
	c0-8.011-6.494-14.505-14.505-14.505v79.779h-7.253v-72.527c-8.011,0-14.506,6.495-14.506,14.505v58.021h-7.252v-7.253
	c0-8.011-6.494-14.505-14.505-14.505v43.483l14.505,14.505h72.527l14.504-35.019v-22.969
	C304.059,337.292,297.564,330.797,289.555,330.797z"/>
<path fill="#FFFFFF" d="M362.053,330.797v14.505v21.758h7.252v-58.021c0-8.011,6.494-14.505,14.506-14.505v14.505v58.021h7.252
	v-65.274c0-8.011,6.495-14.505,14.506-14.505v14.505v65.274h7.253v-58.021v-14.505c8.011,0,14.505,6.495,14.505,14.505v58.021h7.253
	v-7.253c0-8.011,6.494-14.505,14.505-14.505v43.483l-14.505,14.505h-72.526l-14.506-35.019v-22.969
	C347.547,337.292,354.041,330.797,362.053,330.797z"/>
</svg>
