<?xml version="1.0" encoding="utf-8"?>
<!-- Generator: Adobe Illustrator 18.1.1, SVG Export Plug-In . SVG Version: 6.00 Build 0)  -->
<svg version="1.1" id="Layer_1" xmlns="http://www.w3.org/2000/svg" xmlns:xlink="http://www.w3.org/1999/xlink" x="0px" y="0px"
	 viewBox="0 0 650 650" enable-background="new 0 0 650 650" xml:space="preserve">
<path fill="#0A3160" d="M307.795,533.378l-13.462-10l-13.828,10v27.292l0,0v0.204l-0.142-0.204l-9.044,21.832h-18.105
	c-12.058,0-21.832,9.775-21.832,21.832h76.412l0,0v-0.002V533.378z"/>
<polygon fill="#A0A0A0" points="384.207,132.328 253.215,132.328 238,172.333 253.215,242.333 253.215,306.984 253.215,306.984 
	253.215,506.088 280.506,533.378 307.795,533.378 307.795,332.853 384.207,306.984 384.207,238 397,169.333 "/>
<path fill="#FFFFFF" d="M318.711,68.664l-21.832,20v31.259c5.981,4.797,13.569,7.672,21.832,7.672s15.851-2.876,21.832-7.672V88.664
	L318.711,68.664z"/>
<path fill="#0A3160" d="M384.224,298.049L384.224,298.049c0.001-12.038,4.664-23.22,12.85-30.815l5.174-5.174
	c15.813-15.813,25.607-37.645,25.607-61.721v-24.347h0c0-24.115-19.549-43.664-43.664-43.664v43.664h0v24.347h-0.001
	c0,12.038-4.897,22.954-12.803,30.861l-5.188,5.16l-0.031-0.031c-15.813,15.813-25.607,37.645-25.607,61.721h0v8.935l-43.697,0
	v-8.935h0c0-24.077-9.794-45.908-25.607-61.721l-0.031,0.031l-5.188-5.16c-7.906-7.906-12.803-18.822-12.803-30.861h-0.001v-24.347
	h0v-43.664c-24.115,0-43.664,19.549-43.664,43.664h0v24.347c0,24.077,9.794,45.908,25.607,61.721l5.174,5.174
	c8.186,7.595,12.849,18.777,12.849,30.815h0.001v8.912l1.076,0.21l75.353,75.353l0,221.809l0,0.001h0h76.413
	c0-12.057-9.774-21.832-21.832-21.832h-18.105l-9.043-21.832l-0.142,0.204v-0.204h0v-27.294l27.29-27.289V306.983h-0.022
	l0.039-0.022V298.049z"/>
<path fill="#0A3160" d="M353.642,88.664c0,19.292-15.64,34.931-34.931,34.931c-19.292,0-34.931-15.64-34.931-34.931h-8.732
	c0,24.115,19.549,43.664,43.664,43.664c24.115,0,43.664-19.549,43.664-43.664H353.642z"/>
<path fill="#A0A0A0" d="M358.926,71.627C352.288,55.977,336.781,45,318.711,45l0,0l0,0l0,0l0,0
	c-18.07,0-33.577,10.977-40.215,26.627c-2.662,6.42-6.561,12.198-11.401,17.037h103.231
	C365.488,83.825,361.588,78.047,358.926,71.627z"/>
<path fill="#A0A0A0" d="M275.098,337.508c16.844,0,30.547-13.704,30.547-30.547l-4.645-3l-4.087,3
	c0,12.048-9.767,21.815-21.815,21.815c-12.048,0-21.816-9.767-21.816-21.815l-4.782-3l-3.95,3
	C244.55,323.805,258.254,337.508,275.098,337.508z"/>
<path fill="#FFFFFF" d="M253.265,350.627v-8.733v-13.099h4.366v34.931c0,4.823,3.91,8.733,8.733,8.733v-8.733v-34.931h4.366v39.298
	c0,4.823,3.91,8.733,8.733,8.733v-8.733v-39.298h4.366v34.931v8.733c4.823,0,8.733-3.91,8.733-8.733v-34.931h4.366v4.366
	c0,4.823,3.91,8.733,8.733,8.733v-26.178l-8.733-8.733h-43.664l-8.733,21.083v13.828
	C244.533,346.718,248.442,350.627,253.265,350.627z"/>
<path fill="#A0A0A0" d="M362.392,337.508c16.844,0,30.547-13.704,30.547-30.547l-4.939-2l-3.794,2
	c0,12.048-9.767,21.815-21.815,21.815s-21.816-9.767-21.816-21.815l-4.577-4l-4.156,4
	C331.844,323.805,345.548,337.508,362.392,337.508z"/>
<path fill="#FFFFFF" d="M384.24,350.627v-21.832h-4.366v34.931c0,4.823-3.91,8.733-8.733,8.733v-8.733v-34.931h-4.366v39.298
	c0,4.823-3.91,8.733-8.733,8.733v-48.03h-4.366v43.664c-4.823,0-8.733-3.91-8.733-8.733v-34.931h-4.366v4.366
	c0,4.823-3.91,8.733-8.733,8.733v-26.178l8.733-8.733h43.664l8.733,21.083v13.828C392.973,346.718,389.063,350.627,384.24,350.627z"
	/>
<path fill="#FFFFFF" d="M362.392,276.414c-6.851,0-13.182,2.267-18.283,6.09l-8.509-8.497c-4.511-4.512-10.51-6.996-16.89-6.996
	s-12.378,2.484-16.909,7.016l-8.429,8.471c-5.1-3.819-11.427-6.084-18.275-6.084c-16.844,0-30.548,13.703-30.548,30.547h8.732
	c0-12.048,9.767-21.815,21.816-21.815c12.048,0,21.815,9.767,21.815,21.815h8.732c0-6.851-2.268-13.182-6.09-18.283l8.441-8.497
	c2.862-2.862,6.667-4.439,10.715-4.439s7.853,1.576,10.727,4.45l8.496,8.487c-3.823,5.101-6.089,11.431-6.089,18.281h8.732
	c0-12.048,9.767-21.815,21.816-21.815c12.048,0,21.815,9.767,21.815,21.815h8.732C392.939,290.117,379.236,276.414,362.392,276.414z
	"/>
</svg>
