<?xml version="1.0" encoding="utf-8"?>
<!-- Generator: Adobe Illustrator 17.0.0, SVG Export Plug-In . SVG Version: 6.00 Build 0)  -->
<!DOCTYPE svg PUBLIC "-//W3C//DTD SVG 1.1//EN" "http://www.w3.org/Graphics/SVG/1.1/DTD/svg11.dtd">
<svg version="1.1" id="Layer_1" xmlns="http://www.w3.org/2000/svg" xmlns:xlink="http://www.w3.org/1999/xlink" x="0px" y="0px"
	 width="650px" height="650px" viewBox="0 0 650 650" enable-background="new 0 0 650 650" xml:space="preserve">
<polygon fill="#A0A0A0" points="381.95,139.288 255.472,139.288 255.472,307.926 255.472,307.926 255.472,500.169 281.823,526.519 
	308.171,526.52 308.171,307.926 381.95,307.926 "/>
<path fill="#333333" d="M213.329,181.447c0-23.284,18.875-42.159,42.159-42.159v42.159h0v23.508h0.001
	c0,11.623,4.728,22.163,12.362,29.797l5.01,4.982l0.03-0.03c15.268,15.268,24.725,36.348,24.725,59.595h0v8.605h-42.16v-8.605
	h-0.001c0-11.624-4.502-22.42-12.406-29.753l-4.996-4.996c-15.268-15.268-24.725-36.348-24.725-59.595L213.329,181.447
	L213.329,181.447z"/>
<path fill="#333333" d="M308.171,552.871V526.52h-26.35v26.351l0,0v0.197l-0.137-0.197l-8.732,21.08h-17.481
	c-11.642,0-21.08,9.438-21.08,21.08h31.62h10.54h5.27h26.35l0,0v-0.002V552.871L308.171,552.871z"/>
<path fill="#333333" d="M381.951,573.95h-17.481l-8.731-21.079l-0.137,0.197v-0.197h0v-26.354l26.35-26.348V307.926h-52.7v0.001
	h-72.937l72.937,72.937v125.244v20.412v26.351h0v42.158l0,0.001h0h26.35h5.27h10.539h31.62
	C403.03,583.389,393.593,573.95,381.951,573.95z"/>
<path fill="#333333" d="M352.439,97.129c0,18.627-15.101,33.728-33.728,33.728c-18.627,0-33.728-15.101-33.728-33.728h-8.431
	c0,23.284,18.875,42.159,42.159,42.159s42.159-18.875,42.159-42.159H352.439z"/>
<path fill="#FFFFFF" d="M318.711,130.857c7.979,0,15.305-2.777,21.08-7.408V84.643h-42.159v38.805
	C303.406,128.08,310.732,130.857,318.711,130.857z"/>
<path fill="#A0A0A0" d="M357.54,80.679c-6.409-15.11-21.382-25.709-38.829-25.709l0,0l0,0l0,0l0,0
	c-17.448,0-32.42,10.599-38.829,25.709c-2.57,6.199-6.335,11.778-11.008,16.45h49.837l0,0h49.837
	C363.876,92.457,360.111,86.878,357.54,80.679z"/>
<path fill="#A0A0A0" d="M276.6,337.399c16.263,0,29.495-13.231,29.495-29.495h-8.431c0,11.633-9.43,21.064-21.063,21.064
	s-21.064-9.431-21.064-21.064h-8.431C247.105,324.167,260.337,337.399,276.6,337.399z"/>
<path fill="#FFFFFF" d="M255.521,350.066v-8.432v-8.432v-4.216h4.216v33.728c0,4.657,3.775,8.432,8.432,8.432v-8.432v-8.432v-25.296
	h4.216v37.943c0,4.657,3.775,8.432,8.432,8.432v-8.432v-8.432v-29.512h4.216v25.296v8.432v8.432c4.657,0,8.432-3.775,8.432-8.432
	v-33.728h4.216v4.216c0,4.657,3.775,8.432,8.432,8.432v-8.432v-8.432v-8.413l-8.432-8.432h-4.216h-8.432h-4.216h-8.432h-4.216
	h-8.432h-4.216l-8.432,20.356v13.352C247.089,346.291,250.864,350.066,255.521,350.066z"/>
<path fill="#A0A0A0" d="M360.887,337.399c16.263,0,29.495-13.231,29.495-29.495h-8.431c0,11.633-9.43,21.064-21.063,21.064
	s-21.064-9.431-21.064-21.064h-8.431C331.392,324.167,344.623,337.399,360.887,337.399z"/>
<path fill="#FFFFFF" d="M381.982,350.066v-8.432v-8.432v-4.216h-4.216v33.728c0,4.657-3.775,8.432-8.432,8.432v-8.432v-8.432
	v-25.296h-4.216v37.943c0,4.657-3.775,8.432-8.432,8.432v-8.432v-8.432v-29.512h-4.216v25.296v8.432v8.432
	c-4.657,0-8.432-3.775-8.432-8.432v-33.728h-4.216v4.216c0,4.657-3.775,8.432-8.432,8.432v-8.432v-8.432v-8.413l8.432-8.432h4.216
	h8.432h4.216h8.432h4.216h8.432h4.216l8.432,20.356v13.352C390.414,346.291,386.639,350.066,381.982,350.066z"/>
<path fill="#333333" d="M424.093,181.447c0-23.284-18.875-42.159-42.159-42.159v42.159h0v23.508h-0.001
	c0,11.623-4.728,22.163-12.362,29.797l-5.01,4.982l-0.03-0.03c-15.268,15.268-24.725,36.348-24.725,59.595h0v8.605h42.16v-8.605
	h0.001c0-11.624,4.502-22.42,12.406-29.753l4.996-4.996c15.268-15.268,24.725-36.348,24.725-59.595L424.093,181.447L424.093,181.447
	z"/>
<path fill="#FFFFFF" d="M360.887,278.409c-6.615,0-12.728,2.189-17.653,5.88l-6.785-6.784l-1.431-1.42
	c-4.356-4.356-10.147-6.755-16.308-6.755s-11.952,2.399-16.327,6.775l-8.139,8.179c-4.924-3.688-11.034-5.875-17.645-5.875
	c-16.264,0-29.495,13.231-29.495,29.495h8.431c0-11.633,9.431-21.063,21.064-21.063c11.633,0,21.063,9.431,21.063,21.063h8.431
	c0-6.615-2.189-12.727-5.88-17.653l4.094-4.094l4.056-4.11c2.764-2.764,6.438-4.286,10.346-4.286s7.582,1.522,10.357,4.297
	l8.203,8.194c-3.691,4.925-5.879,11.037-5.879,17.651h8.431c0-11.633,9.431-21.063,21.064-21.063
	c11.633,0,21.063,9.431,21.063,21.063h8.431C390.381,291.641,377.15,278.409,360.887,278.409z"/>
</svg>
