<?xml version="1.0" encoding="utf-8"?>
<!-- Generator: Adobe Illustrator 18.1.1, SVG Export Plug-In . SVG Version: 6.00 Build 0)  -->
<svg version="1.1" id="Layer_1" xmlns="http://www.w3.org/2000/svg" xmlns:xlink="http://www.w3.org/1999/xlink" x="0px" y="0px"
	 viewBox="0 0 650 650" enable-background="new 0 0 650 650" xml:space="preserve">
<polygon fill="#A0A0A0" points="386.482,453.939 386.481,453.938 386.481,453.938 386.481,453.938 302.609,537.81 470.353,537.81 
	"/>
<path fill="#FFFFFF" d="M409.5,397.5l-55.743,23.715l0.141,0.14l-116.781,116.78h69.167l82.197-82.196v0
	c16.898,16.898,44.294,16.898,61.192,0c9.5-9.5,13.659-22.318,12.477-34.723C461.23,411.555,409.5,397.5,409.5,397.5z"/>
<path fill="#EEEEEE" d="M449.673,394.747l0.039-0.039l-34.723-34.724v0l-38.425-38.425L331.519,340l-16.325,42.652l38.703,38.703
	l0.14-0.14H462.15C461.229,411.554,457.071,402.144,449.673,394.747z"/>
<polygon fill="#0A3160" points="331.519,168.586 180.378,168.586 180.313,168.586 162.846,186.053 162.846,186.118 162.846,337.259 
	180.378,337.259 180.378,198.514 282.116,300.253 294.513,287.856 192.774,186.118 331.519,186.118 "/>
<path fill="#FFFFFF" d="M402.353,86.953L81.213,407.67c57.992,24.022,125.138,25.961,187.747,0.124
	C394.393,356.031,454.115,212.386,402.353,86.953z"/>
<rect x="195.25" y="532.06" fill="#0A3160" width="317.294" height="27.94"/>
</svg>
