<?xml version="1.0" encoding="utf-8"?>
<!-- Generator: Adobe Illustrator 17.0.0, SVG Export Plug-In . SVG Version: 6.00 Build 0)  -->
<!DOCTYPE svg PUBLIC "-//W3C//DTD SVG 1.1//EN" "http://www.w3.org/Graphics/SVG/1.1/DTD/svg11.dtd">
<svg version="1.1" id="Layer_1" xmlns="http://www.w3.org/2000/svg" xmlns:xlink="http://www.w3.org/1999/xlink" x="0px" y="0px"
	 width="650px" height="650px" viewBox="0 0 650 650" enable-background="new 0 0 650 650" xml:space="preserve">
<g>
	<g>
		<polygon fill="#A0A0A0" points="0,366.368 172.966,366.368 215.879,323.455 172.966,280.541 0,280.541 		"/>
	</g>
	<polygon fill="#A0A0A0" points="453.509,302.23 475.197,280.541 378.642,280.541 314.272,280.541 314.272,302.23 378.642,302.23 	
		"/>
	<polygon fill="#0A3160" points="356.954,280.541 378.642,258.853 194.654,258.853 172.966,280.541 215.879,323.454 
		236.119,303.215 236.119,403.791 285.47,403.791 285.47,302.23 314.272,302.23 314.272,280.541 	"/>
	<path fill="#0A3160" d="M621.054,285.064v-26.212h-17.165v26.212h-51.283c-14.411-0.079-26.07-11.782-26.07-26.212h-51.338v21.689
		h-0.001l-21.688,21.688h99.241h51.138h17.165H650v-17.165H621.054z"/>
	<path fill="#0A3160" d="M378.642,302.23h-64.37c0,87.551,71.228,158.779,158.78,158.779v-64.37
		C420.994,396.639,378.642,354.287,378.642,302.23z"/>
	<polygon fill="#FFFFFF" points="475.197,258.853 378.642,258.853 356.954,280.541 378.642,280.541 475.197,280.541 	"/>
</g>
</svg>
