<?xml version="1.0" encoding="utf-8"?>
<!-- Generator: Adobe Illustrator 16.0.1, SVG Export Plug-In . SVG Version: 6.00 Build 0)  -->
<!DOCTYPE svg PUBLIC "-//W3C//DTD SVG 1.1//EN" "http://www.w3.org/Graphics/SVG/1.1/DTD/svg11.dtd">
<svg version="1.1" id="Layer_1" xmlns="http://www.w3.org/2000/svg" xmlns:xlink="http://www.w3.org/1999/xlink" x="0px" y="0px"
	 width="650px" height="650px" viewBox="0 0 650 650" enable-background="new 0 0 650 650" xml:space="preserve">
<g>
	<g>
		<polygon fill="#A0A0A0" points="-2.865,270.8 195.281,270.8 236.007,230.075 226.852,198.943 195.281,189.349 -2.865,189.349 		
			"/>
	</g>
	<path fill="#0A3160" d="M620.527,193.641v-24.875h-16.289v24.875h-48.67c-13.676-0.075-24.74-11.181-24.74-24.875h-48.721
		l-52.359,20.583l31.775,20.583h94.184h48.531h16.289H648v-16.29H620.527z"/>
	<path fill="#0A3160" d="M329.385,209.931L329.385,209.931L329.385,209.931c0,67.314,54.764,122.077,122.078,122.077v-49.49
		c-40.025,0-72.588-32.562-72.588-72.587l11.598-41.166H215.863l-20.582,20.583l40.726,40.726l19.208-19.208v95.449h46.836v-96.385
		H329.385z"/>
	<polygon fill="#FFFFFF" points="482.107,168.766 390.473,168.766 369.89,189.349 429.748,201.719 482.107,189.349 	"/>
	<polygon fill="#A0A0A0" points="461.523,209.931 482.105,189.349 390.473,189.349 329.385,189.349 329.385,209.931 
		390.473,209.931 	"/>
	<g>
		<polygon fill="#A0A0A0" points="-2.865,456.193 195.281,456.193 236.007,415.466 226.852,384.335 195.281,374.741 -2.865,374.741 
					"/>
	</g>
	<path fill="#0A3160" d="M620.527,379.033v-24.875h-16.289v24.875h-48.67c-13.676-0.075-24.74-11.182-24.74-24.875h-48.721
		l-52.359,20.583l31.775,20.583h94.184h48.531h16.289H648v-16.29H620.527z"/>
	<path fill="#0A3160" d="M329.385,395.323L329.385,395.323L329.385,395.323c0,67.314,54.764,122.078,122.078,122.078v-49.49
		c-40.025,0-72.588-32.563-72.588-72.587l11.598-41.165H215.863l-20.582,20.583l40.726,40.725l19.208-19.207v95.449h46.836v-96.385
		H329.385z"/>
	<polygon fill="#FFFFFF" points="482.107,354.158 390.473,354.158 369.89,374.741 429.748,387.111 482.107,374.741 	"/>
	<polygon fill="#A0A0A0" points="461.523,395.323 482.105,374.741 390.473,374.741 329.385,374.741 329.385,395.323 
		390.473,395.323 	"/>
</g>
</svg>
