<?xml version="1.0" encoding="utf-8"?>
<!-- Generator: Adobe Illustrator 18.1.1, SVG Export Plug-In . SVG Version: 6.00 Build 0)  -->
<svg version="1.1" id="Layer_1" xmlns="http://www.w3.org/2000/svg" xmlns:xlink="http://www.w3.org/1999/xlink" x="0px" y="0px"
	 viewBox="0 0 650 650" enable-background="new 0 0 650 650" xml:space="preserve">
<g>
	<polygon fill="#A0A0A0" points="173.369,605 173.369,455.614 136.305,418.551 107.974,426.882 99.242,455.614 99.242,605 	"/>
</g>
<path fill="#0A3160" d="M103.149,68.612H80.51v14.825h22.638v44.292c-0.068,12.446-10.176,22.516-22.638,22.516v44.339l18.732,47.65
	l18.731-28.918v-85.712V83.438V68.612v-25h-14.825V68.612z"/>
<path fill="#0A3160" d="M117.974,333.572L117.974,333.572L117.974,333.572c61.26,0,111.098-49.838,111.098-111.098h-45.039
	c0,36.425-29.634,66.059-66.059,66.059L80.51,277.977v158.905l18.732,18.731l37.063-37.063l-17.48-17.481h86.864v-42.623h-87.716
	V333.572z"/>
<polygon fill="#FFFFFF" points="80.51,194.585 80.51,277.977 99.242,296.708 110.5,242.234 99.242,194.585 "/>
<polygon fill="#A0A0A0" points="117.974,213.316 99.242,194.585 99.242,277.977 99.242,333.572 117.974,333.572 117.974,277.977 "/>
<g>
	<polygon fill="#A0A0A0" points="342.841,605 342.841,455.614 305.778,418.551 277.446,426.882 268.715,455.614 268.715,605 	"/>
</g>
<path fill="#0A3160" d="M272.621,68.612h-22.638v14.825h22.638v44.292c-0.068,12.446-10.176,22.516-22.638,22.516v44.339
	l18.732,47.65l18.731-28.918v-85.712V83.438V68.612v-25h-14.825V68.612z"/>
<path fill="#0A3160" d="M287.446,333.572L287.446,333.572L287.446,333.572c61.26,0,111.098-49.838,111.098-111.098h-45.039
	c0,36.425-29.634,66.059-66.059,66.059l-37.463-10.555v158.905l18.732,18.731l37.063-37.063l-17.48-17.481h86.864v-42.623h-87.716
	V333.572z"/>
<polygon fill="#FFFFFF" points="249.983,194.585 249.983,277.977 268.715,296.708 279.972,242.234 268.715,194.585 "/>
<polygon fill="#A0A0A0" points="287.446,213.316 268.715,194.585 268.715,277.977 268.715,333.572 287.446,333.572 287.446,277.977 
	"/>
<g>
	<polygon fill="#A0A0A0" points="511.559,605 511.559,455.614 474.496,418.551 446.164,426.882 437.433,455.614 437.433,605 	"/>
</g>
<path fill="#0A3160" d="M441.339,68.612h-22.638v14.825h22.638v44.292c-0.068,12.446-10.176,22.516-22.638,22.516v44.339
	l18.732,47.65l18.731-28.918v-85.712V83.438V68.612v-25h-14.825V68.612z"/>
<path fill="#0A3160" d="M456.164,333.572L456.164,333.572L456.164,333.572c61.26,0,111.098-49.838,111.098-111.098h-45.039
	c0,36.425-29.634,66.059-66.059,66.059l-37.463-10.555v158.905l18.732,18.731l37.063-37.063l-17.48-17.481h86.864v-42.623h-87.716
	V333.572z"/>
<polygon fill="#FFFFFF" points="418.701,194.585 418.701,277.977 437.433,296.708 448.69,242.234 437.433,194.585 "/>
<polygon fill="#A0A0A0" points="456.164,213.316 437.433,194.585 437.433,277.977 437.433,333.572 456.164,333.572 456.164,277.977 
	"/>
</svg>
