<?xml version="1.0" encoding="utf-8"?>
<!-- Generator: Adobe Illustrator 17.0.0, SVG Export Plug-In . SVG Version: 6.00 Build 0)  -->
<!DOCTYPE svg PUBLIC "-//W3C//DTD SVG 1.1//EN" "http://www.w3.org/Graphics/SVG/1.1/DTD/svg11.dtd">
<svg version="1.1" id="Layer_1" xmlns="http://www.w3.org/2000/svg" xmlns:xlink="http://www.w3.org/1999/xlink" x="0px" y="0px"
	 width="650px" height="650px" viewBox="0 0 650 650" enable-background="new 0 0 650 650" xml:space="preserve">
<g>
	<g>
		<polygon fill="#A0A0A0" points="12.939,360.377 179.019,360.377 220.224,319.172 179.019,277.967 12.939,277.967 		"/>
	</g>
	<path fill="#333333" d="M467.157,451.25v-61.807c-49.985,0-90.651-40.666-90.651-90.651h167.176h49.102h16.482h27.794v-16.482
		h-27.794v-25.168h-16.482v25.168h-49.242c-13.837-0.076-25.032-11.313-25.032-25.168H199.844l-20.825,20.825l41.205,41.205
		l19.434-19.434v96.571h47.386v-97.518h27.655C314.699,382.858,383.092,451.25,467.157,451.25z"/>
	<polygon fill="#A0A0A0" points="469.217,298.792 448.393,298.792 469.217,277.968 376.506,277.968 314.699,277.968 
		314.699,298.792 376.506,298.792 469.217,298.792 	"/>
	<polygon fill="#FFFFFF" points="469.217,257.142 376.506,257.142 355.682,277.968 376.506,277.968 469.217,277.968 	"/>
</g>
</svg>
