<?xml version="1.0" encoding="utf-8"?>
<!-- Generator: Adobe Illustrator 17.0.0, SVG Export Plug-In . SVG Version: 6.00 Build 0)  -->
<!DOCTYPE svg PUBLIC "-//W3C//DTD SVG 1.1//EN" "http://www.w3.org/Graphics/SVG/1.1/DTD/svg11.dtd">
<svg version="1.1" id="Layer_1" xmlns="http://www.w3.org/2000/svg" xmlns:xlink="http://www.w3.org/1999/xlink" x="0px" y="0px"
	 width="650px" height="650px" viewBox="0 0 650 650" enable-background="new 0 0 650 650" xml:space="preserve">
<path fill="#A0A0A0" d="M88.854,208.433C88.854,208.433,88.854,208.433,88.854,208.433c-20.29,0-36.738,16.448-36.738,36.737
	c0,0,0,0,0,0h-0.006c0,14.582,8.497,27.178,20.81,33.111c0.064,0.031,0.13,0.058,0.195,0.089c0.471,0.223,0.944,0.441,1.426,0.645
	c0.132,0.056,0.267,0.104,0.399,0.158c0.417,0.171,0.835,0.341,1.26,0.497c0.214,0.079,0.433,0.146,0.649,0.221
	c0.348,0.12,0.695,0.244,1.048,0.355c0.29,0.09,0.585,0.168,0.878,0.251c0.286,0.081,0.568,0.169,0.857,0.243
	c0.342,0.088,0.69,0.162,1.036,0.241c0.245,0.056,0.488,0.119,0.735,0.17c0.398,0.082,0.802,0.148,1.204,0.217
	c0.199,0.034,0.396,0.076,0.595,0.106c0.451,0.07,0.907,0.123,1.363,0.176c0.157,0.018,0.311,0.043,0.469,0.06
	c0.5,0.052,1.005,0.087,1.511,0.118c0.116,0.007,0.23,0.02,0.346,0.026c0.539,0.028,1.082,0.04,1.627,0.045
	c0.082,0.001,0.163,0.007,0.245,0.007h0.021c0.023,0,0.045,0.002,0.068,0.002c0.023,0,0.045-0.002,0.068-0.002h36.713v-36.736
	h18.296v-36.737L88.854,208.433L88.854,208.433z"/>
<polygon fill="#FFFFFF" points="153.127,45 52.111,45 52.111,170 153.127,170 254.143,170 254.143,45 "/>
<rect x="166.892" y="480.043" fill="#FFFFFF" width="22.961" height="88.782"/>
<rect x="231.182" y="480.043" fill="#FFFFFF" width="22.961" height="88.782"/>
<path fill="#0A3160" d="M217.406,133.263c-10.145,0-18.369,8.224-18.369,18.369h-18.369V170h18.369l18.369,18.369V170
	c10.145,0,18.369-8.224,18.369-18.369S227.551,133.263,217.406,133.263z"/>
<polygon fill="#FFFFFF" points="180.668,170 180.668,197.411 191.69,208.433 206.421,208.433 217.406,197.448 217.406,197.411 
	217.406,188.368 199.037,170 "/>
<path fill="#0A3160" d="M166.902,568.661L166.902,568.661l-7.605,18.36h-15.345c-10.14,0-18.36,8.22-18.36,18.36h27.541h9.18h4.59
	h22.95v-36.721H166.902z"/>
<path fill="#0A3160" d="M231.164,568.661L231.164,568.661l-7.605,18.36h-15.345c-10.14,0-18.36,8.22-18.36,18.36h27.541h9.18h4.59
	h22.95v-36.721H231.164z"/>
<polygon fill="#0A3160" points="162.29,355.382 162.29,170 143.93,170 143.93,355.382 143.931,355.382 143.931,480.043 
	254.143,480.043 254.143,355.382 "/>
<path fill="#A0A0A0" d="M254.143,208.433L254.143,208.433l-91.853,0v146.949h91.853v-9.902
	c21.923-12.728,36.709-36.449,36.709-63.573h0.029V245.17C290.88,224.88,274.432,208.433,254.143,208.433z"/>
<path fill="#FFFFFF" d="M180.669,355.387v-36.737h-0.018v-0.001l-7.344-7.344h-7.327h-7.344h-7.344c0,4.056,3.288,7.344,7.344,7.344
	h3.672v3.672h-18.36v7.344h18.36v3.672h-18.36v7.344h18.36v3.672h-18.36v7.344h18.36v3.672h-3.672h-7.344h-7.344
	c0,4.056,3.288,7.344,7.344,7.344h11.629l17.73-7.344v0.018H180.669z"/>
<polygon fill="#A0A0A0" points="153.127,133.263 107.217,133.263 107.217,114.894 153.127,114.894 199.037,114.894 199.037,133.263 
	"/>
<polygon fill="#A0A0A0" points="153.127,96.525 107.217,96.525 107.217,78.157 153.127,78.157 199.037,78.157 199.037,96.525 "/>
<path fill="#FFFFFF" d="M162.3,256.186v-7.344h-18.36v-3.672h3.672c4.056,0,7.344-3.288,7.344-7.344h-7.344h-7.344h-7.327
	l-7.307,7.307v36.773l17.693,7.329h11.629c4.056,0,7.344-3.288,7.344-7.344h-7.344h-7.344h-3.672v-3.672h18.36v-7.344h-18.36v-3.672
	h18.36v-7.344h-18.36v-3.672H162.3z"/>
<path fill="#0A3160" d="M482.489,133.263c-10.145,0-18.369,8.224-18.369,18.369h-18.369V170h18.369l18.369,18.369V170
	c10.145,0,18.369-8.224,18.369-18.369S492.634,133.263,482.489,133.263z"/>
<polygon fill="#FFFFFF" points="445.752,170 445.752,160.816 445.752,160.816 445.752,197.411 456.773,208.433 471.504,208.433 
	482.489,197.448 482.489,197.411 482.489,188.368 464.12,170 "/>
<path fill="#FFFFFF" d="M482.479,318.491h36.737v0.018h0.001l7.344,7.344v7.327v7.344v7.344c-4.056,0-7.344-3.288-7.344-7.344
	v-3.672h-3.672v18.36h-7.344v-18.36h-3.672v18.36h-7.344v-18.36h-3.672v18.36h-7.344v-18.36h-3.672v3.672v7.344v7.344
	c-4.056,0-7.344-3.288-7.344-7.344v-11.629l7.344-17.73h-0.018V318.491z"/>
<path fill="#FFFFFF" d="M482.479,318.491h36.737v0.018h0.001l7.344,7.344v7.327v7.344v7.344c-4.056,0-7.344-3.288-7.344-7.344
	v-3.672h-3.672v18.36h-7.344v-18.36h-3.672v18.36h-7.344v-18.36h-3.672v18.36h-7.344v-18.36h-3.672v3.672v7.344v7.344
	c-4.056,0-7.344-3.288-7.344-7.344v-11.629l7.344-17.73h-0.018V318.491z"/>
<path fill="#A0A0A0" d="M519.226,208.433H409.015c-20.248,0-36.721-16.473-36.721-36.721v-38.449h-36.721v38.449
	c0,40.496,32.945,73.442,73.441,73.442v91.698h55.106h11.033v-0.613l7.344-17.73h-0.018v-0.018h36.737v0.018h0.001l0.008,0.008
	v-73.363c20.248,0,36.721,16.473,36.721,36.721h0c0,20.222-16.431,36.677-36.644,36.719l7.26,7.26v7.327v3.672h38.575v2.284
	c16.769-13.471,27.531-34.128,27.531-57.262C592.667,241.379,559.722,208.433,519.226,208.433z"/>
<path fill="#FFFFFF" d="M335.573,96.559v7.344v7.344v3.672h3.672V85.543c0-4.056,3.288-7.344,7.344-7.344v7.344v7.344v22.032h3.672
	V81.871c0-4.056,3.288-7.344,7.344-7.344v7.344v7.344v25.704h3.672V92.887v-7.344v-7.344c4.056,0,7.344,3.288,7.344,7.344v29.376
	h3.672v-3.672c0-4.056,3.288-7.344,7.344-7.344v7.344v7.344v7.327l-7.344,7.344h-3.672h-7.344h-3.672h-7.344h-3.672h-7.344h-3.672
	l-7.344-17.73v-11.629C328.229,99.847,331.517,96.559,335.573,96.559z"/>
<polygon fill="#FFFFFF" points="464.12,336.851 363.104,336.851 363.104,461.851 464.12,461.851 565.137,461.851 565.137,336.851 
	"/>
<path fill="#0A3160" d="M519.226,461.851H464.12h-55.106v106.973h22.903l-7.537,18.197h-15.345c-10.14,0-18.36,8.22-18.36,18.36
	h27.541h9.18h4.59h22.95v-36.557h41.243l-7.537,18.197h-15.345c-10.14,0-18.361,8.22-18.361,18.36h27.541h9.18h4.59h22.95v-36.557
	h0.029V461.851z"/>
<polygon fill="#A0A0A0" points="464.12,425.114 418.21,425.114 418.21,406.745 464.12,406.745 510.031,406.745 510.031,425.114 "/>
<polygon fill="#A0A0A0" points="464.12,388.377 418.21,388.377 418.21,370.008 464.12,370.008 510.031,370.008 510.031,388.377 "/>
</svg>
