<?xml version="1.0" encoding="utf-8"?>
<!-- Generator: Adobe Illustrator 16.0.1, SVG Export Plug-In . SVG Version: 6.00 Build 0)  -->
<!DOCTYPE svg PUBLIC "-//W3C//DTD SVG 1.1//EN" "http://www.w3.org/Graphics/SVG/1.1/DTD/svg11.dtd">
<svg version="1.1" id="Layer_1" xmlns="http://www.w3.org/2000/svg" xmlns:xlink="http://www.w3.org/1999/xlink" x="0px" y="0px"
	 width="650px" height="650px" viewBox="0 0 650 650" enable-background="new 0 0 650 650" xml:space="preserve">
<polygon fill="#FFFFFF" points="180.719,68.386 87.814,68.386 87.814,183.348 180.719,183.348 273.623,183.348 273.623,68.386 "/>
<polygon fill="#FFFFFF" points="214.496,468.494 203.938,458.494 193.379,468.494 193.379,550.146 203.938,560.146 214.496,550.146 
	"/>
<polygon fill="#FFFFFF" points="273.623,468.494 263.065,458.494 252.506,468.494 252.506,550.146 263.065,560.146 273.623,550.146 
	"/>
<path fill="#0A3160" d="M193.388,549.996L193.388,549.996l-6.994,16.886h-14.113c-9.326,0-16.886,7.56-16.886,16.886h59.101v-33.772
	H193.388z"/>
<path fill="#0A3160" d="M252.489,549.996L252.489,549.996l-6.994,16.886h-14.113c-9.326,0-16.886,7.56-16.886,16.886h59.101v-33.772
	H252.489z"/>
<path fill="#A0A0A0" d="M121.607,218.694L121.607,218.694L121.607,218.694c-18.66,0-33.788,15.127-33.788,33.788v0h-0.005
	c0,13.411,7.815,24.996,19.139,30.452c0.059,0.028,0.12,0.053,0.18,0.082c0.433,0.205,0.868,0.405,1.311,0.592
	c0.121,0.051,0.246,0.096,0.367,0.146c0.384,0.157,0.768,0.314,1.159,0.457c0.197,0.072,0.399,0.135,0.598,0.204
	c0.32,0.11,0.639,0.225,0.964,0.326c0.267,0.083,0.538,0.154,0.808,0.231c0.263,0.075,0.522,0.155,0.788,0.224
	c0.314,0.081,0.634,0.149,0.953,0.222c0.226,0.051,0.449,0.109,0.676,0.156c0.366,0.075,0.737,0.136,1.107,0.2
	c0.183,0.031,0.363,0.069,0.547,0.098c0.415,0.064,0.834,0.113,1.253,0.162c0.144,0.017,0.286,0.04,0.431,0.055
	c0.46,0.047,0.925,0.08,1.39,0.108c0.107,0.007,0.212,0.019,0.319,0.024c0.496,0.026,0.995,0.037,1.497,0.041
	c0.075,0.001,0.149,0.006,0.225,0.006h0.02c0.021,0,0.041,0.001,0.062,0.001s0.042-0.001,0.062-0.001h33.765l16.827-40.541l9-14.228
	l-9-12.805H121.607z"/>
<polygon fill="#0A3160" points="189.146,218.695 189.146,183.348 172.26,183.348 172.26,252.482 170.26,254 172.26,255.859 
	172.26,262.613 170.26,264.125 172.26,265.99 172.26,272.745 170.26,275 172.26,276.122 172.26,282.876 170.26,284.5 
	172.26,286.253 172.26,323.438 175.26,326.875 172.26,330.191 172.26,333.568 175.26,336.946 172.26,340.323 172.26,343.7 
	175.26,347.25 172.26,350.454 172.26,353.844 172.262,353.844 172.262,468.494 273.624,468.494 273.624,353.844 "/>
<path fill="#0A3160" d="M239.836,166.489c-0.001,0-0.003,0-0.004,0h-16.889h0h-16.894v16.894l0,0l23.718,35.312l13.26,9.197
	l13.703-9.197v-35.312C256.729,174.052,249.166,166.489,239.836,166.489z"/>
<polygon fill="#0A3160" points="184.587,204.843 184.587,224.484 220.683,224.484 220.683,168.748 "/>
<polygon fill="#FFFFFF" points="222.943,183.382 206.049,183.382 206.049,208.592 222.959,225.502 239.836,208.625 239.836,208.592 
	239.836,200.275 "/>
<path fill="#A0A0A0" d="M273.624,218.695L273.624,218.695h-84.477v135.149h84.477v-9.107c20.163-11.706,33.761-33.522,33.761-58.468
	h0.026v-33.787C307.411,233.822,292.283,218.695,273.624,218.695z"/>
<path fill="#FFFFFF" d="M206.049,353.848v-33.787h-0.016v-0.001l-6.754-6.754h-6.739h-6.754h-6.754c0,3.73,3.024,6.754,6.754,6.754
	h3.377v3.377h-16.886v6.754h16.886v3.377h-16.886v6.754h16.886v3.377h-16.886v6.754h16.886v3.377h-3.377h-6.754h-6.755
	c0,3.73,3.024,6.754,6.755,6.754h10.695l16.306-6.754v0.017H206.049z"/>
<polygon fill="#0A3160" points="428.846,183.349 428.846,183.349 441.02,197.476 462.633,200.242 462.633,166.456 445.739,166.456 
	445.739,166.456 428.846,166.456 "/>
<polygon fill="#A0A0A0" points="445.739,183.349 428.846,183.349 428.846,208.559 445.756,225.469 462.633,208.592 462.633,208.559 
	462.633,200.242 "/>
<path fill="#A0A0A0" d="M327.515,115.805v16.886h3.377v-27.018c0-3.73,3.024-6.754,6.754-6.754v6.754v27.018h3.377v-30.395
	c0-3.73,3.024-6.754,6.754-6.754v37.149h3.377V98.919c3.73,0,6.754,3.024,6.754,6.754v27.018h3.377v-3.377
	c0-3.73,3.024-6.754,6.755-6.754v20.248l-21.058,21.057l-19.469-14.303l-6.754-16.307v-10.696
	C320.76,118.829,323.784,115.805,327.515,115.805z"/>
<path fill="#0A3160" d="M496.42,218.695H395.059c-18.622,0-33.772-15.15-33.772-33.772v-35.361h-33.771v35.361
	c0,37.244,30.3,67.544,67.544,67.544v84.334l29.417,13.319l31.411-13.319l40.524-16.886v0.016h0.001l0.008,0.008v-67.472
	c18.622,0,33.771,15.15,33.771,33.772l0,0c0,18.599-15.112,33.732-33.701,33.77l6.676,16.792l11.286,16.078l24.191-13.977
	c15.422-12.39,25.32-31.388,25.32-52.664C563.963,248.995,533.664,218.695,496.42,218.695z"/>
<polygon fill="#A0A0A0" points="496.412,319.931 496.411,319.931 496.411,319.915 462.624,319.915 462.624,319.932 462.64,319.932 
	455.886,336.238 455.886,336.8 472.386,342.169 503.167,336.801 503.167,326.686 "/>
<path fill="#0A3160" d="M496.42,451.763l-50.681-13.659l-50.681,13.659v98.383h21.063l-6.932,16.736h-14.113
	c-9.326,0-16.886,7.56-16.886,16.886h59.101v-33.622h37.932l-6.932,16.736h-14.113c-9.326,0-16.886,7.56-16.886,16.886h59.101
	v-33.622h0.027V451.763z"/>
<polygon fill="#FFFFFF" points="445.739,336.801 352.834,336.801 352.834,451.763 445.739,451.763 538.644,451.763 538.644,336.801 
	"/>
<circle fill="#0A3160" cx="462.633" cy="166.456" r="16.894"/>
<path fill="#FFFFFF" d="M189.156,262.613v-6.754H172.27v-3.377h3.377c3.73,0,6.754-3.024,6.754-6.754h-6.754h-6.754h-6.739
	l-6.72,6.72v33.82l16.272,6.74h10.695c3.73,0,6.754-3.024,6.754-6.754h-6.754h-6.754h-3.377v-3.377h16.886v-6.754H172.27v-3.377
	h16.886v-6.754H172.27v-3.377H189.156z"/>
</svg>
