<?xml version="1.0" encoding="utf-8"?>
<!-- Generator: Adobe Illustrator 18.1.1, SVG Export Plug-In . SVG Version: 6.00 Build 0)  -->
<svg version="1.1" id="Layer_1" xmlns="http://www.w3.org/2000/svg" xmlns:xlink="http://www.w3.org/1999/xlink" x="0px" y="0px"
	 viewBox="0 0 650 650" enable-background="new 0 0 650 650" xml:space="preserve">
<rect x="40.376" y="463.37" fill="#FFFFFF" width="109.142" height="109.142"/>
<path fill="#EEEEEE" d="M40.376,438.045v25.325l109.142,109.142h463.265V438.045H40.376z M326.579,518.135
	c-15.125,0-27.385-12.261-27.385-27.385c0-15.125,12.26-27.385,27.385-27.385c15.123,0,27.384,12.26,27.384,27.385
	C353.963,505.874,341.702,518.135,326.579,518.135z"/>
<path fill="#0A3160" d="M378.065,491.066c0-14.194-5.775-27.067-15.098-36.388l-8.057,8.057
	c7.251,7.251,11.735,17.268,11.735,28.332c0,22.129-17.939,40.066-40.066,40.066c-22.13,0-40.068-17.938-40.068-40.066
	c0-11.064,4.485-21.08,11.735-28.332l-8.057-8.057c-9.323,9.322-15.098,22.194-15.098,36.388c0,19.918,11.377,37.218,27.968,45.777
	c-4.767,2.459-9.111,5.629-12.87,9.388l8.057,8.058c7.249-7.248,17.261-11.733,28.322-11.736h0.01h0.01
	c11.059,0.003,21.071,4.487,28.32,11.736l8.057-8.058c-3.759-3.759-8.102-6.928-12.868-9.387
	C366.688,528.285,378.065,510.986,378.065,491.066z"/>
<polygon fill="#0A3160" points="116.713,293.688 116.713,274.616 154.856,274.616 154.856,312.759 "/>
<polygon fill="#A0A0A0" points="135.784,293.688 116.713,293.688 116.713,322.148 135.803,341.238 154.855,322.186 154.855,322.148 
	154.855,312.759 "/>
<polygon fill="#A0A0A0" points="307.522,293.688 307.522,274.616 345.665,274.616 345.665,312.759 "/>
<polygon fill="#FFFFFF" points="326.593,293.688 307.522,293.688 307.522,322.148 326.612,341.238 345.664,322.186 345.664,322.148 
	345.664,312.759 "/>
<path fill="#0A3160" d="M536.45,255.526c-10.543,0-19.09,8.546-19.09,19.089v0.001h-19.053v19.071l38.143,19.071v-19.052l0,0
	c10.543,0,19.09-8.548,19.09-19.092C555.54,264.072,546.993,255.526,536.45,255.526z"/>
<polygon fill="#FFFFFF" points="517.378,293.688 498.307,293.688 498.307,322.148 517.397,341.238 536.45,322.186 536.45,322.148 
	536.45,312.759 "/>
<polygon fill="#FFFFFF" points="164.391,400.032 107.178,400.032 97.178,358.366 107.178,333.592 164.391,333.592 174.391,357.115 
	"/>
<polygon fill="#FFFFFF" points="355.2,400.032 297.987,400.032 287.987,358.366 297.987,333.592 355.2,333.592 365.2,357.115 "/>
<polygon fill="#FFFFFF" points="545.985,400.032 488.772,400.032 478.772,358.366 488.772,333.592 545.985,333.592 555.985,357.115 
	"/>
<path fill="#A0A0A0" d="M574.592,333.592h-28.607v47.678l-15.95,15.951l-10.284-51.7l4.779-4.777l-7.151-7.151h-0.001l-7.15,7.151
	l4.778,4.777l-10.283,51.7l-15.95-15.952v-47.677h-28.607c-21.076,0-38.161,17.085-38.162,38.161h-0.031l-32.807,38.124
	l128.214,14.084l95.377-14.084v-38.124C612.755,350.677,595.669,333.592,574.592,333.592z"/>
<path fill="#0A3160" d="M421.97,371.753c0-21.076-17.087-38.161-38.163-38.161H355.2v47.678l-15.95,15.951l-10.284-51.7l4.779-4.777
	l-7.151-7.151h-0.001l-7.15,7.151l4.778,4.777l-10.283,51.7l-15.95-15.952v-47.677H269.38c-21.076,0-38.161,17.085-38.162,38.161
	h-0.056c0-21.076-17.087-38.161-38.163-38.161h-28.607v47.678l-15.95,15.951l-10.284-51.7l4.779-4.777l-7.151-7.151h-0.001
	l-7.15,7.151l4.778,4.777l-10.283,51.7l-15.95-15.952v-47.677H78.57c-21.077,0-38.162,17.087-38.162,38.164h-0.031v38.121
	l28.784,4.249l-2.59-4.249v-40.571l25.896-26.431l8.572,8.399L78.57,374.204v35.673l-3.062,5.186l60.275,8.898l95.376-14.084h0.026
	l28.783,4.249l-2.59-4.249v-40.571l25.896-26.431l8.572,8.399l-22.469,22.931v35.673l-3.062,5.186l60.275,8.898l95.376-14.084h0.002
	v-38.124H421.97z"/>
<g>
	<polygon fill="#1D345C" points="460.165,409.877 454.261,419.877 448.165,409.877 448.165,369.306 474.061,342.875 
		482.633,351.274 460.165,374.204 	"/>
</g>
<rect x="15.052" y="409.877" fill="#FFFFFF" width="615.998" height="28.168"/>
<circle fill="#0A3160" cx="327.088" cy="154.18" r="90.47"/>
<path fill="#A0A0A0" d="M368.68,134.562c0-23.215-18.887-42.102-42.102-42.102c-23.215,0-42.102,18.887-42.102,42.102
	c0,20.452,14.662,37.537,34.025,41.316v12.238h-18.068v16.153h18.068v18.068h16.153v-18.068h18.068v-16.153h-18.068v-12.238
	C354.018,172.099,368.68,155.014,368.68,134.562z M300.63,134.562c0-14.308,11.641-25.949,25.949-25.949
	s25.948,11.641,25.948,25.949c0,14.308-11.64,25.948-25.948,25.948S300.63,148.869,300.63,134.562z"/>
</svg>
