<?xml version="1.0" encoding="UTF-8" standalone="no"?>
<svg width="188px" height="70px" viewBox="0 0 188 70" version="1.1" xmlns="http://www.w3.org/2000/svg" xmlns:xlink="http://www.w3.org/1999/xlink">
    <defs></defs>
    <g id="Page-1" stroke="none" stroke-width="1" fill="none" fill-rule="evenodd">
        <g id="Artboard-1-Copy-9" transform="translate(-439.000000, -484.000000)">
            <g id="Group" transform="translate(10.000000, 479.000000)">
                <g id="Imported-Layers" transform="translate(429.000000, 5.000000)">
                    <path d="M156.899725,48.8473684 C154.739537,49.7536842 152.558116,50.6236842 150.358567,51.4610526 C153.756033,56.1226316 159.19405,59.0010526 165.058821,58.9942105 L179.308496,58.9942105 L179.308496,44.0652632 L175.336154,40.0284211 C169.390072,43.23 163.242523,46.1773684 156.899725,48.8473684" id="Fill-1" fill="#183E57"></path>
                    <path d="M187.941994,32.6731579 C178.199658,26.5289474 167.838424,21.1052632 156.899725,16.5005263 C144.233289,11.1847368 130.874413,7.04 116.92357,4.22 C103.54605,1.53105263 89.7163967,0.121578947 75.5625344,0.121578947 C61.4086722,0.121578947 47.5785014,1.53105263 34.2009807,4.22 C18.7212782,7.33157895 5.98544353,18.2 0.0792396694,32.6736842 C5.98544353,47.1478947 18.7212782,58.0163158 34.2009807,61.1278947 C47.5785014,63.8168421 61.4086722,65.2263158 75.5625344,65.2263158 C89.7163967,65.2263158 103.54605,63.8168421 116.92357,61.1278947 C130.874413,58.3078947 144.233289,54.1626316 156.899725,48.8473684 C167.838424,44.2426316 178.199658,38.8189474 187.941994,32.6747368 L187.941994,32.6731579" id="Fill-2" fill="#FFFFFF"></path>
                    <path d="M156.899725,16.5005263 C163.242523,19.1705263 169.390072,22.1178947 175.336154,25.3194737 L179.308496,21.2826316 L179.308496,6.35315789 L165.058821,6.35315789 C159.19405,6.34684211 153.756033,9.22473684 150.358567,13.8868421 C152.558116,14.7247368 154.739537,15.5942105 156.899725,16.5005263" id="Fill-3" fill="#183E57"></path>
                    <path d="M34.2009807,61.1278947 C32.9745785,60.8810526 31.7668209,60.5805263 30.5766722,60.2384211 L34.5474601,69.9810526 L49.7827107,69.9810526 C58.2473719,69.9842105 66.8415096,68.4489474 75.1901598,65.2242105 C61.166292,65.1994737 47.4614545,63.7931579 34.2009807,61.1278947" id="Fill-4" fill="#183E57"></path>
                </g>
            </g>
        </g>
    </g>
</svg>